<svg width="500" height="396" viewBox="0 0 500 396" fill="none" xmlns="http://www.w3.org/2000/svg">
<path opacity="0.5" d="M234.52 386.223C345.661 386.223 435.758 382.151 435.758 377.128C435.758 372.105 345.661 368.034 234.52 368.034C123.379 368.034 33.2817 372.105 33.2817 377.128C33.2817 382.151 123.379 386.223 234.52 386.223Z" fill="#C9C9C9"/>
<g opacity="0.5">
<g opacity="0.5">
<path opacity="0.5" fill-rule="evenodd" clip-rule="evenodd" d="M323.332 0C332.335 0.356909 341.128 0.64747 349.914 1.06798C361.921 1.64361 373.265 4.90933 384.389 8.94744C388.409 10.4071 392.416 11.9354 396.302 13.6856C416.975 23.0001 433.42 36.7017 444.628 55.7341C449.97 64.8056 452.777 74.6494 454.007 84.8932C455.881 100.497 454.013 115.846 449.015 130.72C444.173 145.128 436.191 158.016 425.671 169.488C419.931 175.748 413.59 181.34 406.552 186.254C395.721 193.817 384.927 201.426 374.071 208.956C371.095 211.022 367.908 212.815 364.9 214.842C361.391 217.207 357.82 219.521 354.542 222.152C340.132 233.722 333.141 248.427 334.042 266.361C334.359 272.672 334.799 278.979 335.032 285.292C335.259 291.471 333.259 297.072 329.749 302.256C328.112 304.674 326.09 306.706 323.766 308.522C316.224 314.415 307.698 318.678 298.643 322.041C285.083 327.075 271.051 330.463 256.681 332.671C246.342 334.259 235.967 335.514 225.51 336.156C212.488 336.955 199.466 336.804 186.458 336.021C170.029 335.032 153.71 333.091 137.483 330.468C122.919 328.114 108.368 325.676 94.0563 322.167C77.7059 318.158 61.5004 313.694 46.0019 307.232C36.7878 303.391 28.0792 298.736 20.2631 292.673C11.3879 285.789 5.12976 277.242 1.62851 266.879C-0.124542 261.691 -0.312922 256.388 0.36021 251.085C2.0474 237.794 6.19709 225.272 13.9173 213.919C17.6999 208.356 22.2898 203.439 27.1857 198.755C31.763 194.375 36.458 190.101 40.9113 185.612C43.6721 182.829 46.2044 179.822 48.6194 176.761C54.4747 169.338 56.0936 161.02 54.4505 151.943C53.6069 147.283 52.9628 142.548 52.8049 137.83C52.4398 126.937 55.7769 116.83 60.8496 107.16C65.114 99.0309 70.8284 91.8954 77.4362 85.3677C97.5585 65.4874 120.713 49.6021 147.301 38.311C168.724 29.213 190.374 20.6262 212.643 13.5163C224.597 9.69969 236.904 7.21597 249.397 5.70597C263.003 4.06144 276.633 2.49653 290.299 1.41482C301.338 0.541312 312.445 0.437443 323.332 0Z" fill="#F1ECE8"/>
</g>
</g>
<path fill-rule="evenodd" clip-rule="evenodd" d="M100.52 226.38C95.3128 224.788 90.1591 222.979 84.8807 221.675C80.9666 220.709 76.8956 220.417 72.8512 221.309C66.8522 222.632 62.4558 227.348 61.8184 233.396C61.2335 238.951 63.698 242.177 68.4955 243.618C70.964 244.359 73.5216 244.242 76.0356 243.528C79.3641 242.584 82.0668 240.638 84.6756 238.461C89.7133 234.258 94.3814 229.547 100.52 226.38ZM78.7867 204.507C78.825 199.454 78.9441 194.622 78.8675 189.793C78.8231 186.975 78.7257 184.111 78.1927 181.355C77.1554 175.988 74.5921 171.402 70.0263 168.15C65.7335 165.093 60.5309 164.992 56.3563 167.77C51.8483 170.769 49.6402 176.108 50.7619 181.118C51.1467 182.837 51.8078 184.414 52.9876 185.698C54.5513 187.399 56.0892 189.177 57.8961 190.597C64.4768 195.768 71.7068 199.982 78.7867 204.507ZM107.811 222.815C110.757 221.011 113.374 219.407 115.992 217.805C121.199 214.619 125.074 210.235 127.492 204.664C130.572 197.566 129.578 190.894 124.763 184.856C122.059 181.463 118.09 180.517 114.016 182.011C111.999 182.75 110.327 183.983 108.903 185.571C105.984 188.825 104.613 192.733 104.223 196.999C104.04 199.001 104.006 201.039 104.136 203.046C104.569 209.709 106.473 216.102 107.811 222.815ZM155.458 301.785C155.476 301.614 155.494 301.443 155.512 301.273C151.551 299.575 147.615 297.816 143.623 296.194C137.587 293.741 131.331 292.074 124.816 291.613C119.334 291.226 113.935 291.735 108.894 294.198C105.733 295.742 103.115 297.95 101.564 301.193C97.6849 309.305 103.192 318.91 112.28 320.09C117.598 320.78 122.536 319.502 127.192 317.16C131.388 315.05 135.396 312.56 139.476 310.218C142.909 308.247 146.287 306.177 149.763 304.288C151.579 303.301 153.554 302.61 155.458 301.785ZM139.711 264.381C134.43 262.691 130.366 259.243 125.853 256.564C121.959 254.252 118.052 251.921 113.972 249.971C109.473 247.821 104.656 246.863 99.6302 247.829C92.0827 249.279 86.2557 257.154 88.7521 265.572C90.8414 272.618 97.9308 278.745 105.286 279.416C113.117 280.13 120.383 278.465 126.824 273.799C131.034 270.75 135.22 267.665 139.711 264.381ZM148.827 259.717C153.95 257.96 158.893 256.299 163.81 254.566C166.794 253.514 169.522 251.95 172.002 250.007C179.478 244.15 184.334 236.652 185.562 227.177C186.496 219.971 183.132 213.473 175.247 212.069C172.907 211.652 170.619 211.937 168.378 212.605C162.389 214.392 158.112 218.231 155.152 223.62C152.077 229.22 150.766 235.299 150.346 241.604C150.054 245.986 149.884 250.376 149.574 254.755C149.461 256.364 149.1 257.954 148.827 259.717ZM166.748 339.862C165.859 339.697 165.08 339.559 164.303 339.406C160.655 338.686 156.997 338.013 153.364 337.224C149.074 336.292 144.83 335.141 140.524 334.299C135.684 333.352 130.791 333.052 125.887 334.029C122.469 334.71 119.288 335.947 116.605 338.231C113.13 341.189 111.402 344.977 111.875 349.557C112.744 357.946 119.481 363.783 126.03 365.43C130.436 366.538 134.73 365.868 138.844 363.854C142.575 362.027 145.856 359.551 148.904 356.793C154.778 351.478 160.529 346.026 166.324 340.624C166.472 340.486 166.534 340.255 166.748 339.862ZM174.165 338.853C174.701 339.078 174.961 339.224 175.24 339.298C182.613 341.255 189.969 343.285 197.37 345.127C202.13 346.311 207.019 346.513 211.801 345.432C217.786 344.077 223.099 341.267 227.839 337.331C230.469 335.148 231.929 332.408 232.392 329.138C233.002 324.827 232.106 320.863 228.441 318.14C224.055 314.883 219.115 313.314 213.533 313.867C206.196 314.595 199.643 317.271 193.639 321.385C187.901 325.316 182.627 329.819 177.703 334.719C176.455 335.961 175.401 337.397 174.165 338.853ZM165.469 299.887C171.413 299.946 177.054 300.057 182.694 300.042C187.697 300.028 192.65 299.518 197.439 297.918C206.236 294.979 213.384 289.922 218.091 281.705C219.909 278.532 221.14 275.215 220.99 271.487C220.806 266.916 218.317 263.527 214.001 262.12C208.942 260.47 203.98 261.14 199.164 263.088C192.234 265.89 186.702 270.635 181.726 276.116C175.255 283.245 171.222 292.037 165.469 299.887ZM171.819 337.554C172.283 337.09 172.558 336.853 172.787 336.579C178.725 329.463 185.816 323.642 193.48 318.527C200.061 314.136 207.311 311.463 215.321 311.32C219.931 311.238 224.415 311.847 228.374 314.533C233.621 318.093 235.846 323 235.306 329.313C234.7 336.4 230.509 340.881 224.667 344.068C221.933 345.559 218.979 346.721 216.017 347.71C209.587 349.855 203.018 349.428 196.561 347.912C189.358 346.221 182.238 344.171 175.081 342.283C174.374 342.096 173.656 341.949 172.754 341.739C172.785 342.391 172.761 342.888 172.837 343.37C173.891 350.006 174.963 356.638 176.019 363.273C176.27 364.848 176 365.536 175.143 365.689C174.2 365.856 173.593 365.244 173.331 363.61C172.53 358.597 171.801 353.573 170.999 348.56C170.649 346.376 170.188 344.211 169.712 341.691C168.819 342.416 168.168 342.884 167.585 343.426C162.883 347.801 158.266 352.272 153.474 356.546C150.469 359.225 147.321 361.777 144.03 364.092C139.606 367.205 134.695 369.045 129.129 368.762C119.749 368.285 111.16 361.031 109.215 351.851C107.598 344.216 111.557 336.931 119.161 333.533C124.346 331.217 129.792 330.696 135.385 331.168C140.542 331.603 145.54 332.867 150.57 333.999C155.96 335.211 161.379 336.293 166.791 337.406C167.357 337.522 167.959 337.457 168.822 337.484C166.23 326.046 163.354 314.87 160.04 303.606C156.45 304.634 153.1 305.855 149.976 307.577C146.314 309.597 142.799 311.881 139.148 313.923C134.98 316.255 130.814 318.62 126.497 320.652C121.965 322.785 117.12 323.554 112.077 322.904C102.51 321.671 95.952 312.585 98.0658 303.306C99.105 298.745 101.991 295.49 105.852 293.053C110.282 290.258 115.256 289.351 120.39 289.089C125.362 288.834 130.229 289.598 135.019 290.813C141.267 292.397 147.27 294.673 153.064 297.509C154.797 298.358 156.613 299.04 158.906 300.018C155.199 287.632 150.689 276.122 144.594 264.862C141.743 266.685 139.006 268.322 136.391 270.136C133.384 272.221 130.546 274.55 127.528 276.619C120.421 281.492 112.444 283.029 104.025 281.99C95.3908 280.925 87.3522 273.024 85.7069 264.45C83.918 255.126 90.5426 246.198 100.267 244.848C105.632 244.103 110.647 245.418 115.526 247.499C121.471 250.034 126.732 253.728 132.109 257.229C134.543 258.814 136.906 260.559 139.771 261.344C140.598 261.57 141.448 261.708 142.286 261.887C142.385 261.75 142.483 261.613 142.582 261.475C142.146 260.738 141.729 259.989 141.271 259.265C135.182 249.651 127.165 241.909 117.911 235.397C114.678 233.122 111.299 231.056 108.039 228.818C107.141 228.201 106.321 228.144 105.309 228.336C101.226 229.111 97.7436 231.053 94.5968 233.679C91.3848 236.359 88.1897 239.059 84.9715 241.732C82.1675 244.06 79.0373 245.745 75.4179 246.422C72.3413 246.998 69.2942 246.895 66.3925 245.667C61.1357 243.443 58.5382 238.765 59.2647 233.036C60.2077 225.602 65.4817 219.995 72.8824 218.575C77.6031 217.669 82.2776 218.203 86.8686 219.321C90.2738 220.151 93.5924 221.336 97.1275 222.094C96.6475 221.722 96.1921 221.313 95.6842 220.985C88.718 216.483 82.0925 211.523 75.5398 206.439C72.0804 203.755 68.1769 201.637 64.4439 199.313C60.6377 196.941 56.8644 194.537 53.6707 191.34C51.2562 188.923 49.3259 186.209 48.3835 182.881C46.6262 176.675 48.6646 171.491 53.028 167.186C57.2218 163.049 62.3474 162.044 67.9466 163.891C70.6186 164.772 72.8527 166.413 74.7584 168.47C78.6487 172.67 80.9728 177.64 81.4261 183.324C81.7335 187.179 81.5446 191.072 81.6178 194.947C81.6718 197.78 81.6738 200.621 81.9125 203.44C82.0503 205.071 82.3851 207.403 82.3851 207.403C82.3851 207.403 85.2481 210.693 86.8908 211.763C92.455 215.387 97.9572 219.106 103.495 222.771C103.846 223.003 104.495 223.76 105.15 224.035C104.558 221.24 103.826 218.043 103.26 215.504C101.908 209.44 100.764 203.357 101.393 197.095C101.932 191.729 103.711 186.889 107.714 183.121C111.635 179.429 116.178 177.896 121.505 179.699C123.933 180.522 125.796 182.131 127.261 184.158C132.349 191.195 133.081 198.721 129.46 206.59C126.767 212.441 122.622 217.053 117.084 220.393C115.037 221.628 113 222.881 111.001 224.191C110.29 224.657 109.704 225.314 108.833 226.088C109.831 226.743 110.553 227.229 111.287 227.697C119.615 233.012 127.604 238.75 134.38 246.021C137.856 249.749 140.982 253.743 143.705 258.051C144.136 258.733 144.582 259.405 145.135 260.258C146.361 258.44 146.497 256.548 146.658 254.751C146.998 250.962 147.091 247.152 147.33 243.354C147.729 236.986 148.633 230.735 151.329 224.85C154.884 217.092 160.334 211.544 168.879 209.542C175.884 207.9 182.627 210.567 185.965 216.316C187.991 219.806 188.586 223.63 188.017 227.574C186.644 237.085 181.996 244.803 174.776 251.026C170.335 254.853 165.07 257.106 159.546 258.898C155.855 260.095 152.243 261.535 148.593 262.86C148.104 263.037 147.603 263.179 146.892 263.406C153.235 275.003 157.719 286.93 161.671 299.519C162.586 298.567 163.441 297.893 164.023 297.033C166.11 293.944 168.16 290.827 170.121 287.656C173.229 282.631 176.517 277.748 180.565 273.417C185.197 268.46 190.376 264.203 196.6 261.393C202.412 258.769 208.433 257.752 214.69 259.748C220.354 261.554 223.656 266.043 223.75 271.984C223.825 276.735 222.062 280.889 219.536 284.766C213.054 294.719 203.557 299.965 192.113 302.049C186.721 303.031 181.26 302.827 175.807 302.685C173.048 302.613 170.282 302.63 167.523 302.725C166.052 302.775 164.589 303.075 162.992 303.279C165.944 314.742 168.839 325.983 171.819 337.554Z" fill="#D08F52"/>
<path fill-rule="evenodd" clip-rule="evenodd" d="M354.278 343.958C350.951 332.647 347.114 321.622 342.315 310.955C337.539 300.337 331.456 290.442 325.44 280.514C314.636 262.686 303.889 244.827 294.272 226.316C290.62 219.287 287.157 212.175 285.225 204.431C285.089 203.886 284.855 203.366 284.542 202.479C283.964 203.296 283.551 203.733 283.303 204.25C281.539 207.932 281.058 211.886 281.596 215.844C282.222 220.446 283.014 225.064 284.227 229.541C287.423 241.337 292.966 252.136 298.867 262.763C307.997 279.201 319.151 294.252 330.585 309.104C339.015 320.052 347.442 330.989 353.786 343.348C353.903 343.575 354.112 343.756 354.278 343.958ZM356.857 340.137C356.957 340.114 357.058 340.092 357.158 340.069C357.158 339.661 357.226 339.238 357.148 338.845C355.691 331.522 354.512 324.127 352.683 316.897C349.359 303.765 344.603 291.078 339.867 278.403C333.189 260.531 326.114 242.829 317.215 225.913C313.141 218.17 308.382 210.918 302.419 204.491C299.927 201.804 297.152 199.552 293.436 198.836C291.247 198.414 289.134 198.512 287.402 199.967C289.023 207.507 291.818 214.413 295.199 221.098C302.267 235.069 310.061 248.634 318.079 262.073C322.177 268.943 326.168 275.884 330.47 282.625C341.465 299.854 349.711 318.335 356.015 337.73C356.278 338.538 356.575 339.335 356.857 340.137ZM400.646 126.066C400.33 126.632 400.141 126.919 400.002 127.228C391.883 145.23 386.814 164.134 383.671 183.566C381.817 195.025 380.235 206.533 378.785 218.051C377.422 228.874 376.26 239.726 375.255 250.587C374.331 260.575 373.799 270.598 372.976 280.595C371.87 294.013 370.647 307.421 369.482 320.833C369.271 323.264 368.581 328.229 368.389 330.661C368.922 329.837 369.725 326.473 369.856 325.618C371.832 312.664 373.949 299.73 375.697 286.745C377.151 275.937 378.088 265.06 379.393 254.23C381.247 238.853 385.194 224.009 391.444 209.838C395.24 201.232 399.365 192.77 403.403 184.273C407.985 174.633 410.788 164.524 411.516 153.868C411.932 147.779 411.855 141.721 409.608 135.903C407.925 131.545 405.157 128.183 400.646 126.066ZM364.956 329.268C365.115 329.271 365.274 329.273 365.433 329.276C365.531 328.55 365.659 327.827 365.721 327.098C366.482 318.333 367.237 309.567 367.984 300.801C368.807 291.157 369.607 281.511 370.441 271.868C371.698 257.317 372.762 242.746 374.301 228.226C376.006 212.133 378.098 196.081 380.986 180.145C384.148 162.704 388.486 145.609 395.663 129.331C396.222 128.063 396.673 126.747 397.168 125.47C396.815 125.301 396.667 125.18 396.508 125.164C396.071 125.12 395.63 125.095 395.192 125.108C389.879 125.259 385.343 127.44 381.178 130.545C374.626 135.429 370.337 141.993 367.318 149.463C361.888 162.898 359.519 177.011 358.343 191.353C357.218 205.058 357.281 218.793 357.82 232.523C358.516 250.291 360.062 267.999 361.614 285.708C362.766 298.855 363.656 312.024 364.661 325.183C364.765 326.544 364.858 327.906 364.956 329.268ZM361.959 349.647C361.959 344.288 362.25 338.91 361.904 333.574C360.874 317.683 359.62 301.806 358.403 285.928C357.382 272.594 356.101 259.276 355.276 245.931C354.287 229.938 353.787 213.917 354.681 197.899C355.592 181.593 357.767 165.501 363.612 150.111C366.687 142.014 370.982 134.738 377.786 129.159C381.502 126.111 385.565 123.733 390.264 122.572C399.753 120.228 406.78 124.245 411.073 131.543C413.489 135.65 414.496 140.204 414.746 144.9C415.525 159.461 412.259 173.175 406.016 186.275C401.742 195.242 397.387 204.181 393.475 213.307C387.761 226.636 384.231 240.605 382.529 255.011C381.393 264.619 380.499 274.257 379.344 283.863C376.56 307.016 373.296 330.089 366.523 352.495C365.128 357.11 363.494 361.653 362.006 366.241C361.689 367.22 361.128 367.889 360.115 367.563C359.102 367.238 357.625 367.199 357.576 365.677C357.232 354.711 351.526 345.805 346.351 336.756C341.229 327.803 334.755 319.765 328.477 311.607C316.237 295.705 304.323 279.58 294.716 261.883C288.871 251.116 283.566 240.126 280.475 228.202C278.834 221.873 277.628 215.491 278.595 208.897C278.982 206.255 279.732 203.756 281.187 201.493C284.659 196.094 290.267 194.176 296.309 196.326C299.898 197.603 302.666 200.008 305.178 202.768C310.717 208.852 315.309 215.592 319.199 222.834C326.41 236.257 332.4 250.231 337.941 264.405C344.343 280.783 350.536 297.241 355.321 314.181C358.533 325.55 360.51 337.158 361.511 348.931C361.532 349.185 361.612 349.434 361.665 349.685C361.763 349.672 361.86 349.659 361.959 349.647Z" fill="#A1483A"/>
<path fill-rule="evenodd" clip-rule="evenodd" d="M251.951 164.959C251.915 164.516 252.292 165.669 252.354 166.407C252.95 173.467 253.831 185.898 254.524 192.948C255.224 200.071 256.852 214.598 257.733 221.702C258.817 230.435 259.076 226.707 260.272 235.425C261.489 244.291 262.797 253.144 264.072 262.001C265.209 269.898 266.326 277.799 267.508 285.691C269.156 296.692 270.861 307.685 272.527 318.683C272.822 320.631 273.23 323.828 273.456 325.785C273.71 327.984 276.718 328.249 274.518 328.46C274.153 328.495 273.789 328.532 273.456 328.565L275.033 349.803C276.277 349.803 277.222 349.823 278.167 349.799C283.553 350.344 287.192 350.544 291.894 351.568C295.148 352.276 298.727 353.154 301.445 355.102C304.97 357.627 306.824 361.02 306.885 365.369C306.939 369.208 306.246 372.944 305.305 376.637C304.887 378.275 304.515 378.508 302.753 378.475C293.165 378.297 283.556 378.373 274.031 377.109C266.239 376.075 259.719 373.778 251.951 372.568C251.675 372.525 251.423 372.33 251.117 372.185C251.117 369.919 250.99 367.687 251.138 365.473C251.914 353.865 252.303 341.462 253.133 329.857C253.202 328.887 248.622 326.828 247.314 326.603C246.793 326.197 246.69 325.133 246.589 324.341C245.919 319.089 245.343 313.825 244.657 308.575C243.245 297.779 241.876 286.977 240.32 276.201C238.136 261.071 236.425 251.506 234.396 236.356C233.007 225.986 234.141 212.758 232.029 202.538C231.621 200.566 231.273 198.583 230.873 196.61C230.759 196.046 230.559 195.5 230.397 194.945C230.241 194.949 227.614 192.943 227.458 192.948C226.605 196.764 225.022 202.598 224.099 206.398C221.495 217.119 218.755 227.808 216.222 238.546C211.499 258.576 209.324 274.733 203.708 294.535C198.093 314.337 196.863 318.885 194.168 328.46C193.282 331.608 192.566 334.799 191.912 338.002C191.443 340.299 192.508 339.424 190.393 338.949C187.996 338.411 184.522 337.787 182.07 337.204C180.337 343.21 178.647 349.061 176.904 355.102C177.44 355.284 177.884 355.907 178.509 356.091C183.423 357.54 188.089 359.526 192.311 362.455C193.293 363.136 194.248 363.867 195.144 364.658C199.62 368.609 200.852 373.407 198.832 379.029C198.496 379.962 198.032 380.849 197.644 381.765C197.462 382.192 197.227 382.597 196.958 382.977C193.982 387.181 194.678 385.528 191.912 385.452C189.45 385.384 185.574 385.151 183.156 384.682C179.137 383.901 177.749 382.948 173.888 381.573C170.437 380.343 169.068 380.974 167.312 379.537C162.889 375.918 159.102 371.688 155.41 367.366C154.879 366.744 154.467 366.022 153.998 365.347C152.765 363.576 152.537 361.819 153.315 359.676C156.192 351.755 158.879 343.766 161.63 335.801C161.873 335.098 162.062 334.377 162.321 333.514C160.215 332.825 160.898 331.307 161.217 329.857C167.028 303.485 171.852 278.965 179.764 253.141C187.676 227.318 190.545 210.767 195.896 191.827C198.266 183.439 199.528 174.884 201.585 166.407C201.76 165.685 201.749 166.326 202.066 165.662L251.951 164.959Z" fill="white"/>
<path fill-rule="evenodd" clip-rule="evenodd" d="M252.618 165.376C252.838 166.079 252.958 166.826 253.02 167.564C253.612 174.629 254.096 181.703 254.786 188.758C255.483 195.885 256.321 203 257.198 210.108C258.276 218.846 259.414 227.577 260.605 236.301C261.815 245.172 263.891 254.03 265.16 262.893C266.291 270.795 267.402 278.7 268.578 286.596C270.219 297.604 271.915 308.603 273.572 319.608C273.866 321.558 274.659 324.757 274.884 326.715C275.051 328.171 275.205 328.76 274.465 328.831L275.193 349.815C276.431 349.815 277.372 349.835 278.311 349.812C283.67 350.357 287.29 350.557 291.97 351.581C295.207 352.29 298.769 353.169 301.472 355.118C304.979 357.645 306.825 361.039 306.885 365.392C306.939 369.232 306.25 372.97 305.313 376.666C304.897 378.305 304.527 378.538 302.774 378.505C293.234 378.327 283.673 378.403 274.196 377.138C266.443 376.103 258.729 374.779 250.999 373.569C250.725 373.526 250.475 373.331 250.17 373.185C250.17 370.918 250.044 368.684 250.191 366.469C250.964 354.854 251.029 343.244 251.854 331.633C251.888 331.15 251.806 329.31 251.806 329.319C251.806 329.327 248.137 329.432 247.482 329.319C246.964 328.912 244.434 316.283 243.751 311.03C242.346 300.227 240.984 289.418 239.436 278.636C237.263 263.497 235.141 248.404 233.123 233.246C231.741 222.87 231.408 212.688 229.306 202.462C228.901 200.49 228.555 198.505 228.157 196.531C228.043 195.967 227.844 195.42 227.683 194.865C227.527 194.869 227.548 194.868 227.393 194.873C226.543 198.691 225.752 202.523 224.834 206.325C222.243 217.052 218.742 227.748 216.222 238.492C211.523 258.534 208.905 278.514 203.318 298.327C200.617 307.903 198.362 317.385 195.68 326.966C194.798 330.116 194.086 333.309 193.435 336.514C192.969 338.812 192.309 339.43 190.205 338.956C187.819 338.417 185.445 337.826 183.006 337.244C181.281 343.253 179.601 349.108 177.866 355.152C178.399 355.334 179.007 355.566 179.629 355.75C184.519 357.2 189.161 359.187 193.361 362.118C194.338 362.8 195.289 363.531 196.18 364.322C200.633 368.276 201.859 373.076 199.849 378.702C199.516 379.636 199.054 380.523 198.667 381.44C198.486 381.868 198.252 382.273 197.985 382.653C195.023 386.859 195.145 386.22 192.392 386.144C189.943 386.076 186.086 385.843 183.681 385.373C179.681 384.591 177.052 383.996 173.21 382.619C169.777 381.389 168.986 381.006 167.239 379.568C162.838 375.946 159.071 371.714 155.397 367.389C154.869 366.767 154.459 366.044 153.993 365.369C152.766 363.597 152.538 361.839 153.313 359.694C156.176 351.769 158.849 343.775 161.586 335.805C161.828 335.102 162.016 334.38 162.274 333.517C160.178 332.828 160.899 331.327 161.176 329.858C166.213 303.061 171.333 278.434 178.293 252.055C183.681 231.636 187.673 212.383 194.571 190.612C197.181 182.375 197.884 177.935 199.93 169.453C200.105 168.731 200.3 168 200.615 167.335C200.731 167.09 201.259 166.862 201.533 166.923C201.789 166.98 202.066 167.405 202.137 167.714C202.216 168.053 202.107 168.453 202.018 168.812C199.191 180.25 196.688 191.781 193.452 203.102C186.955 225.829 181.534 248.016 175.705 271.117C170.506 291.72 165.627 315.751 163.847 326.593C163.592 328.144 163.167 329.639 162.832 331.131C172.246 333.099 181.552 335.045 191.09 337.04C191.231 336.679 191.511 336.171 191.631 335.628C194.459 322.868 198.024 310.537 201.52 297.967C206.877 278.708 209.436 259.329 213.99 239.864C216.47 229.262 219.986 218.722 222.517 208.133C223.818 202.694 224.918 197.206 226.107 191.74C226.58 189.562 226.573 189.528 228.785 189.171C230.55 188.886 232.327 188.67 234.104 188.47C235.919 188.265 236.374 188.729 236.123 190.612C235.857 192.608 235.472 194.587 235.189 196.581C234.527 201.234 233.736 203.985 233.123 208.645C233.038 209.29 233.049 215.128 233.123 215.787C234.648 229.433 235.189 234.831 236.047 240.8C236.905 246.769 238.597 259.37 239.932 268.674C241.447 279.235 242.84 289.814 244.223 300.393C245.345 308.976 246.531 315.592 247.482 321.111C248.157 325.029 249.049 326.71 249.189 327.364C256.928 327.403 265.16 327.689 273.094 327.364C272.834 325.203 272.251 323.149 271.945 321.111C269.524 304.954 267.032 288.806 264.662 272.64C262.66 258.984 259.937 245.318 258.113 231.636C256.359 218.472 254.71 205.293 253.189 192.1C252.471 185.877 252.164 179.607 251.667 173.36C251.495 171.202 251.302 169.047 251.129 166.89C251.094 166.447 251.015 165.977 251.124 165.564C251.201 165.275 251.543 164.898 251.806 164.863C252.061 164.829 252.54 165.128 252.618 165.376ZM155.142 360.663C154.522 362.572 154.48 362.778 155.597 364.334C159.577 369.879 164.198 374.832 169.607 379.005C170.526 379.713 171.702 380.147 172.801 380.539C177.84 382.336 177.544 382.484 183.416 383.408C185.649 383.886 191.233 384.504 193.528 384.527C193.866 384.452 195.177 383.747 196.15 382.215C195.658 382.109 195.17 382.203 194.904 382.174C191.794 381.834 188.685 381.481 185.572 381.171C180.667 380.685 175.699 378.789 172.116 376.272C166.823 372.132 161.654 367.86 157.176 362.815C156.543 362.101 155.866 361.427 155.142 360.663ZM195.677 366.589C190.357 367.815 187.695 371.584 186.83 379.404C188.647 379.602 190.337 379.791 192.027 379.971C193.708 380.149 195.39 380.319 196.946 380.48C200.026 375.161 199.326 369.447 195.677 366.589ZM161.311 342.762C159.411 348.095 157.59 353.204 155.731 358.422C156.801 359.613 157.84 360.77 158.878 361.927C163.282 366.832 168.319 371.026 173.55 374.997C176.585 376.867 180.815 378.887 184.791 379.098C185.348 376.009 185.855 373.85 186.977 371.205C188.161 368.411 190.829 366.097 194.168 364.939C192.641 363.91 190.474 362.516 188.863 361.709C188.606 361.805 188.294 362.113 186.946 363.29C185.87 364.23 185.015 364.675 183.813 365.612C182.836 366.374 182.344 367.083 181.29 366.627C180.632 366.25 181.044 365.38 182.508 364.181C183.923 363.021 185.152 362.025 186.869 360.672C185.566 359.913 184.785 359.556 183.78 359.129C182.84 358.729 181.808 358.531 181.808 358.531C181.198 358.949 180.959 359.16 180.508 359.573C179.353 360.628 178.149 361.63 176.968 362.657L176.911 362.706C176.08 363.43 174.895 362.333 175.568 361.46C176.638 360.074 178.083 359.083 179.575 357.629C177.929 356.935 176.699 356.731 176.606 356.795C176.105 357.141 175.342 357.559 174.484 358.465C173.628 359.293 172.756 360.114 171.82 360.846C171.759 360.895 171.685 360.927 171.603 360.95C171.034 361.105 170.45 360.626 170.479 360.037C170.483 359.949 170.499 359.867 170.531 359.791C170.725 359.336 171.129 358.939 171.516 358.603C172.528 357.726 173.602 356.917 174.609 356.035C175.095 355.609 175.683 355.149 175.891 354.582C176.703 352.362 177.383 350.093 178.181 347.626C172.481 345.983 166.949 344.388 161.311 342.762ZM252.076 366.347C251.99 368.191 251.911 369.869 251.828 371.641C268.978 375.271 286.013 376.911 303.414 376.565C303.824 374.735 304.208 373.02 304.657 371.015C286.862 371.38 269.563 369.227 252.076 366.347ZM297.233 354.813C293.241 357.158 289.202 363.447 288.315 368.807C293.785 369.365 299.232 369.285 304.634 369.156C306.227 361.3 302.698 357.346 297.233 354.813ZM253.611 344.967C253.138 351.475 252.676 357.823 252.204 364.321C263.59 366.67 274.818 367.755 286.167 368.708C287.69 362.954 290.433 358.088 295.109 353.698C292.643 353.195 291.089 352.927 288.824 352.556C288.284 352.42 287.246 352.388 287.246 352.388C286.891 352.56 286.798 352.926 286.532 353.341C285.727 354.595 284.935 355.86 284.072 357.073C283.596 357.743 283.451 358.93 282.228 358.662C281.531 358.509 281.621 357.556 282.481 356.144C283.282 354.831 284.122 353.543 284.967 352.207C282.678 351.827 281.449 351.667 281.157 351.889C280.767 352.184 280.423 352.882 279.939 353.571C279.127 354.729 278.427 355.968 277.588 357.106C277.082 357.791 276.803 359.323 275.568 358.497C274.546 357.813 275.61 356.895 276.024 356.188C276.874 354.734 277.811 353.333 278.742 351.862C277.021 351.797 275.211 351.392 274.922 351.706C274.557 352.101 273.909 353.087 273.462 353.838C272.741 355.053 271.883 356.187 271.075 357.35C270.822 357.714 270.588 358.131 270.242 358.377C270.002 358.548 269.486 358.61 269.271 358.462C269.042 358.304 268.885 357.817 268.941 357.519C269.019 357.102 269.286 356.702 269.536 356.338C270.547 354.863 271.593 353.413 272.601 351.935C272.927 351.456 273.403 350.925 273.414 350.41C273.453 348.5 273.327 346.587 273.26 344.573C266.608 343.97 260.189 344.148 253.611 344.967ZM165.485 349.864C167.969 349.864 169.888 351.859 169.911 354.465C169.937 357.308 167.581 359.838 164.828 359.925C162.345 360.004 160.178 357.783 160.226 355.209C160.277 352.443 162.814 349.865 165.485 349.864ZM261.297 347.93C263.946 347.973 265.943 350.044 265.995 352.803C266.055 355.922 263.359 358.767 260.346 358.766C257.638 358.765 255.517 356.551 255.535 353.744C255.557 350.565 258.218 347.88 261.297 347.93ZM165.504 351.813C163.741 351.791 162.127 353.375 162.066 355.187C162.015 356.682 163.135 357.931 164.596 358.007C166.403 358.102 168.126 356.38 168.114 354.493C168.104 352.933 167.032 351.833 165.504 351.813ZM261.092 349.749C259.157 349.811 257.395 351.689 257.36 353.723C257.331 355.486 258.651 356.898 260.336 356.903C262.352 356.909 264.192 354.94 264.158 352.812C264.129 351.014 262.807 349.694 261.092 349.749ZM180.912 337.321C174.65 337.679 168.739 338.018 162.712 338.363C162.452 339.234 162.208 340.048 161.925 340.995C167.578 342.626 172.989 344.188 178.739 345.847C179.491 342.896 180.175 340.211 180.912 337.321ZM272.206 330.694C271.559 330.904 271.127 330.995 270.739 331.179C265.63 333.605 260.548 336.091 255.411 338.455C254.49 338.879 253.47 339.504 253.47 339.504C253.292 340.904 253.284 341.015 253.133 342.72C259.623 342.588 265.975 342.46 272.488 342.328C272.559 338.5 272.567 334.671 272.206 330.694Z" fill="black"/>
<path fill-rule="evenodd" clip-rule="evenodd" d="M222.142 49.1412L224.155 49.0225C230.396 48.6705 233.784 48.6976 234.32 49.1037C240.903 58.0068 243.257 66.7897 241.382 75.4526C240.979 77.3106 234.819 78.46 222.899 78.9007L222.536 78.9138L223.847 91.2631C223.993 91.8341 224.071 92.442 224.071 93.0726C224.071 96.3854 221.905 99.071 219.234 99.071C216.562 99.071 214.396 96.3854 214.396 93.0726C214.396 92.7395 214.418 92.4127 214.46 92.0943L213.829 92.0945L213.8 91.0105C213.476 79.49 212.906 73.2115 212.09 72.1748C202.73 72.1748 202.73 67.4762 203.243 64.9175C203.756 62.3589 209.14 61.315 210.05 61.315C208.811 49.1282 211.959 49.7268 222.142 49.1412Z" fill="white"/>
<path fill-rule="evenodd" clip-rule="evenodd" d="M228.165 30.5978C229.863 31.5939 231.022 33.0668 231.699 34.9167C231.841 35.3041 231.982 35.6914 232.205 36.2998C232.625 35.9263 232.841 35.7491 233.04 35.5544C235.099 33.5455 237.494 32.9221 240.195 33.9736C242.948 35.0452 244.375 37.2352 244.764 40.068C245.282 43.8393 243.419 47.2204 240.017 48.9271C238.978 49.448 237.904 49.8728 236.8 50.1618L236.728 50.0561C241.754 57.3146 244.349 65.1818 242.609 74.1001C242.528 74.5127 242.379 74.9121 242.299 75.3246C242.025 76.7247 241.215 77.4825 239.79 77.7832C235.112 78.7689 230.418 79.5955 225.62 79.6531C224.926 79.6613 224.23 79.6543 223.265 79.6543C223.638 81.2573 223.977 82.6493 224.281 84.0494C224.393 84.5603 225.574 92.0611 225.121 92.1556C224.407 92.305 223.611 92.3618 223.577 91.44C223.539 90.4176 222.726 84.3045 222.492 83.2944C222.384 82.8227 221.052 82.1555 220.168 81.2665C219.532 80.6264 219.006 79.8497 218.558 79.0622C218.355 78.7058 217.998 77.8157 218.156 77.4422C218.242 77.2367 219.231 77.4357 219.592 77.5018C223.295 78.1795 227.008 78.1222 230.711 77.6094C233.489 77.2248 236.246 76.6849 239.016 76.2313C240.045 76.0626 240.554 75.4937 240.782 74.4643C241.693 70.3432 241.555 66.5565 240.549 62.181C239.59 58.0101 237.155 53.8925 234.59 50.5433C234.24 50.5725 233.889 50.586 233.535 50.5831C229.111 50.5471 224.688 50.311 220.264 50.2197C218.443 50.1821 216.615 50.2619 214.797 50.3787C214.185 50.4178 213.576 50.6988 212.993 50.936C210.478 51.9612 210.244 52.3954 210.801 55.0896C211.214 57.0842 211.701 59.0633 212.089 61.0621C212.172 61.4855 212.172 61.7176 211.774 62.119C211.109 62.2772 211.157 62.3835 210.93 62.2905C210.891 62.3088 210.848 62.3217 210.802 62.3283C210.459 62.3778 210.132 62.4219 209.806 62.4188C208.255 62.4041 206.925 62.9842 205.713 63.8798C204.493 64.7818 203.853 65.9475 204.109 67.5233C204.379 69.1863 205.167 70.4722 206.837 70.9332C207.904 71.2277 209.042 71.2919 210.155 71.3902C210.91 71.4568 211.676 71.4026 212.636 71.4026C212.789 72.2679 213 73.0667 213.061 73.877C213.387 78.2226 214.237 86.562 214.509 90.9115C214.552 91.6135 215.028 92.7292 213.985 92.8844C212.774 93.0651 212.915 91.8527 212.854 91.0663C212.597 87.7165 211.981 81.5575 211.618 77.3002L211.664 77.3495C210.712 76.3153 209.272 74.7316 208.426 73.6061C208.345 73.4979 208.094 73.2318 207.893 72.9651L207.95 72.973C204.398 72.5315 202.356 70.1886 202.4 66.7257C202.414 65.5772 202.734 64.5695 203.44 63.7105L203.459 63.7425C201.484 60.2746 199.946 56.6593 200.629 52.5417C201.168 49.2998 202.985 46.7831 205.793 45.1876C207.912 43.9836 210.24 43.1295 212.518 42.2301C214.475 41.4581 216.496 40.8513 218.483 40.1551C219.885 39.664 220.644 38.6791 220.773 37.1798C220.863 36.1307 221.031 35.0881 221.169 34.0432C221.661 30.3195 224.926 28.6973 228.165 30.5978Z" fill="black"/>
<path fill-rule="evenodd" clip-rule="evenodd" d="M210.713 90.0787L199.863 91.6714L183.145 99.7631L176.169 109.041L170.096 123.585L165.665 139.9L162.926 149.105L163.857 158.108L166.073 164.892L175.277 169.231H192.432L205.453 168.519L209.055 170.8L214.943 173.567L227.841 175.696H245.484L265.638 169.673L266.465 165.433L280.577 157.048L303.48 141.709L302.029 136.283L326.064 128.426L327.399 125.849L325.69 124.887L326.064 122.461L323.425 121.449L322.553 118.187L309.55 122.024L311.509 117.531L310.344 116.335L297.275 125.541L292.099 122.461L274.255 127.985L272.612 125.028L268.51 112.916L261.3 101.271L251.76 93.2805L241.657 90.5746L226.326 89.014L224.448 88.3522C218.593 88.1196 214.84 88.2328 213.189 88.6919C211.539 89.151 210.713 89.6132 210.713 90.0787Z" fill="white"/>
<path fill-rule="evenodd" clip-rule="evenodd" d="M225.984 87.91C232.672 88.8048 239.366 89.6628 246.037 90.672C249.88 91.2534 253.239 93.0358 256.154 95.5832C260.467 99.3519 264.112 103.647 267.161 108.552C270.556 114.013 272.861 119.802 274.075 126.074C274.127 126.343 274.239 126.6 274.393 127.081C275.199 126.848 275.946 126.656 276.685 126.402C281.016 124.916 285.357 123.457 289.762 122.211C293.785 121.073 293.151 120.581 296.4 123.837C296.695 124.132 296.979 124.438 297.444 124.922C298.983 123.8 300.524 122.732 302.003 121.584C303.614 120.333 305.128 118.957 306.759 117.735C307.647 117.07 308.665 116.558 309.673 116.078C310.401 115.732 311.206 115.726 311.826 116.371C312.478 117.05 312.549 117.88 312.212 118.727C311.954 119.376 311.625 119.998 311.163 120.983C312.421 120.644 313.458 120.407 314.466 120.082C316.156 119.536 317.823 118.924 319.506 118.357C319.922 118.217 320.346 118.099 320.777 118.015C323.208 117.542 324.423 118.354 323.993 120.659C324.388 120.807 325.343 120.922 325.722 121.19C326.215 121.539 326.808 122.162 326.891 122.651C327 123.294 326.51 124.698 326.51 124.698C327.641 125.1 327.675 125.293 328.013 125.817C328.18 126.075 328.283 126.378 328.258 126.684C328.233 126.995 328.1 127.173 327.986 127.463C327.338 129.113 325.983 129.847 324.359 130.381C318.088 132.443 311.844 134.585 305.595 136.713C304.936 136.938 304.313 137.267 303.583 137.586C303.933 138.892 304.232 140.166 304.624 141.411C304.857 142.15 304.615 142.642 304.053 143.047C303.197 143.664 302.345 144.29 301.46 144.863C292.486 150.671 283.533 156.513 274.509 162.243C272.093 163.776 269.457 164.959 266.854 166.339C266.848 167.03 267.036 167.862 266.793 168.54C266.355 169.765 265.7 170.759 264.279 171.356C255.806 174.913 246.991 176.634 237.827 176.928C229.549 177.193 221.353 176.769 213.432 174.213C209.771 173.031 206.276 171.327 202.723 169.82C201.932 169.485 201.224 169.289 200.318 169.441C194.062 170.493 187.749 171.021 181.419 170.582C178.357 170.369 175.246 169.881 172.314 168.998C166.495 167.244 162.779 161.878 162.575 155.333C162.439 150.964 163.034 146.671 164.238 142.45C165.839 136.842 167.275 131.186 168.882 125.58C170.593 119.616 173.037 113.946 175.897 108.438C178.678 103.085 182.709 99.0558 187.97 96.1367C193.373 93.1387 199.063 91.051 205.158 90.0096C207.082 89.681 208.954 89.0488 210.849 88.5544C211.393 88.4124 211.927 88.2131 212.48 88.1323C213.641 87.9621 214.001 88.2293 214.151 89.4118C214.354 91.0088 214.497 92.6128 214.678 94.3328C218 95.7263 220.91 95.181 223.874 93.4749C223.771 92.011 223.667 90.5397 223.554 88.9272C223.514 88.3654 223.952 87.882 224.515 87.869C225.053 87.8562 225.523 87.8483 225.984 87.91ZM261.633 145.903C261.354 147.628 259.711 149.186 261.256 150.513C260.641 151.604 260.802 152.859 260.548 153.882C260.098 155.691 259.07 156.484 257.29 156.529C256.312 156.554 255.389 156.573 254.76 157.643C254.482 158.116 253.63 158.251 252.97 158.572C252.655 157.919 252.455 157.506 252.245 157.071C250.079 157.257 247.984 157.437 246.114 157.598C244.6 159.154 244.323 161.968 241.266 161.258C241.102 161.22 240.876 161.398 240.693 161.5C236.149 164.038 231.274 164.159 226.345 163.244C223.585 162.731 221.098 163.064 218.485 163.384C216.938 163.573 217.259 164.924 217.239 165.839C217.211 167.193 216.621 168.579 217.683 169.843C217.857 170.05 217.641 170.584 217.605 170.967C217.172 170.876 216.65 170.905 216.328 170.664C215.912 170.354 215.657 169.828 215.35 169.419C214.363 169.644 213.473 169.833 212.591 170.052C211.684 170.278 210.784 170.532 209.882 170.774C210.538 171.433 211.221 171.744 211.925 171.997C212.642 172.254 213.38 172.455 213.726 172.562C214.726 172.129 215.371 171.85 216.016 171.571C216.152 172.131 216.288 172.69 216.479 173.479C230.099 176.295 243.671 176.059 257.675 172.057C256.98 171.421 256.565 171.147 256.303 170.768C256.097 170.469 255.899 169.951 256.027 169.694C256.169 169.409 256.705 169.135 257.032 169.173C257.471 169.225 257.943 169.508 258.277 169.823C258.726 170.246 259.055 170.795 259.509 171.385C261.087 170.749 262.645 170.121 264.204 169.494C265.037 169.159 265.325 168.582 265.231 167.669C264.976 165.225 264.792 162.774 264.602 160.324C264.505 159.057 264.325 157.955 263.145 157.061C261.834 156.069 262.013 155.336 263.404 154.29C263.562 154.17 263.669 153.982 263.871 153.742C263.394 151.449 262.912 149.116 262.418 146.784C262.376 146.586 261.581 144.251 261.633 145.903ZM239.711 170.854C239.967 171.128 240.488 171.496 240.43 171.658C240.225 172.225 239.823 172.722 239.253 173.633C238.852 172.791 238.42 172.285 238.537 172.048C238.77 171.572 239.302 171.244 239.711 170.854ZM233.138 171.011C233.464 171.05 233.735 171.544 234.181 171.988C233.636 172.309 233.191 172.72 233.04 172.631C232.641 172.397 232.369 171.946 232.047 171.582C232.413 171.373 232.802 170.971 233.138 171.011ZM228.747 89.8847C228.232 90.8379 227.804 91.6308 227.372 92.4308C227.541 92.7215 227.72 92.9478 227.812 93.2053C228.256 94.4463 227.516 95.5533 226.357 95.1286C225.157 94.6881 224.39 95.1804 223.467 95.6236C217.916 98.2893 212.281 96.2232 209.715 92.3836C209.121 91.4948 208.382 91.1995 207.387 91.3801C206.767 91.4927 206.149 91.6183 205.481 91.7481C205.362 92.0005 205.257 92.2534 205.128 92.4935C204.513 93.6391 203.896 93.9187 203.043 93.0738C202.103 92.143 201.338 92.5163 200.69 92.7475C200.253 93.6326 200.096 94.5915 199.577 94.8689C198.538 95.4229 198.505 93.8886 197.59 93.4444C194.931 94.6923 192.195 95.9577 189.481 97.2669C188.995 97.5014 188.367 97.8423 188.224 98.273C188.096 98.6621 188.585 99.2301 188.714 99.7415C188.791 100.046 188.804 100.607 188.662 100.678C188.346 100.833 187.805 100.909 187.55 100.734C187.006 100.36 186.586 99.806 186.092 99.3033C185.63 99.6286 185.216 99.8937 184.831 100.196C184.278 100.63 183.782 101.146 183.197 101.528C182.61 101.912 181.737 102.719 181.858 103.065C181.981 103.421 182.385 103.849 182.481 104.244C182.483 104.253 182.484 104.266 182.485 104.282C182.491 104.725 181.998 105.004 181.605 104.801C181.234 104.61 180.844 104.376 180.595 104.358C180.434 104.518 180.376 104.562 180.335 104.619C176.153 110.458 173.518 117.039 171.214 123.771C171.06 124.222 171.243 124.844 171.408 125.34C172.038 127.243 171.475 128.505 169.536 129.276C169.381 129.978 169.218 130.715 169.081 131.338C169.655 132.16 171.283 131.903 170.866 133.218C170.499 134.374 169.284 133.656 168.277 133.925C167.257 138.046 166.225 142.264 165.166 146.476C164.424 149.428 163.999 152.413 164.251 155.458C164.574 159.371 165.91 162.801 168.996 165.35C170.401 164.648 171.959 164.925 173.097 163.871C173.301 163.682 173.974 164.002 174.366 164.075C174.931 166.637 174.129 166.673 171.652 166.918C173.061 168.171 179.087 169.122 181.075 168.481C180.66 168.114 180.12 167.834 179.921 167.398C179.831 167.203 179.874 166.948 179.942 166.682C180.029 166.339 180.37 166.119 180.717 166.194C180.935 166.24 181.147 166.297 181.343 166.39C181.663 166.543 181.938 167.097 182.177 167.063C183.581 166.867 184.057 167.661 184.164 168.902C187.432 169.23 191.515 168.894 194.655 168.556C195.001 168.518 194.359 167.159 195.378 166.641C196.469 166.353 195.94 166.863 197.236 167.721C197.547 167.926 197.977 168.075 198.314 168.026C200.25 167.743 202.642 167.321 204.665 166.971C204.691 165.693 205.131 164.624 206.385 164.652C207.13 164.669 207.859 165.345 208.596 165.725C208.567 165.841 208.537 165.957 208.508 166.073C209.224 165.863 209.939 165.653 210.654 165.444C210.494 164.116 210.531 163.027 211.942 162.568C212.143 162.503 212.359 162.162 212.383 161.929C212.506 160.726 212.57 159.517 212.657 158.273C211.775 158.624 211.091 159.153 210.551 159.033C210.068 158.926 209.744 158.103 209.3 157.533C206.362 157.466 203.342 157.407 200.323 157.325C199.776 157.311 198.542 157.09 198.023 157.146C197.489 157.203 197.746 158.001 197.234 158.451C196.405 159.182 195.704 158.504 195.671 156.768C195.571 156.462 195.263 156.432 195.035 156.306C193.594 155.504 193.417 154.095 193.211 152.698C192.955 150.966 192.725 149.231 192.469 147.385C191.909 147.232 191.385 146.991 190.85 146.962C189.518 146.89 188.18 146.948 186.846 146.889C186.056 146.854 184.859 147.077 184.861 145.938C184.862 144.809 186.031 145.256 186.712 145.238C188.515 145.188 190.32 145.234 192.12 145.242C192.13 142.572 192.1 142.561 189.698 142.293C189.42 142.262 189.154 142.132 188.891 141.995C188.615 141.851 188.449 141.559 188.464 141.248C188.499 140.558 188.515 139.942 188.632 139.346C188.701 138.99 189.03 138.469 189.309 138.421C189.718 138.351 190.32 138.513 190.6 138.805C190.999 139.22 191.223 140.211 191.498 140.746C191.671 140.699 191.743 140.855 191.916 140.808C191.714 137.785 191.352 134.26 191.156 131.336C190.563 130.599 189.04 131.099 189.259 129.9C189.376 129.257 190.259 128.752 190.917 128.058C190.88 127.168 190.944 126.708 190.73 124.942C190.527 120.829 190.619 120.337 190.407 118.133C190.324 115.639 190.128 115.462 190.138 113.707C190.146 112.144 189.731 110.562 190.003 108.966C190.096 108.412 190.517 107.968 191.061 107.831L192.429 107.487C192.587 105.386 192.73 104.759 193.53 104.767C194.001 104.772 194.392 105.186 194.341 105.654C194.331 105.749 194.33 105.844 194.343 105.936C194.429 106.509 194.469 107.386 194.814 107.557C195.36 107.828 196.775 107.692 197.453 107.639C197.603 107.627 197.198 106.648 197.362 106.613C197.848 106.508 198.514 106.822 198.681 107.033C199.466 108.022 200.529 107.857 201.543 107.931C202.969 108.034 204.399 108.113 205.829 108.095C208.362 108.063 209.028 108.31 208.82 107.174C208.705 106.551 209.925 106.432 210.179 107.082C210.646 108.277 211.544 108.076 212.417 108.074C213.47 108.072 216.197 107.941 217.246 108.003C218.69 108.09 218.055 107.708 219.029 106.46C219.061 106.42 219.386 106.399 219.701 106.389C220.001 106.38 220.266 106.562 220.391 106.834C220.778 107.67 221.393 107.97 221.393 107.97C222.514 107.91 224.573 107.84 225.522 107.808C226.353 106.97 227.031 106.193 227.818 105.55C228.042 105.367 228.696 105.434 228.946 105.639C229.187 105.837 229.288 106.383 229.223 106.734C229.151 107.127 228.824 107.473 228.545 107.944C229.186 107.955 229.61 108.002 230.026 107.962C231.501 107.821 233.038 108.293 234.401 107.121C235.033 106.578 235.994 106.951 236.752 107.477C237.227 107.807 237.806 108.156 238.355 108.186C241.022 108.334 243.694 108.412 246.365 108.431C246.921 108.435 247.48 108.084 248.036 107.891C248.675 107.67 249.34 107.222 249.939 107.299C250.319 107.347 250.599 108.174 250.892 108.607L255.055 108.898C255.197 108.098 255.398 107.377 255.432 106.647C255.471 105.821 255.895 105.441 256.62 105.548C257.39 105.661 257.544 106.167 257.336 106.959C257.16 107.627 257.291 108.376 257.285 109.148C259.334 109.122 261.111 109.87 262.926 109.016C263.298 108.841 263.961 109.192 264.451 109.393C264.861 109.561 265.214 109.866 265.593 110.109C265.73 109.977 265.713 109.993 265.85 109.86C265.279 108.857 264.708 107.853 264.223 107C263.294 106.822 262.403 106.896 261.865 106.496C260.821 105.72 262.247 105.149 262.347 104.513C261.335 103.165 260.539 101.754 258.589 101.925C258.207 101.959 257.779 101.478 257.271 101.174C257.566 100.612 257.805 100.156 258.136 99.5221C256.27 97.9705 254.406 96.4215 252.136 94.5345C252.057 95.6675 252.088 96.2768 251.95 96.8452C251.848 97.2641 251.606 97.7585 251.27 97.9673C251.086 98.0814 250.401 97.765 250.252 97.4803C249.946 96.8975 249.717 96.2077 249.705 95.5574C249.695 94.9841 250.024 94.4054 250.221 93.7702C249.685 93.5337 249.253 93.3026 248.795 93.1506C248.065 92.9095 247.318 92.7219 246.913 92.6066C245.821 93.0808 245.039 93.6549 244.215 93.7234C243.009 93.8234 242.727 92.7511 242.69 91.7639C237.944 91.1245 233.361 90.5068 228.747 89.8847ZM252.193 170.694C252.494 170.741 252.739 171.148 253.172 171.538C252.735 171.948 252.426 172.464 252.109 172.47C251.802 172.476 251.283 171.994 251.217 171.656C251.096 171.037 251.55 170.594 252.193 170.694ZM190.24 164.312C190.673 165.052 191.088 165.803 191.622 166.746C190.55 167.825 190.405 167.85 189.569 167.06C188.485 166.036 188.094 164.665 188.691 163.975C189.098 163.503 189.859 163.66 190.24 164.312ZM221.245 165.068C221.645 165.232 221.88 165.279 221.883 165.337C221.944 166.646 223.566 167.466 223.035 168.928C222.913 169.262 222.574 169.605 222.25 169.741C222.089 169.809 221.594 169.473 221.494 169.223C221.111 168.267 220.729 167.288 220.556 166.282C220.493 165.916 221.014 165.45 221.245 165.068ZM227.071 165.638C227.473 166.245 227.903 166.61 227.842 166.853C227.618 167.745 227.956 168.272 228.618 168.805C228.83 168.976 228.912 169.666 228.748 169.856C228.557 170.078 227.983 170.154 227.661 170.043C226.6 169.679 225.692 168.221 225.961 167.226C226.098 166.721 226.584 166.31 227.071 165.638ZM232.052 167.02C232.348 167.703 232.662 168.15 232.689 168.613C232.702 168.84 232.199 169.273 231.897 169.304C231.274 169.369 230.73 168.591 230.972 167.991C231.096 167.683 231.508 167.492 232.052 167.02ZM184.791 164.55C184.717 164.76 184.529 164.93 184.276 165.163C184.047 165.373 183.685 165.331 183.509 165.074C183.276 164.731 183.083 164.448 183.02 164.137C182.978 163.931 183.44 163.446 183.735 163.384C184.328 163.259 184.984 164 184.791 164.55ZM253.892 167.254C254.056 167.55 254.094 168.042 253.956 168.35C253.733 168.846 253.325 169.258 252.957 169.758C252.019 169.693 251.055 169.674 250.107 169.544C249.332 169.437 248.919 168.546 249.229 167.736C249.547 166.907 250.177 167.035 250.795 167.326C251.095 167.468 251.354 167.701 251.647 167.902C252.138 167.606 252.531 167.286 252.982 167.129C253.253 167.033 253.798 167.086 253.892 167.254ZM199.032 163.409C199.64 163.776 199.788 164.262 199.43 165.15C199.265 165.558 198.779 165.732 198.399 165.509C197.774 165.143 197.268 164.787 197.646 163.85C197.886 163.256 198.417 163.038 199.032 163.409ZM238.435 164.971C239.266 165.162 240.092 165.446 240.851 165.83C241.128 165.97 241.38 166.523 241.331 166.84C241.284 167.148 240.88 167.482 240.553 167.643C240.27 167.783 239.874 167.697 239.041 167.73C238.666 167.452 237.931 167.001 237.335 166.408C237.135 166.209 237.138 165.532 237.327 165.29C237.524 165.038 238.092 164.892 238.435 164.971ZM192.841 161.438C193.038 161.469 193.22 161.6 193.439 161.798C193.879 162.193 193.774 162.91 193.235 163.153C192.843 163.331 192.526 163.459 192.196 163.521C192.009 163.556 191.481 162.978 191.511 162.729C191.598 162.012 191.981 161.304 192.841 161.438ZM244.183 165.043C244.556 165.096 244.876 165.509 245.548 166.014C244.77 166.333 244.305 166.705 243.995 166.604C243.653 166.492 243.451 165.947 243.189 165.59C243.523 165.391 243.884 164.999 244.183 165.043ZM204.388 159.401C204.814 159.541 205.376 159.756 205.528 160.099C205.661 160.397 205.417 161.01 205.146 161.309C204.64 161.87 203.994 162.306 203.134 163.02C202.806 162.958 202.151 162.833 201.409 162.693C201.475 162.208 201.402 161.772 201.585 161.573C202.215 160.889 202.919 160.271 203.628 159.667C203.825 159.499 204.182 159.333 204.388 159.401ZM261.798 163.777C262.234 164.022 262.449 164.662 262.923 165.37C262.294 165.827 261.855 166.146 261.415 166.465C261.138 166.03 260.681 165.618 260.622 165.155C260.521 164.351 261.305 163.5 261.798 163.777ZM256.164 163.709C256.661 164.271 257.093 164.606 257.266 165.043C257.321 165.183 256.714 165.795 256.367 165.838C255.708 165.919 255.033 165.603 255.101 164.808C255.129 164.483 255.665 164.202 256.164 163.709ZM197.039 159.554C197.188 159.581 197.325 159.673 197.491 159.811C197.858 160.116 197.829 160.685 197.434 160.951C197.113 161.167 196.84 161.331 196.548 161.38C196.258 161.429 195.667 160.98 195.582 160.657C195.429 160.077 196.303 159.422 197.039 159.554ZM176.449 157.16C176.628 157.726 176.757 158.308 176.908 158.949C176.989 159.29 176.822 159.65 176.5 159.788C175.876 160.055 175.454 159.643 175.107 159.08C174.621 158.292 174.719 157.191 175.301 156.805C175.776 156.49 176.257 156.55 176.449 157.16ZM167.654 153.37C167.904 153.466 168.175 153.858 168.195 154.138C168.252 154.944 168.188 155.758 168.171 156.569C168.28 156.64 168.39 156.711 168.499 156.782C168.086 157.154 167.672 157.822 167.262 157.819C166.795 157.816 165.917 157.178 165.942 156.878C166.038 155.756 166.397 154.648 166.749 153.565C166.801 153.405 167.4 153.274 167.654 153.37ZM243.163 157.714C240.081 157.729 237.359 157.741 234.561 157.754C234.227 158.86 233.631 159.802 232.459 159.859C230.44 159.958 228.411 159.934 226.391 159.847C225.908 159.826 225.513 159.632 225.411 159.215C225.284 158.699 225.752 158.223 226.282 158.263C226.975 158.317 227.692 158.373 228.41 158.404C229.359 158.446 232.559 159.12 232.859 157.792L231.309 157.815C225.813 157.816 220.318 157.816 214.76 157.816L214.621 159.794C217.96 160.268 221.15 160.724 224.341 161.175C226.353 161.459 228.361 161.803 230.382 162.002C234.54 162.412 238.285 161.182 241.731 158.923C242.162 158.64 242.527 158.256 243.163 157.714ZM249.019 159.065C250.059 159.306 250.009 160.248 250.197 161.133C249.237 161.815 247.968 161.257 247.489 162.449C247.435 162.583 246.749 162.65 246.552 162.497C246.267 162.275 246.012 161.826 246.006 161.469C245.987 160.356 247.914 158.809 249.019 159.065ZM261.534 159.81C261.856 160.526 261.891 161.407 261.883 162.215C261.881 162.467 261.338 162.714 261.043 162.964C260.802 162.677 260.444 162.426 260.343 162.097C260.105 161.322 259.988 160.51 259.789 159.552C260.531 158.826 261.241 159.156 261.534 159.81ZM256.173 159.925C256.353 160.312 256.787 160.579 257.104 160.903C257.333 161.138 257.559 161.376 257.917 161.749C257.509 162.043 257.123 162.502 256.925 162.432C256.031 162.116 255.095 161.772 254.359 161.2C253.696 160.684 253.881 159.609 254.562 159.223C255.368 158.765 255.815 159.161 256.173 159.925ZM186.483 154.257C186.823 155.155 186.414 155.889 185.788 156.478C185.286 156.952 184.703 157.09 184.135 156.274C184.504 155.385 184.837 154.581 185.179 153.757C185.785 153.447 186.248 153.637 186.483 154.257ZM266.441 111.271C266.023 114.474 265.644 117.377 265.248 120.413C267.168 121.282 267.325 121.97 265.79 123.004C265.038 123.51 264.767 124.056 264.687 124.854C264.604 125.693 264.457 126.526 264.385 127.367C264.315 128.175 264.125 128.902 265.033 129.596C265.831 130.206 265.661 131.785 264.817 132.408C262.65 134.008 263.122 136.417 263.279 138.396C263.462 140.692 264.571 142.916 265.287 145.167C266.395 148.647 267.526 152.12 268.617 155.606C269.178 157.398 269.671 159.212 270.204 161.051C272.135 159.97 272.135 159.97 273.612 160.972C273.768 159.84 273.884 158.822 274.061 157.815C274.116 157.504 274.301 157.008 274.494 156.974C274.84 156.912 275.322 157.033 275.594 157.261C276.047 157.643 276.379 158.168 276.846 158.735C279.887 156.785 282.766 154.939 285.35 153.283C285.419 152.308 285.219 151.427 285.554 151.11C286.386 150.32 286.421 148.612 288.038 148.683C288.943 149.915 287.463 150.709 287.517 151.98C289.058 150.987 290.433 150.145 291.75 149.222C292.102 148.974 292.383 148.51 292.518 148.088C292.997 146.596 293.888 145.896 295.375 145.967C295.775 145.986 296.275 146.176 296.557 146.005C298.213 144.997 299.818 143.906 301.515 142.793C298.395 136.13 295.395 129.723 292.33 123.178C290.134 123.848 288.207 124.469 286.26 125.017C285.166 125.324 284.133 125.645 283.816 126.827C283.027 126.705 282.309 126.377 281.735 126.544C279.392 127.225 277.093 128.057 274.634 128.883C274.981 130.976 275.317 132.904 275.61 134.838C275.701 135.444 275.889 136.266 275.067 136.437C274.275 136.602 274.078 135.869 273.973 135.215C273.883 134.66 273.788 134.106 273.684 133.554C273.061 130.24 272.455 126.923 271.794 123.617C271.619 122.743 271.271 121.904 270.968 120.938C269.436 121.326 268.398 120.62 267.477 119.727C266.834 119.103 266.843 117.982 267.453 117.452C268.139 116.855 268.728 117.094 269.24 117.753C269.311 117.844 269.517 117.83 269.806 117.899C269.018 115.495 268.229 113.3 266.441 111.271ZM223.317 109.57C213.758 109.579 204.2 109.836 194.645 109.393C193.68 109.348 192.712 109.357 191.663 109.34C191.66 110.051 191.63 110.535 191.661 111.016C191.823 113.54 192.012 116.061 192.171 118.584C192.647 126.159 193.051 133.739 193.611 141.308C193.886 145.019 194.406 148.714 194.886 152.407C195.185 154.706 195.235 154.771 197.604 155.101C199.897 155.42 202.21 155.727 204.519 155.763C213.09 155.898 221.662 155.956 230.234 155.969C235.571 155.977 240.914 155.978 246.245 155.747C250.306 155.571 254.351 155.027 258.302 154.657C259.634 151.642 264.798 114.483 264.324 111.567C264.085 111.511 263.822 111.417 263.552 111.39C250.174 110.052 236.75 109.555 223.317 109.57ZM272.092 155.964C272.373 156.287 272.914 156.648 272.875 156.925C272.812 157.364 272.36 157.746 271.906 158.389C271.523 157.755 271.112 157.36 271.191 157.143C271.352 156.7 271.776 156.352 272.092 155.964ZM189.507 149.145C189.708 149.922 189.786 150.731 189.924 151.564C189.076 152.134 188.445 151.869 188.015 151.089C187.632 150.395 187.451 149.639 188.021 148.929C188.482 148.356 189.329 148.46 189.507 149.145ZM174.779 147.926C174.526 148.696 174.226 149.466 173.827 150.168C173.658 150.464 173.168 150.761 172.851 150.735C172.537 150.709 171.968 150.211 172.008 150.033C172.263 148.922 172.632 147.832 173.029 146.76C173.099 146.57 173.477 146.494 173.594 146.43C174.374 146.419 174.998 147.259 174.779 147.926ZM179.78 147.379C180.24 147.416 180.857 147.816 181.056 148.226C181.344 148.82 181.319 149.567 181.459 150.442C181.359 150.572 181.201 150.988 180.945 151.06C180.598 151.158 180.076 151.123 179.807 150.915C179.327 150.544 178.884 150.051 178.609 149.515C178.383 149.076 178.204 148.377 178.405 148.019C178.615 147.646 179.321 147.343 179.78 147.379ZM272.82 152.219C272.751 152.572 272.3 153.058 271.961 153.113C271.052 153.26 269.994 152.361 270.119 151.579C270.193 151.123 270.598 150.72 270.767 150.438C271.686 150.415 272.941 151.594 272.82 152.219ZM168.577 144.601C168.325 144.949 168.01 145.25 167.605 145.63C167.32 145.896 166.859 145.826 166.666 145.487C166.454 145.115 166.299 144.843 166.375 144.737C166.695 144.293 167.209 143.904 167.726 143.734C167.907 143.674 168.624 144.537 168.577 144.601ZM277.488 149.312C278.21 149.863 278.749 150.654 279.458 151.448C278.964 151.832 278.679 152.23 278.351 152.268C277.854 152.327 277.262 152.255 276.83 152.018C276.319 151.738 275.933 151.226 275.498 150.81C274.875 150.215 274.975 149.216 275.786 149.002C276.304 148.866 277.07 148.993 277.488 149.312ZM181.293 142.73C182.036 142.87 182.36 143.35 182.109 144.114C182.048 144.301 181.984 144.488 181.916 144.679C181.7 145.294 180.958 145.555 180.418 145.19C179.759 144.745 179.621 144.269 179.839 143.621C180.073 142.926 180.587 142.598 181.293 142.73ZM169.83 140.533C170.261 140.808 170.674 141.113 171.134 141.466C171.636 141.85 171.57 142.661 170.984 142.898C170.917 142.925 170.852 142.942 170.786 142.946C170.056 142.986 169.052 142.011 169.146 141.343C169.189 141.032 169.782 140.501 169.83 140.533ZM284.064 147.513C283.622 148.668 283.388 149.368 283.08 150.032C282.979 150.249 282.659 150.535 282.483 150.508C282.192 150.462 281.846 150.245 281.688 149.996C281.516 149.723 281.515 149.333 281.469 148.991C281.375 148.281 281.315 147.45 282.124 147.221C282.656 147.07 283.32 147.383 284.064 147.513ZM271.571 146.714C272.004 147.362 272.353 147.884 272.703 148.407C272.383 148.593 272.048 148.956 271.745 148.931C271.001 148.871 270.398 148.025 270.644 147.468C270.754 147.218 271.109 147.076 271.571 146.714ZM175.726 139.529C175.871 139.833 176.015 140.142 176.126 140.463C176.319 141.022 176.351 141.714 175.63 141.763C175.28 141.786 174.736 141.215 174.542 140.792C174.266 140.192 174.23 139.585 174.884 139.244C175.193 139.082 175.576 139.214 175.726 139.529ZM232.206 124.501C234.713 124.661 236.301 126.872 235.201 129.104C233.849 131.845 233.696 134.193 235.128 137.008C236.37 139.449 235.385 142.219 233.539 143.708C231.301 145.516 227.985 145.803 225.616 144.395C222.716 142.671 221.912 139.177 223.847 136.417C224.118 136.031 224.719 135.818 225.21 135.658C225.718 135.494 226.279 135.492 227.177 135.37C226.737 134.607 226.591 134.078 226.244 133.805C225.157 132.952 225.167 131.903 225.554 130.769C225.961 129.577 226.297 128.334 226.893 127.238C228.015 125.176 229.937 124.356 232.206 124.501ZM183.621 138.651C183.934 138.8 184.035 139.393 184.258 139.835C183.87 140.455 183.582 140.979 183.214 141.44C183.152 141.519 182.547 141.352 182.534 141.252C182.457 140.67 182.391 140.057 182.498 139.488C182.599 138.95 182.931 138.323 183.621 138.651ZM230.947 126.239C229.215 126.591 228.384 127.78 227.763 129.286C227.183 130.695 226.837 131.892 227.988 133.344C229.408 135.134 228.665 136.726 226.479 137.237C226.343 137.269 226.201 137.296 226.062 137.294C225.284 137.286 224.963 137.786 224.761 138.436C223.759 141.673 226.018 143.288 228.609 143.593C232.552 143.826 234.817 140.79 233.462 137.086C233.366 136.822 233.271 136.549 233.12 136.316C231.752 134.213 231.714 132.114 233.094 129.999C233.245 129.767 233.326 129.489 233.437 129.232C233.778 128.444 234.141 127.621 233.463 126.863C232.792 126.114 231.922 126.041 230.947 126.239ZM278.392 144.914C278.185 145.408 277.75 145.807 277.189 146.504C276.778 145.835 276.291 145.36 276.388 145.131C276.568 144.702 277.041 144.271 277.484 144.13C277.698 144.062 278.446 144.784 278.392 144.914ZM270.102 142.877C270.72 142.951 271.346 143.125 271.372 143.949C271.374 144.675 270.752 145.297 269.998 145.089C269.501 144.953 268.917 144.492 268.731 144.032C268.502 143.465 269.347 142.786 270.102 142.877ZM287.176 144.788C287.48 144.789 287.783 145.189 288.266 145.549C287.79 145.882 287.458 146.292 287.193 146.253C286.892 146.209 286.65 145.763 286.382 145.492C286.647 145.24 286.911 144.787 287.176 144.788ZM291.512 143.226C291.939 143.893 292.38 144.281 292.335 144.598C292.291 144.908 291.78 145.273 291.412 145.363C291.237 145.406 290.71 144.859 290.719 144.592C290.73 144.232 291.105 143.883 291.512 143.226ZM174.087 134.942C174.153 134.964 174.148 135.197 174.215 135.518C173.968 135.676 173.682 135.91 173.357 136.053C172.892 136.257 172.403 136.415 171.913 136.55C171.61 136.633 171.148 136.783 171.001 136.644C170.74 136.397 170.434 135.785 170.552 135.625C170.933 135.109 171.457 134.449 172.003 134.37C172.658 134.274 173.395 134.708 174.087 134.942ZM265.663 141.164C265.949 141.586 266.345 141.979 266.473 142.444C266.488 142.497 266.469 142.559 266.425 142.632C266.094 143.181 265.266 143.074 265.015 142.484C264.936 142.299 264.885 142.128 264.878 141.956C264.867 141.704 265.384 141.429 265.663 141.164ZM288.77 141.015C289.135 141.443 289.441 142.101 289.413 142.637C289.381 143.24 288.715 143.323 288.29 142.96C287.834 142.571 287.513 142.022 287.104 141.505C287.665 140.584 288.259 140.415 288.77 141.015ZM186.893 133.683C185.454 136.678 183.303 135.622 181.23 135.109C181.09 135.074 180.969 134.983 180.903 134.856C180.612 134.295 180.873 133.747 181.479 133.636C183.08 133.342 184.721 133.249 186.35 133.131C186.517 133.119 186.711 133.489 186.893 133.683ZM296.009 139.722C297.016 139.806 297.885 140.756 297.77 141.648C297.657 142.519 296.872 143.161 296.042 143.06C294.865 142.917 293.91 142.004 293.993 141.101C294.068 140.284 295.011 139.64 296.009 139.722ZM279.512 138.769C280.068 139.867 280.722 140.575 282.096 140.165C282.221 140.127 282.533 140.717 282.759 141.015C282.413 141.248 282.068 141.482 281.722 141.716L281.575 141.31C281.124 141.33 280.673 141.368 280.222 141.366C279.165 141.361 278.147 140.517 278.056 139.496C278.029 139.209 278.22 138.707 278.424 138.638C278.75 138.528 279.413 138.575 279.512 138.769ZM275.355 139.631C275.037 140.111 274.576 140.496 273.998 141.086C273.684 140.495 273.285 139.975 273.374 139.87C273.74 139.44 274.239 139.11 274.737 138.831C274.787 138.803 275.419 139.534 275.355 139.631ZM267.789 135.379C268.681 135.699 269.348 136.387 269.368 137.412L269.371 137.539C269.39 138.304 269.423 139.161 268.403 139.266C267.464 138.077 266.727 137.143 265.944 136.151C266.291 135.356 267.01 135.1 267.789 135.379ZM176.546 130.366C176.424 131.219 175.394 132.171 174.692 131.96C174.396 131.871 174.093 131.433 174.018 131.102C173.958 130.838 174.238 130.496 174.371 130.18C174.014 129.295 174.232 128.654 175.249 128.573C176.008 128.513 176.668 129.504 176.546 130.366ZM184.136 129.573C184.326 129.84 184.463 130.061 184.504 130.299C184.608 130.901 183.613 131.662 183.089 131.365C182.738 131.166 182.434 130.518 182.471 130.104C182.489 129.903 182.631 129.713 182.837 129.489C183.196 129.099 183.828 129.142 184.136 129.573ZM290.236 135.946C290.81 136.024 291.399 136.102 291.932 136.308C292.049 136.353 292.095 137.121 291.941 137.232C291.416 137.608 290.788 137.843 290.195 138.123C290.14 138.149 290.058 138.117 289.836 138.102C289.593 137.974 289.166 137.849 288.877 137.578C288.317 137.051 288.615 136.204 289.405 136.003C289.671 135.936 289.965 135.909 290.236 135.946ZM280.685 133.387C281.685 133.813 281.738 134.686 281.607 135.843C280.161 135.446 279.381 134.603 279.722 133.921C279.864 133.637 280.467 133.294 280.685 133.387ZM310.441 117.376C305.327 120.451 301.422 124.806 296.315 127.617C297.841 130.84 299.269 133.858 300.643 136.76C305.456 134.989 310.045 133.234 314.682 131.616C317.798 130.529 320.98 129.633 324.135 128.659C324.992 128.394 325.767 128.058 326.165 127.153C326.334 126.769 325.988 126.353 325.575 126.425C324.858 126.55 324.215 126.658 323.583 126.814C321.537 127.317 319.503 127.873 317.459 128.386C317.229 128.444 316.994 128.511 316.758 128.549C315.894 128.687 315.52 127.501 316.304 127.112C316.653 126.94 316.995 126.788 317.351 126.686C319.511 126.068 321.683 125.473 323.88 125.006C324.917 124.786 325.469 124.367 325.461 123.416C325.458 123.136 325.28 122.878 325.021 122.77C324.078 122.378 323.107 122.634 322.158 122.845C320.306 123.256 318.478 123.773 316.617 124.136C316.177 124.222 315.333 123.988 315.226 123.699C314.928 122.885 315.673 122.693 316.302 122.539C317.275 122.302 318.247 122.057 319.215 121.797C319.889 121.617 320.571 121.462 321.252 121.306C321.887 121.16 322.349 120.916 322.446 120.265C322.5 119.904 322.19 119.593 321.827 119.633C321.319 119.688 320.83 119.734 320.381 119.89C316.145 121.36 311.928 122.886 307.693 124.356L307.681 124.361C306.986 124.597 306.317 123.926 306.565 123.235C306.604 123.125 306.655 123.025 306.726 122.941C307.626 121.865 308.675 120.916 309.604 119.863C310.127 119.271 310.723 118.642 310.441 117.376ZM296.33 133.83C296.7 133.956 296.849 134.737 297.228 135.474C296.73 135.841 296.347 136.353 296.017 136.321C295.277 136.248 295.131 135.576 295.189 134.91C295.249 134.209 295.622 133.592 296.33 133.83ZM271.889 132.195C272.16 132.521 272.654 132.856 272.641 133.17C272.629 133.484 272.109 133.777 271.657 134.237C271.332 133.712 270.924 133.321 271.002 133.123C271.147 132.754 271.577 132.498 271.889 132.195ZM188.389 125.745C188.596 125.976 188.766 126.36 188.739 126.66C188.645 127.709 187.445 128.337 186.048 128.085C185.949 126.864 187.059 126.408 187.651 125.646C187.735 125.539 188.256 125.597 188.389 125.745ZM283.4 128.567C283.802 129.126 284.231 129.469 284.308 129.877C284.513 130.984 284.656 132.072 285.527 132.916C285.658 133.043 285.639 133.563 285.505 133.67C285.272 133.857 284.752 134.037 284.603 133.915C284.024 133.44 283.354 132.927 283.074 132.275C282.728 131.469 282.673 130.514 282.628 129.616C282.614 129.336 283.041 129.033 283.4 128.567ZM279.25 132.256C278.524 132.206 277.864 132.227 277.245 132.078C277.043 132.03 276.854 131.546 276.834 131.25C276.821 131.049 277.069 130.732 277.278 130.634C278.058 130.269 278.915 130.9 279.25 132.256ZM174.434 121.518C174.625 121.523 174.899 121.957 174.969 122.239C175.128 122.877 175.184 123.541 175.295 124.288C174.386 124.813 173.698 124.624 173.433 123.889C173.221 123.3 173.296 122.559 173.426 121.924C173.469 121.714 174.085 121.508 174.434 121.518ZM290.617 129.661C291.875 129.753 292.137 130.244 292.086 130.975C292.034 131.713 291.671 132.153 290.889 132.101C290.06 132.047 289.019 131.212 289.289 130.779C289.635 130.223 290.332 129.886 290.617 129.661ZM180.261 121.513C180.533 122.316 180.357 123.032 179.633 123.511C179.148 123.832 178.549 123.438 178.526 122.763C178.505 122.163 178.597 121.559 178.637 120.982C179.478 120.419 179.984 120.695 180.261 121.513ZM183.948 120.369C184.858 120.432 185.031 121.079 184.998 122.093C184.591 122.527 184.253 123.189 183.762 123.336C183.137 123.522 182.587 122.573 182.658 121.678C182.721 120.87 183.135 120.313 183.948 120.369ZM288.383 128.378C287.768 128.861 287.37 129.305 286.876 129.487C286.71 129.549 286.298 128.948 285.999 128.651C286.424 128.28 286.812 127.842 287.297 127.584C287.431 127.512 287.851 127.976 288.383 128.378ZM268.812 125.24C269.283 125.962 269.758 126.385 269.828 126.867C269.932 127.592 269.145 128.174 268.44 127.988C267.722 127.799 267.06 127.36 267.344 126.538C267.498 126.094 268.132 125.816 268.812 125.24ZM240.06 118.395C239.929 121.117 237.016 123.931 234.199 124.056C233.31 124.096 232.569 123.342 232.813 122.426C233.022 121.643 233.361 120.743 233.942 120.243C235.298 119.075 236.769 118.003 238.318 117.108C239.486 116.433 240.127 116.999 240.06 118.395ZM175.491 116.45C175.844 116.585 176.134 116.884 176.527 117.268C176.777 117.512 176.751 117.924 176.471 118.133L176.457 118.144C175.979 118.502 175.295 118.398 174.959 117.906C174.803 117.676 174.661 117.441 174.553 117.191C174.506 117.083 175.288 116.372 175.491 116.45ZM238.045 119.179C236.57 119.932 235.607 120.575 234.829 122.033C236.469 121.585 237.412 120.919 238.045 119.179ZM181.226 114.424C181.386 114.48 181.52 114.609 181.671 114.781C181.969 115.123 181.929 115.645 181.583 115.938C181.297 116.181 181.032 116.391 180.744 116.56C180.674 116.602 180.085 116.094 180.059 115.811C179.983 114.978 180.651 114.222 181.226 114.424ZM187.231 113.278C187.504 113.608 187.693 113.853 187.673 114.079C187.637 114.469 187.114 115.014 186.705 115.126C186.062 115.301 185.644 114.747 185.727 114.138C185.761 113.887 185.903 113.65 186.104 113.344C186.363 112.95 186.929 112.916 187.231 113.278ZM179.269 110.705C179.958 110.751 180.392 111.198 180.389 111.947C180.387 112.779 179.458 113.909 178.939 113.608C178.501 113.354 178.349 112.607 178.071 112.078C178.225 111.207 178.445 110.65 179.269 110.705ZM182.3 108.663C182.944 108.836 183.166 109.319 182.752 110.366C182.839 110.545 183.136 110.963 183.238 111.425C183.313 111.761 183.225 112.225 183.024 112.493C182.919 112.633 182.359 112.574 182.1 112.431C181.062 111.863 180.516 110.531 180.871 109.568C181.114 108.91 181.557 108.462 182.3 108.663ZM189.591 104.589C189.62 106.602 189.11 107.497 188.088 107.372C187.329 107.279 186.604 106.281 186.74 105.519C186.913 104.555 187.786 104.249 189.591 104.589ZM201.959 102.788C201.917 103.224 201.803 103.683 201.59 104.064C201.437 104.336 201.086 104.498 200.824 104.709C200.632 104.689 200.44 104.669 200.249 104.649C200.213 104.169 200.015 103.616 200.188 103.23C200.353 102.864 200.883 102.615 201.304 102.438C201.458 102.374 201.969 102.683 201.959 102.788ZM211.675 103.998C211.916 104.033 212.107 104.408 212.431 104.753C212.017 105.024 211.754 105.195 211.491 105.367C211.288 105.055 211.086 104.744 210.884 104.432C211.15 104.273 211.437 103.964 211.675 103.998ZM215.863 103.023C216.04 103.051 216.195 103.22 216.369 103.446C216.656 103.818 216.62 104.35 216.288 104.683L216.275 104.695C215.881 105.09 215.212 105.036 214.912 104.566C214.83 104.436 214.77 104.304 214.752 104.166C214.662 103.487 215.112 102.906 215.863 103.023ZM240.371 104.014C240.807 104.814 240.323 105.387 239.667 105.713C239.146 105.973 238.518 106.017 237.936 106.157C237.923 106.101 237.911 106.047 237.898 105.991C237.622 105.972 237.329 106.005 237.072 105.924C236.317 105.684 236.141 104.971 236.755 104.517C237.309 104.107 237.926 103.758 238.56 103.484C239.266 103.178 239.971 103.281 240.371 104.014ZM206.725 101.888C206.758 101.897 206.789 101.908 206.82 101.922C207.43 102.193 207.428 103.079 206.851 103.413C206.543 103.592 206.259 103.739 205.959 103.831C205.768 103.89 205.224 103.44 205.165 103.155C205.034 102.526 206.039 101.713 206.725 101.888ZM225.649 103.198C225.777 103.35 225.546 104.008 225.295 104.237C224.83 104.661 224.399 104.755 223.982 104.513C223.297 104.115 223.421 103.114 224.148 102.797C224.261 102.748 224.376 102.711 224.494 102.691C224.858 102.631 225.398 102.899 225.649 103.198ZM232.965 103.306C233.234 103.31 233.494 103.786 233.966 104.258C233.323 104.532 232.868 104.904 232.534 104.815C232.215 104.731 232.022 104.169 231.773 103.817C232.171 103.63 232.571 103.3 232.965 103.306ZM246.343 103.758C246.701 103.947 247.029 104.673 246.945 105.07C246.875 105.404 246.19 105.608 246.038 105.704C245.293 105.501 244.929 105.461 244.628 105.303C244.578 105.277 244.53 105.249 244.482 105.219C243.992 104.909 243.864 104.234 244.252 103.803C244.347 103.699 244.447 103.621 244.56 103.595C245.124 103.462 245.847 103.494 246.343 103.758ZM190.74 99.4738C191.376 99.8104 191.517 100.183 191.305 101.032C191.174 101.554 190.51 101.735 190.128 101.355C189.695 100.924 189.616 100.538 189.783 99.896C189.89 99.4788 190.359 99.2718 190.74 99.4738ZM220.047 101.682C220.346 102.042 220.7 102.282 220.7 102.522C220.7 102.768 220.354 103.014 220.159 103.26C219.874 103.015 219.589 102.769 219.305 102.523C219.513 102.288 219.721 102.052 220.047 101.682ZM196.526 98.7447C196.994 98.9919 197.192 99.5679 196.965 100.046C196.537 100.946 196.074 101.194 195.475 100.967C194.782 100.705 194.141 99.4755 194.534 98.9176C195.213 97.9546 195.837 98.3807 196.526 98.7447ZM212.496 100.767C212.526 100.844 212.534 100.906 212.512 100.956C212.328 101.377 211.895 101.688 211.564 102.045C211.34 101.754 210.89 101.417 210.938 101.181C210.971 101.016 211.046 100.859 211.15 100.691C211.472 100.168 212.275 100.194 212.496 100.767ZM232.92 100.389C233.078 100.663 233.021 101.381 232.833 101.48C231.904 101.971 230.9 102.322 229.904 102.729C229.509 102.392 229.081 102.196 229.069 101.977C229.051 101.639 229.221 101.118 229.48 100.97C230.244 100.536 231.073 100.18 231.917 99.9382C232.202 99.8569 232.765 100.121 232.92 100.389ZM252.164 101.522C252.473 101.72 252.58 102.234 252.859 102.759C252.329 103.248 251.923 103.622 251.517 103.997C251.299 103.563 250.896 103.126 250.9 102.694C250.908 101.825 251.654 101.195 252.164 101.522ZM203.636 97.3677C203.904 97.7806 204.349 98.1733 204.399 98.6109C204.465 99.197 204.294 100.003 203.444 99.8274C203.221 99.7816 203.052 99.4749 202.849 99.1015C202.644 98.7229 202.717 98.2516 203.028 97.9529L203.636 97.3677ZM215.739 98.2086C215.721 98.6007 216.034 99.0416 215.937 99.387C215.833 99.7557 215.422 100.038 215.234 100.256C214.302 100.086 213.343 98.8111 213.496 98.1763C213.679 97.4143 214.218 96.9698 214.991 97.0006C215.734 97.03 215.767 97.5929 215.739 98.2086ZM199.822 96.4941C200.009 96.5529 200.165 96.7105 200.361 96.926C200.629 97.2193 200.613 97.6748 200.326 97.9496C199.935 98.3241 199.58 98.6574 199.19 98.944C199.127 98.99 198.484 98.5334 198.432 98.2512C198.312 97.5965 199.342 96.3442 199.822 96.4941ZM222.066 97.7844C222.488 97.8151 223.042 98.3143 223.212 98.7359C223.326 99.017 222.962 99.7484 222.645 99.8833C222.229 100.06 221.581 99.9781 221.156 99.7629C220.994 99.681 220.864 99.5361 220.728 99.3431C220.386 98.8599 220.594 98.1757 221.148 97.9689C221.477 97.8468 221.775 97.7629 222.066 97.7844ZM237.433 99.0528C238.027 99.4222 237.978 100.317 237.377 100.674C237.276 100.734 237.185 100.765 237.1 100.752C236.795 100.704 236.366 100.135 236.373 99.8031C236.381 99.5022 236.889 98.9993 237.201 98.98C237.276 98.9755 237.352 99.0026 237.433 99.0528ZM243.463 97.5546C245.191 97.6825 246.199 98.4936 246.066 99.6493C245.977 100.427 245.256 101.015 244.454 100.963C243.222 100.884 241.9 99.6229 241.942 98.5652C241.97 97.8359 242.5 97.4835 243.463 97.5546ZM228.544 97.0633C228.962 97.579 229.27 97.9598 229.579 98.3402C229.229 98.6016 228.768 99.1478 228.552 99.0637C228.134 98.9017 227.81 98.4101 227.56 97.9884C227.52 97.9208 228.065 97.5066 228.544 97.0633ZM255.499 100.26C255.111 100.554 254.79 100.938 254.641 100.88C254.35 100.768 254.154 100.408 253.919 100.15C254.16 99.9525 254.395 99.6081 254.641 99.5998C254.87 99.5917 255.111 99.943 255.499 100.26ZM210.512 96.161C210.55 96.2897 210.56 96.3998 210.529 96.4966C210.396 96.9047 209.829 97.3997 209.413 97.4373C208.706 97.5015 208.529 96.8195 208.709 96.263C208.744 96.1545 208.796 96.0515 208.864 95.9449C209.284 95.2907 210.288 95.4168 210.512 96.161ZM239.822 94.9478C239.919 95.1249 239.956 95.3342 240.109 95.7934C239.715 95.9338 239.145 96.2916 238.998 96.1634C238.236 95.4972 237.514 95.7644 236.674 95.9117C236.193 95.996 235.373 95.6612 235.13 95.2587C234.715 94.5693 235.432 94.1493 235.977 93.8437C237.241 93.1364 239.134 93.6901 239.822 94.9478ZM231.855 91.3338C232.391 91.6471 232.953 92.0293 233.297 92.5243C233.572 92.9202 233.792 93.7421 233.58 93.9989C233.251 94.398 232.525 94.6614 231.986 94.633C231.56 94.6107 231.002 94.1414 230.797 93.7255C230.57 93.2666 230.678 92.6426 230.641 92.0907C230.602 91.3183 231.179 90.9385 231.855 91.3338Z" fill="black"/>
<path fill-rule="evenodd" clip-rule="evenodd" d="M225.903 70.7917C226.333 71.1307 226.597 71.6721 226.989 72.0699C228.635 73.7375 229.947 73.8261 231.814 72.4229C232.262 72.0862 232.651 71.6276 233.148 71.4151C233.435 71.2921 233.95 71.4627 234.232 71.6744C234.362 71.7723 234.297 72.3888 234.118 72.5947C232.892 74.0095 231.465 75.1047 229.943 75.1481C227.672 75.1125 225.048 73.3033 224.55 71.6624C224.452 71.3416 224.579 70.7317 224.808 70.592C225.053 70.4422 225.631 70.5773 225.903 70.7917ZM232.534 61.5693C232.98 63.3313 233.431 65.0933 233.812 66.8697C234.185 68.61 233.662 69.2021 231.876 69.1169C231.111 69.0806 230.337 68.9873 229.594 68.8101C229.347 68.7508 229.02 68.3433 229.026 68.1026C229.033 67.8472 229.355 67.4358 229.604 67.3813C230.335 67.221 231.098 67.2036 232.051 67.1104C231.629 65.3228 231.2 63.6553 230.854 61.9703C230.713 61.2857 230.184 60.276 231.262 60.021C232.314 59.7714 232.354 60.8546 232.534 61.5693ZM226.065 64.5121C226.497 65.8994 225.795 67.4587 224.601 67.7611C223.764 67.973 223.059 67.4929 222.757 66.5065C222.349 65.1742 223.021 63.4815 224.099 63.124C224.925 62.85 225.722 63.4124 226.065 64.5121ZM237.828 63.2187C238.796 63.2265 239.629 64.3043 239.57 65.4726C239.508 66.7187 238.652 67.6661 237.677 67.569C236.75 67.4761 236.19 66.6077 236.24 65.3414C236.292 64.0686 236.932 63.2114 237.828 63.2187Z" fill="black"/>
<path fill-rule="evenodd" clip-rule="evenodd" d="M489.517 226.564L491.168 227.533L492.168 289.509L491.168 290.638L398.296 283.924L400.623 231.841L489.517 226.564ZM496.306 45.4473L498.872 169.078L455.755 164.722L454.322 209.036L453.497 210.459L327.95 202.45L336.803 92.2496L368.279 90.005L372.29 60.8506L496.306 45.4473Z" fill="white"/>
<path fill-rule="evenodd" clip-rule="evenodd" d="M335.163 201.737C338.273 165.401 339.085 129.219 342.068 92.9149C340.463 92.987 339.246 93.0418 337.673 93.1129C334.728 129.201 331.795 165.144 328.848 201.249C331.093 201.422 333.016 201.571 335.163 201.737ZM497.831 167.944C497.057 127.321 496.289 87.0892 495.518 46.6114C454.387 51.6722 413.655 56.684 372.717 61.7211C372.256 66.2925 371.71 70.7296 371.386 75.1829C371.067 79.5834 370.183 83.9607 370.375 88.502C383.308 87.499 395.91 86.5005 408.516 85.5504C424.612 84.337 440.712 83.1617 456.81 81.9726C459.005 81.8106 459.264 82.0555 459.322 84.302C459.331 84.6605 459.324 85.02 459.312 85.379C458.908 98.6547 458.499 111.93 458.098 125.206C457.793 135.342 457.485 145.479 457.211 155.616C457.142 158.196 457.201 160.779 457.201 163.532C470.637 164.99 483.994 166.441 497.831 167.944ZM453.129 209.037C453.89 205.512 457.175 86.422 456.616 84.3183C455.913 84.3183 455.198 84.2714 454.49 84.3257C445.907 84.9849 437.326 85.6704 428.742 86.3262C414.436 87.419 400.128 88.5079 385.82 89.5736C372.584 90.5593 359.345 91.5084 346.109 92.4907C345.514 92.5346 345.064 92.5292 344.121 92.664C341.968 128.967 339.783 165.469 337.624 201.87C376.235 204.266 414.705 206.652 453.129 209.037ZM327.041 203.202C326.441 200.246 335.165 93.7366 336.092 91.0497C346.625 90.2625 357.153 89.4753 367.853 88.6753C368.295 84.2565 368.736 79.9923 369.144 75.7246C369.562 71.3488 369.93 66.9681 370.353 62.5922C370.611 59.9354 370.777 59.7794 373.373 59.4594C389.48 57.4747 405.589 55.5067 421.695 53.5136C438.424 51.4435 455.148 49.3477 471.875 47.2702C479.26 46.3531 486.646 45.4395 494.036 44.564C494.482 44.5116 494.932 44.5008 495.402 44.5046C496.568 44.5185 497.54 45.4114 497.67 46.5699C497.718 46.9941 497.753 47.4094 497.761 47.8252C498.016 61.5547 498.235 75.2851 498.486 89.0146C498.894 111.357 499.315 133.701 499.738 156.044C499.812 159.992 499.967 163.939 499.999 167.887C500.015 169.958 499.708 170.257 497.614 170.054C491.278 169.44 484.95 168.745 478.62 168.069C471.507 167.31 464.394 166.538 457.063 165.747C456.92 168.865 456.742 171.803 456.658 174.744C456.344 185.687 456.062 196.632 455.767 207.576C455.763 207.756 455.761 207.935 455.753 208.115C455.606 211.236 455.271 211.453 452.228 211.242C444.535 210.707 436.837 210.259 429.141 209.769C416.076 208.938 403.012 208.086 389.947 207.27C382.519 206.806 375.084 206.423 367.655 205.957C354.679 205.143 341.705 204.294 328.73 203.452C328.202 203.417 327.68 203.299 327.041 203.202ZM492.245 228.198C492.341 230.542 492.433 232.748 492.469 234.955C492.701 248.922 492.893 262.89 493.12 276.857C493.185 280.885 493.326 284.911 493.416 288.939C493.473 291.502 493.021 291.936 490.47 291.761C474.92 290.695 459.371 289.621 443.822 288.55C430.864 287.657 417.907 286.767 404.949 285.869C403.073 285.739 401.198 285.595 399.325 285.421C397.307 285.233 397.008 284.987 397.064 282.93C397.175 278.904 397.398 274.88 397.584 270.856C398.164 258.337 398.74 245.817 399.337 233.299C399.481 230.28 399.635 230.166 402.595 230.007C416.102 229.28 429.609 228.554 443.115 227.818C456.175 227.107 469.233 226.387 482.292 225.663C484.528 225.539 486.76 225.36 488.996 225.238L489.023 225.236C490.731 225.147 492.176 226.491 492.245 228.198ZM486.438 227.562C481.968 227.811 477.502 228.117 473.032 228.358C464.538 228.814 456.04 229.218 447.546 229.685C436.282 230.304 425.02 230.961 413.756 231.603C409.76 231.831 405.763 232.06 401.571 232.299C400.786 249.313 400.013 266.085 399.224 283.195C430.108 285.316 460.515 287.404 491.169 289.509C490.778 268.581 490.478 248.071 490.036 227.553C488.576 227.553 487.504 227.503 486.438 227.562ZM453.699 240.756C455.943 242.842 458.173 244.944 460.408 247.039C463.631 250.058 466.863 253.068 470.071 256.102C470.292 256.312 470.505 256.53 470.718 256.758C471.584 257.687 471.58 259.13 470.681 260.028C470.533 260.176 470.383 260.317 470.229 260.454C464.472 265.509 458.7 270.547 452.929 275.586C452.522 275.941 452.133 276.405 451.651 276.562C451.152 276.723 450.332 276.793 450.039 276.508C449.458 275.942 449.632 275.186 450.338 274.675C450.629 274.465 450.982 274.332 451.249 274.098C457.154 268.944 463.05 263.781 469.165 258.429C467.65 256.918 466.275 255.919 464.66 254.436C460.745 250.84 458.13 247.859 453.313 243.541C452.875 243.149 452.51 242.703 452.078 242.317C451.442 241.749 450.803 241.11 451.627 240.301C452.45 239.494 453.108 240.206 453.699 240.756ZM433.02 239.412C433.252 239.644 433.345 240.292 433.184 240.583C432.847 241.193 432.325 241.708 431.842 242.229C426.746 247.727 421.642 253.217 416.545 258.715C415.946 259.362 415.381 260.041 414.475 261.076C415.56 261.821 416.308 262.411 417.125 262.884C423.142 266.368 429.172 269.829 435.2 273.296C435.585 273.518 435.978 273.729 436.371 273.94C437.069 274.316 437.633 274.893 437.086 275.617C436.838 275.947 435.992 275.969 435.452 275.89C434.955 275.818 434.498 275.434 434.035 275.168C427.772 271.575 421.51 267.98 415.25 264.382C414.787 264.116 414.291 263.877 413.893 263.531C412.234 262.09 412.077 260.298 413.539 258.712C419.287 252.479 425.061 246.272 430.832 240.061C431.133 239.738 431.451 239.343 431.837 239.218C432.191 239.103 432.783 239.173 433.02 239.412ZM382.141 193.508H382.156C383.306 193.521 383.496 195.338 382.388 195.666C382.022 195.774 381.633 195.791 381.254 195.794C375.366 195.835 369.478 195.818 363.59 195.808C363.24 195.807 362.819 195.812 362.558 195.617C362.231 195.372 361.842 194.924 361.841 194.563C361.84 194.243 362.284 193.794 362.625 193.636C363.01 193.457 363.499 193.512 363.943 193.511C370.009 193.501 376.075 193.49 382.141 193.508ZM379.775 178.584C380.423 178.699 380.641 179.469 380.146 179.883C379.567 180.369 378.85 180.43 378.135 180.47C371.604 180.837 365.072 181.207 358.539 181.54C355.497 181.695 352.45 181.776 349.405 181.879C348.869 181.898 348.329 181.888 347.793 181.85C347.017 181.795 346.31 181.544 346.365 180.669C346.424 179.724 347.253 179.784 347.977 179.755C355.32 179.461 362.663 179.175 370.004 178.857C372.689 178.74 375.369 178.5 378.056 178.408C378.615 178.389 379.18 178.479 379.775 178.584ZM439.642 177.28C439.646 177.282 439.651 177.283 439.655 177.285C440.452 177.568 440.665 178.712 440.029 179.288C439.976 179.337 439.919 179.381 439.859 179.419C439.443 179.683 438.824 179.629 438.292 179.66C429.733 180.143 421.173 180.617 412.613 181.094L412.605 180.972C406.802 181.14 400.999 181.315 395.196 181.472C394.124 181.501 393.042 181.543 391.986 181.403C391.894 181.392 391.805 181.355 391.718 181.303C391.156 180.965 391.103 180.127 391.562 179.647C391.704 179.498 391.856 179.365 392.025 179.266C392.372 179.064 392.898 179.196 393.344 179.182C405.573 178.776 417.803 178.389 430.031 177.95C432.885 177.848 435.733 177.567 438.584 177.365C438.941 177.34 439.332 177.173 439.642 177.28ZM406.104 159.308C406.152 159.313 406.187 159.346 406.211 159.39C406.213 159.392 406.214 159.395 406.215 159.397C406.451 159.809 406.368 160.339 405.967 160.573C405.638 160.766 405.292 160.931 405.025 161.024C404.186 161.314 403.276 161.447 402.387 161.502C384.063 162.632 365.73 163.491 347.365 163.263C346.386 163.25 344.818 163.7 344.814 162.119C344.809 160.454 346.416 161.058 347.353 161.038C358.184 160.809 369.02 160.761 379.848 160.408C387.627 160.154 395.394 159.497 403.168 159.065C404.14 159.01 405.125 159.214 406.104 159.308ZM432.345 158.282C433.765 158.263 433.815 160.332 432.397 160.398C432.3 160.403 432.205 160.406 432.112 160.41C426.538 160.644 420.96 160.792 415.383 160.968C415.206 160.973 414.99 161.026 414.858 160.95C414.314 160.638 413.434 160.357 413.34 159.93C413.137 159.004 414.066 158.952 414.777 158.924C417.343 158.82 419.91 158.742 422.475 158.646C425.75 158.523 429.022 158.363 432.296 158.283C432.313 158.282 432.329 158.282 432.345 158.282ZM397.562 148.607C398.927 148.594 398.967 150.657 397.603 150.738C397.316 150.755 397.019 150.748 396.735 150.755C391.991 150.882 387.246 150.961 382.503 151.094C376.328 151.266 370.156 151.49 363.982 151.644C362.989 151.669 361.453 152.045 361.454 150.517C361.455 149.299 362.851 149.43 363.827 149.408C374.657 149.16 385.486 148.905 396.316 148.685C396.717 148.677 397.144 148.611 397.562 148.607ZM375.385 138.941C375.417 139.901 374.853 140.277 374.056 140.385C371.516 140.731 368.97 141.064 366.416 141.252C366.082 141.277 365.731 141.021 365.378 140.751C365.039 140.491 364.874 140.04 364.96 139.602L364.961 139.594C368.053 138.257 371.363 138.597 374.538 138.164C374.979 138.104 375.369 138.461 375.385 138.941ZM376.32 130.061C376.468 130.12 376.612 130.188 376.754 130.26C377.402 130.591 377.533 131.501 376.946 131.928C376.866 131.986 376.781 132.028 376.692 132.047C374.856 132.431 372.986 132.672 371.119 132.899C369.162 133.136 367.195 133.296 365.011 133.511C364.876 133.498 364.461 133.564 364.181 133.403C363.84 133.206 363.414 132.833 363.39 132.51C363.368 132.201 363.755 131.652 364.064 131.569C365.008 131.316 365.998 131.209 366.976 131.094C369.825 130.761 372.678 130.453 375.528 130.134C375.795 130.105 376.104 129.973 376.32 130.061ZM400.402 120.365C401.051 120.387 401.502 121.049 401.239 121.633C400.997 122.171 400.41 122.382 399.749 122.495C397.729 122.843 395.705 123.198 393.669 123.427C383.475 124.572 373.284 125.767 362.999 125.773H361.428C360.784 125.773 360.218 125.239 360.302 124.611C360.357 124.194 360.65 123.947 361.164 123.84C361.855 123.695 362.579 123.672 363.29 123.656C375.352 123.392 387.323 122.167 399.244 120.403C399.623 120.347 400.011 120.351 400.402 120.365ZM396.203 109.544C396.527 109.573 397.016 110.024 397.054 110.328C397.096 110.657 396.784 111.217 396.474 111.358C395.927 111.606 395.269 111.648 394.65 111.715C387.177 112.526 379.708 113.39 372.227 114.111C364.743 114.833 357.246 115.412 349.754 116.054C349.699 116.059 349.644 116.066 349.576 116.075C348.962 116.162 348.319 116.009 347.862 115.6C347.734 115.484 347.63 115.354 347.583 115.207C347.278 114.262 348.194 114.093 348.904 114.01C351.215 113.739 353.527 113.476 355.845 113.275C362.533 112.693 369.229 112.197 375.913 111.565C381.883 111.001 387.838 110.296 393.801 109.663C394.599 109.579 395.412 109.472 396.203 109.544ZM420.944 95.978C421.655 95.9945 422.744 95.8948 422.584 96.9603C422.513 97.4322 421.664 98.0618 421.106 98.1345C417.81 98.5648 414.492 98.8172 411.189 99.1944C395.476 100.988 379.764 102.799 364.053 104.612C359.054 105.189 354.06 105.815 349.057 106.364C348.517 106.423 347.972 106.43 347.405 106.421C346.08 106.4 345.986 104.429 347.302 104.278C347.332 104.275 347.36 104.272 347.388 104.269C350.692 103.888 353.999 103.541 357.299 103.135C366.843 101.963 376.379 100.718 385.929 99.5977C393.695 98.687 401.475 97.909 409.251 97.0865C412.888 96.7018 416.528 96.3577 420.168 95.9995C420.426 95.974 420.685 95.972 420.944 95.978Z" fill="#BD8CE9"/>
</svg>
