<svg width="250" height="163" viewBox="0 0 250 163" fill="none" xmlns="http://www.w3.org/2000/svg">
<path fill-rule="evenodd" clip-rule="evenodd" d="M119.944 64.1013C112.565 59.26 105.352 53.154 98.0165 48.6575C79.7227 54.7018 61.5321 61.1746 42.8053 65.812C41.1322 66.4815 35.8967 66.8443 35.6678 68.5025C41.8145 74.3776 47.679 80.5417 53.6685 86.5806C54.4766 87.5687 55.3313 88.1725 56.5564 87.4221C63.1837 84.9534 69.8362 82.5535 76.4921 80.1628C90.8216 74.5595 106.027 70.3011 119.944 64.1013ZM97.0755 46.0366C96.4696 41.7726 93.8419 37.949 91.991 34.1115C87.6572 25.6095 84.7802 16.4751 80.6294 7.89132C78.0331 0.168778 78.897 2.96794 71.463 4.10182C61.9244 6.65415 52.4725 9.55503 43.154 12.8244C37.5222 14.8779 31.7793 16.6172 26.083 18.482C24.637 19.098 22.7243 19.3067 21.5586 20.3352C21.3561 20.8946 20.8982 21.1149 20.481 21.3836C18.4171 22.7138 16.3207 23.9947 14.2387 25.2963C13.4786 25.9068 14.6392 26.8765 14.8 27.5718C20.476 40.0446 24.313 53.3062 31.758 64.941C32.1523 65.4993 32.6652 66.6398 33.5005 66.1736C35.0469 65.3133 36.6382 64.5071 38.3627 64.0675C48.6066 61.7449 58.6037 58.5324 68.6386 55.4944C76.6648 53.2515 84.6609 50.9001 92.4895 48.038C93.7816 47.2735 96.6255 47.5458 97.0755 46.0366ZM14.6241 22.94C9.47762 22.441 21.8061 17.9017 22.7268 17.1081C36.9737 11.664 51.4604 6.0696 66.3871 2.51483C82.092 -0.710717 79.4094 -3.10582 84.8429 10.3301C88.2167 17.4532 90.2235 25.1446 93.8963 32.151C95.869 36.3727 98.4985 40.3787 99.5865 44.9488C99.7429 45.7656 100.736 45.3947 101.175 45.9998C104.024 48.2877 107.243 49.9387 110.133 52.1657C112.176 54.324 131.564 64.5006 122.686 65.6685C99.6039 73.361 77.0213 83.5813 53.7014 90.0709C49.0959 88.9944 47.3037 83.5497 43.6711 80.9024C39.8233 77.4184 36.775 73.0476 32.4899 70.0771C26.2454 63.5458 22.9906 53.7804 18.5208 45.9221C15.9103 43.5854 15.4534 40.1826 14.0006 37.2193C11.269 33.1879 9.65072 28.5146 10.8937 23.6659C10.9989 23.1943 11.9122 23.2241 12.1955 23.3777C13.2089 24.0544 13.6306 23.2991 14.6241 22.94Z" fill="#D08F52"/>
<path fill-rule="evenodd" clip-rule="evenodd" d="M23.1416 92.3698C23.3337 90.2283 26.6915 81.1504 29.4488 83.0712C30.723 85.2303 26.7781 90.723 26.0826 93.2647C24.8754 96.2395 23.6166 94.39 23.1416 92.3698Z" fill="#D08F52"/>
<path fill-rule="evenodd" clip-rule="evenodd" d="M112.868 35.8081C111.17 35.7866 100.654 34.4678 104.767 31.774C108.533 31.4427 112.61 32.0848 116.198 33.239C118.341 35.0627 114.275 35.9723 112.868 35.8081Z" fill="#D08F52"/>
<path fill-rule="evenodd" clip-rule="evenodd" d="M103.191 23.644C95.9358 23.4226 114.403 16.4931 114.823 18.2513C117.821 21.6512 105.2 22.8266 103.191 23.644Z" fill="#D08F52"/>
<path fill-rule="evenodd" clip-rule="evenodd" d="M1.2762 55.9419C-4.21852 55.1627 9.73563 47.7271 10.9302 49.8557C11.4574 52.0683 3.25168 55.3001 1.2762 55.9419Z" fill="#D08F52"/>
<path fill-rule="evenodd" clip-rule="evenodd" d="M8.88182 76.4462C8.49317 74.5624 16.5251 65.8598 17.2979 70.0293C16.3696 71.1979 9.6195 80.1145 8.88182 76.4462Z" fill="#D08F52"/>
<path fill-rule="evenodd" clip-rule="evenodd" d="M120.586 48.1967C118.958 47.5014 114.336 47.6921 113.724 45.9174C114.146 43.2624 123.751 46.7175 120.586 48.1967Z" fill="#D08F52"/>
<path fill-rule="evenodd" clip-rule="evenodd" d="M81.6706 40.1252C81.5635 38.3646 83.1142 40.4231 83.8239 39.7334C82.5212 34.3725 78.8858 29.0883 76.541 23.8821C75.1439 21.0071 73.7105 18.1451 72.8173 15.0538C72.6301 13.683 71.3495 14.3034 70.4163 14.3782C57.9551 17.3956 45.9065 21.9126 33.4226 24.877C30.1263 25.8469 26.9 27.0669 23.6232 28.1061C22.2975 28.8671 24.7253 30.1605 24.9057 31.088C27.924 37.4325 30.607 43.8598 34.7205 49.5566C36.1764 51.0466 38.2845 57.1826 40.6474 55.5654C54.0794 50.1083 68.9324 46.636 81.6706 40.1252ZM39.0805 58.3823C34.9587 58.0858 33.234 52.6727 31.1184 49.6915C26.29 43.808 24.7407 36.1856 21.1451 29.61C18.8138 26.6544 34.7295 22.4872 36.9914 21.3799C48.9542 18.2979 60.4217 13.3777 72.5861 11.1373C76.5916 10.4263 76.3595 17.6651 78.4408 20.1276C81.3988 25.9156 84.2509 31.7788 86.356 37.9463C86.5923 38.8759 87.6074 39.879 86.849 40.8006C85.1017 43.3526 81.6681 42.3348 79.2867 43.8669C66.1733 49.3608 52.5107 54.0886 39.0805 58.3823Z" fill="#D08F52"/>
<path fill-rule="evenodd" clip-rule="evenodd" d="M92.5438 63.903C86.1804 60.7212 84.8348 60.7251 78.5116 63.6894C75.9085 64.8503 73.2836 65.989 70.8959 67.5697C68.9973 68.8265 69.0175 68.4352 70.1913 70.359C70.8792 71.0635 71.1765 73.2173 72.4203 72.7148C75.143 71.5408 77.8829 70.4028 80.5689 69.1495C84.3511 67.0234 88.9734 66.12 92.5438 63.903ZM65.2559 68.5008C67.5455 64.4707 73.7636 62.937 77.9323 61.1216C79.7615 60.0725 83.8466 60.5932 84.8491 59.253C84.9865 58.9045 85.4852 58.8419 85.912 58.8558C87.8457 58.9446 99.181 62.2263 95.7696 64.9578C88.7411 68.7508 81.0335 71.3199 73.9021 75.0116C71.1009 77.0396 69.812 76.2029 68.1797 73.4187C67.1799 71.8115 65.4716 70.4717 65.2559 68.5008Z" fill="#D08F52"/>
<path fill-rule="evenodd" clip-rule="evenodd" d="M62.0728 27.2472C61.0515 27.3873 61.5094 28.133 61.9822 28.7188C64.2657 30.8629 61.8564 35.5928 63.1903 35.3565C65.9211 34.6304 67.4326 32.193 68.9072 29.9919C70.0609 28.4622 63.1815 27.5286 62.0728 27.2472ZM45.8556 39.325C45.8557 39.3455 45.8557 39.3659 45.8559 39.3862C57.2643 38.851 51.1509 39.8631 50.2743 33.6066C50.0403 32.7208 51.0965 29.1175 49.8702 29.3193C46.0738 31.0684 44.3637 35.1898 42.3914 38.6106C42.0733 40.0083 44.9888 39.065 45.8556 39.325ZM46.6433 42.148C35.6178 42.2318 39.6667 40.0302 43.0654 32.1025C46.3504 26.2829 53.3605 24.0597 59.702 24.3713C63.5489 24.0735 67.0801 25.1956 70.6811 26.384C74.2865 27.807 71.1128 31.6665 69.9461 33.8405C67.5884 37.9513 62.7538 38.7564 58.7236 40.4739C54.8878 42.1069 50.7593 42.4526 46.6431 42.2564C46.6433 42.2203 46.6433 42.1841 46.6433 42.148Z" fill="#D08F52"/>
<path fill-rule="evenodd" clip-rule="evenodd" d="M169.706 115.978C169.706 115.974 169.706 115.97 169.706 115.966C167.562 116.431 157.448 114.887 157.506 116.837C157.804 123.136 157.778 129.391 159.668 135.462C159.837 136.298 160.233 136.501 161.154 136.551C172.412 137.509 183.61 138.434 194.946 138.162C203.451 137.95 212.309 139.754 220.478 136.902C222.068 136.353 220.293 134.681 220.367 133.658C220.656 127.787 218.786 122.308 217.784 116.589C217.83 113.724 209.459 115.505 207.195 115.099C194.718 115.971 182.212 115.961 169.706 115.978ZM157.388 114.652C168.436 110.069 180.217 111.972 191.88 112.082C198.01 111.772 203.946 111.575 210.017 111.188C211.928 110.679 216.813 112.292 216.978 109.809C215.876 91.9516 212.152 74.2916 211.652 56.4112C211.842 52.8099 211.575 50.7836 207.166 50.6095C195.099 48.8851 182.879 50.5096 170.739 49.7202C169.799 49.6945 168.816 49.946 167.939 49.3601C167.12 49.3633 166.128 49.7404 165.272 49.7599C162.947 50.4923 154.402 48.6161 155.33 52.0493C156.565 72.902 155.913 93.7831 157.388 114.652ZM225.333 135.052C233.562 146.062 188.773 141.301 182.909 142.301C178 142.249 173.122 141.801 168.278 141.062C165.293 140.646 162.293 139.269 159.301 140.436C156.6 141.376 156.302 135.389 155.703 133.748C150.565 107.215 151.102 79.6058 151.734 52.6627C152.52 43.8837 167.364 46.1241 174.006 45.2276C187.001 44.8694 200.07 44.4832 212.894 46.6763C219.921 47.6129 217.129 56.453 218.024 61.1389C218.5 67.3881 219.259 73.6208 219.823 79.8614C221.121 94.4684 222.421 109.14 224.891 123.61C225.429 127.501 226.288 132.389 224.544 135.594C224.975 135.567 225.305 135.54 225.333 135.052Z" fill="#A1483A"/>
<path fill-rule="evenodd" clip-rule="evenodd" d="M244.566 127.763C241.74 127.086 232.186 127.101 236.267 122.679C239.651 119.553 255.16 127.614 244.566 127.763Z" fill="#A1483A"/>
<path fill-rule="evenodd" clip-rule="evenodd" d="M136.878 99.6325C135.095 99.7406 124.467 98.1249 127.246 95.74C132.019 93.3851 152.448 99.0972 136.878 99.6325Z" fill="#A1483A"/>
<path fill-rule="evenodd" clip-rule="evenodd" d="M189.661 158.878C189.413 169.011 182.817 154.111 184.628 151.094C188.554 146.255 189.871 156.202 189.661 158.878Z" fill="#A1483A"/>
<path fill-rule="evenodd" clip-rule="evenodd" d="M224.723 28.0066C225.674 27.8942 226.931 29.237 226.207 29.9856C223.511 31.8422 217.992 38.0192 214.953 34.3133C214.131 30.3368 221.421 28.356 224.723 28.0066Z" fill="#A1483A"/>
<path fill-rule="evenodd" clip-rule="evenodd" d="M132.602 80.0512C135.488 80.2901 139.459 79.146 141.435 81.688C141.658 81.9517 141.398 82.4237 141.037 82.4001C136.275 82.6518 131.5 84.0751 126.701 83.3746C121.345 79.8245 130.128 79.9054 132.602 80.1014C132.602 80.0846 132.602 80.0678 132.602 80.0512Z" fill="#A1483A"/>
<path fill-rule="evenodd" clip-rule="evenodd" d="M237.277 62.1691C236.573 66.1176 230.753 65.2878 227.831 67.1078C225.668 67.9756 224.981 65.1659 226.449 64.0402C228.777 62.0857 235.092 58.9848 237.277 62.1691Z" fill="#A1483A"/>
<path fill-rule="evenodd" clip-rule="evenodd" d="M238.66 84.9057C236.505 84.1518 224.071 84.6686 227.326 80.9221C229.72 78.8713 247.407 83.9892 238.66 84.9057Z" fill="#A1483A"/>
<path fill-rule="evenodd" clip-rule="evenodd" d="M128.23 63.0308C133.021 64.2745 139.463 66.2614 141.741 70.5381C138.426 71.3452 131.033 65.9446 126.907 65.176C124.514 64.2569 126.937 63.4258 128.23 63.0308Z" fill="#A1483A"/>
<path fill-rule="evenodd" clip-rule="evenodd" d="M160.045 153.752C159.701 154.831 159.427 156.126 158.873 157.306C155.102 165.492 153.413 157.257 155.776 153.199C156.914 150.743 159.78 150.75 160.045 153.752Z" fill="#A1483A"/>
<path fill-rule="evenodd" clip-rule="evenodd" d="M134.598 122.887C135.892 118.82 136.075 114.115 140.515 112.62C142.414 112.286 142.167 114.365 141.355 115.344C139.867 117.235 136.376 125.179 134.598 122.887Z" fill="#A1483A"/>
<path fill-rule="evenodd" clip-rule="evenodd" d="M247.468 150.977C244.477 150.697 237.405 149.609 239.417 146.13C239.9 145.608 240.369 145.486 241.033 145.767C243.703 146.67 246.134 148.521 249.019 148.686C250.138 148.542 250.356 150.282 249.38 150.56C248.661 150.801 247.882 150.892 247.468 150.977Z" fill="#A1483A"/>
<path fill-rule="evenodd" clip-rule="evenodd" d="M213.962 150.308C215.652 150.638 217.239 150.445 217.861 152.08C218.643 154.345 220.776 156.716 220.759 159.007C217.623 159.235 211.503 153.281 213.962 150.308Z" fill="#A1483A"/>
<path fill-rule="evenodd" clip-rule="evenodd" d="M157.366 37.138C154.243 36.7964 149.669 32.8811 147.792 30.4234C147.228 23.3571 156.671 35.3037 157.366 37.138Z" fill="#A1483A"/>
<path fill-rule="evenodd" clip-rule="evenodd" d="M140.402 46.1619C138.157 48.0332 133.546 44.7972 131.025 44.0349C128.698 43.2228 128.469 40.7724 131.407 41.207C134.842 42.1084 138.224 43.4746 140.402 46.1619Z" fill="#A1483A"/>
<path fill-rule="evenodd" clip-rule="evenodd" d="M232.921 101.423C235.95 101.544 238.985 102.096 240.268 104.52C240.689 105.367 240.057 106.009 239.18 105.461C236.689 104.291 233.328 105.607 231.062 104.102C229.339 102.468 231.093 101.409 232.921 101.423Z" fill="#A1483A"/>
<path fill-rule="evenodd" clip-rule="evenodd" d="M185.268 33.5012C184.573 35.0383 184.959 37.7475 183.223 38.4773C178.342 36.808 183.884 27.6185 185.268 33.5012Z" fill="#A1483A"/>
<path fill-rule="evenodd" clip-rule="evenodd" d="M236.259 42.0506C245.062 43.1433 236.82 45.3163 233.021 45.1659C229.02 43.1787 233.749 41.9888 236.259 42.0506Z" fill="#A1483A"/>
<path fill-rule="evenodd" clip-rule="evenodd" d="M192.651 75.0582C191.399 74.9976 191.116 75.3414 191.429 76.282C192.78 79.7293 191.854 83.4568 191.669 87.0097C194.453 89.1393 198.84 83.1764 199.606 80.7603C199.687 78.5972 194.915 74.9036 192.651 75.0582ZM178.635 75.5848C174.204 76.0144 170.173 78.194 167.291 81.3437C165.361 82.9883 176.102 85.9309 177.563 86.9016C180.447 87.9302 177.57 82.0321 178.425 80.5791C178.407 78.9756 179.568 76.9811 178.635 75.5848ZM200.3 74.1214C206.624 80.3922 205.057 81.7071 199.71 88.2073C195.226 92.5195 188.186 91.7169 182.294 92.0485C175.182 92.0523 168.834 88.4439 162.925 85.1338C160.349 82.8674 166.217 78.9376 167.21 76.588C168.749 75.5127 167.927 74.3677 166.536 73.6784C165.361 72.9893 161.99 69.7059 164.749 69.3838C167.836 69.2887 168.699 74.8008 171.898 73.167C177.801 71.8204 168.449 66.1953 172.661 63.822C176.057 63.9868 175.297 70.9578 178.791 70.8301C187.482 69.7846 184.769 70.1308 185.315 63.0294C188.082 59.4875 189.57 65.3162 188.701 67.5948C188.115 70.0822 189.115 70.3417 191.302 70.0815C193.077 69.7848 191.453 66.6327 193.399 65.4952C196.756 63.3264 195.835 68.3117 195.296 70.009C194.999 71.3652 196.881 71.4805 197.749 72.1314C198.164 72.3287 198.533 72.3457 198.917 71.977C205.257 66.0713 208.883 69.8718 200.3 74.1214Z" fill="#A1483A"/>
<path fill-rule="evenodd" clip-rule="evenodd" d="M188.973 53.7302C190.812 54.0251 194.306 52.8631 195.089 54.8519C194.988 56.1603 194.553 56.6598 193.253 56.7004C190.557 56.7846 187.857 56.799 185.16 56.7605C183.422 56.9292 180.752 55.3495 183.009 54.0425C184.942 53.5223 186.986 53.7923 188.973 53.7378C188.973 53.7352 188.973 53.7326 188.973 53.7302Z" fill="#A1483A"/>
<path fill-rule="evenodd" clip-rule="evenodd" d="M177.455 55.52C177.513 58.2689 174.13 59.3177 173.68 56.2691C173.368 54.1138 176.984 53.5886 177.455 55.52Z" fill="#A1483A"/>
<path fill-rule="evenodd" clip-rule="evenodd" d="M188.24 123.214C183.786 124.411 188.463 130.981 191.822 128.634C195.158 126.399 190.732 123.574 188.24 123.214ZM187.859 119.727C205.387 120.2 194.553 139.652 183.49 129.541C180.929 126.944 182.684 123.839 183.367 120.998C184.07 119.673 186.497 120.091 187.859 119.727Z" fill="#A1483A"/>
</svg>
