<svg width="541" height="528" viewBox="0 0 541 528" fill="none" xmlns="http://www.w3.org/2000/svg">
<path fill-rule="evenodd" clip-rule="evenodd" d="M26.9149 372.44C28.5994 379.278 24.3761 418.767 31.1927 417.392C36.3324 415.205 45.2969 416.768 47.0037 410.198C52.8037 391.347 61.3769 372.952 74.4229 358.39C90.173 340.248 112.721 329.332 132.214 349.191C187.605 400.235 150.91 374.894 193.389 356.031C206.497 352.696 224.836 377.547 235.077 385.432C246.39 393.91 239.776 399.195 229.709 391.518C224.324 387.011 218.825 382.639 213.467 378.1C206.955 374.314 199.373 359.523 191.513 367.737C182.022 375.166 175.587 397.35 160.648 389.183C141.764 377.853 129.898 353.394 107.996 347.99C78.5009 353.486 65.4408 385.959 53.2847 410.064C52.2148 412.274 52.915 413.315 55.3343 413.205C119.489 408.99 183.596 405.024 247.911 404.427C285.198 404.11 269.455 399.312 267.652 361.486C264.925 341.856 263.749 322.094 261.743 302.406C262.743 294.297 256.56 298.415 251.569 298.29C220.08 299.017 188.608 298.631 157.145 300.74C114.326 304.506 71.2765 303.709 28.4805 307.633C26.2645 308.01 25.6206 308.733 25.6804 311.096C26.2721 331.564 27.8846 351.952 26.9149 372.44ZM82.6058 418.747C80.2469 422.105 75.4049 418.853 72.5029 420.391C59.4334 423.2 45.492 422.856 32.0721 424.504C24.9321 425.495 29.3968 436.905 27.7569 442.021C26.0097 466.688 27.9121 491.419 29.1056 516.071C103.623 516.05 184.765 514.551 261.417 518.485C299.841 519.242 284.246 519.593 282.058 471.69C279.517 452.954 278.215 433.981 275.155 415.317C273.345 405.764 274.465 406.731 265.317 407.166C259.585 407.438 253.853 407.708 248.12 407.941C203.095 409.364 157.38 413.665 113.248 417.397C110.947 418.505 107.636 417.615 105.127 417.338C98.2803 418.823 89.2607 422.745 82.5414 418.719C83.2211 419.157 83.8878 419.351 84.6823 419.124C84.0161 418.85 83.3201 418.774 82.6058 418.747ZM259.601 290.873C261.607 286.009 257.74 264.972 257.116 258.322C239.774 258.813 222.335 260.012 204.99 260.888C144.397 263.755 83.8503 267.616 23.1914 268.84C16.3004 267.781 6.25366 270.958 1.19601 265.715C0.0095301 263.196 3.57777 262.724 5.25233 262.278C70.0508 254.416 135.606 253.234 200.762 249.465C216.067 248.71 231.37 247.937 246.675 247.174C256.221 246.692 269.691 243.874 272.497 256.281C285.897 341.46 287.023 426.888 296.29 512.436C297.049 518.893 295.715 528.456 287.259 527.983C273.501 526.493 259.694 525.745 245.84 525.877C215.617 525.242 185.373 525.85 155.138 525.848C111.843 525.378 68.0657 528.085 25.19 521.375C17.5039 523.442 21.3686 506.412 19.5716 501.895C18.7009 488.73 17.331 475.571 17.1558 462.374C17.9773 419.562 14.7887 376.816 14.6387 334.001C13.2484 316.954 15.0764 299.177 10.8478 282.585C8.87037 271.926 22.7795 275.502 22.6975 284.187C26.0454 318.197 27.2547 295.909 76.6418 296.727C109.409 296.059 142.529 291.215 174.846 292.352C201.821 288.843 231.525 292.248 259.601 290.873Z" fill="black"/>
<path fill-rule="evenodd" clip-rule="evenodd" d="M49.4899 169.25C59.3593 170.124 72.3294 171.076 81.6491 176.743C87.4662 179.497 94.7532 188.153 82.9844 185.716C68.1607 181.813 52.8625 181.468 37.8603 178.955C20.4091 170.879 40.1322 168.725 49.4899 169.25Z" fill="black"/>
<path fill-rule="evenodd" clip-rule="evenodd" d="M375.336 462.647C384.934 460.928 419.538 526.853 397.305 506.681C393.469 501.341 360.97 463.664 375.336 462.647Z" fill="black"/>
<path fill-rule="evenodd" clip-rule="evenodd" d="M344.749 486.775C334.588 489.82 327.972 468.206 322.117 461.43C319.885 455.996 312.054 449.249 315.818 443.355C317.585 442.291 320.641 440.456 322.215 442.771C331.91 456.119 338.073 471.671 344.749 486.775Z" fill="black"/>
<path fill-rule="evenodd" clip-rule="evenodd" d="M76.973 223.073C70.399 221.494 20.2945 221.687 27.0271 211.196C31.8008 205.68 107.736 222.716 76.973 223.073Z" fill="black"/>
<path fill-rule="evenodd" clip-rule="evenodd" d="M118.245 209.1C123.975 209.703 154.964 212.813 147.5 222.65C140.981 225.563 91.1352 212.586 118.245 209.1Z" fill="black"/>
<path fill-rule="evenodd" clip-rule="evenodd" d="M224.867 269.432C229.301 266.021 232.812 272.71 236.866 268.969C238.452 267.508 240.493 266.797 242.645 267.033C247.829 269.191 236.756 273.767 241.036 276.676C242.775 278.618 246.977 279.906 246.397 282.985C243.936 286.118 239.809 280.763 237.23 279.666C234.294 277.107 232.124 281.109 229.593 282.191C227.944 283.045 223.594 283.388 224.665 280.403C228.791 275.406 231.552 274.086 224.867 269.432Z" fill="black"/>
<path fill-rule="evenodd" clip-rule="evenodd" d="M56.376 284.626C55.6841 277.022 66.6841 275.876 70.0234 281.47C74.8294 290.308 56.1674 294.771 56.376 284.626Z" fill="black"/>
<path fill-rule="evenodd" clip-rule="evenodd" d="M44.1309 278.102C52.2306 278.343 45.5917 295.087 38.8925 289.184C33.4442 285.064 37.6488 276.818 44.1309 278.102Z" fill="black"/>
<path fill-rule="evenodd" clip-rule="evenodd" d="M88.2788 282.737C88.162 286.659 82.2038 289.385 79.6576 285.729C75.6459 277.938 86.9073 273.299 88.2788 282.737Z" fill="black"/>
<path fill-rule="evenodd" clip-rule="evenodd" d="M222.311 342.701C239.46 342.049 223.815 326.194 215.911 323.503C204.004 321.767 210.813 344.396 222.311 342.701ZM224.196 352.717C209.87 353.789 198.471 343.338 200.289 329.529C196.943 306.238 229.273 312.564 238.8 325.353C248.657 337.649 239.871 354.32 224.196 352.717Z" fill="black"/>
<path fill-rule="evenodd" clip-rule="evenodd" d="M237.976 478.81C237.984 478.92 237.992 479.03 237.999 479.14C249.467 478.391 257.369 483.312 251.432 467.601C242.503 423.689 239.681 434.093 200.09 438.252C194.35 441.436 197.893 466.942 196.808 474.454C197.449 479.207 198.188 482.947 203.693 482.108C215.133 481.241 226.548 479.866 237.976 478.81ZM184.123 449.881C183.768 438.462 185.381 429.671 198.304 428.997C211.206 428.344 225.716 424.768 237.949 429.924C239.973 431.927 242.216 432.243 244.932 432.101C256.114 428.995 262.826 476.568 259.622 483.663C258.648 486.506 255.35 485.913 252.957 485.97C240.983 485.492 229.217 487.584 217.382 488.814C181.968 496.516 185.221 477.887 184.123 449.881Z" fill="black"/>
<path fill-rule="evenodd" clip-rule="evenodd" d="M68.8188 457.525C70.6343 448.061 76.0284 437.932 85.3672 434.223C95.1132 429.263 97.609 452.002 106.162 446.443C128.48 415.402 123.463 446.756 133.7 442.725C138.459 438.699 147.769 425.996 153.382 434.604C153.756 439.193 157.736 445.02 155.417 449.149C152.109 449.995 149.792 446.336 148.441 443.829C142.98 440.66 135.061 460.424 126.266 451.078C123.682 449.543 121.765 442.055 118.224 445.059C98.4339 476.157 92.1032 437.038 84.4512 446.399C80.3438 449.932 74.0913 467.664 68.8188 457.525Z" fill="black"/>
<path fill-rule="evenodd" clip-rule="evenodd" d="M132.645 471.444C137.64 472.337 149.186 468.806 150.151 475.267C149.988 476.564 149.057 477.28 146.821 477.385C124.752 477.328 102.753 480.097 80.6864 479.497C72.1831 472.056 127.243 472.131 132.641 471.098L132.645 471.444Z" fill="black"/>
<path fill-rule="evenodd" clip-rule="evenodd" d="M116.644 489.562C156.246 490.379 97.3441 498.813 88.0315 495.119C84.8569 490.01 112.623 489.718 116.644 489.601C116.644 489.587 116.644 489.575 116.644 489.562Z" fill="black"/>
<path fill-rule="evenodd" clip-rule="evenodd" d="M236.961 464.94C237.639 477.898 206.347 467.218 216.574 461.795C222.916 465.217 228.856 465.714 234.573 460.717C237.191 460.022 236.65 463.173 236.961 464.94Z" fill="black"/>
<path fill-rule="evenodd" clip-rule="evenodd" d="M225.997 447.85C226.515 436.208 242.926 449.437 236.465 452.908C231.436 455.189 225.848 454.69 225.997 447.85Z" fill="black"/>
<path fill-rule="evenodd" clip-rule="evenodd" d="M207.579 449.343C206.84 444.005 215.086 444.98 215.964 448.896C216.806 454.723 206.93 455.515 207.579 449.343Z" fill="black"/>
<path fill-rule="evenodd" clip-rule="evenodd" d="M512.851 264.808C512.225 263.397 511.764 263.828 510.691 264.1C510.493 265.449 511.799 264.774 512.851 264.808ZM517.877 291.184C516.244 292.305 516.469 294.721 517.985 294.807C519.399 293.46 519.949 292.681 517.877 291.184ZM494.701 278.49C494.605 286.019 501.485 295.276 508.088 297.207C512.943 296.092 503.465 273.431 502.949 268.546C499.246 264.847 494.375 275.711 494.701 278.49ZM411.378 334.08C420.522 333.614 431.717 330.41 431.318 319.167C431.819 311.542 430.87 303.588 424.139 298.701C420.568 295.033 411.259 312.146 408.118 314.829C401.386 325.712 391.168 333.239 411.378 334.08ZM481.939 233.77C467.248 253.349 447.871 269.122 431.39 287.293C430.101 288.877 426.764 290.714 428.84 292.914C439.614 302.933 443.781 320.281 434.371 332.587C425.786 342.996 409.661 342.091 398.049 337.94C392.661 335.044 391.265 346.802 388.407 350.045C387.243 353.202 378.083 370.42 384.597 368.947C399.9 366.19 415.085 362.153 430.607 360.893C453.667 360.623 477.332 364.492 498.268 374.393C501.636 376.023 501.701 370.419 502.554 368.372C508.413 353.678 507.458 335.328 510.96 319.044C512.734 296.652 509.841 308.354 496.671 297.975C486.293 288.968 483.347 271.901 496.183 262.78C497.542 261.648 500.588 260.95 499.572 258.646C494.472 249.998 488.257 241.436 481.939 233.77ZM376.043 404.663C376.166 428.62 384.85 457.722 411.821 462.336C425.383 462.55 440.822 463.167 452.913 456.11C462.992 449.562 470.995 441.546 477.31 431.286C478.617 429.297 481.275 427.823 482.116 425.615C482.158 423.4 483.489 421.982 484.8 420.474C487.653 414.459 489.525 407.645 491.912 401.308C494.895 396.237 495.96 390.598 497.9 385.156C498.879 382.452 494.753 381.332 492.932 380.394C470.748 373.095 446.614 366.765 423.203 370.631C409.192 373.499 395.118 376.143 381.299 379.843C375.608 383.009 376.581 398.057 376.043 404.663ZM395.253 300.383C394.39 300.425 392.794 299.835 392.763 301.165C393.616 302.58 396.474 299.348 395.396 298.177C394.651 298.837 395.039 299.582 395.253 300.383ZM367.216 405.093C368.055 398.633 368.817 392.155 369.822 385.723C369.563 381.413 361.761 386.604 359.156 386.923C324.257 397.71 296.428 420.07 270.302 444.784C263.62 451.735 262.831 443.742 267.34 439.008C295.187 401.881 327.202 385.31 370.98 372.709C373.646 371.885 373.379 368.445 374.239 366.255C376.905 354.902 382.129 344.458 387.388 334.131C390.556 328.436 382.369 325.351 382.227 319.714C377.688 302.239 389.415 281.108 409.894 285.766C414.525 287.377 419.588 287.716 422.938 282.882C435.656 268.606 448.606 254.256 462.095 240.645C473.38 229.179 480.009 213.314 477.988 197.239C477.216 189.974 473.444 182.162 474.732 175.057C478.701 172.52 481.11 179.129 482.654 181.793C487.761 194.196 490.639 208.412 486.2 221.479C485.606 223.301 484.514 225.453 486.017 227.128C491.345 233.067 496.586 239.082 501.041 245.718C504.526 249.057 505.18 256.861 510.592 257.182C519.646 256.861 528.792 259.584 535.213 266.294C545.835 277.958 541.318 298.646 525.067 302.048C517.25 304.06 518.134 302.363 518.604 310.886C519.052 323.797 514.176 336.192 513.978 349.128C511.396 368.896 505.898 387.433 497.484 405.411C487.554 438.925 461.466 472.679 423.265 470.055C378.055 472.602 369.83 443.098 367.216 405.093Z" fill="black"/>
<path fill-rule="evenodd" clip-rule="evenodd" d="M298.075 67.6317C294.573 65.3172 290.824 70.1414 287.495 71.2174C274.921 77.5178 264.262 86.6728 255.418 97.3554C254.008 98.9718 254.034 99.5651 255.524 100.969C273.659 119.062 297.428 128.463 321.022 136.938C296.314 117.435 288.63 100.653 298.075 67.6317ZM392.669 144.612C419.687 143.623 451.599 130.192 461.443 103.427C461.87 97.2486 454.141 93.2452 451.271 88.124C440.664 74.6573 425.056 65.7299 409.805 58.3795C407.929 58.4478 409.55 60.3058 410.363 60.8388C414.644 64.632 417.651 69.2876 419.96 74.4966C425.593 87.8735 425.099 103.417 421.165 116.831C422.318 132.7 404.472 138.537 392.669 144.612ZM302.935 91.5235C299.677 123.085 342.31 145.188 369.813 140.26C395.94 136.583 417.587 131.676 416.391 100.335C421.088 59.7279 371.137 42.1181 338.253 52.2163C313.384 54.3671 303.177 66.7684 302.935 91.5235ZM438.908 139.346C430.996 142.555 423.068 146.156 415.845 150.369C426.383 157.747 435.353 166.934 437.087 180.322C437.745 184.232 437.253 189.889 433.635 191.999C429.684 191.138 430.121 175.651 425.797 171.426C419.947 162.644 410.855 153.548 399.973 152.51C387.539 154.007 375.05 156.923 362.327 155.08C350.396 152.384 347.403 156.991 344.561 167.921C342.681 176.986 342.92 186.307 341.498 195.446C336.413 202.63 331.362 185.482 332.005 181.376C330.391 153.623 350.996 152.928 328.671 149.362C316.074 144.758 303.332 139.715 291.005 134.555C284.235 130.215 275.66 135.854 268.761 137.613C241.309 147.25 254.148 180.154 246.997 174.113C235.747 151.367 255.164 133.034 274.644 128.054C265.23 120.696 253.641 114.578 245.936 104.537C244.222 102.789 243.141 100.895 242.863 98.3879C237.029 99.3535 231.997 101.919 226.816 104.036C221.733 106.289 216.393 108.657 212.77 113.054C212.161 113.861 211.392 114.035 210.388 113.78C203.414 107.086 227.723 92.4443 234.644 93.1659C240.929 91.0549 244.644 99.2837 248.466 95.727C256.625 85.9217 263.51 74.6279 274.245 67.4177C288.937 56.767 250.788 78.7804 235.911 39.0729C234.166 36.7988 236.442 34.1114 234.781 31.9455C232.099 29.367 235.191 22.7052 238.681 25.6336C253.531 57.1763 252.65 52.9449 285.019 59.1365C285.725 59.4309 286.912 59.3042 287.562 58.8835C298.994 50.8918 313.074 49.3722 324.733 42.1036C302.093 25.9346 317.722 -20.4756 319.345 10.3134C322.55 34.0151 327.37 41.1694 352.113 37.704C365.974 38.8039 380.104 39.1423 393.7 42.1705C399.813 43.8428 405.496 42.2269 411.283 40.9119C417.72 41.4858 422.005 37.453 426.423 33.8369C431.937 30.5228 429.561 19.9864 436.056 18.5138C442.335 23.2387 436.326 34.0296 431.915 38.4177C428.607 44.7989 422.462 45.8504 416.55 48.0497C425.135 54.7798 435.141 59.7768 444.211 65.9175C453.02 67.8957 462.731 62.1278 470.709 58.4189C474.023 56.269 478.448 55.5239 480.089 51.4597C480.26 51.027 481.333 50.6468 481.889 50.7555C487.431 54.8133 481.084 61.4132 476.532 63.3554C469.372 67.4351 461.74 70.1649 453.522 71.164C452.12 71.3342 451.748 72.3328 452.599 73.4157C458.451 81.9898 467.312 89.0438 470.178 99.2927C470.534 100.971 471.182 101.205 473.01 100.65C480.958 98.2332 488.405 99.6555 495.535 103.542C498.879 104.598 506.14 112.9 498.93 112.686C489.929 108.674 479.987 107.321 470.232 108.142C464.899 110.399 463.401 118.308 458.746 122.078C453.431 129.477 444.406 132.492 438.803 139.446L438.908 139.346Z" fill="black"/>
<path fill-rule="evenodd" clip-rule="evenodd" d="M130.438 124.089C97.0973 123.43 63.7193 98.1335 97.1477 68.5531C113.189 54.7011 145.325 61.523 142.263 86.5032C140.927 104.72 112.756 114.218 110.329 91.7208C108.998 88.2993 114.648 83.0513 116.984 86.9923C120.714 112.132 145.216 85.7861 130.256 71.72C114.551 59.5653 83.0105 80.5641 92.7139 99.4809C112.65 123.233 143.247 114.801 169.103 108.422C179.639 105.71 189.586 99.1415 200.133 95.5195C212.239 91.5551 221.53 81.4569 232.086 75.9804C209.098 105.833 166.551 118.765 130.438 124.089Z" fill="black"/>
<path fill-rule="evenodd" clip-rule="evenodd" d="M438.908 139.346L438.803 139.446C457.477 130.083 483.169 144.156 488.642 162.791C480.118 171.667 477.64 161.6 471.108 156.123C464.773 149.706 457.114 145.964 448.141 144.945C446.188 145.798 445.7 143.128 444.01 143.243C441.067 143.656 435.207 143.476 438.908 139.346Z" fill="black"/>
<path fill-rule="evenodd" clip-rule="evenodd" d="M390.822 89.4064C391.634 127.523 333.629 126.494 331.791 91.188C327.735 75.9751 345.729 62.6735 356.532 63.2864C358.865 63.2305 361.163 63.2494 363.363 61.9869C377.743 60.3804 390.928 75.2315 390.822 89.4064Z" fill="black"/>
</svg>
