<svg width="500" height="367" viewBox="0 0 500 367" fill="none" xmlns="http://www.w3.org/2000/svg">
<path opacity="0.5" d="M181.859 366.527C258.786 366.527 321.147 362.808 321.147 358.219C321.147 353.631 258.786 349.912 181.859 349.912C104.933 349.912 42.5713 353.631 42.5713 358.219C42.5713 362.808 104.933 366.527 181.859 366.527Z" fill="#C9C9C9"/>
<g opacity="0.5">
<g opacity="0.5">
<path opacity="0.5" fill-rule="evenodd" clip-rule="evenodd" d="M206.621 30.9169C223.724 30.8585 240.637 32.4618 257.033 37.6388C262.012 39.2108 266.974 40.9516 271.725 43.0985C276.836 45.4081 281.48 48.6221 285.975 51.9925C291.884 56.4228 297.146 61.5327 301.655 67.3795C306.105 73.1511 309.315 79.4902 310.331 86.8294C310.976 91.4934 310.656 96.0337 309.031 100.442C305.999 108.663 301.9 116.223 295.308 122.221C290.106 126.952 284.948 131.731 279.765 136.483C273.882 141.879 268.27 147.529 263.465 153.927C259.684 158.962 256.533 164.325 255.112 170.543C254.8 171.91 254.517 173.298 254.403 174.691C253.89 180.961 256.884 185.545 261.82 188.886C265.788 191.57 270.403 192.72 275.171 192.653C285.09 192.512 295.01 192.247 304.923 191.875C318.666 191.361 332.402 190.613 346.163 190.924C363.461 191.314 380.642 192.718 397.469 197.026C406.426 199.319 415.081 202.42 423.085 207.144C426.598 209.219 429.95 211.537 432.716 214.546C434.341 216.315 435.86 218.251 437.069 220.32C439.405 224.317 439.66 228.596 438.046 232.958C436.445 237.286 433.802 240.936 430.65 244.244C425.561 249.585 419.421 253.41 412.796 256.522C404.639 260.354 396.104 263.169 387.396 265.363C373.167 268.949 358.876 272.292 344.587 275.638C321.329 281.086 298.043 286.418 274.785 291.869C258.661 295.647 242.464 299.037 226.062 301.362C213.434 303.151 200.736 304.108 187.975 303.745C177.105 303.435 166.552 301.541 156.617 296.879C152.047 294.734 147.884 292.01 144.4 288.338C132.152 275.433 140.109 259.814 148.091 247.224C149.596 244.851 151.295 242.593 152.673 240.151C153.621 238.472 154.397 236.624 154.851 234.754C155.785 230.905 154.342 228.006 150.816 226.216C148.129 224.851 145.227 224.272 142.227 224.132C135.157 223.802 128.16 224.593 121.244 225.868C106.807 228.532 92.4009 231.364 77.9979 234.207C66.7162 236.433 55.3644 236.871 43.9373 235.826C42.8538 235.727 41.7449 235.567 40.7198 235.222C30.5048 231.787 21.2934 226.707 13.7895 218.807C7.17471 211.843 3.50959 203.431 1.54373 194.178C-0.4763 184.67 -0.333117 175.127 0.934455 165.528C2.66984 152.385 6.51856 139.949 12.7945 128.259C16.4743 121.406 20.7916 115.01 26.4046 109.587C35.5042 100.794 44.3914 91.752 53.8926 83.4118C69.5824 69.6389 87.6071 59.4985 106.766 51.3421C125.894 43.1994 145.777 37.668 166.279 34.28C177.625 32.4047 189.029 31.173 200.531 30.9233C202.561 30.8791 204.591 30.9169 206.621 30.9169Z" fill="#F1ECE8"/>
</g>
</g>
<path fill-rule="evenodd" clip-rule="evenodd" d="M286.87 261.119C286.229 259.769 286.229 259.782 284.844 259.84C284.467 259.856 284.085 259.773 283.705 259.726C282.724 259.606 281.838 259.173 280.768 259.232C279.689 259.291 278.511 258.946 277.509 258.488C276.884 258.203 276.39 258.143 275.738 258.17C273.426 258.264 271.231 259.549 268.84 258.835C268.628 258.772 268.348 258.952 268.097 259C266.641 259.276 265.123 259.326 263.816 260.155C262.098 259.661 260.659 260.798 259.053 260.976C257.421 261.157 256.029 261.851 254.825 262.989C254.475 263.319 253.928 263.602 253.461 263.617C251.618 263.677 250.331 264.783 248.999 265.82C248.404 266.284 247.748 266.721 247.299 267.308C246.696 268.096 246.287 269.029 245.758 269.877C244.968 271.146 245.702 272.784 247.202 273.037C248.316 273.226 249.442 273.353 250.544 273.594C251.77 273.863 252.958 274.529 254.212 273.625C254.38 273.503 254.796 273.729 255.097 273.788C255.403 273.848 255.857 274.06 255.991 273.934C257.161 272.838 258.399 273.531 259.631 273.687C260.363 273.78 261.56 274.031 261.764 273.712C262.25 272.948 262.673 273.373 263.191 273.352C264.451 273.298 265.758 273.286 266.947 272.929C268.034 272.601 269.22 272.143 270.267 272.196C270.632 272.215 271.078 272.2 271.36 272.012C272.321 271.368 273.301 271.084 274.437 271.451C274.66 271.523 275.047 271.548 275.162 271.42C276.087 270.384 277.444 270.731 278.563 270.332C279.529 269.987 280.753 270.202 281.589 269.707C282.571 269.126 283.501 268.907 284.584 268.851C285.122 268.823 285.906 268.643 286.119 268.269C286.617 267.395 287.433 267.62 288.101 267.447C289.419 267.106 290.785 266.95 292.107 266.622C292.659 266.484 293.151 266.101 293.67 265.83C292.417 265.173 292.23 263.536 290.8 263.513C290.68 263.511 290.495 263.253 290.457 263.087C290.015 261.174 288.507 261.214 286.87 261.119ZM311.733 221.31C312.514 220.988 313.172 220.76 313.787 220.448C314.162 220.258 314.69 219.994 314.772 219.667C315.203 217.97 316.127 216.588 317.207 215.257C317.741 214.599 317.517 213.607 316.911 213.397C315.369 212.865 313.922 211.314 312.05 212.616C311.853 212.752 311.444 212.653 311.157 212.576C310.476 212.396 309.724 212.292 309.159 211.919C308.489 211.475 307.669 212.549 307.158 211.599C306.191 212.022 305.355 211.221 304.442 211.293C302.328 211.458 300.248 212.005 298.099 211.792C297.752 211.758 297.292 211.872 297.035 212.093C295.545 213.374 293.703 213.4 291.912 213.701C290.49 213.941 289.072 214.309 287.718 214.798C286.6 215.203 285.998 216.736 284.473 216.336C283.935 217.896 281.845 217.26 281.192 218.655C278.961 218.992 278.141 220.643 277.726 222.368C277.259 222.854 276.732 222.173 276.35 222.981C275.92 223.89 274.409 224.258 274.986 225.721C274.994 225.74 274.889 225.795 274.85 225.844C273.684 227.279 273.544 229.069 273.177 230.773C273.103 231.113 273.194 231.552 273.358 231.868C274.125 233.34 274.937 234.789 275.751 236.236C275.836 236.387 276.019 236.545 276.182 236.58C278.448 237.065 280.361 238.804 282.861 238.457C283.478 238.371 284.106 238.36 284.718 238.248C285.766 238.054 286.75 237.681 287.863 238.249C288.603 238.627 289.483 238.853 290.262 237.886C290.721 237.316 291.599 237.033 292.338 236.751C294.052 236.097 295.836 235.613 297.517 234.887C298.743 234.358 299.869 233.583 301.002 232.858C301.779 232.361 302.515 231.793 303.226 231.203C304.345 230.273 305.453 229.328 306.513 228.333C307.194 227.695 307.655 226.667 308.437 226.33C309.635 225.812 310.026 225 310.021 223.916C312.502 223.309 312.448 222.927 311.733 221.31ZM339.168 220.669C339.735 222.063 340.251 223.669 341.034 225.132C341.501 226.007 342.267 226.674 341.822 227.81C341.721 228.068 341.819 228.483 341.969 228.744C342.944 230.451 342.547 232.314 342.666 234.125C342.845 236.846 341.592 239.205 340.894 241.704C340.846 241.876 340.719 242.08 340.571 242.16C339.626 242.664 339.64 243.533 339.653 244.033C338.932 244.792 338.377 245.321 337.888 245.903C336.791 247.208 335.731 248.542 334.647 249.856C334.537 249.988 334.353 250.153 334.21 250.147C332.618 250.077 332.521 251.174 332.521 252.396C331.362 252.672 330.612 253.963 329.216 253.593C328.688 254.326 328.155 255.055 327.634 255.792C327.528 255.942 327.467 256.124 327.357 256.348C326.327 256.637 325.168 256.398 324.281 257.472C323.615 258.277 322.053 257.969 321.412 259.14C321.311 259.325 320.988 259.4 320.757 259.501C319.316 260.126 317.942 260.777 316.732 261.887C315.919 262.633 314.634 263.054 313.506 263.195C312.854 263.277 312.613 263.272 312.276 263.887C311.795 264.764 311.469 264.747 310.387 264.533C306.97 266.102 303.853 267.533 300.513 269.067C300.178 271.179 299.841 273.414 299.46 275.641C299.259 276.815 298.951 277.971 298.752 279.145C298.63 279.864 297.803 279.86 297.538 280.636C297.221 281.565 297.018 282.861 295.783 283.317C295.685 283.353 295.604 283.51 295.566 283.627C294.813 285.957 292.933 287.414 291.342 289.095C291.18 289.266 291.045 289.607 290.885 289.615C289.025 289.708 288.098 291.167 286.883 292.23C286.448 292.611 285.734 292.674 285.3 293.056C284.113 294.101 282.816 294.985 281.433 295.714C280.152 296.39 278.754 296.842 277.447 297.475C276.142 298.108 274.9 298.868 273.604 299.519C273.194 299.724 272.7 299.765 272.242 299.866C271.998 299.919 271.664 299.85 271.514 299.991C270.008 301.4 267.914 301.539 266.193 302.48C265.677 302.763 265.133 303.307 264.45 302.68C264.338 302.576 263.961 302.676 263.751 302.775C261.59 303.8 259.429 304.515 256.934 304.574C254.892 304.622 252.882 305.601 250.836 306.08C249.553 306.38 248.228 306.497 246.929 306.738C246.252 306.863 245.594 307.084 244.924 307.25C243.575 307.585 242.32 308.195 240.796 307.667C239.971 307.381 238.883 307.675 237.959 307.896C236.63 308.213 235.301 308.228 233.954 308.279C232.569 308.332 231.113 308.347 229.827 308.785C227.665 309.521 225.443 308.861 223.298 309.366C223.079 309.418 222.794 309.107 222.521 309.032C222.214 308.948 221.887 308.921 221.567 308.911C221.464 308.908 221.322 309.12 221.255 309.093C218.49 307.954 215.482 307.992 212.628 307.289C212.545 307.269 212.498 307.1 212.368 306.899C212.946 306.108 213.864 306.126 214.709 305.996C215.748 305.837 216.823 305.922 217.774 305.268C218.071 305.064 218.621 305.25 219.051 305.21C220.238 305.099 221.494 305.169 222.592 304.791C224.526 304.125 226.419 303.664 228.465 304.068C229.287 304.231 230.671 303.789 231.409 303.227C232.381 304.041 233.34 304.01 234.585 303.636C236.811 302.967 239.143 302.352 241.438 302.328C242.753 302.314 244.029 302.365 245.289 301.996C245.97 301.796 246.593 301.369 247.28 301.233C248.207 301.049 249.015 300.705 250.159 301.017C251.328 301.336 252.998 300.784 254.094 300.07C254.881 299.558 255.52 300.187 255.971 299.83C256.841 299.142 257.875 299.192 258.811 298.859C259.419 298.644 259.938 298.535 260.595 298.539C261.391 298.544 262.224 298.214 262.982 297.89C264.497 297.244 265.95 296.454 267.47 295.822C268.21 295.515 269.067 295.496 269.828 295.226C271.137 294.762 272.462 294.3 273.687 293.659C275.1 292.92 276.378 291.923 277.781 291.164C278.644 290.697 279.639 290.477 280.565 290.123C282.329 289.449 284.159 288.909 285.318 287.201C285.554 286.855 286.212 286.824 286.615 286.557C287.607 285.898 288.671 284.139 289.128 283.025C289.329 282.536 290.013 282.246 290.761 281.633C290.81 281.545 289.903 280.727 291.151 280.581C292.167 280.463 293.29 278.915 293.435 277.888C293.505 277.401 293.55 276.81 293.844 276.472C295.16 274.959 294.844 273.017 295.32 271.289C295.359 271.146 295.194 270.948 295.086 270.682C293.94 271.043 292.729 271.232 291.713 271.782C289.322 273.078 286.674 273.334 284.114 273.972C283.072 274.231 281.946 274.525 281.109 275.143C280.071 275.909 278.619 275.315 277.772 276.393C275.944 275.939 274.298 276.823 272.574 277.117C270.778 277.423 268.957 277.532 267.212 278.206C266.19 278.601 264.974 278.832 263.907 278.686C262.717 278.524 261.659 278.92 260.56 278.935C258.301 278.966 256.002 279.32 253.775 278.584C253.597 278.526 253.391 278.502 253.205 278.521C249.379 278.91 249.379 278.912 245.865 277.522C243.817 277.861 243.06 275.427 241.187 275.323C240.951 275.309 240.732 274.754 240.531 274.433C240.286 274.04 240.065 273.631 239.838 273.226C239.748 273.067 239.56 272.856 239.605 272.743C240.262 271.086 239.729 269.099 241.022 267.621C241.147 267.478 241.301 267.318 241.336 267.145C241.56 266.029 242.166 265.23 243.063 264.507C244.509 263.339 245.821 262.006 247.194 260.747C247.87 260.127 249.06 260.228 249.423 259.165C251.063 259.737 251.725 257.452 253.301 257.838C254.25 256.391 256.034 256.749 257.34 256.008C258.293 255.468 259.593 255.571 260.711 255.283C261.672 255.036 262.595 254.643 263.813 254.216C263.948 254.277 264.397 254.482 264.846 254.686C264.836 254.581 264.827 254.477 264.818 254.372C265.683 254.119 266.538 253.709 267.416 253.65C268.559 253.573 269.677 253.463 270.813 253.298C271.973 253.13 273.204 253.506 274.408 253.564C275.824 253.632 277.25 253.54 278.661 253.654C280.417 253.796 282.169 253.866 283.879 254.557C284.58 254.841 285.533 254.772 286.327 255.107C286.673 255.253 287.039 255.358 287.372 255.529C289.555 256.648 291.961 257.245 294.081 258.568C294.852 259.049 294.934 259.479 294.969 260.174C297.098 259.971 296.981 262.647 299.55 262.936C300.797 262.74 302.83 262.233 304.677 261.122C304.784 261.057 304.916 261.026 305.041 260.998C306.082 260.761 307.247 260.743 308.13 260.233C309 259.731 309.716 259.041 310.8 258.934C311.194 258.895 311.595 258.557 311.922 258.274C312.59 257.696 313.201 257.306 314.207 257.213C315.224 257.12 316.198 256.31 317.142 255.734C317.931 255.252 318.652 254.658 319.395 254.101C319.488 254.032 319.556 253.792 319.591 253.801C321.018 254.176 321.483 252.59 322.636 252.287C323.239 252.129 323.642 251.204 324.243 250.499C325.193 251.171 325.87 250.318 326.617 249.644C327.132 249.18 327.693 248.765 328.181 248.277C328.518 247.939 328.754 247.502 329.059 247.13C329.285 246.852 329.503 246.516 329.804 246.36C331.388 245.54 332.948 244.781 333.222 242.678C333.289 242.167 333.942 241.667 334.423 241.285C336.484 239.65 337.548 237.626 337.166 234.934C337.099 234.462 337.106 233.826 337.367 233.49C338.368 232.203 337.584 230.807 337.579 229.525C337.575 228.463 336.602 227.407 336.068 226.344C335.896 226.003 335.633 225.652 335.621 225.298C335.591 224.397 334.939 224.006 334.397 223.47C333.977 223.056 333.776 222.426 333.372 221.991C332.263 220.797 331.182 219.549 329.91 218.552C329.478 218.213 328.767 218.136 328.403 217.563C328.338 217.461 328.198 217.319 328.113 217.331C326.257 217.607 325.344 215.862 323.857 215.362C323.74 215.323 323.609 215.331 323.299 215.295C322.375 216.764 321.423 218.315 320.43 219.839C319.855 220.719 319.179 221.533 318.613 222.419C318.105 223.218 317.804 224.174 317.2 224.88C316.125 226.137 314.893 227.26 313.72 228.433C313.493 228.659 313.069 228.821 313.019 229.07C312.727 230.516 311.371 230.788 310.444 231.532C310.205 231.724 309.866 231.945 309.82 232.198C309.551 233.661 308.215 234.135 307.283 234.939C306.341 235.75 305.396 236.592 304.076 236.917C303.327 237.102 302.673 237.728 302.014 238.206C301.013 238.932 300.145 239.871 298.781 239.948C298.49 239.965 298.22 240.232 297.929 240.358C296.443 241.005 295.126 242.166 293.331 241.876C291.358 243.246 288.672 242.599 286.765 244.192C286.547 244.374 286.119 244.477 285.855 244.397C285.243 244.21 284.693 243.769 284.077 243.655C283.434 243.538 282.721 243.802 282.077 243.687C281.149 243.52 280.262 242.959 279.345 242.93C277.593 242.874 276.147 242.399 274.736 241.282C273.42 240.24 272.026 239.336 270.773 238.166C269.594 237.063 269.676 235.616 269.013 234.412C268.682 233.81 268.451 233.141 268.254 232.478C268.02 231.697 267.512 231.023 268.204 230.053C268.647 229.432 268.391 228.322 268.477 227.433C268.548 226.69 268.739 226.03 269.093 225.311C270.067 223.329 270.885 221.286 272.404 219.621C272.578 219.43 272.509 219.036 272.617 218.761C272.732 218.467 272.999 217.944 273.069 217.965C274.118 218.276 274.362 217.497 274.752 216.845C274.899 216.6 275.221 216.315 275.475 216.303C276.499 216.258 276.999 215.523 277.654 214.913C278.462 214.16 279.093 213.072 280.433 213.085C280.589 213.087 280.816 212.928 280.892 212.782C281.521 211.587 282.737 211.568 283.82 211.221C284.721 210.933 285.679 210.6 286.399 210.021C287.159 209.409 287.713 208.599 288.858 208.984C288.958 209.018 289.147 208.978 289.211 208.902C290.403 207.454 292.175 207.818 293.707 207.502C295.794 207.073 297.915 206.794 300.029 206.508C300.707 206.416 301.411 206.53 302.101 206.506C302.627 206.487 303.134 206.829 303.704 206.292C303.979 206.033 304.769 206.323 305.326 206.361C306.453 206.438 307.416 207.073 308.76 206.524C309.777 206.109 311.251 206.811 312.521 207.019C313.766 207.223 315.006 207.462 316.255 207.631C317.504 207.8 318.804 207.756 319.802 208.72C320.632 208.577 321 208.077 321.18 207.309C321.599 205.515 322.094 203.74 322.516 201.946C322.767 200.876 322.695 199.722 323.452 198.789C323.583 198.628 323.605 198.232 323.498 198.049C322.843 196.931 323.867 196.097 324.099 195.19C324.268 194.527 324.525 194.094 324.264 193.34C324.015 192.62 324.043 191.71 324.228 190.951C324.687 189.079 324.704 187.249 324.281 185.375C324.13 184.707 324.23 183.985 324.208 183.288C324.153 181.563 323.805 179.898 323.343 178.233C322.826 176.37 323.796 174.749 325.589 174.207C325.816 174.138 326.191 174.116 326.324 174.248C327.574 175.486 329.334 176.242 329.011 178.677C328.781 180.419 329.44 182.281 329.706 184.089C329.734 184.277 329.894 184.548 329.821 184.634C328.905 185.704 329.422 186.96 329.54 188.048C329.779 190.253 329.101 192.461 329.689 194.647C329.781 194.987 329.699 195.405 329.601 195.76C329.164 197.338 328.654 198.897 328.246 200.482C327.952 201.626 327.692 202.791 327.571 203.963C327.401 205.618 327.087 207.151 326.013 208.525C325.16 209.618 325.755 211.196 327.137 211.609C328.51 212.021 329.805 212.473 330.734 213.636C330.806 213.726 330.952 213.78 331.072 213.806C331.999 214.004 332.707 214.45 333.316 215.231C333.913 215.996 334.745 216.579 335.487 217.227C335.811 217.51 336.135 217.824 336.516 218.004C337.171 218.315 337.688 218.61 337.906 219.433C338.031 219.903 338.696 220.23 339.168 220.669Z" fill="black"/>
<path fill-rule="evenodd" clip-rule="evenodd" d="M51.3553 150.566C52.1076 150.261 53.024 150.276 53.865 150.293C55.7266 150.331 57.5877 150.438 59.4454 150.57C59.8695 150.6 60.2692 150.892 60.6974 150.975C61.1816 151.07 61.7232 151.202 62.1737 151.078C63.6321 150.676 65.0098 150.806 66.4038 151.346C66.9869 151.572 67.6335 151.655 68.2598 151.744C69.0608 151.857 69.919 151.766 70.6671 152.017C72.8276 152.743 75.2014 153.124 76.6715 155.107C76.5992 155.342 76.5931 155.542 76.521 155.57C74.4203 156.376 72.3963 157.518 69.9914 156.973C69.5873 156.881 69.1239 157.078 68.6855 157.104C68.3361 157.124 67.9678 157.148 67.6357 157.062C66.6928 156.819 65.7777 156.431 64.8235 156.291C64.4712 156.24 64.0407 156.723 63.4977 157.052C62.3581 156.514 61.143 155.732 59.5373 156.389C58.7828 156.697 57.7526 156.391 56.8619 156.262C56.6509 156.231 56.4828 155.902 56.4699 155.856L56.469 155.853L50.85 155.163C50.517 154.545 50.0693 153.715 49.5675 152.784C49.6501 151.612 50.4506 150.932 51.3553 150.566ZM55.1943 129.702C55.5831 129.64 56.122 129.75 56.4165 129.994C57.6753 131.038 59.1899 131.252 60.6905 131.672C61.5761 131.92 62.4425 132.232 63.3699 132.34C63.5539 132.362 63.8371 132.425 63.8897 132.548C64.4955 133.964 65.8196 134.058 67.0571 134.419C67.7362 134.618 68.3058 135.183 68.9334 135.569C69.5047 135.92 70.0379 136.755 70.6981 135.355C71.5855 137.153 72.8965 137.737 74.4246 138.185C75.6484 138.545 76.7908 139.174 77.7535 140.201C78.8593 141.38 79.4425 141.868 79.9568 143.508C78.1846 144.142 76.5074 144.916 74.5255 143.994C73.3465 143.446 72.0436 143.166 70.5562 142.687C70.5219 142.539 70.4111 142.062 70.2994 141.582C68.8244 141.657 67.7414 140.833 66.6279 140.166C65.4899 139.484 64.4439 138.695 63.0372 138.58C62.499 138.536 61.9286 138.231 61.4783 137.901C60.4081 137.116 59.3041 136.665 57.9302 136.565C57.1028 136.504 56.3502 135.689 55.5217 135.304C54.6756 134.91 53.7782 134.628 52.8204 134.265C52.7394 133.985 52.7278 133.476 52.4748 133.161C51.5977 132.066 52.2687 131.069 52.8809 130.401C53.3537 129.887 54.3883 129.832 55.1943 129.702ZM59.4357 113.129C60.5751 112.476 61.6436 112.645 62.7863 113.233C64.215 113.969 65.7504 114.468 67.0565 115.48C67.476 115.806 68.2527 115.671 68.8664 115.746C68.827 115.818 68.7879 115.89 68.7487 115.962C69.4265 116.322 70.1023 116.687 70.7832 117.041C71.2844 117.302 72.1004 117.435 72.2431 117.822C72.7716 119.256 74.3165 119.301 75.2005 120.218C75.5265 120.556 76.0956 120.725 76.584 120.829C78.0329 121.137 78.7287 121.541 79.4401 122.573C79.6182 122.831 79.8449 123.125 80.1175 123.237C81.8143 123.934 81.846 125.628 82.6089 127.108C81.2241 127.329 80.0198 127.372 78.7768 127.155C78.0373 127.025 77.2613 127.102 76.1454 127.079C75.9338 126.821 75.7162 125.872 74.6997 125.994C73.2737 123.877 70.7531 123.32 68.7499 122.12C66.631 120.849 64.9997 118.949 62.7218 117.929C61.8657 117.545 60.9638 117.299 60.1676 116.477C59.0696 115.342 58.9367 114.41 59.4357 113.129Z" fill="#D08F52"/>
<path fill-rule="evenodd" clip-rule="evenodd" d="M238.163 235.248C239.352 235.521 239.971 236.326 240.303 237.44C239.341 238.898 239.156 240.562 239.144 242.277C239.131 243.954 238.662 244.628 236.715 245.516C236.495 244.737 236.163 244.1 236.17 243.468C236.183 242.332 236.307 241.177 236.557 240.069C236.839 238.819 237.13 237.612 236.93 236.303C236.781 235.336 237.243 235.037 238.163 235.248ZM248.677 233.448C248.945 233.977 249.238 234.555 249.651 235.371C249.57 236.23 249.568 237.624 249.269 238.951C249.087 239.753 248.58 240.595 247.976 241.159C247.297 241.792 245.689 240.53 245.975 239.388C246.475 237.396 245.883 234.908 248.677 233.448ZM265.453 231.519C266.249 233.439 265.361 238.018 262.4 238.446C261.375 236.375 262.944 234.337 262.568 232.368C262.991 231.913 263.34 231.446 263.778 231.09C264.469 230.529 265.109 230.69 265.453 231.519ZM216.412 228.766C216.218 230.741 216.795 232.789 215.837 234.699C215.369 235.634 215.024 236.629 214.545 237.785C212.703 236.791 212.977 235.186 212.986 233.805C212.995 232.502 213.377 231.203 213.554 229.897C213.618 229.422 213.564 228.932 213.564 228.22C213.713 228.11 214.028 227.782 214.414 227.607C215.489 227.118 216.522 227.637 216.412 228.766ZM232.111 219.07C234.259 219.12 234.793 219.615 234.632 221.546C234.465 223.537 234.417 225.599 232.716 227.223C232.478 227.046 232.132 226.923 232.03 226.693C231.402 225.274 231.451 222.409 232.111 219.07ZM194.909 215.079C195.848 216.668 195.959 218.359 195.479 220.122C195.015 221.826 195.829 223.743 194.589 225.312C193.121 224.835 191.889 222.877 192.459 221.412C192.81 220.508 192.645 219.854 192.405 219.065C191.716 216.808 192.375 215.743 194.909 215.079ZM275.516 216.477C276.94 216.953 276.837 218.169 276.676 219.311C276.504 220.532 276.168 221.73 275.87 223.091C275.353 223.312 274.664 223.606 274.025 223.879C272.379 222.519 273.243 220.937 273.335 219.467C273.424 218.035 273.961 216.898 275.516 216.477ZM249.079 211.554L249.204 211.658C250.322 212.591 251.209 213.456 250.264 215.087C249.956 215.619 249.85 216.497 250.065 217.059C250.776 218.917 249.187 219.75 248.514 221.436C247.921 219.817 246.858 218.82 247.232 217.28C247.347 216.801 247.31 216.242 247.191 215.757C246.728 213.875 247.587 212.638 249.079 211.554ZM287.118 213.952C287.662 214.068 288.598 215.286 288.377 215.923C287.756 217.719 287.856 219.887 285.759 221.179C284.599 219.904 284.353 218.591 284.973 217.096C285.187 216.578 285.357 216.038 285.494 215.495C285.729 214.563 286.486 213.819 287.118 213.952ZM262.795 209.687C263.443 210.957 263.815 212.074 263.261 213.429C262.89 214.337 262.8 215.395 262.759 216.393C262.702 217.792 261.659 218.412 260.865 219.539C259.76 217.405 259.169 215.573 260.282 213.544C260.515 213.119 260.552 212.557 260.578 212.053C260.644 210.698 261.332 209.946 262.795 209.687ZM218.187 208.617C218.377 208.996 218.406 209.455 218.54 210.009C217.897 210.664 217.495 211.49 217.825 212.603C218.256 214.054 217.189 214.97 216.37 215.899C216.167 216.13 215.575 216.019 214.739 216.112C215.245 213.918 214.389 211.953 215.488 210.136C215.624 209.912 215.509 209.534 215.505 209.226C215.494 208.409 215.716 207.676 216.6 207.497C217.435 207.328 217.869 207.985 218.187 208.617ZM200.203 202.114C200.682 202.878 201.133 203.598 201.558 204.276C201.375 205.33 201.242 206.328 201.015 207.304C200.905 207.777 200.699 208.274 200.395 208.645C199.652 209.552 199.131 209.431 198.604 208.338C198.389 207.894 198.119 207.478 197.827 206.965C198.454 205.345 198.555 203.504 200.203 202.114ZM242.414 202.564C242.354 204.244 242.341 205.985 241.452 207.496C241.207 207.911 240.65 208.324 240.198 208.371C239.904 208.402 239.415 207.827 239.229 207.425C238.474 205.786 239.25 204.219 239.638 202.663C239.8 202.018 240.308 201.459 240.609 200.945C241.935 200.866 242.448 201.624 242.414 202.564ZM229.04 194.014C230.645 195.227 230.927 196.113 230.499 197.673C229.909 199.817 229.32 201.969 228.9 204.15C228.672 205.332 228.1 206.208 227.409 207.061C227.197 206.975 227.014 206.959 226.977 206.876C226.267 205.302 226.228 201.836 226.665 200.301C227.038 198.994 227.256 197.618 227.334 196.261C227.402 195.077 228.297 194.701 229.04 194.014ZM257.532 194.525C257.692 195.133 258.103 195.815 257.976 196.373C257.496 198.468 256.903 200.543 256.216 202.581C255.986 203.265 255.349 203.812 254.729 204.652C254.317 204.172 253.813 203.856 253.769 203.484C253.615 202.204 253.239 200.937 254.012 199.629C254.543 198.733 254.612 197.574 254.977 196.565C255.337 195.571 255.733 194.539 257.532 194.525ZM209.721 195.127C210.448 195.374 211.08 195.587 211.961 195.886C211.709 197.126 211.493 198.292 211.232 199.447C211.064 200.189 210.776 200.907 210.641 201.653C210.475 202.576 209.927 202.946 209.07 202.997C207.807 202.317 208.053 201.034 207.892 200.393C208.564 198.458 209.108 196.891 209.721 195.127ZM187.678 195.401C188.922 195.466 189.309 196.504 189.27 197.247C189.181 198.916 188.735 200.566 188.435 202.223C188.239 202.271 188.044 202.319 187.848 202.367C187.413 201.783 186.828 201.257 186.579 200.602C186.23 199.688 186.031 198.686 185.951 197.706C185.852 196.479 187.068 196.133 187.678 195.401ZM270.286 194.288L270.305 194.333C270.457 194.682 270.567 195.048 270.576 195.073C270.446 196.752 270.401 198.091 270.224 199.412C270.072 200.55 269.387 201.369 268.316 201.82C267.542 202.147 266.935 201.827 266.738 201.005C266.414 199.653 267.06 198.45 267.343 197.193C267.509 196.458 267.705 195.729 267.893 194.999C267.957 194.755 267.968 194.443 268.127 194.289C268.467 193.956 268.85 193.587 269.284 193.449C269.941 193.239 270.097 193.836 270.286 194.288ZM284.286 189.832C284.043 193.461 284.175 197.238 281.496 200.54C279.669 198.153 280.052 195.919 281.053 193.579C281.516 192.496 281.438 191.222 282.245 190.21C282.778 189.544 283.294 189.339 284.286 189.832ZM242.798 188.322C244.585 189.496 244.697 189.852 244.034 191.615C243.833 192.149 243.549 192.746 243.619 193.273C243.849 195.011 243.003 195.947 241.369 196.583C240.364 194.892 239.739 193.353 241.105 191.615C241.401 191.239 241.148 190.432 241.148 189.492C241.523 189.227 242.18 188.76 242.798 188.322ZM222.905 183.033C223.139 183.122 223.371 183.218 223.82 183.396C222.935 185.805 222.891 188.439 221.333 190.802C221.081 190.54 220.76 190.346 220.648 190.068L220.558 189.841C220.095 188.667 219.722 187.48 220.196 186.176C220.364 185.712 220.388 185.182 220.409 184.679C220.49 182.739 221.076 182.344 222.905 183.033ZM199.417 184.189C199.297 186.312 198.663 188.133 197.216 189.927C195.326 187.242 196.757 184.697 196.957 182.195C199.078 181.427 199.544 181.943 199.417 184.189ZM253.546 175.99C253.88 176.119 254.32 176.631 254.29 176.933C254.057 179.273 254.053 181.652 253.084 183.88C252.49 185.244 251.391 186.081 250.133 187.34C250.133 185.376 249.731 183.725 250.231 182.419C250.9 180.676 251.009 178.824 251.705 177.126C251.846 176.782 252.069 176.394 252.367 176.213C252.698 176.012 253.221 175.864 253.546 175.99ZM232.811 177.111C233.281 177.299 233.897 177.546 234.566 177.814C234.362 179.641 234.263 181.399 233.926 183.111C233.799 183.758 233.123 184.298 232.633 184.977C231.985 184.67 231.483 184.432 230.781 184.1C230.898 183.462 230.871 182.732 231.171 182.177C231.725 181.149 231.89 180.189 231.331 179.328C231.849 178.551 232.289 177.892 232.811 177.111ZM270.863 176.504C270.715 178.221 270.437 179.95 269.978 181.608C269.746 182.448 268.99 183.143 268.424 183.97C267.098 182.085 267.097 180.135 268.276 174.02C270.148 173.728 271.036 174.491 270.863 176.504ZM211.29 176.587C212.63 176.638 213.115 177.335 213.152 178.455C213.221 180.553 212.948 182.494 210.893 183.67C208.757 181.48 208.877 179.447 211.29 176.587ZM243.955 173.013C245.504 174.521 244.661 176.148 244.177 177.792C243.683 178.013 243.179 178.237 242.478 178.55C241.882 177.278 241.079 176.093 241.411 174.755C241.686 173.639 242.613 172.894 243.955 173.013ZM283.3 165.389C283.421 167.572 282.335 169.436 281.809 171.447C281.606 172.224 281.227 172.896 281.511 173.821C281.822 174.832 281.144 175.814 279.496 177.483C278.722 175.914 278.336 174.616 278.768 172.857C279.221 171.008 279.715 169.084 279.701 167.089C279.695 166.076 280.331 165.059 280.689 164.009C280.97 163.986 281.341 163.951 281.713 163.929C282.969 163.852 283.232 164.159 283.3 165.389ZM185.618 165.102C186.955 169.215 185.189 172.576 183.528 176.197C182.422 175.241 182.537 174.06 182.282 173.104C182.075 172.326 182.376 171.39 182.54 170.541C182.74 169.512 183.155 168.58 183.173 167.447C183.189 166.413 184.221 165.53 185.618 165.102ZM227.076 162.329C229.557 162.717 229.558 164.23 228.863 165.976C228.326 167.325 227.682 168.582 227.84 170.15C227.901 170.76 227.184 171.454 226.809 172.102C226.358 172.882 225.893 173.654 225.287 174.68C224.094 171.978 223.805 169.69 225.196 167.339C225.603 166.651 225.94 165.764 225.886 164.998C225.805 163.854 226.214 163.082 227.076 162.329ZM236.515 160.976C236.81 161.196 237.033 161.512 237.284 161.778C236.593 163.683 236.03 165.562 235.22 167.328C234.834 168.172 233.981 168.803 233.216 169.67C232.763 168.625 232.443 167.887 232.116 167.132C232.633 165.421 233.579 163.823 233.772 161.928C233.886 160.806 235.604 160.296 236.515 160.976ZM200.334 159.805C200.663 160.144 201.202 160.438 201.287 160.831C201.882 163.573 202.262 166.338 201.454 169.114C201.425 169.214 201.272 169.278 201.088 169.433C198.175 166.196 197.83 162.23 200.334 159.805ZM247.912 155.416C248.102 155.456 248.345 155.541 248.592 155.551C249.739 155.598 250.137 155.963 250.264 156.952C250.621 159.731 249.901 162.343 248.957 164.887C248.554 165.972 247.846 166.976 246.535 167.618C246.414 167.105 246.23 166.706 246.243 166.313C246.294 164.676 245.422 162.942 246.772 161.42C246.984 161.18 247.038 160.66 246.955 160.322C246.523 158.555 247.163 157.008 247.912 155.416ZM217.397 156.457C218.495 157.391 218.682 157.765 218.024 159.02C217.344 160.315 216.773 161.626 216.655 163.121C216.561 164.319 215.74 165.146 214.993 166.022C213.351 164.974 213.766 163.296 213.852 162.017C213.977 160.179 214.714 158.383 215.205 156.506C215.861 156.288 216.52 155.713 217.397 156.457ZM261.77 158.475C262.48 160.583 261.207 164.226 259.427 165.259C258.27 163.38 258.781 161.43 259.26 159.52C259.606 158.144 260.761 158.402 261.77 158.475ZM276.356 149.984C276.741 150.171 277.239 150.75 277.194 151.098C276.945 153.031 277.053 155.051 275.976 156.818C275.561 157.499 275.248 158.242 274.81 159.112C273.61 156.742 273.617 154.432 274.114 152.117C274.252 151.474 274.74 150.859 275.2 150.353C275.448 150.08 276.082 149.851 276.356 149.984ZM230.521 145.816C230.979 147.111 231.345 148.143 231.76 149.315C231.147 150.915 230.53 152.687 229.786 154.404C229.35 155.412 228.658 156.251 227.044 155.954C226.995 155.319 226.789 154.576 226.919 153.897C227.173 152.558 227.611 151.253 227.979 149.935C228.08 149.571 228.363 149.175 228.288 148.859C227.828 146.936 229.516 146.82 230.521 145.816ZM205.894 142.461C206.832 142.6 207.27 143.17 207.251 144.209C207.226 145.587 207.314 146.98 207.134 148.338C206.966 149.606 206.513 150.837 206.185 152.084C205.977 152.09 205.768 152.097 205.559 152.104C204.411 150.39 203.573 148.588 204.02 146.379C204.191 145.531 204.27 144.665 204.423 143.814C204.567 143.005 204.857 142.308 205.894 142.461ZM222.925 141.893C223.713 144.392 223.472 146.598 221.14 149.901C219.367 148.095 220.096 145.924 220.223 143.908C220.282 142.959 221.749 141.989 222.925 141.893ZM263.713 141.738C264.587 142.003 264.588 142.483 264.332 143.344C263.947 144.638 264.126 146.083 263.348 147.298C263.047 147.767 262.768 148.25 262.305 149.013C261.912 148.518 261.647 148.317 261.562 148.056C260.946 146.195 261.131 144.355 261.824 142.555C262.11 141.81 262.878 141.484 263.713 141.738ZM242.841 139.29C243.248 139.606 243.683 139.945 244.097 140.266C243.486 142.745 243.603 145.39 241.849 147.752C241.237 146.298 240.715 145.058 240.28 144.027C240.448 142.971 240.555 142.07 240.749 141.189C240.823 140.851 241.029 140.476 241.292 140.263C241.766 139.879 242.328 139.604 242.841 139.29ZM218.985 130.874C218.946 132.776 219.179 134.839 217.775 136.534C217.411 136.973 217.392 137.698 217.133 138.564C214.618 135.565 216.466 132.582 216.532 129.622C218.472 128.601 219.029 128.778 218.985 130.874ZM233.428 128.436C234.42 128.522 235.2 129.302 234.952 130.238C234.428 132.213 234.171 134.334 232.562 136.124C230.49 133.634 231.826 131.053 231.851 128.531C232.434 128.491 232.937 128.394 233.428 128.436ZM256.058 125.322C256.777 126.049 256.923 126.938 256.656 127.939C256.082 130.086 256.041 132.426 254.255 134.294C253.349 132.34 252.695 130.497 253.418 128.381C253.738 127.448 253.822 126.435 254.042 125.312C254.576 125.187 255.32 124.577 256.058 125.322ZM247.304 120.141C247.356 120.144 247.404 120.212 247.582 120.35C247.669 123.14 246.618 125.599 244.892 127.97C243.802 126.687 243.743 125.277 243.872 123.835C243.917 123.335 244.132 122.851 244.206 122.351C244.48 120.498 244.774 120.206 246.559 120.128C246.806 120.116 247.056 120.126 247.304 120.141Z" fill="#A1483A"/>
<path fill-rule="evenodd" clip-rule="evenodd" d="M293.949 120.262C299.462 98.1745 313.031 82.6188 334.281 74.0265L334.298 74.02C339.386 72.1885 344.215 71.0859 349.062 70.6493C370.941 68.6787 389.657 76.1361 404.689 92.8146C414.003 103.147 419.576 115.512 421.255 129.565C423.965 152.233 417.221 171.699 401.212 187.421C399.703 188.902 398.773 190.69 398.367 192.886C398.132 194.16 398.052 195.235 398.13 196.08C398.184 196.67 398.117 197.227 398.052 197.765C397.979 198.363 397.911 198.927 398.015 199.488C398.169 200.312 398.254 201.154 398.336 201.968C398.427 202.87 398.52 203.802 398.708 204.686C399.233 207.158 399.815 209.662 400.377 212.084C400.805 213.923 401.247 215.825 401.661 217.702C401.901 218.791 402.219 219.545 403.127 220.177C404.819 221.353 405.12 222.707 404.105 224.57C403.724 225.269 403.769 225.833 403.965 226.517C404.504 228.392 405.011 230.317 405.444 231.975C405.86 233.567 405.5 234.527 404.116 235.518C403.856 235.704 403.633 236.017 403.449 236.298C403.208 236.666 402.978 237.061 402.755 237.443C402.322 238.188 401.873 238.957 401.296 239.626C399.104 242.163 397.264 244.136 395.508 245.836C393.496 247.781 391.28 249.738 388.733 251.817C387.77 252.603 386.739 253.196 385.643 253.595C383.717 254.296 381.593 254.396 379.294 253.89L378.922 253.81C378.494 253.718 378.052 253.623 377.618 253.498C371.614 251.763 366.266 248.484 361.722 243.751C360.637 242.622 360.048 241.257 359.92 239.578C359.762 237.504 359.521 235.397 359.288 233.36C359.19 232.51 359.093 231.659 359.001 230.809C358.963 230.456 358.832 229.868 358.704 229.53C358.634 229.479 358.54 229.407 358.422 229.308C357.174 228.256 357.062 227.663 357.852 226.286C357.91 226.186 357.982 226.086 358.056 225.988C358.097 225.932 358.154 225.856 358.186 225.803C358.167 225.479 358.119 224.831 358.044 224.48C357.9 223.798 357.756 223.132 357.6 222.47C356.719 218.742 355.573 214.454 353.107 210.755C350.036 206.148 346.377 203.46 341.922 202.538C341.12 202.372 340.359 202.13 339.52 201.854C319.284 195.208 304.944 181.703 296.898 161.717C291.452 148.188 290.46 134.24 293.949 120.262Z" fill="white" fill-opacity="0.666"/>
<path fill-rule="evenodd" clip-rule="evenodd" d="M370.779 130.606C375.348 128.315 378.33 122.538 377.227 117.897C377.052 117.162 376.742 116.429 376.353 115.833C375.978 115.257 375.524 114.932 375.041 114.895C374.856 114.881 374.668 114.909 374.481 114.977C374.165 115.092 373.85 115.322 373.55 115.659C373.153 116.105 372.781 116.7 372.446 117.427C371.011 120.537 370.252 126.721 370.779 130.606ZM335.084 127.269C334.413 126.428 333.729 125.759 333.051 125.283C332.437 124.852 331.839 124.718 331.322 124.896C331.315 124.899 331.307 124.901 331.3 124.904C330.779 125.094 330.369 125.604 330.144 126.344C329.802 127.469 329.975 128.592 330.633 129.507C331.557 130.792 332.461 131.812 333.399 132.625C335.15 134.143 337.189 135.243 339.611 135.975C338.33 132.282 336.917 129.571 335.084 127.269ZM353.896 207.94C353.899 207.815 353.903 207.694 353.896 207.587C353.511 201.444 352.446 195.273 351.478 189.971L350.664 185.516C349.101 176.957 347.537 168.397 345.986 159.836C344.733 152.918 343.232 146.598 341.399 140.514C341.126 139.612 340.703 139.167 339.782 138.815C337.727 138.031 335.711 137.082 333.787 135.994C331.593 134.752 329.853 133.1 328.617 131.084C327.647 129.502 327.298 127.876 327.58 126.253C327.89 124.467 328.901 123.122 330.354 122.561C331.757 122.027 333.337 122.321 334.696 123.382C335.772 124.224 336.827 125.365 337.831 126.774C339.75 129.469 341.258 132.505 342.313 135.8C342.665 136.897 343.205 137.346 344.241 137.405C344.569 137.423 344.888 137.476 345.196 137.527C345.324 137.549 345.454 137.57 345.583 137.589C349.85 138.207 354.427 137.734 359.987 136.101C362.987 135.221 365.74 133.961 368.177 132.356C368.176 131.74 368.172 131.133 368.167 130.533C368.156 129.002 368.146 127.556 368.191 126.088C368.302 122.501 368.82 119.701 369.82 117.277C370.445 115.761 371.192 114.54 372.041 113.646C372.906 112.734 374.007 112.271 375.14 112.343C376.345 112.419 377.462 113.073 378.285 114.186C378.596 114.607 378.868 115.113 379.14 115.779C380.554 119.239 380.255 122.844 378.252 126.494C377.167 128.471 375.583 130.248 373.411 131.927C372.8 132.399 372.173 132.859 371.567 133.304C371.359 133.457 371.153 133.609 370.947 133.76C370.947 133.786 370.947 133.81 370.948 133.834C370.95 134.02 370.951 134.167 370.966 134.305C371.474 139.081 372.48 143.857 374.041 148.903C375.713 154.306 377.843 159.989 380.552 166.277C384.567 175.594 388.744 183.566 393.322 190.648C394.875 193.051 396.358 195.505 397.476 197.375L397.567 197.522C397.8 197.893 398.118 198.402 397.987 198.942C397.912 199.248 397.712 199.499 397.39 199.688L397.164 199.821L396.929 199.705C396.602 199.545 396.363 199.383 396.11 199.211C395.934 199.092 395.753 198.969 395.524 198.835L395.413 198.77L395.128 198.275C394.712 197.552 394.282 196.806 393.816 196.11C386.415 185.07 380.084 172.673 374.997 159.262C372.929 153.809 370.643 147.312 369.375 140.469C369.136 139.176 368.925 137.888 368.703 136.525C368.633 136.098 368.563 135.665 368.49 135.225C359.922 139.595 351.851 141.135 343.859 139.927C343.906 140.144 343.947 140.328 343.992 140.512C344.372 142.038 344.78 143.588 345.175 145.087C346.037 148.362 346.93 151.749 347.59 155.131C349.253 163.638 350.823 172.308 352.341 180.694C352.884 183.695 353.428 186.696 353.976 189.696C355.002 195.308 356.033 201.301 356.378 207.432C356.383 207.53 356.396 207.638 356.409 207.749C356.467 208.245 356.539 208.863 356.152 209.3C355.921 209.56 355.578 209.692 355.134 209.693C354.762 209.693 354.464 209.581 354.248 209.359C353.872 208.973 353.885 208.4 353.896 207.94Z" fill="black"/>
<path fill-rule="evenodd" clip-rule="evenodd" d="M400.034 237.075C398.571 237.527 397.111 237.988 395.65 238.449C392.92 239.311 390.096 240.204 387.298 241.019C380.683 242.946 375.221 244.022 370.109 244.403C368.754 244.504 367.352 244.407 366.115 244.32C366.045 244.316 365.976 244.308 365.909 244.299C369.591 247.398 373.334 249.523 377.28 250.762C378.042 251.002 378.815 251.192 379.606 251.382C382.617 252.108 385.255 251.527 387.446 249.653L388.164 249.041C389.934 247.531 391.765 245.97 393.447 244.324C395.019 242.785 396.535 241.128 398.001 239.525C398.492 238.989 398.982 238.453 399.476 237.92L399.741 237.635C399.923 237.442 400.131 237.219 400.35 236.978C400.232 237.013 400.125 237.047 400.034 237.075ZM353.836 207.41C353.965 207.561 354.093 207.711 354.223 207.861C356.081 206.153 358.307 205.167 360.256 204.426C369.993 200.721 378.242 199.046 386.215 199.15C389.345 199.192 391.769 198.68 394.073 197.489C395.164 196.926 395.554 196.531 395.571 195.441C395.597 193.773 395.972 192.113 396.335 190.708C396.796 188.925 397.725 187.341 399.095 186C415.651 169.792 422.115 149.927 418.306 126.958C416.127 113.818 410.066 101.786 400.779 92.1632C391.348 82.3924 379.417 76.0054 366.274 73.6935C355.653 71.8251 345.471 72.6395 335.934 76.1108C334.382 76.6757 332.846 77.3112 331.329 78.0165C312.584 86.7348 300.737 101.558 296.119 122.073C293.027 135.807 294.365 149.932 299.989 162.923C305.597 175.877 314.935 186.488 326.992 193.609C332.135 196.646 337.388 198.828 342.607 200.094C346.673 201.081 350.14 203.236 353.206 206.684C353.42 206.923 353.628 207.167 353.836 207.41ZM362.645 232.147C363.71 231.528 364.715 230.944 365.792 230.466C366.646 230.087 367.5 229.732 368.357 229.399C365.993 229.798 363.765 230.005 361.626 230.026C361.577 230.026 361.511 230.023 361.436 230.017C361.486 230.444 361.541 230.888 361.596 231.336C361.651 231.777 361.706 232.223 361.758 232.659C362.058 232.488 362.353 232.316 362.645 232.147ZM395.914 220.022L395.616 219.955C395.468 219.923 395.426 219.923 395.429 219.921C395.409 219.945 395.331 219.975 395.266 220.016C395.145 220.091 394.98 220.194 394.735 220.323C390.495 222.593 385.888 224.52 380.561 226.237C385.721 225.555 390.916 225.689 396.109 226.642C396.871 226.782 397.416 226.715 397.932 226.415C398.121 226.305 398.311 226.198 398.501 226.09C398.951 225.834 399.417 225.57 399.851 225.288C400.106 225.122 400.354 224.912 400.616 224.689C400.675 224.64 400.734 224.59 400.794 224.539C400.781 224.479 400.768 224.419 400.755 224.358C400.685 224.03 400.619 223.72 400.522 223.429C400.29 222.74 400.053 221.711 399.953 221.259C398.831 220.689 397.221 220.321 395.914 220.022ZM395.457 199.609C395.07 199.797 394.696 199.978 394.18 200.19C394.656 200.365 395.124 200.565 395.596 200.797L395.498 199.589C395.484 199.596 395.471 199.603 395.457 199.609ZM357.382 208.965C358.044 208.963 358.697 208.862 359.388 208.755C359.657 208.713 359.926 208.671 360.194 208.636C361.823 208.42 363.553 208.176 365.217 207.776C371.5 206.262 377.447 204.038 382.651 201.889C372.853 202.621 364.341 204.925 356.716 208.901C356.973 208.94 357.238 208.966 357.382 208.965ZM387.291 208.7L387.451 208.692C387.641 208.682 387.854 208.67 388.073 208.701C391.93 208.375 393.023 207.298 394.825 205.516C395.367 204.981 395.613 204.53 395.559 204.173C395.502 203.804 395.108 203.428 394.387 203.056C392.22 201.938 390.357 201.756 388.38 202.475C388.311 202.5 388.241 202.527 388.172 202.554C382.349 204.849 376.525 206.948 370.863 208.792C365.666 210.485 361.222 211.591 356.494 211.477C356.787 212.135 357.089 212.817 357.389 213.496C357.726 214.257 358.061 215.013 358.379 215.727C366.693 211.391 376.157 209.092 387.291 208.7ZM385.557 211.239C378.693 211.193 365.053 214.635 360.683 217.63C361.454 217.797 361.772 217.768 362.393 217.711C364.294 217.537 366.501 217.314 368.63 216.857C374.991 215.495 380.977 213.162 385.557 211.239ZM362.498 222.733C364.364 221.914 366.128 221.141 367.99 220.526C377.107 217.518 385.556 216.4 393.818 217.106C395.284 217.231 396.965 216.3 397.644 214.984C398.055 214.188 397.969 213.771 397.303 213.329C396.526 212.813 395.579 212.367 394.564 212.039C392.758 211.455 391.185 211.445 389.587 212.027C389.275 212.14 388.963 212.276 388.647 212.435C382.404 215.573 375.665 217.908 368.044 219.573C365.832 220.056 362.909 220.524 359.575 219.984L360.452 223.621C361.144 223.327 361.83 223.026 362.498 222.733ZM361.562 227.519C372.059 227.007 382.287 223.266 391.089 219.454C391.074 219.454 391.058 219.454 391.042 219.453C385.752 219.261 380.154 219.897 373.93 221.397C370.752 222.162 366.617 223.311 362.811 225.413C362.638 225.508 362.468 225.61 362.297 225.712C362.091 225.835 361.885 225.958 361.674 226.071C361.027 226.421 360.962 226.747 361.066 227.161C361.12 227.376 361.333 227.53 361.562 227.519ZM363.934 234.79C364.576 234.882 365.241 234.978 365.886 235.007C369.74 235.182 373.432 234.478 376.536 233.765C382.265 232.449 387.829 230.708 393.078 228.591C392.702 228.556 392.368 228.527 392.162 228.51C386.302 228.014 380.468 228.489 374.823 229.922C371.966 230.648 368.935 231.529 366.12 233.044C365.397 233.433 364.682 233.886 363.991 234.323C363.788 234.452 363.583 234.582 363.376 234.711C363.563 234.737 363.749 234.764 363.934 234.79ZM394.611 209.335C395.758 209.521 396.508 209.81 397.24 210.141L396.69 207.706C396.155 208.31 395.452 208.861 394.611 209.335ZM365.434 240.632C367.394 239.378 369.612 238.968 371.758 238.57L371.826 238.558C375.733 237.834 379.722 237.208 383.579 236.603C384.971 236.385 386.363 236.167 387.754 235.944C389.221 235.708 390.688 235.477 392.156 235.246C395.023 234.794 397.989 234.327 400.899 233.837C401.546 233.728 401.62 233.716 402.953 233.205C402.866 233.105 402.773 233.005 402.689 232.914C402.624 232.845 402.563 232.779 402.508 232.718C401.355 231.427 399.811 230.48 397.649 229.738C397.411 229.657 396.968 229.712 396.575 229.878C391.313 232.065 386.542 233.726 381.988 234.956C377.622 236.135 372.951 237.305 368.076 237.526C366.253 237.608 364.311 237.627 362.241 236.967C362.265 237.213 362.288 237.453 362.31 237.689C362.416 238.801 362.507 239.76 362.695 240.713C362.79 241.192 363.133 241.773 363.57 242.192C363.768 242.382 363.965 242.568 364.162 242.752C364.161 242.743 364.159 242.734 364.158 242.726C363.977 241.564 364.889 240.981 365.434 240.632ZM370.463 241.666C375.503 241.395 380.424 240.261 385.239 238.911C380.292 239.509 375.292 240.254 370.463 241.666ZM398.443 217.921L399.159 218.135L399.013 217.396L398.443 217.921ZM400.241 228.051L402.101 229.065L401.531 227.209L400.241 228.051ZM293.949 120.262C299.462 98.1745 313.031 82.6188 334.281 74.0265L334.298 74.02C339.386 72.1885 344.215 71.0859 349.062 70.6493C370.941 68.6787 389.657 76.1361 404.689 92.8146C414.003 103.147 419.576 115.512 421.255 129.565C423.965 152.233 417.221 171.699 401.212 187.421C399.703 188.902 398.773 190.69 398.367 192.886C398.132 194.16 398.052 195.235 398.13 196.08C398.184 196.67 398.117 197.227 398.052 197.765C397.979 198.363 397.911 198.927 398.015 199.488C398.169 200.312 398.254 201.154 398.336 201.968C398.427 202.87 398.52 203.802 398.708 204.686C399.233 207.158 399.815 209.662 400.377 212.084C400.805 213.923 401.247 215.825 401.661 217.702C401.901 218.791 402.219 219.545 403.127 220.177C404.819 221.353 405.12 222.707 404.105 224.57C403.724 225.269 403.769 225.833 403.965 226.517C404.504 228.392 405.011 230.317 405.444 231.975C405.86 233.567 405.5 234.527 404.116 235.518C403.856 235.704 403.633 236.017 403.449 236.298C403.208 236.666 402.978 237.061 402.755 237.443C402.322 238.188 401.873 238.957 401.296 239.626C399.104 242.163 397.264 244.136 395.508 245.836C393.496 247.781 391.28 249.738 388.733 251.817C387.77 252.603 386.739 253.196 385.643 253.595C383.717 254.296 381.593 254.396 379.294 253.89L378.922 253.81C378.494 253.718 378.052 253.623 377.618 253.498C371.614 251.763 366.266 248.484 361.722 243.751C360.637 242.622 360.048 241.257 359.92 239.578C359.762 237.504 359.521 235.397 359.288 233.36C359.19 232.51 359.093 231.659 359.001 230.809C358.963 230.456 358.832 229.868 358.704 229.53C358.634 229.479 358.54 229.407 358.422 229.308C357.174 228.256 357.062 227.663 357.852 226.286C357.91 226.186 357.982 226.086 358.056 225.988C358.097 225.932 358.154 225.856 358.186 225.803C358.167 225.479 358.119 224.831 358.044 224.48C357.9 223.798 357.756 223.132 357.6 222.47C356.719 218.742 355.573 214.454 353.107 210.755C350.036 206.148 346.377 203.46 341.922 202.538C341.12 202.372 340.359 202.13 339.52 201.854C319.284 195.208 304.944 181.703 296.898 161.717C291.452 148.188 290.46 134.24 293.949 120.262Z" fill="black"/>
<path fill-rule="evenodd" clip-rule="evenodd" d="M240.464 111.009C239.674 100.264 243.658 92.0265 252.306 86.5265C256.291 83.9911 261.033 82.1948 266.802 81.0341C268.653 80.6618 270.511 80.3773 272.324 80.1885C274.56 79.9564 276.797 79.8625 278.973 79.9092C281.145 79.9563 283.319 80.1444 285.435 80.4686C287.545 80.7919 289.656 81.2598 291.71 81.8591C293.756 82.4563 295.803 83.201 297.795 84.0725C299.779 84.9407 301.763 85.9587 303.692 87.0986C304.653 87.6667 305.621 88.2771 306.57 88.9135C307.043 89.2311 307.522 89.5614 307.991 89.8959C308.219 90.0577 308.442 90.2231 308.663 90.3922C308.749 90.4573 308.841 90.5137 308.932 90.5707C309.089 90.6679 309.266 90.7784 309.428 90.9267C309.498 90.9912 309.563 91.0592 309.628 91.1276C309.685 91.1865 309.74 91.2455 309.801 91.2993C309.814 91.3111 309.83 91.3226 309.846 91.3351C309.945 91.4107 310.095 91.5252 310.176 91.7159C310.377 92.1876 310.261 92.7262 309.88 93.0884C309.516 93.435 308.996 93.5207 308.55 93.3032C308.548 93.3022 308.396 93.2171 308.28 93.152L308.175 93.0927C307.693 92.8474 307.274 92.5163 306.868 92.1963C306.674 92.0437 306.48 91.8906 306.28 91.7486C298.033 85.8876 289.053 82.7645 279.59 82.4658C269.676 82.1527 261.374 84.0725 254.209 88.3338C247.19 92.5086 243.4 98.6668 242.942 106.636C242.566 113.189 244.212 119.619 247.832 125.748C252.147 133.05 258.046 139.122 265.868 144.31C273.278 149.226 281.706 153.103 291.632 156.164C309.693 161.731 328.609 165.21 349.462 166.797C366.418 168.088 383.242 167.613 397.463 166.978C398.376 166.937 399.289 166.896 400.202 166.853C407.308 166.526 414.655 166.188 421.909 166.487C433.766 166.975 443.974 169.661 453.115 174.698C456.712 176.68 459.611 178.821 461.975 181.241C462.964 182.255 463.783 183.439 464.575 184.584C464.744 184.828 464.913 185.073 465.083 185.315C465.51 185.923 465.669 186.439 465.568 186.894C465.517 187.124 465.37 187.448 464.958 187.684C464.877 187.73 464.796 187.768 464.716 187.797C464.489 187.879 464.269 187.892 464.059 187.833C463.576 187.699 463.322 187.243 463.118 186.876C463.067 186.785 463.017 186.695 462.965 186.614C461.42 184.216 460.482 183.197 459.407 182.266L458.884 181.862C456.672 180.156 454.384 178.391 451.96 176.989C446.531 173.847 440.536 171.672 433.632 170.338C427.79 169.21 421.583 168.743 414.658 168.909C409.245 169.04 403.742 169.256 398.42 169.464C394.947 169.6 391.355 169.741 387.822 169.857C362.032 170.7 340.826 169.394 321.086 165.744C308.509 163.418 295.088 160.563 282.15 155.464C271.633 151.32 263.646 146.613 257.013 140.651C249.999 134.346 245.309 127.804 242.676 120.65C241.447 117.496 240.703 114.252 240.464 111.009Z" fill="#BD8CE9"/>
<path fill-rule="evenodd" clip-rule="evenodd" d="M429.17 122.977C426.728 123.866 424.107 124.481 421.319 124.816C420.663 124.895 420.05 124.888 419.498 124.795C419.016 124.713 418.576 124.125 418.553 123.7C418.529 123.251 418.916 122.756 419.289 122.556C419.57 122.405 419.873 122.4 420.14 122.396C420.224 122.395 420.309 122.394 420.39 122.387C426.162 121.836 431.218 119.925 435.419 116.705C443.207 110.735 448.027 102.33 449.746 91.7249C450.8 85.2152 449.587 78.872 446.139 72.8715C442.993 67.3964 438.653 62.7891 432.872 58.7873C425.772 53.8737 417.551 50.6039 407.737 48.7905C399.239 47.2206 389.872 46.8321 378.259 47.5677C374.832 47.7847 371.348 48.0296 367.979 48.2667C362.068 48.6826 355.956 49.1123 349.935 49.4067C337.562 50.0108 325.728 48.6121 314.76 45.2493C315.338 45.8306 315.94 46.4229 316.531 47.0047C317.764 48.2178 318.928 49.3636 319.831 50.3618C319.9 50.4377 319.965 50.5171 320.028 50.5991C320.497 51.2144 320.278 51.9146 319.82 52.2881C319.282 52.7272 318.536 52.6674 318.084 52.1498C318.039 52.0974 317.993 52.0472 317.946 52.0008C315.199 49.2846 312.43 46.4989 309.753 43.8051L309.316 43.3652C309.275 43.3243 309.238 43.2791 309.204 43.2288C308.888 42.7644 308.944 42.1088 309.339 41.6697C309.822 41.1333 310.477 40.8116 311.403 40.6545C313.349 40.3263 315.292 39.9862 317.236 39.6462C318.687 39.3925 320.139 39.1384 321.591 38.8891C322.061 38.8086 322.646 38.7079 323.217 38.7703C323.669 38.8198 324.191 39.2991 324.272 39.7384C324.358 40.2045 323.973 40.8048 323.597 40.9911C323.218 41.1791 322.814 41.2428 322.422 41.3045L322.194 41.3413C319.974 41.722 317.754 42.0983 315.533 42.4747L314.523 42.6462C314.743 42.7251 314.964 42.802 315.183 42.8724C323.092 45.4058 331.83 46.7553 341.898 46.9975C349.055 47.1702 356.31 46.6175 363.326 46.0835C365.05 45.9518 366.773 45.8207 368.498 45.6995L370.189 45.58C378.684 44.9779 387.469 44.3555 396.156 44.8867C407.053 45.5536 416.248 47.599 424.265 51.1406C433.541 55.2381 440.551 60.6198 445.695 67.5936C450.721 74.4063 452.972 81.1998 452.577 88.3622C451.958 99.5725 447.5 109.132 439.326 116.775C436.404 119.508 433.006 121.581 429.17 122.977Z" fill="#BD8CE9"/>
</svg>
