<svg width="250" height="224" viewBox="0 0 250 224" fill="none" xmlns="http://www.w3.org/2000/svg">
<path fill-rule="evenodd" clip-rule="evenodd" d="M160.633 121.842C145.486 112.505 127.76 107.356 113.168 97.0632C108.755 93.5633 108.259 91.1966 111.266 86.5006C115.579 79.7645 118.621 72.4408 121.572 65.0632C125.636 55.0077 110.929 70.336 108.047 71.4224C95.2753 80.804 81.3253 88.6725 69.5169 99.3028C68.7831 100.031 67.3429 101.076 68.2347 102.174C78.1201 105.41 88.3756 108.128 98.198 111.831C101.545 113.856 106.182 112.179 108.996 114.723C109.881 116.135 107.918 117.111 108.202 118.582C108.304 119.114 107.718 120.055 107.185 120.39C99.9961 124.407 94.2295 130.679 87.8346 135.478C84.9785 135.11 85.7822 138.672 84.016 139.772C80.1449 143.618 75.6484 146.34 72.8069 151.057C61.9529 163.692 48.3044 175.669 41.2984 190.751C81.0468 168.615 122.776 147.081 160.633 121.842ZM94.5362 119.701C87.0321 113.112 57.1913 114.279 58.22 101.88C63.9345 82.5388 120.213 55.8993 138.409 40.7625C139.871 39.8554 141.877 37.3119 143.381 39.4312C144.519 41.1535 145.695 42.0638 144.251 43.7852C139.588 50.2137 134.638 56.3749 130.908 63.4247C126.868 69.5965 124.589 76.5305 122.081 83.3904C121.508 85.9744 116.666 89.4444 119.407 91.7637C132.382 99.9233 146.904 105.574 160.43 112.863C163.09 114.831 169.127 115.611 168.519 119.766C167.567 124.946 160.453 129.229 156.07 132.042C150.351 137.565 143.015 140.773 136.365 145.096C110.439 161.463 82.9804 175.126 56.4474 190.466C48.0833 195.12 39.5031 199.447 31.1577 204.087C24.7676 204.658 28.0952 197.263 30.6627 194.44C47.4687 165.963 71.3348 142.715 94.5362 119.701Z" fill="#D08F52"/>
<path fill-rule="evenodd" clip-rule="evenodd" d="M32.0699 0.0444193C38.1586 0.567284 46.1601 1.13665 51.9096 4.52617C55.4983 6.17321 59.9938 11.3505 52.7334 9.89271C43.5884 7.55862 34.1506 7.35198 24.8954 5.8489C14.1294 1.01898 26.297 -0.26938 32.0699 0.0444193Z" fill="#D08F52"/>
<path fill-rule="evenodd" clip-rule="evenodd" d="M200.998 181.755C206.928 180.696 228.311 221.299 214.573 208.875C212.202 205.586 192.12 182.381 200.998 181.755Z" fill="#D08F52"/>
<path fill-rule="evenodd" clip-rule="evenodd" d="M91.9116 206.047C92.2962 201.883 98.2781 178.649 103.772 182.503C108.865 187.227 98.2458 203.911 96.0368 209.893C93.4987 212.16 91.9355 208.108 91.9116 206.047Z" fill="#D08F52"/>
<path fill-rule="evenodd" clip-rule="evenodd" d="M182.467 196.476C176.021 198.363 171.824 184.965 168.109 180.765C166.694 177.397 161.726 173.215 164.113 169.561C165.235 168.902 167.173 167.764 168.171 169.199C174.322 177.473 178.232 187.113 182.467 196.476Z" fill="#D08F52"/>
<path fill-rule="evenodd" clip-rule="evenodd" d="M14.1092 129.504C2.39391 125.316 34.1855 111.768 38.041 112.581C44.4481 114.931 16.8569 128.533 14.1092 129.504Z" fill="#D08F52"/>
<path fill-rule="evenodd" clip-rule="evenodd" d="M21.9593 168.168C15.1046 166.064 32.1966 150.577 34.8467 147.727C37.214 145.777 40.4495 143.265 43.2387 145.909C43.9173 146.433 43.958 147.316 43.146 147.749C35.3453 153.69 31.0783 163.659 21.9593 168.168Z" fill="#D08F52"/>
<path fill-rule="evenodd" clip-rule="evenodd" d="M61.8089 53.8716C92.4006 57.3933 50.9953 62.0198 42.7678 61.2477C35.6127 54.8581 58.2243 54.2707 61.8089 53.8716Z" fill="#D08F52"/>
<path fill-rule="evenodd" clip-rule="evenodd" d="M138.363 189.5C136.64 194.921 137.502 204.954 134.096 208.867C128.208 206.791 130.258 189.355 132.413 184.321C136.586 180.046 138.56 185.421 138.363 189.5Z" fill="#D08F52"/>
<path fill-rule="evenodd" clip-rule="evenodd" d="M48.748 33.183C44.7032 32.2339 13.8759 32.35 18.0182 26.0426C20.9553 22.7266 67.6754 32.9685 48.748 33.183Z" fill="#D08F52"/>
<path fill-rule="evenodd" clip-rule="evenodd" d="M74.4782 24.7041C78.019 25.0703 97.1676 26.9576 92.5559 32.9266C88.5272 34.6944 57.7264 26.8198 74.4782 24.7041Z" fill="#D08F52"/>
<path fill-rule="evenodd" clip-rule="evenodd" d="M163.48 67.8506C166.787 59.6063 178.98 82.6493 179.754 86.3156C176.197 87.9256 163.153 72.2296 163.48 67.8506Z" fill="#D08F52"/>
<path fill-rule="evenodd" clip-rule="evenodd" d="M221.247 131.2C216.1 130.389 191.267 106.988 209.271 115.376C212.96 118.544 223.096 126.085 221.247 131.2Z" fill="#D08F52"/>
<path fill-rule="evenodd" clip-rule="evenodd" d="M159.028 215.651C159.735 236.78 150.119 210.896 152.253 203.929C157.364 192.502 158.986 212.074 159.028 215.651Z" fill="#D08F52"/>
<path fill-rule="evenodd" clip-rule="evenodd" d="M194.791 151.549C201.107 154.355 207.521 160.092 210.617 166.196C206.243 168.644 185.171 154.064 194.791 151.549Z" fill="#D08F52"/>
<path fill-rule="evenodd" clip-rule="evenodd" d="M127.184 18.9342C123.229 25.7693 108.028 21.1663 107.174 14.9743C110.071 8.66433 121.802 18.2447 127.184 18.9342Z" fill="#D08F52"/>
<path fill-rule="evenodd" clip-rule="evenodd" d="M235.723 149.136C240.781 147.959 253.896 168.378 248.875 168.348C247.097 164.692 228.252 151.07 235.723 149.136Z" fill="#D08F52"/>
<path fill-rule="evenodd" clip-rule="evenodd" d="M25.2124 83.0924C27.3792 83.5742 31.9321 82.3366 34.2551 84.3524C30.5193 87.0858 24.6757 86.9394 20.1454 88.3358C17.7141 88.9162 9.00823 87.5585 11.7049 84.0848C16.5182 83.0501 19.8482 82.9452 25.2124 83.0924Z" fill="#D08F52"/>
<path fill-rule="evenodd" clip-rule="evenodd" d="M143.877 149.483C146.136 148.593 147.825 149.685 147.927 152.058C147.801 155.53 150.012 159.972 148.125 162.981C144.529 164.545 135.479 147.034 143.877 149.483Z" fill="#D08F52"/>
<path fill-rule="evenodd" clip-rule="evenodd" d="M180.099 123.245C180.14 119.13 183.013 118.417 185.299 121.885C187.026 124.909 193.359 128.988 192.15 132.42C191.085 132.898 190.502 131.998 189.767 131.566C186.722 128.966 179.863 127.986 180.099 123.245Z" fill="#D08F52"/>
<path fill-rule="evenodd" clip-rule="evenodd" d="M56.9548 209.206C63.241 209.7 59.3267 216.943 57.2102 219.863C51.0275 223.207 52.0195 209.816 56.9548 209.206Z" fill="#D08F52"/>
<path fill-rule="evenodd" clip-rule="evenodd" d="M0 212.548C0.861623 209.332 2.32041 204.801 5.98897 204.201C7.72271 204.098 8.62148 205.502 7.92217 207.092C6.70362 208.302 0.5907 216.656 0 212.548Z" fill="#D08F52"/>
</svg>
