<svg width="500" height="432" viewBox="0 0 500 432" fill="none" xmlns="http://www.w3.org/2000/svg">
<path opacity="0.5" d="M251.431 420.033C372.18 420.033 470.066 415.609 470.066 410.152C470.066 404.695 372.18 400.271 251.431 400.271C130.682 400.271 32.7954 404.695 32.7954 410.152C32.7954 415.609 130.682 420.033 251.431 420.033Z" fill="#C9C9C9"/>
<g opacity="0.5">
<g opacity="0.5">
<path opacity="0.5" fill-rule="evenodd" clip-rule="evenodd" d="M259.994 366.038C244.57 366.513 229.179 366.036 213.824 364.534C198.984 363.08 184.287 360.887 170.065 356.461C141.994 347.725 114.973 336.598 89.6763 321.994C58.0017 303.709 34.4638 278.166 18.418 246.239C11.6313 232.734 6.01772 218.827 2.46717 204.193C0.15733 194.673 -0.669804 185.061 0.584317 175.338C0.860827 173.194 1.28254 171.029 1.98029 168.981C5.00848 160.092 9.37419 151.888 15.6841 144.673C20.7178 138.917 26.7785 134.521 34.0406 131.776C46.2713 127.152 58.9242 123.878 69.8437 116.666C83.4023 107.711 93.8896 95.5852 106.189 85.2654C119.08 74.4491 132.31 64.1146 146.372 54.7166C173.013 36.913 201.414 22.3776 232.577 13.14C248.233 8.49955 264.082 4.67607 280.322 2.48872C290.244 1.15231 300.231 0.55192 310.248 0.193798C338.679 -0.823101 366.573 2.10072 393.742 10.4157C411.672 15.9024 428.67 23.2878 443.979 33.9331C457.599 43.4051 469.21 54.7074 477.707 68.7495C481.621 75.2187 484.589 82.0496 485.827 89.5031C488.083 103.077 484.316 114.955 475.005 125.307C469.175 131.789 462.095 136.714 454.273 140.731C445.948 145.008 437.058 147.928 428.144 150.793C417.418 154.241 406.725 157.777 396.454 162.372C390.682 164.954 385.033 167.774 380.068 171.636C377.992 173.25 376.031 175.108 374.432 177.154C371.75 180.586 371.805 184.191 374.539 187.567C376.014 189.389 377.775 191.154 379.776 192.396C384.884 195.566 390.089 198.63 395.457 201.37C405.982 206.744 416.713 211.745 427.23 217.132C436.382 221.82 445.209 227.043 452.941 233.771C460.967 240.754 467.591 248.761 471.922 258.36C475.784 266.918 477.247 275.791 475.317 285.041C474.137 290.696 471.62 295.801 468.305 300.572C463.274 307.814 456.847 313.781 449.819 319.198C440.518 326.368 430.136 331.767 419.294 336.436C396.881 346.088 373.539 352.87 349.474 357.482C335.725 360.116 321.901 362.299 307.971 363.802C295.679 365.128 283.338 365.851 270.966 366.03C267.31 366.083 263.652 366.038 259.994 366.038Z" fill="#F1ECE8"/>
</g>
</g>
<path fill-rule="evenodd" clip-rule="evenodd" d="M359.506 316.53C358.743 314.925 358.744 314.94 357.096 315.01C356.647 315.028 356.193 314.929 355.742 314.874C354.575 314.731 353.521 314.215 352.249 314.285C350.965 314.356 349.564 313.946 348.372 313.401C347.629 313.062 347.041 312.991 346.266 313.022C343.516 313.134 340.906 314.663 338.062 313.814C337.81 313.739 337.477 313.953 337.179 314.01C335.446 314.339 333.642 314.398 332.087 315.383C330.043 314.796 328.332 316.148 326.422 316.36C324.481 316.576 322.825 317.401 321.393 318.754C320.978 319.146 320.326 319.483 319.771 319.501C317.579 319.573 316.049 320.888 314.465 322.122C313.757 322.673 312.977 323.193 312.443 323.891C311.726 324.828 311.239 325.937 310.61 326.946C309.671 328.456 310.544 330.404 312.327 330.705C313.652 330.929 314.991 331.08 316.302 331.367C317.76 331.686 319.172 332.479 320.664 331.403C320.864 331.259 321.358 331.527 321.718 331.598C322.08 331.669 322.621 331.921 322.78 331.771C324.172 330.468 325.644 331.292 327.109 331.478C327.98 331.589 329.404 331.887 329.646 331.507C330.224 330.598 330.728 331.104 331.343 331.079C332.842 331.015 334.396 331.001 335.81 330.575C337.103 330.186 338.513 329.642 339.759 329.705C340.193 329.726 340.724 329.709 341.059 329.485C342.202 328.719 343.367 328.382 344.719 328.819C344.984 328.904 345.444 328.934 345.581 328.781C346.681 327.549 348.295 327.962 349.626 327.487C350.774 327.077 352.23 327.333 353.224 326.744C354.393 326.053 355.499 325.792 356.787 325.726C357.426 325.693 358.359 325.478 358.612 325.034C359.205 323.994 360.175 324.262 360.969 324.057C362.537 323.651 364.161 323.466 365.734 323.074C366.391 322.911 366.975 322.455 367.593 322.133C366.103 321.352 365.88 319.405 364.18 319.377C364.037 319.375 363.816 319.068 363.771 318.871C363.246 316.596 361.452 316.643 359.506 316.53ZM389.076 269.184C390.004 268.802 390.787 268.531 391.518 268.159C391.964 267.933 392.592 267.619 392.691 267.23C393.202 265.212 394.301 263.568 395.586 261.985C396.221 261.203 395.955 260.023 395.234 259.774C393.4 259.141 391.679 257.295 389.452 258.844C389.218 259.006 388.732 258.888 388.39 258.797C387.581 258.583 386.686 258.459 386.015 258.015C385.218 257.487 384.243 258.764 383.635 257.634C382.484 258.138 381.491 257.185 380.404 257.27C377.891 257.468 375.416 258.118 372.86 257.864C372.447 257.824 371.9 257.959 371.595 258.222C369.823 259.745 367.633 259.776 365.502 260.135C363.811 260.42 362.125 260.857 360.514 261.44C359.185 261.921 358.468 263.744 356.654 263.269C356.015 265.124 353.529 264.367 352.752 266.027C350.099 266.428 349.124 268.391 348.631 270.443C348.074 271.021 347.448 270.211 346.994 271.172C346.482 272.253 344.686 272.69 345.372 274.43C345.381 274.453 345.256 274.519 345.209 274.576C343.824 276.283 343.657 278.413 343.219 280.439C343.132 280.844 343.24 281.366 343.435 281.741C344.347 283.492 345.313 285.215 346.281 286.936C346.382 287.115 346.6 287.304 346.793 287.345C349.488 287.923 351.764 289.99 354.737 289.577C355.471 289.476 356.219 289.462 356.946 289.328C358.193 289.099 359.363 288.654 360.686 289.33C361.567 289.78 362.613 290.048 363.54 288.898C364.085 288.221 365.129 287.884 366.009 287.549C368.048 286.771 370.169 286.196 372.169 285.332C373.626 284.702 374.966 283.781 376.312 282.919C377.237 282.328 378.113 281.652 378.958 280.95C380.289 279.845 381.607 278.721 382.868 277.537C383.677 276.778 384.225 275.555 385.156 275.154C386.58 274.539 387.045 273.572 387.04 272.284C389.99 271.562 389.926 271.107 389.076 269.184ZM421.705 268.421C422.379 270.08 422.993 271.99 423.924 273.73C424.48 274.77 425.391 275.564 424.862 276.915C424.741 277.221 424.858 277.716 425.036 278.026C426.196 280.056 425.724 282.271 425.865 284.425C426.078 287.661 424.588 290.467 423.758 293.44C423.7 293.644 423.55 293.887 423.373 293.981C422.25 294.581 422.266 295.615 422.281 296.21C421.424 297.112 420.764 297.741 420.182 298.434C418.878 299.986 417.618 301.572 416.327 303.135C416.198 303.292 415.978 303.488 415.808 303.481C413.915 303.398 413.799 304.702 413.799 306.156C412.42 306.484 411.529 308.019 409.869 307.58C409.24 308.45 408.607 309.318 407.987 310.195C407.861 310.373 407.789 310.589 407.658 310.856C406.433 311.199 405.055 310.915 403.999 312.193C403.207 313.15 401.35 312.783 400.587 314.176C400.467 314.396 400.083 314.486 399.809 314.606C398.095 315.349 396.46 316.123 395.02 317.443C394.054 318.33 392.525 318.831 391.185 319C390.409 319.097 390.122 319.091 389.721 319.822C389.149 320.865 388.761 320.845 387.475 320.59C383.411 322.456 379.704 324.159 375.732 325.983C375.332 328.494 374.932 331.152 374.479 333.802C374.24 335.198 373.873 336.573 373.636 337.969C373.492 338.824 372.508 338.819 372.194 339.742C371.817 340.847 371.574 342.389 370.106 342.93C369.989 342.973 369.893 343.16 369.848 343.299C368.952 346.071 366.716 347.803 364.824 349.803C364.631 350.007 364.471 350.411 364.28 350.421C362.069 350.532 360.965 352.266 359.521 353.531C359.003 353.984 358.154 354.059 357.638 354.514C356.226 355.757 354.684 356.808 353.039 357.675C351.516 358.479 349.853 359.016 348.299 359.769C346.747 360.522 345.269 361.426 343.727 362.2C343.241 362.444 342.653 362.493 342.108 362.613C341.818 362.676 341.421 362.594 341.243 362.761C339.451 364.437 336.961 364.602 334.914 365.722C334.3 366.058 333.653 366.705 332.841 365.96C332.707 365.836 332.259 365.954 332.01 366.073C329.44 367.291 326.869 368.142 323.902 368.212C321.473 368.269 319.082 369.433 316.65 370.003C315.123 370.36 313.548 370.499 312.003 370.786C311.198 370.935 310.414 371.198 309.618 371.395C308.014 371.793 306.521 372.519 304.708 371.891C303.727 371.551 302.433 371.9 301.334 372.163C299.754 372.54 298.174 372.558 296.571 372.619C294.924 372.682 293.193 372.7 291.663 373.22C289.092 374.095 286.448 373.31 283.897 373.912C283.637 373.973 283.298 373.604 282.974 373.515C282.609 373.414 282.219 373.383 281.839 373.371C281.716 373.367 281.547 373.619 281.468 373.586C278.179 372.232 274.601 372.277 271.208 371.442C271.109 371.417 271.052 371.217 270.898 370.978C271.586 370.037 272.678 370.059 273.683 369.904C274.918 369.714 276.197 369.816 277.328 369.038C277.681 368.794 278.335 369.016 278.847 368.968C280.258 368.837 281.752 368.92 283.058 368.47C285.358 367.678 287.61 367.13 290.043 367.611C291.021 367.804 292.666 367.279 293.544 366.61C294.701 367.579 295.841 367.541 297.322 367.097C299.968 366.301 302.742 365.57 305.472 365.541C307.036 365.524 308.554 365.585 310.052 365.146C310.862 364.909 311.603 364.401 312.42 364.239C313.523 364.02 314.483 363.611 315.845 363.982C317.234 364.361 319.22 363.704 320.525 362.855C321.46 362.246 322.22 362.995 322.757 362.57C323.791 361.751 325.021 361.811 326.135 361.416C326.857 361.159 327.475 361.029 328.256 361.034C329.203 361.041 330.194 360.648 331.095 360.263C332.896 359.494 334.625 358.555 336.432 357.804C337.313 357.438 338.332 357.416 339.237 357.094C340.794 356.543 342.37 355.993 343.827 355.23C345.507 354.351 347.027 353.167 348.696 352.263C349.723 351.708 350.905 351.447 352.007 351.026C354.105 350.224 356.281 349.581 357.66 347.55C357.94 347.138 358.723 347.102 359.202 346.784C360.382 346.001 361.647 343.908 362.191 342.583C362.43 342.002 363.243 341.657 364.133 340.928C364.191 340.823 363.112 339.85 364.597 339.677C365.806 339.536 367.141 337.696 367.314 336.474C367.396 335.895 367.45 335.191 367.799 334.79C369.365 332.991 368.989 330.68 369.555 328.625C369.602 328.455 369.405 328.219 369.277 327.904C367.914 328.333 366.474 328.558 365.266 329.212C362.421 330.753 359.272 331.058 356.228 331.816C354.988 332.125 353.649 332.474 352.653 333.209C351.419 334.12 349.692 333.414 348.686 334.696C346.51 334.156 344.553 335.207 342.503 335.557C340.367 335.921 338.201 336.051 336.126 336.852C334.91 337.322 333.464 337.596 332.194 337.423C330.78 337.23 329.521 337.701 328.214 337.719C325.528 337.756 322.793 338.177 320.145 337.302C319.933 337.232 319.688 337.204 319.466 337.227C314.916 337.689 314.916 337.691 310.738 336.038C308.301 336.442 307.401 333.546 305.173 333.423C304.893 333.407 304.632 332.746 304.394 332.365C304.101 331.897 303.839 331.411 303.569 330.93C303.463 330.74 303.238 330.489 303.292 330.355C304.073 328.384 303.439 326.021 304.977 324.263C305.125 324.093 305.309 323.903 305.351 323.697C305.618 322.369 306.338 321.42 307.405 320.559C309.125 319.17 310.685 317.585 312.318 316.088C313.122 315.351 314.537 315.471 314.969 314.206C316.919 314.887 317.707 312.169 319.581 312.628C320.709 310.907 322.831 311.332 324.385 310.452C325.518 309.809 327.064 309.932 328.394 309.59C329.537 309.296 330.634 308.827 332.083 308.32C332.243 308.393 332.778 308.636 333.312 308.879C333.3 308.755 333.289 308.631 333.278 308.506C334.307 308.204 335.324 307.717 336.368 307.647C337.727 307.556 339.057 307.425 340.408 307.229C341.789 307.029 343.252 307.476 344.684 307.545C346.368 307.626 348.064 307.516 349.742 307.652C351.831 307.82 353.914 307.904 355.948 308.726C356.782 309.063 357.915 308.982 358.86 309.38C359.271 309.553 359.707 309.678 360.103 309.882C362.699 311.213 365.56 311.923 368.082 313.496C368.999 314.068 369.096 314.58 369.138 315.407C371.67 315.165 371.531 318.347 374.586 318.691C376.069 318.458 378.487 317.855 380.684 316.533C380.811 316.456 380.968 316.42 381.117 316.386C382.354 316.104 383.741 316.083 384.79 315.477C385.825 314.88 386.676 314.059 387.966 313.931C388.435 313.885 388.912 313.483 389.3 313.146C390.095 312.459 390.822 311.995 392.018 311.885C393.228 311.774 394.386 310.811 395.508 310.126C396.447 309.553 397.305 308.845 398.189 308.184C398.299 308.101 398.379 307.816 398.421 307.827C400.119 308.272 400.671 306.386 402.042 306.026C402.76 305.838 403.24 304.738 403.954 303.9C405.084 304.698 405.89 303.685 406.778 302.883C407.389 302.331 408.057 301.837 408.638 301.256C409.039 300.854 409.319 300.335 409.681 299.892C409.951 299.562 410.21 299.163 410.568 298.977C412.451 298.002 414.307 297.099 414.633 294.598C414.712 293.989 415.489 293.396 416.062 292.941C418.513 290.997 419.778 288.589 419.324 285.387C419.245 284.827 419.252 284.069 419.563 283.67C420.753 282.14 419.821 280.479 419.815 278.954C419.81 277.691 418.653 276.435 418.017 275.171C417.813 274.766 417.501 274.348 417.487 273.928C417.45 272.855 416.675 272.391 416.03 271.753C415.531 271.26 415.292 270.512 414.812 269.994C413.493 268.574 412.207 267.09 410.694 265.904C410.18 265.501 409.335 265.409 408.901 264.728C408.824 264.607 408.658 264.437 408.557 264.452C406.35 264.78 405.264 262.705 403.495 262.111C403.356 262.064 403.2 262.073 402.832 262.031C401.732 263.778 400.6 265.623 399.419 267.435C398.735 268.482 397.931 269.45 397.259 270.504C396.654 271.453 396.296 272.591 395.578 273.43C394.299 274.925 392.834 276.261 391.438 277.655C391.169 277.925 390.665 278.117 390.605 278.413C390.258 280.133 388.645 280.457 387.542 281.342C387.258 281.57 386.856 281.833 386.8 282.134C386.481 283.874 384.892 284.438 383.783 285.393C382.663 286.358 381.538 287.359 379.969 287.746C379.079 287.966 378.301 288.71 377.516 289.279C376.326 290.143 375.293 291.259 373.672 291.351C373.326 291.371 373.004 291.689 372.658 291.839C370.891 292.608 369.325 293.989 367.19 293.644C364.843 295.273 361.649 294.503 359.381 296.398C359.122 296.615 358.612 296.737 358.298 296.642C357.57 296.42 356.917 295.895 356.184 295.76C355.419 295.62 354.571 295.934 353.805 295.798C352.701 295.6 351.646 294.932 350.556 294.897C348.471 294.831 346.753 294.266 345.075 292.937C343.509 291.698 341.85 290.623 340.361 289.231C338.958 287.92 339.056 286.199 338.268 284.767C337.874 284.05 337.6 283.255 337.365 282.467C337.087 281.538 336.482 280.737 337.305 279.582C337.832 278.844 337.528 277.523 337.63 276.467C337.715 275.583 337.942 274.797 338.362 273.942C339.521 271.586 340.494 269.155 342.301 267.176C342.508 266.949 342.426 266.479 342.554 266.152C342.691 265.803 343.009 265.181 343.092 265.206C344.339 265.576 344.629 264.65 345.093 263.874C345.268 263.583 345.652 263.243 345.953 263.23C347.172 263.176 347.766 262.302 348.545 261.576C349.506 260.681 350.256 259.386 351.85 259.403C352.035 259.405 352.305 259.215 352.396 259.042C353.144 257.621 354.59 257.597 355.877 257.186C356.95 256.842 358.089 256.446 358.945 255.758C359.849 255.03 360.508 254.067 361.869 254.525C361.988 254.565 362.214 254.517 362.289 254.427C363.707 252.705 365.815 253.137 367.637 252.763C370.119 252.252 372.641 251.921 375.155 251.58C375.962 251.471 376.799 251.606 377.621 251.577C378.245 251.555 378.848 251.962 379.527 251.323C379.853 251.015 380.793 251.36 381.456 251.405C382.796 251.497 383.941 252.252 385.54 251.599C386.75 251.106 388.503 251.94 390.013 252.188C391.493 252.431 392.968 252.715 394.454 252.915C395.939 253.116 397.486 253.064 398.672 254.21C399.659 254.041 400.097 253.446 400.311 252.532C400.809 250.399 401.399 248.287 401.9 246.155C402.199 244.881 402.113 243.509 403.013 242.4C403.169 242.208 403.195 241.736 403.068 241.52C402.289 240.189 403.507 239.197 403.783 238.119C403.983 237.33 404.289 236.815 403.979 235.919C403.683 235.062 403.716 233.98 403.937 233.078C404.482 230.852 404.503 228.675 403.999 226.445C403.82 225.652 403.939 224.792 403.912 223.963C403.847 221.912 403.433 219.932 402.883 217.952C402.269 215.735 403.422 213.808 405.555 213.163C405.825 213.082 406.271 213.056 406.429 213.213C407.916 214.685 410.008 215.583 409.625 218.479C409.352 220.552 410.135 222.766 410.451 224.916C410.484 225.14 410.675 225.463 410.588 225.565C409.499 226.837 410.113 228.331 410.254 229.625C410.538 232.247 409.732 234.873 410.432 237.473C410.541 237.878 410.443 238.374 410.326 238.797C409.807 240.674 409.2 242.528 408.715 244.413C408.366 245.774 408.056 247.16 407.912 248.553C407.71 250.522 407.337 252.344 406.06 253.979C405.045 255.278 405.752 257.155 407.396 257.647C409.029 258.136 410.569 258.675 411.674 260.057C411.76 260.165 411.933 260.229 412.076 260.259C413.178 260.495 414.021 261.026 414.745 261.954C415.455 262.864 416.445 263.558 417.327 264.329C417.712 264.665 418.098 265.038 418.55 265.253C419.329 265.622 419.945 265.973 420.204 266.951C420.353 267.511 421.143 267.9 421.705 268.421Z" fill="black"/>
<path fill-rule="evenodd" clip-rule="evenodd" d="M79.4017 185.046C80.2964 184.684 81.3863 184.702 82.3865 184.722C84.6006 184.767 86.814 184.895 89.0234 185.051C89.5277 185.087 90.0032 185.434 90.5124 185.534C91.0883 185.646 91.7324 185.803 92.2682 185.656C94.0027 185.177 95.6413 185.332 97.2992 185.975C97.9926 186.244 98.7617 186.342 99.5066 186.447C100.459 186.583 101.48 186.474 102.37 186.773C104.939 187.636 107.762 188.089 109.511 190.448C109.425 190.727 109.418 190.965 109.332 190.998C106.833 191.957 104.426 193.315 101.566 192.666C101.085 192.557 100.534 192.792 100.013 192.823C99.5973 192.847 99.1593 192.874 98.7643 192.773C97.6429 192.484 96.5546 192.022 95.4197 191.856C95.0006 191.795 94.4887 192.369 93.8429 192.761C92.4875 192.121 91.0424 191.191 89.1327 191.972C88.2354 192.338 87.0101 191.974 85.9508 191.821C85.6998 191.785 85.4998 191.394 85.4845 191.339L85.4834 191.334L78.8007 190.514C78.4046 189.779 77.8722 188.792 77.2753 187.684C77.3735 186.291 78.3256 185.482 79.4017 185.046ZM83.9674 160.233C84.4299 160.159 85.0708 160.29 85.421 160.58C86.9182 161.821 88.7195 162.076 90.5042 162.576C91.5575 162.871 92.5879 163.242 93.6908 163.371C93.9097 163.396 94.2466 163.471 94.309 163.618C95.0296 165.301 96.6044 165.413 98.0762 165.843C98.8839 166.079 99.5613 166.751 100.308 167.21C100.987 167.628 101.621 168.621 102.407 166.956C103.462 169.094 105.021 169.788 106.838 170.322C108.294 170.749 109.653 171.497 110.798 172.719C112.113 174.121 112.806 174.702 113.418 176.652C111.31 177.406 109.316 178.327 106.959 177.231C105.556 176.579 104.007 176.245 102.238 175.676C102.197 175.501 102.065 174.932 101.932 174.362C100.178 174.452 98.89 173.471 97.5657 172.678C96.2123 171.867 94.9682 170.928 93.2952 170.792C92.6551 170.74 91.9767 170.376 91.4411 169.984C90.1683 169.051 88.8554 168.514 87.2213 168.395C86.2372 168.323 85.3421 167.353 84.3568 166.895C83.3506 166.427 82.2832 166.091 81.1442 165.66C81.0478 165.327 81.0339 164.722 80.7331 164.346C79.69 163.044 80.4879 161.858 81.2161 161.065C81.7784 160.452 83.0089 160.388 83.9674 160.233ZM89.0118 140.522C90.3669 139.745 91.6377 139.946 92.9967 140.646C94.696 141.521 96.5221 142.115 98.0755 143.319C98.5744 143.706 99.4982 143.545 100.228 143.635C100.181 143.72 100.135 143.806 100.088 143.892C100.894 144.32 101.698 144.753 102.508 145.175C103.104 145.485 104.074 145.643 104.244 146.103C104.873 147.809 106.71 147.863 107.761 148.953C108.149 149.355 108.826 149.556 109.407 149.68C111.13 150.046 111.957 150.527 112.804 151.754C113.015 152.061 113.285 152.411 113.609 152.544C115.627 153.373 115.665 155.388 116.572 157.148C114.925 157.41 113.493 157.462 112.015 157.203C111.135 157.048 110.212 157.141 108.885 157.113C108.633 156.806 108.375 155.677 107.166 155.822C105.47 153.305 102.472 152.643 100.089 151.215C97.5694 149.704 95.6292 147.444 92.9201 146.231C91.9019 145.774 90.8292 145.482 89.8823 144.504C88.5764 143.154 88.4184 142.046 89.0118 140.522Z" fill="#D08F52"/>
<path fill-rule="evenodd" clip-rule="evenodd" d="M301.577 285.762C302.991 286.086 303.727 287.043 304.123 288.369C302.978 290.102 302.759 292.082 302.744 294.121C302.728 296.116 302.17 296.917 299.855 297.973C299.594 297.047 299.198 296.29 299.207 295.538C299.223 294.186 299.369 292.813 299.667 291.495C300.003 290.008 300.349 288.573 300.11 287.016C299.934 285.866 300.483 285.511 301.577 285.762ZM314.082 283.62C314.401 284.25 314.749 284.938 315.24 285.908C315.144 286.929 315.141 288.587 314.785 290.165C314.57 291.12 313.967 292.121 313.248 292.791C312.44 293.544 310.528 292.043 310.868 290.686C311.463 288.316 310.759 285.357 314.082 283.62ZM334.034 281.326C334.981 283.61 333.925 289.056 330.403 289.565C329.184 287.102 331.05 284.677 330.603 282.336C331.106 281.796 331.52 281.24 332.042 280.816C332.864 280.149 333.625 280.34 334.034 281.326ZM275.708 278.052C275.478 280.401 276.164 282.837 275.025 285.108C274.468 286.22 274.057 287.404 273.488 288.778C271.297 287.597 271.623 285.688 271.634 284.046C271.644 282.495 272.098 280.951 272.309 279.397C272.385 278.833 272.321 278.249 272.321 277.403C272.498 277.272 272.873 276.882 273.332 276.674C274.61 276.093 275.839 276.71 275.708 278.052ZM294.379 266.521C296.934 266.58 297.57 267.168 297.377 269.465C297.179 271.833 297.122 274.285 295.1 276.217C294.816 276.007 294.405 275.86 294.283 275.586C293.537 273.899 293.594 270.492 294.379 266.521ZM250.134 261.774C251.251 263.663 251.383 265.675 250.812 267.772C250.261 269.798 251.229 272.078 249.754 273.945C248.008 273.377 246.543 271.048 247.22 269.306C247.638 268.231 247.442 267.453 247.156 266.515C246.336 263.831 247.12 262.564 250.134 261.774ZM346.003 263.436C347.696 264.003 347.573 265.449 347.382 266.807C347.177 268.259 346.778 269.684 346.424 271.303C345.808 271.566 344.989 271.916 344.229 272.24C342.272 270.623 343.299 268.741 343.408 266.993C343.514 265.29 344.152 263.937 346.003 263.436ZM314.56 257.582L314.709 257.705C316.039 258.815 317.093 259.844 315.969 261.783C315.603 262.416 315.477 263.461 315.733 264.129C316.578 266.339 314.689 267.33 313.889 269.334C313.183 267.409 311.919 266.224 312.363 264.392C312.5 263.822 312.456 263.157 312.315 262.581C311.764 260.342 312.786 258.871 314.56 257.582ZM359.8 260.434C360.448 260.572 361.561 262.02 361.299 262.777C360.56 264.914 360.679 267.492 358.185 269.029C356.805 267.512 356.513 265.951 357.25 264.172C357.504 263.557 357.706 262.914 357.869 262.268C358.148 261.161 359.05 260.275 359.8 260.434ZM330.873 255.361C331.644 256.872 332.086 258.2 331.427 259.812C330.986 260.891 330.878 262.15 330.83 263.336C330.762 265.001 329.521 265.738 328.578 267.079C327.263 264.54 326.56 262.362 327.884 259.948C328.161 259.443 328.206 258.774 328.235 258.175C328.314 256.564 329.133 255.669 330.873 255.361ZM277.819 254.088C278.045 254.539 278.08 255.085 278.239 255.744C277.474 256.522 276.996 257.506 277.389 258.829C277.901 260.555 276.632 261.644 275.658 262.749C275.417 263.024 274.713 262.892 273.718 263.002C274.321 260.393 273.302 258.056 274.609 255.896C274.771 255.629 274.634 255.179 274.629 254.813C274.617 253.841 274.88 252.97 275.932 252.756C276.924 252.556 277.442 253.336 277.819 254.088ZM256.431 246.354C257 247.262 257.537 248.12 258.042 248.926C257.825 250.179 257.666 251.366 257.396 252.527C257.265 253.089 257.02 253.68 256.659 254.121C255.776 255.201 255.155 255.057 254.528 253.757C254.273 253.229 253.952 252.733 253.604 252.124C254.35 250.198 254.47 248.007 256.431 246.354ZM306.633 246.89C306.562 248.888 306.546 250.958 305.489 252.755C305.198 253.249 304.535 253.74 303.998 253.796C303.647 253.832 303.066 253.149 302.846 252.67C301.947 250.722 302.87 248.858 303.332 247.008C303.524 246.24 304.128 245.575 304.487 244.963C306.064 244.871 306.673 245.772 306.633 246.89ZM290.727 236.721C292.636 238.164 292.972 239.217 292.462 241.072C291.761 243.622 291.06 246.181 290.561 248.775C290.289 250.182 289.609 251.223 288.787 252.238C288.536 252.136 288.317 252.116 288.273 252.018C287.429 250.146 287.382 246.024 287.903 244.198C288.346 242.644 288.605 241.007 288.698 239.393C288.779 237.985 289.843 237.538 290.727 236.721ZM324.614 237.329C324.803 238.052 325.293 238.863 325.141 239.526C324.57 242.018 323.865 244.486 323.048 246.909C322.774 247.723 322.017 248.374 321.28 249.373C320.79 248.802 320.191 248.426 320.138 247.984C319.955 246.462 319.507 244.955 320.427 243.399C321.059 242.333 321.14 240.955 321.574 239.755C322.002 238.573 322.474 237.345 324.614 237.329ZM267.751 238.044C268.615 238.338 269.367 238.592 270.414 238.947C270.115 240.422 269.858 241.808 269.547 243.183C269.348 244.065 269.005 244.918 268.845 245.806C268.647 246.904 267.995 247.344 266.976 247.404C265.474 246.596 265.767 245.07 265.575 244.307C266.374 242.006 267.022 240.142 267.751 238.044ZM241.535 238.37C243.014 238.447 243.474 239.682 243.427 240.566C243.322 242.551 242.792 244.513 242.434 246.484C242.201 246.541 241.969 246.598 241.737 246.655C241.219 245.961 240.523 245.334 240.227 244.556C239.812 243.469 239.575 242.277 239.481 241.112C239.363 239.652 240.809 239.241 241.535 238.37ZM339.782 237.047L339.805 237.1C339.985 237.515 340.116 237.951 340.127 237.98C339.973 239.978 339.918 241.569 339.708 243.14C339.527 244.494 338.713 245.468 337.439 246.005C336.518 246.394 335.796 246.013 335.562 245.036C335.177 243.427 335.945 241.997 336.282 240.502C336.479 239.627 336.712 238.76 336.936 237.892C337.011 237.602 337.025 237.231 337.214 237.047C337.619 236.652 338.074 236.213 338.59 236.048C339.371 235.799 339.557 236.509 339.782 237.047ZM356.432 231.747C356.144 236.063 356.301 240.555 353.114 244.482C350.941 241.643 351.397 238.986 352.587 236.203C353.138 234.915 353.045 233.4 354.006 232.197C354.639 231.404 355.253 231.161 356.432 231.747ZM307.09 229.951C309.216 231.347 309.348 231.771 308.56 233.867C308.321 234.503 307.983 235.213 308.066 235.839C308.339 237.906 307.334 239.02 305.39 239.776C304.195 237.765 303.452 235.935 305.076 233.867C305.428 233.42 305.128 232.461 305.128 231.343C305.574 231.027 306.355 230.472 307.09 229.951ZM283.43 223.661C283.709 223.766 283.984 223.881 284.518 224.093C283.466 226.957 283.413 230.091 281.561 232.901C281.261 232.589 280.88 232.358 280.747 232.027L280.639 231.757C280.088 230.362 279.645 228.949 280.208 227.399C280.409 226.846 280.437 226.217 280.462 225.619C280.558 223.311 281.255 222.841 283.43 223.661ZM255.496 225.036C255.353 227.56 254.599 229.727 252.878 231.86C250.63 228.666 252.332 225.64 252.569 222.665C255.093 221.751 255.646 222.364 255.496 225.036ZM319.873 215.284C320.269 215.437 320.794 216.047 320.758 216.406C320.481 219.189 320.475 222.018 319.323 224.668C318.617 226.291 317.31 227.286 315.813 228.783C315.813 226.448 315.335 224.483 315.93 222.931C316.726 220.857 316.855 218.656 317.683 216.636C317.851 216.227 318.116 215.765 318.471 215.549C318.865 215.311 319.487 215.135 319.873 215.284ZM295.212 216.618C295.771 216.841 296.503 217.135 297.299 217.454C297.057 219.626 296.939 221.718 296.538 223.754C296.387 224.524 295.584 225.165 295 225.973C294.229 225.607 293.633 225.325 292.797 224.929C292.937 224.172 292.905 223.303 293.261 222.643C293.92 221.42 294.117 220.279 293.451 219.254C294.068 218.331 294.591 217.547 295.212 216.618ZM340.468 215.895C340.293 217.938 339.961 219.994 339.416 221.967C339.14 222.965 338.24 223.791 337.567 224.775C335.99 222.533 335.989 220.214 337.392 212.941C339.617 212.595 340.674 213.501 340.468 215.895ZM269.616 215.994C271.21 216.055 271.786 216.884 271.831 218.217C271.913 220.712 271.588 223.02 269.144 224.418C266.604 221.814 266.747 219.396 269.616 215.994ZM308.465 211.744C310.308 213.537 309.306 215.472 308.73 217.428C308.142 217.69 307.543 217.957 306.709 218.329C306 216.817 305.046 215.407 305.44 213.816C305.768 212.488 306.87 211.602 308.465 211.744ZM355.26 202.676C355.404 205.272 354.112 207.49 353.487 209.882C353.245 210.805 352.795 211.605 353.133 212.705C353.502 213.907 352.696 215.075 350.735 217.06C349.815 215.194 349.357 213.651 349.869 211.558C350.409 209.359 350.996 207.071 350.98 204.698C350.972 203.494 351.729 202.284 352.155 201.035C352.489 201.008 352.93 200.966 353.372 200.939C354.867 200.849 355.179 201.214 355.26 202.676ZM239.084 202.336C240.674 207.226 238.574 211.224 236.598 215.531C235.284 214.394 235.42 212.989 235.117 211.852C234.87 210.927 235.228 209.813 235.424 208.804C235.661 207.58 236.155 206.471 236.176 205.124C236.196 203.894 237.423 202.844 239.084 202.336ZM288.391 199.037C291.341 199.499 291.344 201.298 290.517 203.374C289.878 204.979 289.112 206.474 289.3 208.339C289.373 209.065 288.52 209.889 288.074 210.66C287.537 211.588 286.985 212.506 286.263 213.726C284.845 210.513 284.501 207.792 286.155 204.996C286.639 204.178 287.04 203.123 286.975 202.211C286.88 200.85 287.366 199.933 288.391 199.037ZM299.617 197.428C299.968 197.69 300.234 198.065 300.531 198.382C299.71 200.648 299.04 202.882 298.078 204.983C297.618 205.987 296.603 206.736 295.694 207.768C295.155 206.525 294.775 205.647 294.385 204.749C295 202.714 296.125 200.814 296.355 198.56C296.49 197.226 298.533 196.619 299.617 197.428ZM256.587 196.035C256.978 196.439 257.618 196.788 257.72 197.255C258.427 200.516 258.879 203.805 257.919 207.106C257.884 207.225 257.702 207.301 257.483 207.486C254.018 203.636 253.608 198.919 256.587 196.035ZM313.172 190.816C313.398 190.863 313.687 190.964 313.981 190.976C315.344 191.032 315.818 191.466 315.969 192.642C316.394 195.947 315.537 199.054 314.414 202.079C313.936 203.369 313.093 204.564 311.534 205.327C311.391 204.717 311.172 204.243 311.187 203.776C311.247 201.828 310.21 199.766 311.816 197.956C312.069 197.671 312.133 197.053 312.034 196.65C311.52 194.548 312.281 192.708 313.172 190.816ZM276.88 192.054C278.185 193.164 278.408 193.609 277.625 195.101C276.817 196.641 276.137 198.2 275.997 199.979C275.886 201.403 274.909 202.387 274.02 203.429C272.068 202.183 272.561 200.187 272.664 198.666C272.812 196.48 273.688 194.344 274.273 192.111C275.053 191.853 275.837 191.168 276.88 192.054ZM329.654 194.453C330.498 196.96 328.984 201.294 326.867 202.522C325.491 200.287 326.098 197.968 326.668 195.697C327.079 194.06 328.453 194.367 329.654 194.453ZM347.001 184.355C347.459 184.578 348.051 185.266 347.998 185.68C347.701 187.979 347.83 190.381 346.549 192.483C346.056 193.292 345.683 194.176 345.163 195.211C343.735 192.392 343.744 189.645 344.335 186.891C344.499 186.127 345.079 185.396 345.627 184.794C345.921 184.47 346.675 184.197 347.001 184.355ZM292.488 179.398C293.033 180.937 293.468 182.165 293.962 183.56C293.233 185.462 292.499 187.57 291.615 189.612C291.095 190.81 290.273 191.809 288.353 191.455C288.295 190.699 288.05 189.816 288.204 189.009C288.507 187.416 289.027 185.864 289.465 184.297C289.585 183.864 289.922 183.392 289.833 183.017C289.286 180.73 291.293 180.592 292.488 179.398ZM263.199 175.408C264.315 175.573 264.835 176.25 264.813 177.487C264.783 179.125 264.888 180.782 264.674 182.397C264.474 183.906 263.935 185.369 263.545 186.852C263.297 186.86 263.049 186.868 262.801 186.876C261.435 184.837 260.438 182.694 260.97 180.067C261.174 179.059 261.268 178.029 261.449 177.016C261.621 176.054 261.966 175.226 263.199 175.408ZM283.454 174.731C284.391 177.704 284.105 180.328 281.332 184.256C279.223 182.108 280.09 179.526 280.24 177.128C280.311 176 282.056 174.847 283.454 174.731ZM331.965 174.547C333.003 174.863 333.005 175.433 332.7 176.458C332.243 177.996 332.456 179.716 331.53 181.16C331.172 181.718 330.84 182.293 330.29 183.2C329.822 182.611 329.508 182.372 329.406 182.062C328.674 179.849 328.893 177.66 329.718 175.519C330.058 174.634 330.971 174.246 331.965 174.547ZM307.141 171.636C307.625 172.012 308.143 172.415 308.635 172.797C307.908 175.745 308.047 178.891 305.961 181.7C305.233 179.971 304.612 178.496 304.096 177.27C304.294 176.014 304.422 174.943 304.653 173.894C304.741 173.493 304.986 173.047 305.299 172.794C305.862 172.337 306.531 172.009 307.141 171.636ZM278.769 161.627C278.722 163.889 278.999 166.342 277.329 168.358C276.896 168.881 276.874 169.743 276.566 170.773C273.574 167.206 275.772 163.658 275.851 160.138C278.159 158.924 278.821 159.134 278.769 161.627ZM295.945 158.728C297.125 158.83 298.053 159.757 297.758 160.87C297.135 163.22 296.829 165.742 294.915 167.87C292.451 164.909 294.04 161.839 294.07 158.84C294.763 158.793 295.362 158.677 295.945 158.728ZM322.86 155.024C323.716 155.889 323.889 156.945 323.571 158.136C322.889 160.69 322.84 163.473 320.716 165.694C319.639 163.37 318.86 161.179 319.721 158.662C320.1 157.552 320.201 156.347 320.462 155.012C321.098 154.863 321.983 154.137 322.86 155.024ZM312.449 148.861C312.51 148.865 312.568 148.947 312.78 149.111C312.883 152.428 311.633 155.354 309.581 158.173C308.284 156.648 308.213 154.97 308.367 153.255C308.421 152.66 308.676 152.085 308.764 151.49C309.09 149.286 309.44 148.939 311.562 148.846C311.857 148.832 312.154 148.844 312.449 148.861Z" fill="#A1483A"/>
<path fill-rule="evenodd" clip-rule="evenodd" d="M343.546 153.949C378.043 127.118 399.474 106.204 407.84 91.2075C411.083 85.2976 415.483 77.4641 421.038 67.707C436.918 77.6516 449.153 83.8511 457.742 86.3055C466.332 88.7598 479.978 92.2894 498.682 96.8941C491.793 116.071 481.307 135.089 467.225 153.949C453.142 172.809 440.944 186.125 430.631 193.897C413.34 200.51 397.344 200.51 382.645 193.897C367.945 187.283 354.912 173.967 343.546 153.949Z" fill="white"/>
<path fill-rule="evenodd" clip-rule="evenodd" d="M222.589 52.0148L415.941 360.696L419.102 366.214L425.379 383.981L418.067 390.944L399.451 379.68L394.368 372.558L217.939 92.164L201.383 65.9524C199.063 58.6478 200.595 53.1973 205.978 49.6007C211.361 46.0042 216.898 46.8089 222.589 52.0148Z" fill="white"/>
<path fill-rule="evenodd" clip-rule="evenodd" d="M95.9969 277.919C110.232 284.383 120.839 288.189 127.818 289.335C134.797 290.482 143.239 290.482 153.144 289.335L161.803 223.088L128.461 222.389L110.159 220.102L105.739 219.143L103.28 240.004L100.399 258.819L94.5215 276.091L95.9969 277.919Z" fill="white"/>
<path fill-rule="evenodd" clip-rule="evenodd" d="M234.586 71.5788C232.525 72.9878 230.737 74.1951 228.965 75.4244C224.648 78.4203 220.353 81.4473 216.015 84.4139C215.569 84.719 215.039 85.1223 215.039 85.1223L216.093 86.7262C222.699 82.4034 229.241 78.1219 235.9 73.764C235.485 73.0738 235.115 72.4586 234.586 71.5788ZM220.07 93.5399C226.808 89.0582 233.363 84.697 240.042 80.2543C238.996 78.5994 238.118 77.2124 237.045 75.5147C230.303 79.9211 223.706 84.2313 216.963 88.638C218.049 90.3524 219.05 91.9304 220.07 93.5399ZM228.276 61.4177C221.583 66.2457 215.178 70.8668 208.704 75.5372C210.408 78.2206 211.91 80.8607 213.768 83.3938C220.432 78.7826 226.858 74.3368 233.483 69.7525C231.723 66.9347 230.062 64.2763 228.276 61.4177ZM424.61 383.513C424.61 383.513 424.329 382.521 424.22 382.22C422.613 377.76 420.87 373.344 419.424 368.832C419.334 368.553 419.228 368.276 419.113 368.009C418.384 366.318 417.201 364.857 415.723 363.755C415.279 363.423 414.872 363.174 414.44 362.955C411.391 361.16 407.742 363.438 407.521 366.979C407.467 367.865 407.703 368.787 407.91 369.667C408.118 370.556 408.53 371.399 408.701 372.292C408.781 372.711 408.638 373.449 408.358 373.598C407.933 373.825 407.252 373.802 406.77 373.631C406.246 373.446 405.832 372.96 405.357 372.623C404.679 372.141 404.029 371.601 403.298 371.216C401.137 370.08 399.745 370.849 399.595 373.313C399.525 374.465 399.697 375.634 399.809 376.791C399.867 377.389 400.05 378.161 400.05 378.161L404.306 381.059C407.746 383.104 412.345 386.483 413.711 387.484C414.617 388.147 415.374 388.596 416.468 389.197C417.988 385.685 420.389 383.411 424.61 383.513ZM207.437 73.8837C214.252 68.9631 220.648 64.3447 227.128 59.6671C224.833 55.8187 222.686 52.3914 218.788 50.2697C213.905 47.6127 208.343 48.7431 204.563 51.9858C201.008 55.0345 199.824 59.5415 201.749 63.7313C203.3 67.1083 205.373 70.2471 207.437 73.8837ZM401.321 368.759C343.547 277.422 285.467 185.741 227.693 94.4038C226.193 95.7717 224.693 97.1398 223.193 98.5081C224.732 100.949 226.27 103.39 227.808 105.831L232.422 113.155C233.96 115.596 235.498 118.037 237.036 120.478L241.651 127.801C243.189 130.242 244.727 132.683 246.265 135.125L250.88 142.448C252.418 144.889 253.956 147.33 255.494 149.771C257.032 152.213 258.57 154.653 260.108 157.095C261.646 159.536 263.185 161.977 264.722 164.418C266.261 166.859 267.798 169.3 269.337 171.741L273.951 179.064C275.489 181.506 277.027 183.947 278.565 186.388C280.104 188.829 281.642 191.27 283.18 193.711C284.718 196.152 286.256 198.593 287.794 201.034C289.332 203.475 290.871 205.917 292.408 208.358L297.023 215.681C298.561 218.122 300.099 220.563 301.637 223.005L306.252 230.328C307.79 232.769 309.328 235.21 310.866 237.651L315.481 244.974C317.018 247.415 318.557 249.857 320.094 252.298L324.709 259.621C326.247 262.062 327.785 264.503 329.323 266.944C330.861 269.385 332.4 271.826 333.937 274.268L338.552 281.591C340.075 284.009 341.586 286.429 343.112 288.845L347.732 296.163C349.273 298.603 350.813 301.041 352.353 303.481C353.894 305.92 355.433 308.36 356.974 310.798L361.595 318.116C363.135 320.555 364.675 322.995 366.215 325.434C367.756 327.873 369.296 330.312 370.836 332.752C372.376 335.191 373.916 337.63 375.457 340.069C376.997 342.508 378.537 344.948 380.077 347.387C381.618 349.826 383.158 352.265 384.698 354.705C386.238 357.144 387.778 359.583 389.319 362.022L393.939 369.34C394.525 370.267 395.11 371.193 395.695 372.12C395.988 372.584 396.281 373.047 396.574 373.51C396.72 373.742 396.866 373.975 397.012 374.206C397.114 374.368 397.439 374.715 397.452 374.901C396.535 370.563 398.905 369.03 401.321 368.759ZM231.386 90.621C289.399 182.703 347.176 274.411 405.156 366.441C405.949 362.226 408.723 359.763 415.316 361.127C357.141 268.628 297.968 175.842 239.932 83.5637C236.946 86.0301 234.251 88.2549 231.386 90.621ZM432.308 398.775C432.633 400.098 431.146 401.144 430.018 400.376C429.779 400.214 429.552 400.044 429.319 399.898C420.055 394.065 410.843 388.149 401.525 382.403C399.253 381.002 397.562 379.3 396.149 377.055C347.143 299.193 298.095 221.357 249.051 143.519C234.29 120.09 219.537 96.6552 204.737 73.2505C202.956 70.4343 200.986 67.7612 199.77 64.6071C197.453 58.5978 199.691 52.0394 205.338 48.8945C212.319 45.0066 217.819 46.4567 223.406 50.9446C224.484 51.8108 225.402 52.9677 226.141 54.1487C276.204 134.198 326.242 214.264 376.283 294.328C389.987 316.254 403.636 338.214 417.453 360.069C419.908 363.952 421.307 368.177 422.852 372.387C425.726 380.216 428.528 388.072 431.328 395.927C431.66 396.859 432.064 397.781 432.308 398.775Z" fill="black"/>
<path fill-rule="evenodd" clip-rule="evenodd" d="M105.744 217.375C105.84 217.379 105.93 217.395 106.013 217.428C111.603 219.681 117.527 220.483 123.434 220.828C133.791 221.434 144.175 221.591 154.549 221.869C156.639 221.925 158.736 221.611 160.83 221.605C162.358 221.6 163.381 222.856 163.085 224.353C159.933 240.278 158.541 256.449 156.335 272.506C155.641 277.553 155.304 282.649 154.784 287.72C154.54 290.1 154.249 290.367 151.753 290.96C150.903 291.162 150.032 291.287 149.158 291.314C135.25 291.744 121.657 289.858 108.558 285.169C104.022 283.545 99.7963 281.05 95.4512 278.908C95.1229 278.746 94.8177 278.538 94.5101 278.306C93.8102 277.779 93.576 276.839 93.9135 276.031C98.882 264.151 100.943 251.871 102.435 239.471C103.243 232.753 103.806 226.006 104.486 219.272C104.516 218.972 104.56 218.674 104.609 218.36C104.696 217.799 105.176 217.351 105.744 217.375ZM106.621 220.103L106.37 222.639C104.561 241.024 102.819 259.313 95.9971 276.763C96.6767 277.182 97.2955 277.589 97.9382 277.954C104.377 281.617 111.18 284.311 118.416 286.002C128.414 288.34 138.502 289.668 148.781 289.264C150.071 289.214 151.349 288.86 152.554 288.66C154.879 266.747 157.392 245.203 160.925 223.868C142.635 223.8 124.536 224.532 106.621 220.103ZM128.1 236.294C133.279 236.261 135.734 239.864 134.071 244.721C133.857 245.347 133.607 245.96 133.3 246.775C134.31 247.007 135.052 247.14 135.771 247.35C138.782 248.232 140.224 250.757 139.327 253.776C138.974 254.963 138.384 256.097 137.781 257.189C137.219 258.209 136.31 259.407 135.622 260.433C135.733 260.613 136.261 260.804 136.438 260.92C138.588 262.336 139.3 264.735 138.081 266.993C136.173 270.527 133.807 273.817 131.601 277.187C131.229 277.757 130.641 278.249 129.925 277.638C129.228 277.043 129.669 276.424 130.046 275.862C131.681 273.432 133.362 271.031 134.946 268.568C135.574 267.593 136.094 266.52 136.477 265.427C136.823 264.438 136.734 263.435 135.611 262.834C134.608 262.297 133.793 262.38 132.875 263.166C131.748 264.132 130.543 264.989 129.362 265.884C128.608 266.455 127.823 267.008 126.943 267.37C126.145 267.698 125.033 268.07 124.213 267.636C122.856 266.917 123.281 265.418 124.083 264.435C125.759 262.382 128.445 261.179 131.012 260.709C132.562 260.425 133.64 259.692 134.411 258.431C135.366 256.869 136.412 255.334 137.137 253.666C137.952 251.793 137.39 250.396 135.88 249.602C134.137 248.685 132.339 249.038 131.455 249.563C131.455 249.563 131.017 250.116 130.885 250.255C129.327 251.893 127.751 253.516 126.115 255.077C124.748 256.381 123.201 257.734 121.249 257.993C119.898 258.172 118.622 257.224 118.856 255.796C119.118 254.194 120.33 252.667 121.5 251.605C123.505 249.783 126.045 248.561 128.62 247.769C129.066 247.632 129.844 247.429 129.844 247.429C131.579 246.145 132.868 243.261 132.504 241.279C132.271 240.011 131.452 239.24 130.292 238.758C128.582 238.046 126.808 238.086 125.087 238.526C120.391 239.725 116.455 242.188 113.391 245.939C112.827 246.629 112.593 247.576 112.085 248.323C112.072 248.343 112.059 248.362 112.044 248.381C111.51 249.074 110.328 248.856 110.171 247.997C110.162 247.945 110.157 247.892 110.159 247.84C110.176 247.214 110.434 246.502 110.813 245.99C115.107 240.19 120.586 236.342 128.1 236.294ZM127.901 250.523C124.851 251.332 122.644 252.854 121.737 254.719C121.507 255.191 122.046 255.663 122.501 255.396C124.601 254.16 126.239 252.477 127.901 250.523Z" fill="#BD8CE9"/>
<path fill-rule="evenodd" clip-rule="evenodd" d="M422.423 66.9408C426.587 70.3206 431.088 73.1693 435.867 75.6137C450.744 83.2233 466.317 88.8099 482.722 92.0726C487.714 93.065 492.667 94.2537 497.629 95.389C500.221 95.9822 500.404 96.3006 499.524 98.7936C496.317 107.872 492.109 116.489 487.414 124.881C474.311 148.301 457.653 169.008 439.034 188.218C438.394 188.878 437.688 189.481 437.104 190.186C432.904 195.259 427.118 197.289 420.943 198.297C417.255 198.9 413.467 198.887 409.747 199.149C403.699 198.701 397.681 198.458 391.718 197.75C386.733 197.158 382.003 195.588 377.736 192.72C370.211 187.66 363.428 181.751 357.118 175.269C352.673 170.704 348.747 165.729 345.235 160.422C344.682 159.588 344.148 158.738 343.648 157.871C342.328 155.582 341.97 153.777 344.984 151.504C359.407 140.63 373.14 128.968 385.825 116.056C399.847 101.784 411.254 85.7802 419.552 67.5721C420.435 65.6355 420.76 65.5905 422.423 66.9408ZM404.258 188.086C400.105 191.311 395.383 193.32 390.198 194.231C389.624 194.332 389.052 194.449 388.479 194.558C387.929 194.628 386.446 194.508 386.447 194.681C387.643 194.918 390.863 195.639 392.07 195.775C400.283 196.706 408.527 197.133 416.785 196.763C420.518 196.595 424.199 195.889 428.119 194.002C427.036 193.762 426.477 193.573 425.905 193.52C419.733 192.952 414.032 190.929 408.746 187.777C407.04 186.759 405.777 186.906 404.258 188.086ZM421.194 69.1325C420.765 69.988 420.35 70.8017 419.946 71.6219C412.636 86.4658 403.647 100.131 392.249 112.224C380.939 124.223 368.972 135.47 355.962 145.606C352.212 148.526 348.486 151.478 344.378 154.707C345.232 156.238 345.923 157.646 346.765 158.958C351.761 166.739 357.872 173.575 364.705 179.773C369.594 184.21 374.656 188.435 380.334 191.866C381.525 192.585 382.703 192.959 384.103 192.866C390.539 192.442 396.648 191.035 401.984 187.173C402.795 186.585 403.631 186.03 404.466 185.477C405.678 184.678 406.929 184.532 408.244 185.258C408.974 185.661 409.761 185.964 410.477 186.388C415.752 189.508 421.52 191.03 427.554 191.716C430.571 192.059 433.002 191.524 435.376 189.11C448.703 175.56 460.967 161.132 471.926 145.619C481.489 132.083 489.752 117.793 495.976 102.388C496.589 100.874 497.103 99.3193 497.699 97.6836C497.014 97.4534 496.559 97.2549 496.083 97.1474C491.525 96.1218 486.962 95.1142 482.402 94.0956C472.382 91.8562 462.394 89.5074 452.873 85.5404C442.078 81.0427 431.301 76.5147 421.926 69.3098C421.759 69.1821 421.482 69.1977 421.194 69.1325ZM413.654 168.225C414.346 168.475 414.98 168.898 415.624 169.27C420.073 171.843 424.522 174.417 428.959 177.011C428.964 177.014 428.968 177.016 428.972 177.018C429.71 177.457 429.916 178.464 429.468 179.205C428.679 180.507 427.8 181.717 426.917 182.728C425.757 184.057 423.837 184.365 422.335 183.459C417.831 180.742 413.304 178.009 408.769 175.289C407.781 174.697 407.583 173.898 408.164 172.969C409.049 171.554 409.993 170.175 410.962 168.817C411.659 167.841 412.676 167.871 413.654 168.225ZM412.653 169.969C411.785 171.249 411.021 172.374 410.126 173.693C415.058 176.638 419.737 179.432 424.438 182.239C424.882 181.814 425.211 181.56 425.464 181.244C426.084 180.468 426.669 179.663 427.408 178.686C422.379 175.714 417.612 172.899 412.653 169.969ZM394.267 123.039C394.553 123.056 394.826 123.38 395.095 123.576C401.729 128.429 408.927 132.33 416.279 135.976C419.422 137.534 419.487 137.849 417.067 140.36C409.885 147.814 402.678 155.245 395.472 162.677C394.727 163.445 394.034 164.351 392.192 164.198C391.454 163.949 390.128 163.651 388.937 163.077C382.132 159.797 376.433 155.079 371.385 149.545C370.999 149.121 370.773 148.556 370.435 148.082C369.722 147.085 369.917 146.228 370.777 145.437C371.084 145.155 371.375 144.855 371.666 144.555C378.065 137.972 384.464 131.387 390.863 124.803C391.386 124.264 391.832 123.592 392.46 123.232C392.944 122.955 393.661 123.002 394.267 123.039ZM391.465 144.364C385.404 145.629 379.401 146.882 373.315 148.153C376.188 152.724 386.86 160.599 391.465 161.513V144.364ZM414.799 139.883C414.799 139.883 412.982 140.189 412.717 140.217C406.169 141.405 400.521 142.566 394.085 143.734C393.269 148.887 393.21 159.075 394.02 161.221C400.657 154.31 408.235 146.717 414.799 139.883ZM420.843 144.034C421.302 144.055 421.768 144.369 422.197 144.616C429.745 148.977 437.289 153.344 444.828 157.722C445.251 157.968 445.673 158.273 445.975 158.649C446.134 158.847 446.135 159.307 446.018 159.56C445.985 159.632 445.932 159.695 445.867 159.753C445.544 160.043 445.066 160.081 444.671 159.903C444.311 159.741 443.97 159.585 443.647 159.399C436.023 155.003 428.404 150.599 420.785 146.194C420.498 146.028 420.137 145.9 419.965 145.648C419.759 145.344 419.517 144.75 419.651 144.594C419.919 144.281 420.439 144.017 420.843 144.034ZM417.07 151.528C420.862 153.622 424.644 155.733 428.407 157.878C428.507 157.935 428.613 157.99 428.721 158.044C429.855 158.617 429.109 160.404 427.931 159.932C427.836 159.894 427.743 159.851 427.653 159.802C423.776 157.692 419.928 155.527 416.092 153.342C415.346 152.917 414.112 152.495 414.739 151.344C415.399 150.132 416.333 151.12 417.07 151.528ZM391.916 126.896C385.687 133.342 379.175 140.052 373.315 146.117C373.387 146.244 375.184 145.614 375.514 145.573C381.305 144.357 385.767 143.42 391.678 142.178C391.868 136.957 392.08 132.136 391.916 126.896ZM394.216 125.943V141.582C400.913 140.38 407.673 139.169 414.799 137.891C407.789 133.822 401.15 129.968 394.216 125.943ZM446.221 125.515C450.416 127.352 454.636 129.131 458.844 130.94C460.067 131.466 461.295 131.989 462.496 132.563C464.279 133.417 464.515 133.995 463.815 135.918C463.275 137.397 462.587 138.825 462.084 140.314C461.647 141.607 460.891 141.734 459.77 141.252C457.094 140.1 454.386 139.019 451.727 137.829C448.079 136.198 444.463 134.497 440.84 132.813C440.797 132.793 440.756 132.769 440.714 132.738C440.196 132.367 440.071 131.65 440.386 131.098C441.385 129.352 442.344 127.638 443.37 125.965C444.095 124.782 445.119 125.032 446.221 125.515ZM444.975 127.221C444.176 128.63 443.469 129.877 442.684 131.263C448.616 134.052 454.188 136.951 460.24 139.153C460.873 137.622 461.434 136.265 462.118 134.61C456.276 132.092 450.729 129.701 444.975 127.221ZM421.89 85.7369C428.102 88.3137 434.308 90.9032 440.51 93.5019C443.012 94.5499 443.311 95.2565 441.882 97.6344C438.635 103.036 435.349 108.416 431.961 113.73C429.777 117.155 427.366 120.436 425.094 123.807C424.533 124.64 423.914 125.184 422.8 125.105C420.458 124.265 417.975 123.688 415.804 122.53C410.901 119.916 406.118 117.07 401.356 114.205C399.504 113.092 399.438 112.297 400.737 110.559C402.873 107.7 405.147 104.942 407.233 102.048C410.824 97.0695 414.334 92.033 417.837 86.9919C419.265 84.9385 419.572 84.7753 421.89 85.7369ZM420.601 107.403C415.107 109.458 409.757 111.46 404.139 113.562C410.113 117.222 415.65 121.113 422.576 122.645C421.895 117.393 421.249 112.408 420.601 107.403ZM438.639 98.3588C433.35 101 428.06 103.641 422.614 106.361C423.182 111.004 423.783 116.555 424.339 121.106C424.572 121.132 424.991 120.183 424.991 120.183C429.908 113.188 434.787 106.169 438.639 98.3588ZM444.994 108.938C449.783 110.668 454.545 112.468 459.314 114.249C459.938 114.482 460.584 114.692 461.154 115.019C461.235 115.065 461.308 115.125 461.376 115.196C461.808 115.64 461.744 116.394 461.176 116.656C461.106 116.688 461.038 116.706 460.97 116.704C460.322 116.682 459.655 116.518 459.041 116.294C454.103 114.486 449.17 112.666 444.252 110.808C443.384 110.48 441.905 110.278 442.425 108.987C442.973 107.626 444.171 108.641 444.994 108.938ZM448.618 101.881C456.835 104.376 465.047 106.884 473.26 109.392C473.498 109.465 473.803 109.509 473.943 109.678C473.962 109.701 473.981 109.725 474 109.749C474.48 110.356 474.301 111.254 473.638 111.654L473.63 111.658C472.342 111.279 471.38 111.004 470.422 110.713C462.763 108.39 455.105 106.065 447.447 103.738C447.129 103.641 446.736 103.617 446.518 103.41C446.446 103.341 446.379 103.266 446.317 103.187C445.901 102.651 446.106 101.808 446.754 101.607C446.803 101.591 446.854 101.581 446.904 101.576C447.462 101.525 448.061 101.712 448.618 101.881ZM419.234 89.1898C413.696 96.714 408.456 103.835 402.856 111.445C409.419 109.763 415.035 107.422 420.71 104.846C420.219 99.6372 419.746 94.6281 419.234 89.1898ZM421.737 87.9458C421.233 89.9773 422.349 102.713 422.614 103.829C427.961 101.138 433.739 98.4635 439.654 95.4864C433.298 92.8114 427.529 90.3836 421.737 87.9458Z" fill="#D08F52"/>
<path fill-rule="evenodd" clip-rule="evenodd" d="M155.989 181.228H173.238L197.053 221.16L209.742 241.935L211.091 209.509L215.983 180.11L219.736 172.807H277.34L281.245 201.828L282.543 244.07L283.519 286.905L283.886 354.168L285.068 382.482L279.082 398.59L268.08 387.754L265.107 374.741L260.48 340.956L256.429 298.174L253.301 263.762L250.878 241.935L249.054 247.497L243.213 269.607L235.253 288.822L226.374 299.3L216.918 302.406L206.173 299.3L193.814 285.698L184.229 266.672L175.508 244.07L165.076 213.794L158.703 194.257L155.989 181.228Z" fill="white"/>
<path fill-rule="evenodd" clip-rule="evenodd" d="M162.385 186.681C162.385 188.376 162.396 190.194 162.382 192.011C162.367 194.044 162.049 195.97 160.193 197.258C160.793 198.848 161.34 200.299 161.914 201.818C167.612 198.38 173.089 195.077 178.693 191.696C177.636 189.916 176.673 188.292 175.717 186.681H162.385ZM265.727 368.317C266.476 374.01 266.888 379.263 267.618 384.54C267.99 385.083 268.255 385.487 268.56 385.853C270.756 388.48 272.975 391.091 275.206 393.689C275.554 394.094 276.003 394.413 276.442 394.805C278.509 391.633 280.353 388.549 282.47 385.663C282.982 384.966 283.449 384.358 283.792 383.7C283.792 383.7 283.843 382.635 283.751 381.536C283.598 378.787 283.555 376.033 283.452 373.281C283.412 372.219 283.331 371.158 283.257 369.885C277.403 369.361 271.769 368.858 265.727 368.317ZM179.686 193.392C173.984 196.82 168.168 200.371 162.636 203.697C162.636 203.697 162.926 204.397 163.029 204.695C168.534 220.716 173.89 236.79 179.621 252.73C183.492 263.499 188.163 273.955 194.099 283.788C197.536 289.481 201.597 294.618 207.201 298.427C212.604 302.097 218.031 302.378 223.687 299.143C226.19 297.711 228.286 295.825 230.137 293.639C233.852 289.256 236.535 284.274 238.681 278.982C243.249 267.721 246.567 256.073 248.649 244.136C251.429 228.194 254.19 212.229 254.836 196.004C254.906 194.253 255.101 192.507 255.156 190.756C255.19 189.717 255.593 189.01 256.534 188.587C257.902 187.972 259.246 187.292 260.647 186.766C260.744 186.729 260.859 186.739 260.984 186.774C261.559 186.938 261.851 187.618 261.576 188.15C261.515 188.268 261.442 188.364 261.344 188.42C260.054 189.167 258.684 189.78 257.259 190.484C256.955 194.516 256.625 198.501 256.361 202.49C255.588 214.166 254.113 225.753 252.133 237.282C251.982 238.166 251.992 239.1 252.075 239.998C253.122 251.471 254.222 262.94 255.258 274.415C256.046 283.146 256.717 291.888 257.523 300.618C258.559 311.841 259.603 323.065 260.783 334.273C261.691 342.907 262.19 351.617 263.864 360.136C264.439 363.061 264.433 362.793 264.789 364.506C264.867 364.88 265.089 366.334 265.089 366.334C265.089 366.334 266.175 366.604 266.757 366.653C272.001 367.096 277.833 367.665 283.384 368.152C283.473 366.103 283.384 364.562 283.36 362.87C283.088 343.329 282.748 323.79 282.439 304.251C282.334 297.654 282.285 291.056 282.175 284.459C281.847 264.669 281.586 244.878 281.134 225.091C280.791 210.142 279.704 195.24 277.488 180.434C277.092 177.795 276.932 175.121 276.66 172.463C276.583 171.716 276.384 170.814 277.452 170.711C278.516 170.609 278.54 171.604 278.628 172.303C279.034 175.533 279.393 178.769 279.746 182.005C280.532 189.225 281.591 196.429 282.016 203.671C282.71 215.504 283.158 227.357 283.404 239.208C283.868 261.584 284.112 283.965 284.454 306.344C284.752 325.883 285.029 345.423 285.378 364.961C285.533 373.634 285.845 382.305 286.095 390.976C286.109 391.469 286.209 391.96 286.267 392.437C293.166 394.901 300.016 397.299 306.829 399.801C310.589 401.181 314.296 402.711 318.007 404.225C319.311 404.756 320.714 405.32 320.317 407.328C319.964 409.117 318.108 410.639 316.287 410.778C314.95 410.88 313.603 410.873 312.26 410.899C306.409 411.014 300.557 411.163 294.705 411.203C292.622 411.217 290.522 411.055 288.46 410.763C287.738 410.661 287.023 410.013 286.453 409.461C285.814 408.843 285.341 408.051 284.746 407.269C284.824 407.177 284.162 407.867 283.796 408.389C282.286 410.539 280.137 410.913 277.82 410.751C275.73 410.605 273.458 410.527 271.422 410.016C270.842 409.871 270.275 409.66 269.778 409.324C268.594 408.525 268.336 406.795 268.21 405.497C268.058 403.918 267.934 402.337 267.732 400.764C266.386 390.299 265.152 379.818 263.677 369.372C262.767 362.932 261.369 356.558 260.555 350.109C259.291 340.088 258.258 330.036 257.274 319.983C256.224 309.265 255.333 298.531 254.394 287.802C253.492 277.489 252.627 267.173 251.725 256.86C251.428 253.456 251.066 250.058 250.335 246.593C250.133 247.419 249.913 248.241 249.732 249.071C247.291 260.263 244.199 271.257 239.666 281.806C237.51 286.825 234.747 291.483 231.112 295.589C227.818 299.308 223.89 302.017 218.954 303.096C214.511 304.068 210.523 302.906 206.779 300.544C202.105 297.594 198.239 293.767 195.272 289.165C192.336 284.611 189.546 279.931 187.105 275.099C180.315 261.653 175.263 247.494 170.429 233.261C167.531 224.727 164.767 216.148 161.857 207.618C160.302 203.061 158.559 198.568 156.904 194.045C156.812 193.793 156.71 193.544 156.598 193.299C155.349 190.597 154.993 190.413 151.888 191.154C145.306 192.724 138.746 194.387 132.176 196.007C131.204 196.246 130.233 196.541 129.244 196.656C127.566 196.85 126.573 196.24 126.327 194.632C126.089 193.081 126.127 191.476 126.164 189.897C126.194 188.592 127.141 187.775 128.142 187.16C130.488 185.719 132.823 184.234 135.287 183.017C139.03 181.169 142.88 179.537 146.68 177.805C149.172 176.669 151.087 177.609 153.468 178.414C153.637 177.264 153.786 176.256 153.982 174.925C157.599 173.749 161.368 172.46 165.179 171.311C166.954 170.775 168.523 171.378 169.555 172.947C171.8 176.358 174.014 179.791 176.18 183.252C177.242 184.949 178.097 186.777 179.168 188.468C186.506 200.047 192.994 212.106 199.54 224.137C202.052 228.755 204.885 233.199 207.58 237.717L208.829 239.733C208.898 238.702 209.058 236.778 209.085 235.746C209.265 228.901 209.22 222.041 209.64 215.211C210.441 202.188 212.125 189.287 216.227 176.817C216.487 176.025 216.552 174.656 217.811 175.026C219.1 175.405 218.409 176.563 218.14 177.374C214.279 189.037 212.754 201.119 211.725 213.28C211.43 216.771 211.411 220.286 211.298 223.791C211.12 229.298 211.011 234.808 210.781 240.312C210.761 242.873 210.529 241.947 212.003 244.719C212.286 245.02 212.596 245.372 212.691 245.751C212.708 245.82 212.719 245.892 212.723 245.965C212.766 246.615 212.144 247.16 211.512 246.995C211.421 246.971 211.339 246.936 211.27 246.884C210.757 246.492 210.355 245.912 210.012 245.348C205.846 238.497 201.584 231.702 197.577 224.759C192.108 215.286 186.842 205.696 181.475 196.164C180.991 195.304 180.406 194.501 179.686 193.392Z" fill="black"/>
<path fill-rule="evenodd" clip-rule="evenodd" d="M246.392 47.0838L248.579 46.9548C255.359 46.5724 259.04 46.6018 259.622 47.0431C266.775 56.7158 269.332 66.258 267.295 75.6698C266.858 77.6885 260.164 78.9372 247.214 79.4161L246.82 79.4303L248.244 92.8472C248.402 93.4675 248.488 94.128 248.488 94.8131C248.488 98.4124 246.135 101.33 243.232 101.33C240.329 101.33 237.976 98.4124 237.976 94.8131C237.976 94.4512 238 94.0962 238.046 93.7503L237.36 93.7504L237.328 92.5728C236.976 80.0563 236.357 73.235 235.47 72.1087C225.302 72.1087 225.302 67.0039 225.859 64.224C226.416 61.4442 232.265 60.31 233.255 60.31C231.908 47.0696 235.329 47.72 246.392 47.0838Z" fill="white"/>
<path fill-rule="evenodd" clip-rule="evenodd" d="M252.936 26.9369C254.78 28.0192 256.04 29.6194 256.775 31.6292C256.929 32.0501 257.083 32.4709 257.325 33.1319C257.781 32.7261 258.016 32.5336 258.232 32.3221C260.469 30.1395 263.071 29.4622 266.005 30.6045C268.997 31.7688 270.547 34.1481 270.97 37.2258C271.533 41.3231 269.509 44.9966 265.812 46.8508C264.684 47.4168 263.517 47.8783 262.317 48.1922L262.239 48.0774C267.7 55.9634 270.519 64.5108 268.628 74.2001C268.541 74.6483 268.379 75.0822 268.291 75.5304C267.994 77.0516 267.114 77.8749 265.566 78.2016C260.483 79.2725 255.384 80.1706 250.171 80.2332C249.416 80.242 248.661 80.2345 247.612 80.2345C248.017 81.976 248.385 83.4884 248.716 85.0096C248.837 85.5646 250.121 93.7139 249.629 93.8165C248.853 93.9788 247.988 94.0406 247.951 93.0391C247.909 91.9282 247.026 85.2866 246.773 84.1893C246.655 83.6767 245.207 82.9519 244.247 81.9861C243.556 81.2906 242.985 80.4468 242.498 79.5912C242.278 79.2039 241.89 78.2369 242.061 77.8312C242.155 77.6079 243.23 77.824 243.622 77.8959C247.645 78.6321 251.679 78.5699 255.702 78.0128C258.72 77.5949 261.715 77.0083 264.724 76.5156C265.843 76.3322 266.396 75.7142 266.643 74.5958C267.633 70.1184 267.484 66.0044 266.39 61.2506C265.348 56.7191 262.703 52.2455 259.916 48.6067C259.536 48.6385 259.154 48.6531 258.77 48.65C253.963 48.6109 249.159 48.3544 244.352 48.2552C242.373 48.2144 240.388 48.301 238.412 48.428C237.747 48.4704 237.085 48.7757 236.452 49.0334C233.719 50.1472 233.465 50.6189 234.071 53.5461C234.52 55.7131 235.048 57.8633 235.47 60.035C235.56 60.495 235.56 60.7471 235.128 61.1832C234.405 61.3551 234.458 61.4705 234.211 61.3695C234.168 61.3894 234.122 61.4034 234.072 61.4106C233.699 61.4644 233.344 61.5123 232.99 61.509C231.305 61.493 229.86 62.1232 228.543 63.0962C227.218 64.0763 226.522 65.3427 226.8 67.0547C227.094 68.8614 227.95 70.2586 229.764 70.7593C230.923 71.0793 232.16 71.1491 233.369 71.2559C234.19 71.3282 235.022 71.2694 236.065 71.2694C236.23 72.2095 236.46 73.0773 236.526 73.9577C236.88 78.679 237.804 87.7394 238.099 92.4648C238.146 93.2275 238.663 94.4397 237.53 94.6083C236.214 94.8047 236.367 93.4874 236.301 92.633C236.022 88.9936 235.352 82.3022 234.959 77.6768L235.008 77.7305C233.973 76.6068 232.409 74.8862 231.491 73.6634C231.403 73.5458 231.13 73.2568 230.911 72.967L230.973 72.9756C227.115 72.4958 224.895 69.9504 224.943 66.1882C224.959 64.9404 225.307 63.8456 226.074 62.9123L226.093 62.947C223.948 59.1794 222.277 55.2515 223.019 50.7779C223.604 47.2557 225.578 44.5215 228.63 42.788C230.932 41.48 233.461 40.552 235.936 39.5749C238.062 38.7361 240.258 38.0768 242.416 37.3204C243.94 36.7869 244.765 35.7168 244.905 34.088C245.003 32.9481 245.184 31.8154 245.335 30.6802C245.869 26.6346 249.417 24.8721 252.936 26.9369Z" fill="black"/>
<path fill-rule="evenodd" clip-rule="evenodd" d="M310.791 122.596C310.807 122.633 310.819 122.672 310.827 122.712L310.791 122.596ZM304.056 124.416C301.609 121.293 299.917 116.135 302.121 116.897C303.681 117.437 309.119 123.665 309.092 123.62C307.196 120.411 305.773 117.285 304.687 113.647C304.367 112.572 304.441 111.586 305.07 111.031C305.561 110.595 306.424 110.51 306.424 110.51C305.914 108.204 305.972 106.556 308.761 107.604C308.32 106.268 308.252 105.068 309.576 104.499C310.872 103.943 311.958 104.438 312.909 105.331C315.656 107.912 317.751 111.041 319.73 114.221C320.54 115.523 321.461 116.714 321.615 118.285C321.748 119.648 321.449 121.013 321.129 122.33C318.743 132.174 316.406 142.033 313.778 151.813C312.656 155.99 311.032 160.057 309.339 164.048C306.428 170.913 298.528 173.84 291.729 170.806C287.907 169.1 284.788 166.413 281.663 163.725C281.11 163.248 280.541 162.79 279.641 162.043C279.641 163.346 279.603 164.234 279.649 165.118C279.765 167.408 278.389 168.759 278.389 171.454C278.389 174.148 273.787 174.071 271.116 174.968C258.939 179.062 244.066 179.094 231.165 178.473C223.381 178.098 216.041 175.474 209.67 170.806C209.187 170.452 208.654 170.122 208 169.741C207.666 170.323 207.418 171.48 207.17 172.001C203.039 180.681 199.44 189.566 196.686 198.79C196.208 200.392 196.463 201.464 197.51 202.698C199.38 204.903 201.13 207.218 202.799 209.58C203.487 210.554 204 211.726 204.301 212.884C204.794 214.788 203.327 216.027 201.477 215.339C200.779 215.079 200.15 214.602 199.538 214.156C198.994 213.759 198.516 213.269 197.721 212.565C198.136 214.455 198.523 215.976 198.79 217.519C198.958 218.487 199.076 219.497 198.989 220.467C198.792 222.675 196.762 222.662 195.508 222.089C195.029 221.871 194.682 221.434 194.262 221.097C192.408 222.923 191.545 223.606 188.72 221.713C187.728 222.611 186.505 222.966 185.415 221.86C184.572 221.005 184.768 221.377 183.331 218.629C183.343 218.627 183.076 218.967 183.024 219.004C182.252 219.557 181.647 220.576 180.472 220.09C179.283 219.598 179.144 218.426 179.123 217.389C179.09 215.721 179.133 214.024 179.399 212.381C180.141 207.797 180.89 203.206 181.871 198.669C182.964 193.613 184.348 188.62 185.551 183.587C188.124 172.824 192.078 162.021 196.686 151.813C196.282 151.277 195.849 150.84 195.508 150.274C194.344 148.345 193.118 146.576 194.412 144.463C195.566 142.578 196.61 140.627 197.746 138.732C202.767 130.365 207.801 122.006 212.837 113.647C215.324 109.519 218.199 105.687 221.508 102.171C225.495 97.9347 228.501 95.7976 233.892 93.9591C235.939 93.2608 235.321 91.4552 236.661 93.3206C237.441 94.4059 249.068 94.4279 249.25 93.9591C249.672 92.8712 249.293 92.7924 250.38 92.6528C252.163 92.4238 253.769 93.4064 255.245 94.2547C260.369 97.2008 265.066 100.71 269.095 105.044C275.973 112.441 281.997 120.492 287.191 129.15C288.324 131.038 289.127 133.12 290.171 135.065C291.077 136.752 291.326 138.33 289.791 139.819C291.769 142.265 294.432 145.584 296.532 148.182C296.841 147.49 296.997 146.233 297.186 145.716C298.389 142.426 298.918 138.935 300.123 135.645C300.18 135.489 300.231 135.326 300.288 135.166L304.056 124.416Z" fill="white"/>
<path fill-rule="evenodd" clip-rule="evenodd" d="M329.787 58.5923C337.191 60.4331 341.499 65.5431 343.459 72.6478C346.386 83.2663 341.915 95.4743 332.962 101.929C328.432 105.195 323.412 106.626 317.831 105.925C317.384 105.868 316.936 105.815 316.284 105.734C316.021 106.361 315.752 106.978 315.494 107.597C317.161 109.591 318.592 111.777 319.966 113.987C320.777 115.292 321.701 116.485 321.854 118.06C321.987 119.426 321.687 120.794 321.368 122.114C318.977 131.979 316.636 141.859 314.004 151.66C312.88 155.845 311.253 159.922 309.558 163.922C306.641 170.801 298.728 173.734 291.918 170.693C288.089 168.984 284.965 166.291 281.835 163.597C281.281 163.119 280.711 162.66 279.81 161.911C279.81 163.218 279.772 164.107 279.817 164.993C279.933 167.288 281.264 172.762 279.258 173.593C276.651 174.674 272.747 175.704 269.246 176.574C256.704 179.69 244.175 179 231.253 178.377C223.456 178.001 216.196 175.975 209.814 171.296C209.33 170.942 208.777 170.681 208.122 170.299C207.787 170.883 207.465 171.369 207.217 171.891C203.078 180.59 199.474 189.494 196.715 198.738C196.236 200.344 196.492 201.417 197.54 202.654C199.414 204.864 201.167 207.184 202.838 209.551C203.528 210.528 204.042 211.702 204.342 212.862C204.836 214.77 203.367 216.012 201.514 215.323C200.815 215.063 200.185 214.584 199.573 214.137C199.026 213.74 198.549 213.249 197.752 212.543C198.168 214.436 198.555 215.961 198.823 217.507C198.991 218.477 199.109 219.489 199.022 220.462C198.824 222.675 196.792 222.662 195.535 222.087C195.056 221.868 194.708 221.431 194.287 221.093C192.43 222.922 191.566 223.608 188.736 221.71C187.742 222.611 186.517 222.966 185.425 221.858C184.581 221 184.777 221.374 183.338 218.62C183.35 218.617 183.083 218.958 183.03 218.996C182.256 219.549 181.651 220.571 180.474 220.084C179.282 219.591 179.144 218.416 179.123 217.377C179.09 215.705 179.132 214.005 179.399 212.358C180.143 207.764 180.892 203.164 181.875 198.617C182.97 193.55 184.356 188.546 185.561 183.502C188.139 172.715 191.388 162.152 196.003 151.922C195.599 151.384 195.15 150.881 194.808 150.314C193.643 148.382 193.141 146.412 194.437 144.294C195.593 142.405 196.639 140.45 197.777 138.55C202.807 130.166 207.849 121.788 212.893 113.412C215.385 109.275 218.264 105.434 221.579 101.91C225.572 97.6654 229.547 94.3277 234.948 92.4852C236.999 91.7855 237.124 92.0217 238.467 93.891C239.248 94.9787 240.203 96.0458 241.31 96.7724C243.411 98.1526 246.068 98.2395 247.608 95.6792C247.868 95.2476 248.464 94.1457 248.646 93.6762C249.068 92.5865 249.366 92.5071 250.455 92.3671C252.241 92.1376 253.894 93.1273 255.372 93.9775C260.506 96.9299 265.21 100.447 269.246 104.79C276.135 112.203 282.17 120.271 287.373 128.947C288.507 130.84 289.311 132.927 290.358 134.876C291.265 136.566 291.514 138.148 289.977 139.64C291.958 142.091 293.871 144.458 295.976 147.061C296.284 146.368 296.54 145.874 296.73 145.357C297.657 142.819 298.573 140.276 299.495 137.736C299.456 137.697 299.415 137.657 299.375 137.615C298.38 136.572 298.76 135.558 299.194 134.453C300.604 130.866 302.011 127.278 303.416 123.688C301.844 122.026 300.549 120.162 300.13 117.846C299.853 116.322 301.094 115.358 302.581 115.915C303.862 116.394 304.736 117.329 305.495 118.374L305.895 117.35C305.276 116.081 304.732 114.771 304.321 113.39C303.999 112.312 304.088 111.01 304.717 110.453C305.211 110.017 306.064 110.169 306.064 110.169C305.553 107.859 305.808 106.196 308.601 107.247C308.16 105.908 308.469 104.815 309.795 104.245C310.247 104.05 310.674 103.984 311.079 104.018L311.211 103.674C309.957 102.575 308.85 101.746 307.909 100.759C303.626 96.2615 301.728 90.798 301.896 84.6763C302.158 75.0517 306.104 67.2494 314.084 61.7254C318.813 58.4519 324.121 57.1836 329.787 58.5923ZM198.471 150.979C198.12 151.742 197.901 152.223 197.679 152.703C191.211 166.653 187.851 181.552 184.385 196.412C183.267 201.206 183.144 206.114 183.551 210.995C183.745 213.326 184.399 215.634 185.005 217.909C185.165 218.508 185.533 219.05 185.987 219.737C186.284 220.186 186.986 219.933 186.927 219.398C186.624 216.825 186.276 214.257 185.98 211.684C185.832 210.395 185.734 209.099 185.676 207.804C185.658 207.414 185.71 207.031 186.036 206.778C186.425 206.475 187.002 206.692 187.151 207.162C187.309 207.661 187.471 208.174 187.541 208.699C187.911 211.497 188.127 214.318 188.578 217.102C188.791 218.418 189.308 219.58 190.295 220.476C191.056 221.166 192.28 220.611 192.327 219.585C192.374 218.581 192.215 217.617 192.07 216.667C191.621 213.732 191.064 210.814 190.573 207.885C190.473 207.286 190.342 206.645 190.462 206.073C190.501 205.887 190.623 205.718 190.773 205.555C191.089 205.214 191.641 205.214 191.952 205.56C192.05 205.669 192.124 205.783 192.147 205.907C192.387 207.18 192.451 208.484 192.66 209.764L192.751 210.325C193.218 213.226 193.656 216.143 195.181 218.74C195.459 219.213 195.692 219.768 196.179 220.144C196.61 220.477 197.234 220.137 197.208 219.593C197.176 218.948 197.146 218.346 197.01 217.768C196.298 214.723 195.483 211.703 194.758 208.661C194.615 208.062 194.562 207.442 194.509 206.846C194.465 206.365 194.873 205.948 195.352 206.012C195.931 206.091 196.223 206.55 196.52 207.023C197.331 208.315 198.106 209.637 199.006 210.865C199.876 212.052 200.869 213.161 202.333 213.646C202.366 213.608 202.397 213.568 202.427 213.529C202.678 213.196 202.712 212.749 202.505 212.387C201.926 211.376 201.329 210.449 200.627 209.497C198.907 207.164 197.067 204.917 195.219 202.681C194.412 201.705 194.157 200.733 194.563 199.512C195.575 196.472 196.464 193.391 197.512 190.364C200.638 181.331 204.752 172.721 208.817 164.089C209.752 162.103 210.599 160.074 211.579 157.853C207.138 155.523 202.853 153.276 198.471 150.979ZM181.539 207.949C181.454 207.939 181.216 211.577 181.205 211.662C180.722 215.166 180.47 217.997 180.907 217.997C183.194 217.606 181.902 214.433 181.942 212.622C181.848 212.612 181.634 207.96 181.539 207.949ZM251.384 94.3541C251.101 94.8933 250.887 95.5123 250.753 95.7838C247.751 101.869 240.301 100.959 236.893 95.5493C236.62 95.1156 236.285 94.7205 236.013 94.3541C231.517 95.2841 226.603 99.3901 223.348 102.733C219.975 106.199 217.083 110.033 214.593 114.171C208.924 123.593 203.259 133.017 197.605 142.448C196.903 143.619 196.276 144.835 195.473 146.285C201.011 146.566 204.792 149.153 208.197 150.979C211.67 152.842 213.505 153.667 216.683 156.781C216.795 156.499 216.915 156.241 217.003 155.973C219.408 148.654 221.81 141.333 224.215 134.014C224.318 133.701 224.435 133.393 224.557 133.087C224.805 132.464 225.061 131.75 225.96 132.103C226.765 132.418 226.471 133.076 226.274 133.662C226.007 134.458 225.741 135.254 225.485 136.054C223.051 143.683 220.612 151.311 218.194 158.946C217.684 160.555 216.887 161.191 214.972 161.232C214.075 161.252 213.176 161.15 212.228 161.1C211.141 163.481 210.101 165.761 208.958 168.266C210.294 169.249 211.419 170.155 212.62 170.947C217.755 174.336 223.462 175.908 229.469 176.42C229.181 176.16 228.872 175.678 228.947 175.394C229.408 173.646 229.598 171.808 230.797 170.296C231.396 169.541 231.912 168.629 232.158 167.707C232.51 166.385 231.717 165.589 230.376 165.87C229.344 166.086 228.388 166.647 227.361 166.91C226.957 167.014 226.21 166.859 226.055 166.581C225.856 166.222 225.966 165.552 226.183 165.143C226.37 164.791 226.862 164.494 227.274 164.386C228.674 164.022 230.086 163.66 231.515 163.476C232.678 163.326 233.592 163.84 233.96 165.071C234.242 166.012 234.557 166.943 234.887 167.97C234.581 168.665 234.311 169.362 233.975 170.026C233.399 171.166 232.811 172.303 232.175 173.411C231.651 174.325 231.089 175.224 230.464 176.071C230.351 176.224 230.074 176.378 229.845 176.45C230.239 176.481 230.634 176.507 231.03 176.529C237.924 176.909 247.09 177.308 253.966 176.529C263.421 175.457 275.442 173.527 277.463 170.51C278.125 169.522 278.223 166.415 278 164.41C277.594 160.77 277.353 157.109 276.84 153.486C276.103 148.275 274.906 143.163 273.545 138.066C273.477 137.809 273.408 137.552 273.338 137.295L273.239 137.328C271.526 137.876 269.91 137.747 268.508 136.535C267.812 135.933 267.286 135.294 267.425 134.182C267.584 132.906 266.919 132.265 265.673 132.59C263.739 133.095 261.536 132.77 259.931 134.461C259.454 134.962 258.561 135.093 257.837 135.329C256.685 135.705 255.524 136.064 254.35 136.364C252.018 136.959 249.914 136.392 248.204 134.764C246.434 133.078 245.649 130.93 246.276 128.509C247.027 125.604 248.655 123.259 251.194 121.569C251.879 121.113 252.574 120.571 253.04 119.91C254.021 118.513 253.733 117.105 252.336 116.202C252.064 116.027 251.5 116.17 251.126 116.312C250.006 116.738 248.913 117.236 247.809 117.706C246.9 118.092 246.004 118.511 245.08 118.854C243.233 119.539 241.413 120.435 239.5 120.763C238.032 121.015 236.41 120.651 234.915 120.306C234.417 120.192 233.955 119.344 233.73 118.738C233.117 117.086 233.304 115.443 234.09 113.859C235.276 111.468 237.056 109.503 239.228 108.108C242.922 105.734 246.721 103.468 251.032 102.297C251.316 102.22 251.599 102.069 251.83 101.886C253.217 100.793 254.864 100.508 256.548 100.332C257.155 100.268 257.767 100.245 258.373 100.174C258.945 100.108 259.511 100.003 260.08 99.9154C259.52 100.323 259.018 100.908 258.392 101.109C252.63 102.961 247.251 105.643 241.984 108.572C241.53 108.824 241.169 109.25 240.781 109.612C240.391 109.976 240.078 110.589 239.634 110.699C237.222 111.295 236.84 113.486 235.937 115.245C235.433 116.225 235.212 117.284 236.188 118.189C237.333 119.248 238.725 119.536 239.951 118.909C242.188 117.767 244.363 116.487 246.659 115.48C248.11 114.844 249.712 114.489 251.283 114.204C253.605 113.781 255.395 114.656 256.33 116.456C257.033 117.81 256.834 118.889 255.793 119.987C255.178 120.635 254.664 121.381 254.109 122.086C253.828 122.444 253.631 123.008 253.271 123.141C251.144 123.926 250.688 126.052 249.615 127.643C248.564 129.203 248.511 131.076 249.577 132.622C250.58 134.074 252.285 134.217 253.947 133.927C254.77 133.783 255.593 133.567 256.376 133.276C258.875 132.347 261.331 131.296 263.852 130.437C265.134 130 266.514 129.754 267.866 129.652C268.586 129.598 269.178 129.835 268.855 131.086C268.302 133.232 270.265 135.295 272.481 135.411L272.794 135.317C271.479 130.644 269.963 126.065 267.752 121.716C267.475 121.173 267.104 120.629 267.025 120.051C267.016 119.988 267.016 119.923 267.023 119.857C267.103 119.106 267.969 118.641 268.606 119.047C268.677 119.092 268.734 119.145 268.773 119.21C269.365 120.18 269.794 121.252 270.255 122.299C272.038 126.357 273.397 130.555 274.62 134.797C275.144 134.641 275.66 134.469 276.16 134.256C278.757 133.152 281.305 131.93 283.876 130.762C284.564 130.45 285.409 129.904 285.957 130.676C286.624 131.616 285.686 132.299 285.045 132.707C282.075 134.595 278.942 136.12 275.4 136.653C275.319 136.665 275.239 136.68 275.159 136.697C275.477 137.836 275.788 138.976 276.099 140.116C276.288 140.809 276.577 141.476 276.762 141.996C280.682 138.324 282.659 137.146 288.579 135.261C287.605 133.391 286.741 131.238 285.46 129.369C281.535 123.641 277.574 117.929 273.395 112.385C268.528 105.928 262.649 100.492 255.744 96.2217C254.681 95.5636 253.17 94.7859 251.384 94.3541ZM236.703 140.363C237.859 141.583 239.551 142.574 238.519 144.718C238.437 144.889 238.467 145.217 238.583 145.362C240.139 147.302 239.369 149.349 238.634 151.22C238.075 152.643 238.761 153.753 238.968 154.98C239.008 155.222 239.976 155.617 240.221 155.466C241.689 154.557 243.096 153.544 244.469 152.495C245.174 151.956 245.74 151.24 246.414 150.657C246.988 150.162 247.642 149.761 248.235 149.286C250.982 147.089 254.033 145.666 257.609 145.549C260.184 145.465 261.993 146.997 262.572 149.572C263.623 154.251 261.752 157.867 258.568 161.045C258.514 161.099 258.457 161.16 258.389 161.189C254.898 162.695 254.16 166.357 252.268 169.104C252.004 169.487 252.345 170.367 252.546 170.971C252.875 171.956 253.11 172.925 252.373 173.783C252.113 174.086 251.565 174.363 251.214 174.298C250.913 174.242 250.538 173.707 250.481 173.34C249.782 168.83 250.358 164.693 254.05 161.481C255.316 160.379 256.536 159.22 257.716 158.028C258.845 156.888 259.898 155.696 259.895 153.908C259.894 153.326 260.208 152.736 260.407 152.161C261.119 150.113 259.993 148.252 257.837 148.094C255.878 147.952 254.05 148.532 252.373 149.52C250.532 150.604 248.719 151.738 246.918 152.887C246.547 153.123 246.185 153.471 245.983 153.855C244.906 155.898 242.95 156.822 241.018 157.715C239.316 158.502 238.962 158.103 237.702 156.614C236.357 155.024 236.072 153.239 236.492 151.476C237.351 147.868 237.173 144.299 236.743 140.7L236.703 140.363ZM217.346 167.646C218.716 167.981 220.031 168.105 221.376 167.547C221.918 167.323 222.717 167.038 222.904 167.857C222.995 168.254 222.503 168.98 222.08 169.249C221.464 169.641 220.672 169.754 219.752 170.051C218.864 169.692 217.842 169.387 216.938 168.875C216.323 168.526 215.359 167.531 215.427 167.433C216.072 166.506 216.706 167.489 217.346 167.646ZM314.72 109.537L313.632 112.303C314.218 113.217 314.807 114.13 315.391 115.045C315.596 115.367 315.825 115.675 316.018 116.005C316.391 116.639 317.123 117.403 316.173 117.962C315.285 118.486 314.836 117.533 314.431 116.926C313.88 116.101 313.334 115.273 312.792 114.442L312.1 116.205C312.472 116.69 312.843 117.175 313.211 117.663C313.578 118.149 313.978 118.653 314.166 119.215C314.203 119.327 314.198 119.453 314.171 119.587C314.067 120.098 313.518 120.398 313.022 120.238C312.909 120.201 312.805 120.154 312.715 120.087C312.365 119.828 312.178 119.357 311.9 118.993L311.309 118.217C310.911 119.23 310.513 120.244 310.115 121.257C310.345 121.67 310.564 122.086 310.755 122.516C310.77 122.553 310.783 122.591 310.791 122.631C310.917 123.235 310.313 123.738 309.708 123.613C309.524 123.575 309.375 123.515 309.31 123.406L309.287 123.365C307.529 127.843 305.769 132.319 304.004 136.794C303.436 138.236 302.3 138.872 301.127 138.643L301.882 136.506C300.609 140.104 299.347 143.705 298.032 147.288C297.36 149.027 297.36 149.027 298.124 150.773C298.447 151.27 298.779 151.96 298.035 152.373C297.186 152.844 296.761 152.136 296.466 151.526C294.264 146.975 290.418 143.697 287.395 139.783C287.358 139.734 287.395 139.783 287.166 139.496C284.431 141.22 281.252 143.128 278.4 145.02C278.204 145.149 277.648 145.53 277.648 145.53C277.611 145.766 277.727 146.288 277.756 146.53C278.187 150.123 278.68 153.71 279.258 157.282C279.347 157.834 279.549 158.524 279.549 158.524C279.676 158.721 280.122 159.205 280.281 159.379C283.487 162.901 287.067 166.01 291.261 168.302C298.224 172.105 305.294 169.547 308.315 162.136C310.388 157.046 312.252 151.885 313.516 146.511C315.421 138.413 317.472 130.351 319.444 122.269C319.678 121.307 319.914 120.322 319.95 119.341C319.98 118.533 319.922 117.598 319.546 116.917C318.114 114.337 316.557 111.836 314.72 109.537ZM216.469 127.064C216.314 127.953 216.412 128.953 216.027 129.718C215.509 130.748 215.937 131.306 216.595 131.884C217.052 132.286 217.585 132.6 218.052 132.991C219.496 134.201 219.806 136.462 219.199 138.196C217.868 141.998 214.902 143.868 211.356 144.862C209.739 145.315 207.895 145.025 206.161 144.932C205.761 144.911 205.335 144.366 205.027 143.978C204.81 143.704 204.772 143.286 204.654 142.933C205.062 142.82 205.465 142.649 205.88 142.61C206.33 142.569 206.792 142.651 207.249 142.679C210.543 142.869 213.391 141.78 215.915 139.711C218.236 137.808 218.024 134.969 215.416 133.517C214.751 133.146 214.011 132.893 213.391 132.463C212.284 131.695 212.054 130.725 212.92 129.739C213.865 128.662 215.034 127.781 216.116 126.827C216.465 126.519 216.545 126.631 216.469 127.064ZM200.164 140.553C200.997 141.131 201.751 141.824 202.701 142.609C202.154 143.056 201.921 143.375 201.617 143.471C200.788 143.735 198.976 142.97 198.717 142.129C198.576 141.668 198.855 141.014 199.11 140.536C199.19 140.385 199.91 140.377 200.164 140.553ZM236.561 140.261L236.702 140.362L236.607 140.381C236.057 140.497 235.42 140.799 235.014 140.609C233.452 139.878 231.928 140.004 230.349 140.412C229.993 140.504 229.594 140.48 229.223 140.438C229.022 140.415 228.838 140.242 228.646 140.136C228.788 139.901 228.874 139.58 229.081 139.446C231.14 138.102 233.965 138.426 236.561 140.261ZM224.134 117.934C224.412 118.305 224.691 118.676 224.927 118.99C224.345 120.653 224.1 122.267 223.264 123.474C222.494 124.586 221.1 125.272 219.96 126.118C219.503 126.458 218.933 126.661 218.518 127.039C217.728 127.757 217.305 126.873 216.719 126.716C216.78 126.492 216.77 126.188 216.915 126.058C217.875 125.201 218.848 124.359 219.854 123.556C221.426 122.299 222.729 120.873 223.314 118.876C223.42 118.513 223.852 118.246 224.134 117.934ZM301.471 117.707C301.438 118.114 301.837 118.964 302.068 119.3C302.21 119.507 302.304 119.65 302.39 119.779C302.889 120.537 303.48 121.227 304.132 121.857L304.733 120.323C304.545 120.129 304.368 119.918 304.187 119.722C303.629 119.119 302.921 118.171 302.374 117.557C301.877 117.208 301.496 117.413 301.471 117.707ZM218.734 115.692C218.934 115.872 219.124 116.044 219.314 116.216C219.171 116.372 219.049 116.637 218.883 116.668C217.417 116.946 215.943 117.187 214.468 117.419C214.367 117.435 214.24 117.294 214.125 117.226C214.248 117.052 214.342 116.764 214.5 116.722C215.869 116.362 217.25 116.046 218.734 115.692ZM305.891 112.438C305.556 113.057 306.214 114.261 306.744 115.18L307.499 113.248C307.385 113.101 307.272 112.955 307.159 112.808C306.968 112.563 306.706 112.371 306.232 112.279C306.098 112.254 305.955 112.318 305.891 112.438ZM307.176 108.704C307.239 109.767 307.853 110.589 308.304 111.188L308.965 109.495L309.148 109.028C309.135 109.015 309.122 109.001 309.109 108.988C308.405 108.266 307.123 107.809 307.176 108.704ZM321.039 64.0096C318.714 64.8757 316.642 66.1635 314.886 67.9042C309.658 73.0886 307.233 79.4133 307.534 86.7348C307.675 90.1444 308.675 93.3444 310.71 96.1547C313.906 100.567 319.092 102.321 324.298 100.752C327.062 99.9191 329.457 98.4565 331.489 96.4224C336.197 91.7116 338.526 85.9854 338.703 80.0971C338.739 75.5262 337.953 71.9199 335.771 68.7052C332.418 63.7641 326.629 61.9271 321.039 64.0096Z" fill="black"/>
<path fill-rule="evenodd" clip-rule="evenodd" d="M305.25 112.568C306.86 118.311 308.766 121.926 310.968 123.412C313.17 124.898 316.192 125.252 320.034 124.475L320.806 116.801L311.995 105.247C311.168 105.07 310.634 105.07 310.394 105.247C309.877 105.627 309.846 106.841 309.478 107.051C308.854 107.408 308.108 107.713 307.241 107.966L305.25 112.568Z" fill="white"/>
<path fill-rule="evenodd" clip-rule="evenodd" d="M309.555 123.186C309.619 123.295 309.767 123.354 309.951 123.393C310.552 123.518 311.153 123.016 311.028 122.414C311.02 122.374 311.008 122.335 310.992 122.299C310.563 121.328 309.982 120.426 309.489 119.481C308.646 117.863 307.84 116.789 307.084 115.131C306.546 114.199 305.802 112.904 306.152 112.254C306.216 112.135 306.359 112.07 306.492 112.096C306.963 112.187 307.224 112.378 307.414 112.623C308.997 114.67 310.564 116.728 312.132 118.787C312.408 119.15 312.594 119.62 312.942 119.878C313.032 119.944 313.136 119.992 313.247 120.028C313.741 120.188 314.288 119.888 314.391 119.38C314.418 119.246 314.423 119.12 314.386 119.009C314.2 118.449 313.801 117.946 313.436 117.462C311.879 115.395 310.264 113.371 308.751 111.273C308.31 110.663 307.504 109.758 307.431 108.532C307.378 107.639 308.654 108.096 309.354 108.815C310.133 109.614 310.232 109.898 310.797 110.79C312.059 112.783 313.341 114.764 314.649 116.727C315.052 117.332 315.499 118.282 316.383 117.76C317.328 117.203 316.6 116.441 316.229 115.809C316.036 115.481 315.809 115.174 315.605 114.852C314.215 112.67 312.798 110.505 311.454 108.294C311.115 107.735 310.693 107.135 310.777 106.428C310.832 105.976 311.345 105.738 311.719 105.999C312.077 106.249 312.417 106.528 312.721 106.842C315.57 109.771 317.774 113.169 319.738 116.719C320.114 117.397 320.171 118.328 320.142 119.135C320.105 120.113 319.871 121.094 319.637 122.053C319.053 124.452 318.462 126.849 317.87 129.246C318.486 129.333 319.101 129.418 319.717 129.5C320.329 126.966 320.939 124.432 321.552 121.898C321.87 120.582 322.168 119.218 322.035 117.857C321.883 116.288 320.965 115.098 320.157 113.798C318.185 110.621 316.096 107.495 313.359 104.918C312.41 104.025 311.328 103.531 310.037 104.087C308.717 104.656 308.41 105.746 308.849 107.08C306.07 106.033 305.817 107.689 306.325 109.993C306.325 109.993 305.475 109.841 304.985 110.275C304.358 110.831 304.269 112.129 304.59 113.203C305.672 116.836 307.665 119.98 309.555 123.186Z" fill="black"/>
<path fill-rule="evenodd" clip-rule="evenodd" d="M335.101 77.0798C335.101 82.5131 334.496 89.9616 323.749 97.5461C332.703 88.502 330.582 78.8089 330.582 73.6748C330.582 68.5406 335.101 71.6465 335.101 77.0798Z" fill="white"/>
<path fill-rule="evenodd" clip-rule="evenodd" d="M256.481 73.514C255.763 74.1438 255.116 74.8611 254.361 75.4396C253.436 76.147 252.373 76.2768 251.252 75.884C249.748 75.3577 249.265 74.6298 249.694 73.0586C250.625 69.646 252.776 67.3594 256.155 66.2093C257.096 65.889 258.613 65.6411 258.888 65.4747C259.192 65.2679 259.465 64.3189 259.271 63.602C259.222 63.4224 258.643 63.1311 258.294 63.122C257.612 63.1047 256.706 63.3227 256.746 62.3511C256.785 61.4021 257.781 61.3938 258.512 61.387C260.17 61.3716 261.385 62.1964 261.24 63.8612C261.195 64.3864 261.024 65.3166 260.619 65.7154C261.299 65.9275 262.004 66.1965 262.621 66.4384C264.939 67.3443 266.535 68.9163 266.976 71.4474C267.223 72.8692 266.674 74.154 265.709 74.677C264.713 75.2169 263.502 74.9513 262.374 73.8721C261.885 73.4039 261.485 72.8409 260.953 72.2115C260.311 73.2499 259.849 74.068 259.314 74.8358C259.003 75.283 258.525 75.7916 257.99 75.255C257.763 75.0275 257.794 74.3679 257.934 73.988C258.305 72.9805 259.194 72.1651 259.379 71.0889C258.44 71.9281 257.428 72.6835 256.481 73.514ZM264.464 63.391C264.493 64.3558 263.774 65.2631 262.99 65.1632C261.898 65.0243 261.636 64.2154 261.541 63.3133C261.44 62.3565 261.727 61.6344 262.756 61.3875C263.59 61.3536 264.434 62.3674 264.464 63.391ZM253.245 57.7078C253.615 57.8636 254.078 58.0883 254.229 58.4112C254.471 58.9327 254.691 59.6253 254.538 60.1252C254.361 60.7071 253.609 60.9862 253.065 60.9511C252.756 60.9311 252.459 60.8243 252.151 60.7896L252.117 60.7862C251.538 60.731 250.977 60.9345 250.458 61.1758C249.995 61.3909 249.477 61.7655 248.952 61.7451C248.4 61.7235 247.603 61.6302 247.378 61.2672C247.127 60.8625 247.208 60.0049 247.477 59.5478C248.347 58.0705 251.7 57.055 253.245 57.7078ZM251.996 62.2353C252.443 62.2863 252.879 62.6105 253.198 63.1243C253.869 64.2077 253.5 65.7233 252.39 66.3118C252.326 66.3455 252.261 66.3752 252.193 66.3999C251.437 66.6756 250.229 65.1219 250.172 64.034C250.122 63.0867 251.091 62.1319 251.996 62.2353ZM262.733 56.7617C263.919 56.7644 264.979 57.5146 265.575 58.6495C266.058 59.5682 265.32 60.6308 264.279 60.5404C263.156 60.4431 262.074 60.1041 261.038 59.6563C260.015 59.2135 260.012 57.8924 260.968 57.2715C261.463 56.9506 262.139 56.7602 262.733 56.7617Z" fill="black"/>
</svg>
