<svg width="250" height="250" viewBox="0 0 250 250" fill="none" xmlns="http://www.w3.org/2000/svg">
<path fill-rule="evenodd" clip-rule="evenodd" d="M46.7538 182.979C61.8438 199.405 120.198 189.969 158.621 189.969C175.197 189.969 230.824 198.277 207.853 141.222C132.536 -45.8513 -1.05907 130.933 46.7538 182.979Z" fill="#D08F52" fill-opacity="0.7"/>
<path fill-rule="evenodd" clip-rule="evenodd" d="M113.521 184.301C113.594 184.244 113.671 184.183 113.703 184.097C113.806 183.818 113.404 183.633 113.108 183.64C112.677 183.65 112.126 183.94 112.257 184.349C112.334 184.586 112.626 184.696 112.871 184.652C113.116 184.609 113.324 184.452 113.521 184.301ZM114.8 179.423C115.125 179.525 115.445 179.651 115.728 179.84C116.259 180.196 116.621 180.748 116.967 181.285C117.216 181.67 117.468 182.062 117.592 182.503C117.727 182.981 117.703 183.491 117.613 183.979C117.332 185.5 116.394 186.887 115.087 187.713C113.781 188.539 112.125 188.792 110.631 188.394C110.34 188.316 110.048 188.21 109.824 188.009C109.636 187.84 109.509 187.614 109.393 187.39C108.785 186.21 108.375 184.899 108.422 183.573C108.468 182.246 109.014 180.904 110.047 180.07C111.343 179.024 113.21 178.924 114.8 179.423Z" fill="white"/>
<path fill-rule="evenodd" clip-rule="evenodd" d="M183.398 107.26C182.686 107.251 182.018 107.848 181.948 108.557C181.919 108.846 182.042 109.206 182.33 109.246C182.546 109.276 182.736 109.109 182.881 108.946C183.188 108.602 183.452 108.219 183.664 107.81C183.735 107.672 183.798 107.496 183.705 107.372C183.636 107.283 183.511 107.261 183.398 107.26ZM183.09 104.082C184.101 104.434 185.018 105.055 185.721 105.863C186.326 106.557 186.786 107.459 186.659 108.371C186.612 108.706 186.489 109.025 186.348 109.332C185.814 110.495 184.897 111.61 183.637 111.836C182.976 111.954 182.294 111.812 181.659 111.596C180.924 111.346 180.223 110.995 179.582 110.557C179.242 110.324 178.904 110.048 178.755 109.664C178.653 109.399 178.649 109.108 178.653 108.824C178.663 108.122 178.709 107.408 178.954 106.75C179.264 105.917 179.87 105.23 180.512 104.616C180.771 104.37 181.045 104.127 181.377 103.994C181.92 103.778 182.538 103.889 183.09 104.082Z" fill="white"/>
<path fill-rule="evenodd" clip-rule="evenodd" d="M183.399 53.4291C187.584 57.7448 190.887 62.9051 193.049 68.5054C193.197 68.8901 193.341 69.3171 193.2 69.7044C192.109 72.6854 190.004 75.1711 187.94 77.5878C186.621 79.1318 185.302 80.6761 183.983 82.2204C182.724 83.6944 181.465 85.1687 180.163 86.6061C173.536 93.9231 165.705 100.321 156.636 104.258C156.294 104.407 155.927 104.555 155.558 104.495C155.189 104.436 154.844 104.08 154.941 103.72C156.062 99.5447 157.19 95.1791 156.291 90.9507C156.073 89.9307 155.832 88.6467 156.678 88.0331C163.527 83.0641 168.459 75.9618 173.185 68.9558C174.373 67.1941 175.558 65.4274 176.61 63.5818C178.477 60.3044 179.915 56.7848 180.876 53.1398C181.008 52.6398 181.642 52.4144 182.144 52.5454C182.646 52.6768 183.038 53.0574 183.399 53.4291Z" fill="white"/>
<path fill-rule="evenodd" clip-rule="evenodd" d="M52.8982 70.1938C53.5785 76.3442 55.4722 82.3582 58.4382 87.7892C60.2748 91.1515 62.5085 94.2782 64.7365 97.3952C66.2868 99.5642 67.9445 101.825 70.3635 102.946C71.0068 103.244 70.9171 104.171 70.7445 104.859C69.9981 107.831 69.6501 110.902 69.7121 113.966C69.7181 114.255 69.7258 114.555 69.6118 114.821C69.2258 115.725 67.9035 115.574 66.9928 115.205C61.3592 112.918 57.0338 108.319 52.9932 103.775C47.7472 97.8755 42.5792 91.7175 39.4802 84.4569C39.2695 83.9632 39.0649 83.4439 39.1002 82.9082C39.1362 82.3625 39.4165 81.8665 39.7009 81.3995C42.5102 76.7852 46.4185 72.8448 51.0102 69.9982C51.3335 69.7978 51.6788 69.5968 52.0588 69.5835C52.4392 69.5705 52.8562 69.8155 52.8982 70.1938Z" fill="white"/>
<path fill-rule="evenodd" clip-rule="evenodd" d="M182.579 178.091C183.064 177.268 183.666 176.363 184.608 176.206C184.98 176.145 185.176 175.741 185.302 175.387C186.86 171.017 187.01 166.157 185.725 161.7C185.358 160.427 185.81 159.078 186.257 157.832C187.41 154.615 188.563 151.398 189.716 148.181C189.056 147.038 187.314 147.072 186.421 146.1C185.273 144.848 186.139 142.858 187.039 141.417C192.295 133 197.551 124.582 202.807 116.164C203.451 115.133 204.864 114.81 206.049 115.085C207.233 115.359 208.244 116.105 209.219 116.832C213.052 119.696 216.885 122.559 220.719 125.422C222.776 126.959 225.048 128.922 224.929 131.487C224.864 132.907 224.051 134.168 223.266 135.352C220.227 139.93 217.189 144.508 214.151 149.086C212.44 151.665 212.912 155.053 212.395 158.105C211.578 162.927 208.271 166.887 205.209 170.7C202.147 174.514 199.083 178.773 198.911 183.66C198.706 189.486 195.939 195.176 191.482 198.933C192.775 195.797 184.608 197.048 175.267 193.332C176.804 187.893 179.706 182.958 182.579 178.091Z" fill="white"/>
<path fill-rule="evenodd" clip-rule="evenodd" d="M80.0033 191.73C79.421 191.253 79.2353 190.449 79.1323 189.701C77.9427 181.052 83.052 172.514 82.1417 163.83C81.6727 159.355 79.6167 155.179 77.029 151.506C75.242 148.97 75.142 145.573 75.8087 142.538C76.4753 139.504 77.82 136.667 78.727 133.696C82.7607 120.484 77.8527 106.371 73 93.4407C82.6693 88.765 93.953 89.6707 104.665 90.304C115.377 90.9377 126.898 90.9823 135.826 85C137.05 97.9417 134.351 110.898 131.668 123.615C145.282 122.289 158.896 120.962 172.51 119.636C172.9 119.598 173.327 119.569 173.651 119.79C174.084 120.086 174.151 120.689 174.175 121.214C174.812 134.673 175.198 148.144 175.333 161.618C175.336 161.955 175.324 162.332 175.087 162.572C174.884 162.777 174.575 162.82 174.288 162.852C155.215 164.977 136.142 167.103 117.068 169.228C115.419 169.412 113.07 168.983 113.166 167.318C113.597 159.894 113.345 152.43 112.416 145.053C107.347 144.861 102.244 145.634 97.4563 147.319C96.3703 147.701 95.0643 148.728 95.65 149.724C99.5257 156.31 94.7153 166.209 99.979 171.737C101.789 173.638 101.664 176.629 101.305 179.235C100.536 184.821 99.23 190.332 97.4107 195.667C98.2903 189.526 80.541 195.023 80.0033 191.73Z" fill="white"/>
<path fill-rule="evenodd" clip-rule="evenodd" d="M25.4486 52.342C25.4649 52.473 25.3939 52.6107 25.2777 52.6737C25.1851 52.581 25.0926 52.4884 25 52.3957C25.1388 52.335 25.2961 52.3177 25.4448 52.3467L25.4486 52.342Z" fill="#00160A"/>
<path fill-rule="evenodd" clip-rule="evenodd" d="M114.467 179.423C114.792 179.525 115.112 179.651 115.395 179.84C115.926 180.196 116.288 180.748 116.634 181.285C116.883 181.67 117.135 182.062 117.259 182.503C117.394 182.981 117.37 183.491 117.28 183.979C116.999 185.5 116.061 186.887 114.754 187.713C113.448 188.539 111.792 188.792 110.298 188.394C110.007 188.316 109.715 188.21 109.491 188.009C109.303 187.84 109.176 187.614 109.06 187.39C108.452 186.21 108.042 184.899 108.089 183.573C108.135 182.246 108.681 180.904 109.714 180.07C111.01 179.024 112.877 178.924 114.467 179.423ZM112.645 187.321C113.458 187.197 114.173 186.667 114.64 185.99C115.107 185.314 115.346 184.503 115.461 183.69C115.527 183.225 115.533 182.692 115.205 182.357C115.009 182.156 114.728 182.066 114.459 181.986C113.449 181.683 112.296 181.426 111.391 181.968C110.732 182.362 110.365 183.093 110.032 183.785C109.642 184.595 109.738 185.617 110.273 186.34C110.807 187.064 111.756 187.456 112.645 187.321Z" fill="#00160A"/>
<path fill-rule="evenodd" clip-rule="evenodd" d="M151.58 142.929C151.594 142.757 151.615 142.572 151.729 142.442C151.84 142.315 152.016 142.269 152.18 142.231C156.425 141.242 160.809 140.856 165.161 141.086C165.716 141.115 166.429 141.303 166.465 141.857C166.675 145.032 166.886 148.207 167.096 151.382C167.107 151.543 167.112 151.721 167.009 151.845C166.925 151.946 166.79 151.985 166.663 152.018C162.137 153.199 157.365 153.431 152.745 152.697C152.626 152.678 152.501 152.656 152.409 152.579C152.297 152.485 152.258 152.333 152.226 152.191C151.545 149.16 151.326 146.025 151.58 142.929ZM152.581 148.197C152.664 149.396 152.915 150.583 153.325 151.713C153.734 151.772 154.139 151.857 154.546 151.926C158.057 152.52 161.648 151.922 165.158 151.325C165.408 151.282 165.681 151.226 165.834 151.025C165.991 150.821 165.971 150.535 165.942 150.279C165.821 149.185 165.7 148.091 165.579 146.996C165.57 146.908 165.557 146.814 165.498 146.748C165.425 146.668 165.306 146.655 165.199 146.648C162.704 146.484 160.202 146.67 157.709 146.856C156.331 146.959 154.953 147.062 153.575 147.165C153.251 147.189 152.883 147.237 152.697 147.503C152.559 147.699 152.564 147.958 152.581 148.197ZM152.619 143.62C152.401 144.32 152.362 145.074 152.507 145.792C152.533 145.921 152.569 146.057 152.667 146.145C152.812 146.275 153.034 146.254 153.227 146.226C155.574 145.882 157.948 145.711 160.32 145.715C160.655 145.715 160.758 145.265 160.754 144.93C160.749 144.44 160.743 143.949 160.738 143.459C160.735 143.175 160.721 142.862 160.526 142.656C160.293 142.407 159.903 142.415 159.563 142.441C158.777 142.501 157.991 142.561 157.205 142.621C156.829 142.65 155.831 142.905 155.373 142.935C154.575 143.062 153.777 143.19 152.979 143.317C152.894 143.331 152.804 143.346 152.738 143.402C152.674 143.457 152.644 143.54 152.619 143.62ZM163.145 145.754C163.769 145.762 164.393 145.699 165.003 145.568C165.149 145.537 165.301 145.497 165.405 145.391C165.557 145.234 165.555 144.989 165.544 144.771C165.512 144.139 165.48 143.507 165.447 142.874C165.436 142.649 165.411 142.395 165.234 142.254C165.079 142.13 164.86 142.137 164.662 142.15C163.968 142.198 163.275 142.245 162.581 142.292C162.471 142.3 162.356 142.309 162.264 142.37C162.096 142.481 162.071 142.713 162.066 142.914C162.051 143.585 162.078 144.256 162.148 144.923C162.168 145.116 162.196 145.319 162.316 145.472C162.502 145.71 162.843 145.75 163.145 145.754Z" fill="#FFB61D"/>
<path fill-rule="evenodd" clip-rule="evenodd" d="M162.444 129.053C163.371 128.652 164.509 128.786 165.317 129.393C166.125 129.999 166.572 131.054 166.447 132.056C167.015 131.749 167.735 131.447 168.266 131.815C168.864 132.232 168.727 133.129 168.638 133.853C168.48 135.117 168.684 136.425 169.219 137.581C169.44 138.059 169.629 138.784 169.139 138.977C169.057 139.009 168.967 139.017 168.878 139.024C163.135 139.487 157.392 139.95 151.648 140.413C151.491 140.425 151.314 140.432 151.195 140.328C151.074 140.222 151.058 140.042 151.052 139.881C150.997 138.53 150.942 137.179 150.887 135.828C150.872 135.466 150.865 135.075 151.07 134.776C151.408 134.28 152.118 134.282 152.71 134.187C153.303 134.092 153.993 133.592 153.764 133.037C153.51 132.418 154.377 131.966 155.038 131.865C155.7 131.764 156.577 131.37 156.377 130.732C156.158 130.034 157.118 129.601 157.842 129.505C158.354 129.437 158.888 129.372 159.373 129.547C159.858 129.722 160.268 130.222 160.159 130.726C160.034 131.303 160.737 131.841 161.291 131.637C161.845 131.433 162.069 130.675 161.789 130.156C161.56 129.732 162.001 129.245 162.444 129.053ZM165.409 137.955C165.195 137.557 165.193 137.083 165.191 136.63C165.182 134.506 165.051 132.381 164.8 130.272C164.788 130.165 164.768 130.046 164.68 129.984C164.605 129.93 164.504 129.936 164.412 129.945C163.963 129.987 163.432 130.086 163.254 130.5C163.179 130.677 163.188 130.877 163.198 131.069C163.312 133.198 163.425 135.328 163.539 137.457C163.55 137.656 163.576 137.883 163.741 137.994C163.831 138.055 163.944 138.066 164.052 138.072C164.507 138.097 164.965 138.057 165.409 137.955ZM157.685 134.681C157.629 135.036 157.551 135.388 157.53 135.747C157.495 136.346 157.621 136.941 157.747 137.528C157.827 137.905 158.314 138.09 158.67 137.945C159.027 137.8 159.242 137.419 159.301 137.039C159.36 136.659 159.291 136.272 159.23 135.892C158.992 134.399 158.889 132.885 158.923 131.373C158.931 130.991 158.558 130.645 158.178 130.683C157.797 130.721 157.499 131.133 157.582 131.506C157.815 132.546 157.85 133.629 157.685 134.681ZM161.462 132.642C161.238 132.348 160.725 132.505 160.55 132.83C160.375 133.155 160.429 133.549 160.472 133.915C160.585 134.872 160.596 135.841 160.504 136.8C160.477 137.083 160.447 137.392 160.603 137.629C160.843 137.994 161.37 137.991 161.805 137.947C161.941 137.933 162.098 137.907 162.167 137.788C162.214 137.705 162.203 137.603 162.19 137.508C161.99 136.02 161.789 134.532 161.589 133.044C161.57 132.903 161.548 132.755 161.462 132.642ZM166.437 133.281C166.268 133.511 166.232 133.811 166.218 134.096C166.167 135.073 166.297 136.049 166.426 137.018C166.477 137.4 166.652 137.891 167.036 137.865C167.426 137.839 167.528 137.318 167.519 136.927C167.495 135.893 167.471 134.859 167.447 133.824C167.44 133.553 167.412 133.238 167.186 133.086C166.949 132.927 166.605 133.051 166.437 133.281ZM154.664 133.037C154.664 133.037 154.836 134.387 154.895 135.074C154.97 135.938 155.066 136.799 155.182 137.658C155.198 137.783 155.221 137.918 155.313 138.004C155.472 138.153 156.088 138.054 156.201 137.867C156.315 137.681 156.308 137.448 156.298 137.23C156.267 136.541 156.236 135.851 156.205 135.162C156.171 134.423 155.995 132.83 155.995 132.83L154.664 133.037ZM152.432 137.924C152.481 138.079 152.54 138.241 152.665 138.344C152.909 138.546 153.304 138.421 153.497 138.169C153.689 137.918 153.732 137.587 153.769 137.272C153.814 136.886 153.858 136.485 153.733 136.117C153.608 135.749 153.262 135.425 152.875 135.46C152.519 135.491 152.243 135.816 152.16 136.164C152.077 136.512 152.147 136.876 152.233 137.223C152.292 137.459 152.359 137.693 152.432 137.924Z" fill="#E7EAEE"/>
<path fill-rule="evenodd" clip-rule="evenodd" d="M175.714 82.6537C175.25 83.3497 174.747 84.0547 174.03 84.4847C173.312 84.9144 172.322 84.9981 171.677 84.4654C170.966 83.8774 170.922 82.8177 170.978 81.8967C171 81.5424 171.028 81.1847 171.13 80.8444C171.306 80.2541 171.691 79.7501 172.093 79.2831C172.58 78.7161 173.12 78.1694 173.796 77.8504C174.472 77.5314 175.312 77.4754 175.945 77.8724C176.703 78.3474 176.984 79.3578 176.84 80.2411C176.697 81.1241 176.21 81.9091 175.714 82.6537ZM174.241 83.3901C174.826 82.7674 175.328 82.0664 175.728 81.3121C175.992 80.8157 176.216 80.2761 176.206 79.7141C176.195 79.1521 175.899 78.5644 175.377 78.3561C174.697 78.0844 173.951 78.5188 173.382 78.9804C172.978 79.3094 172.586 79.6698 172.327 80.1217C172.163 80.4077 172.056 80.7224 171.95 81.0344C171.75 81.6251 171.548 82.2407 171.624 82.8594C171.7 83.4784 172.143 84.0997 172.763 84.1637C173.337 84.2231 173.846 83.8107 174.241 83.3901Z" fill="#FFB61D"/>
<path fill-rule="evenodd" clip-rule="evenodd" d="M56.2663 90.5206C56.9926 91.2563 57.5923 92.1169 58.0309 93.0533C58.4716 93.9943 58.0273 95.2036 57.1623 95.7793C56.2969 96.3549 55.1273 96.3473 54.1786 95.9233C53.2303 95.4989 52.4846 94.7073 51.9356 93.8249C51.522 93.1596 51.201 92.4143 51.1663 91.6316C51.132 90.8489 51.4203 90.0253 52.0393 89.5453C52.6656 89.0599 53.5463 88.9906 54.3036 89.2233C55.061 89.4563 55.7096 89.9566 56.2663 90.5206ZM53.432 90.0729C52.8036 90.0083 52.2453 90.5853 52.1373 91.2079C52.0296 91.8303 52.267 92.4623 52.574 93.0143C53.24 94.2116 54.428 95.2753 55.7966 95.2093C56.5003 95.1749 57.2713 94.6876 57.2589 93.9836C57.2533 93.6789 57.1033 93.3979 56.9529 93.1329C56.5546 92.4289 56.1239 91.7319 55.549 91.1626C54.974 90.5933 54.237 90.1559 53.432 90.0729Z" fill="#FFB61D"/>
<path fill-rule="evenodd" clip-rule="evenodd" d="M111.191 183.151C111.696 182.767 112.323 182.519 112.955 182.56C113.588 182.601 114.214 182.964 114.478 183.539C114.762 184.157 114.585 184.925 114.142 185.441C113.699 185.957 113.032 186.242 112.358 186.337C111.899 186.401 111.351 186.343 111.099 185.953C110.978 185.765 110.95 185.533 110.926 185.311C110.882 184.911 110.838 184.511 110.794 184.112C110.776 183.942 110.758 183.767 110.812 183.605C110.876 183.415 111.031 183.272 111.191 183.151ZM113.187 184.3C113.26 184.244 113.337 184.183 113.369 184.096C113.472 183.818 113.07 183.633 112.774 183.64C112.343 183.649 111.792 183.939 111.923 184.349C112 184.586 112.292 184.696 112.537 184.652C112.782 184.608 112.99 184.452 113.187 184.3Z" fill="#00160A"/>
<path fill-rule="evenodd" clip-rule="evenodd" d="M182.664 55.3767C186.595 59.4464 189.698 64.3131 191.729 69.5944C191.869 69.9571 192.004 70.3601 191.871 70.7251C190.846 73.5367 188.869 75.8804 186.929 78.1594L183.212 82.5284C182.029 83.9187 180.846 85.3091 179.623 86.6644C173.397 93.5647 166.041 99.5987 157.52 103.311C157.199 103.451 156.854 103.591 156.507 103.535C156.161 103.479 155.837 103.143 155.927 102.804C156.981 98.8664 158.041 94.7494 157.196 90.7617C156.992 89.7997 156.764 88.5887 157.559 88.0101C163.994 83.3241 168.627 76.6261 173.067 70.0191C174.184 68.3577 175.297 66.6921 176.285 64.9511C178.04 61.8604 179.391 58.5411 180.293 55.1041C180.417 54.6324 181.013 54.4197 181.484 54.5434C181.956 54.6671 182.325 55.0261 182.664 55.3767ZM179.912 60.4307C179.513 60.2654 179.144 60.7124 178.941 61.0937C178.72 61.5067 178.5 61.9201 178.28 62.3341C174.207 69.9851 170.071 77.7537 163.864 83.7801C163.277 84.3494 162.622 85.0371 162.73 85.8474C163.076 88.4447 161.69 91.1874 159.393 92.4481C158.35 93.0207 158.362 94.4977 158.515 95.6774C158.576 96.1497 158.755 96.7417 159.229 96.7817C160.621 96.8991 161.957 97.5844 162.864 98.6464C163.151 98.9814 163.693 98.7721 164.066 98.5374C173.457 92.6341 180.672 83.9144 187.717 75.3467C187.96 75.0511 188.218 74.6787 188.092 74.3177C187.026 71.2811 187.196 67.8297 188.557 64.9131C187.754 63.3154 186.797 61.7954 185.704 60.3804C183.885 61.1701 181.745 61.1887 179.912 60.4307ZM157.639 101.752C158.009 101.946 158.458 101.761 158.828 101.568C159.802 101.059 160.74 100.482 161.633 99.8424C161.869 99.6734 161.94 99.3354 161.856 99.0574C161.773 98.7794 161.564 98.5551 161.333 98.3794C160.611 97.8314 159.601 97.6874 158.755 98.0114C158.598 98.0714 158.443 98.1494 158.335 98.2774C158.209 98.4277 158.163 98.6274 158.122 98.8194C157.918 99.7891 157.757 100.768 157.639 101.752ZM184.01 58.4087C183.372 57.1611 182.388 56.0927 181.197 55.3544C180.782 55.7194 180.702 56.2744 180.62 56.8404C180.563 57.2284 180.506 57.6217 180.34 57.9624C180.286 58.0731 180.22 58.1791 180.154 58.2851H180.154C180.028 58.4867 179.903 58.6874 179.862 58.9191C179.801 59.2721 180.1 59.7147 180.439 59.5981C180.714 59.5031 181.003 59.5641 181.294 59.6257C181.448 59.6581 181.602 59.6907 181.755 59.7007C182.65 59.7584 183.392 59.0577 184.01 58.4087ZM189.067 65.8861C188.383 67.2457 188.491 68.8517 188.616 70.3681L188.794 72.5434C188.814 72.7824 188.944 73.1054 189.174 73.0391C189.317 72.6384 189.59 72.3077 189.864 71.9764C190.103 71.6867 190.342 71.3961 190.496 71.0574C191.018 69.9101 190.439 68.5881 189.868 67.4644L189.067 65.8861ZM158.47 90.0271C158.498 90.4527 158.94 90.7711 159.366 90.7591C159.793 90.7471 160.176 90.4714 160.426 90.1254C160.675 89.7791 160.811 89.3671 160.944 88.9617L161.384 87.6241C161.506 87.2511 161.514 86.6807 161.124 86.6371C160.983 86.6211 160.848 86.6957 160.733 86.7777C160.296 87.0887 159.977 87.5351 159.667 87.9731L158.823 89.1657C158.64 89.4244 158.449 89.7111 158.47 90.0271ZM57.7717 86.4564C54.8057 81.0257 52.912 75.0117 52.2317 68.8611C52.1897 68.4827 51.7727 68.2381 51.3924 68.2511C51.0124 68.2641 50.667 68.4651 50.3437 68.6657C45.752 71.5124 41.8437 75.4524 39.0344 80.0671C38.75 80.5341 38.4697 81.0301 38.4337 81.5757C38.3984 82.1111 38.603 82.6307 38.8137 83.1241C41.9127 90.3847 47.0807 96.5431 52.3267 102.442C56.3674 106.986 60.6927 111.585 66.3264 113.872C67.237 114.242 68.5594 114.392 68.9454 113.488C69.0577 113.225 69.0517 112.93 69.046 112.644L69.0457 112.633C68.9837 109.569 69.3317 106.498 70.078 103.526C70.2507 102.838 70.3404 101.911 69.697 101.613C67.278 100.492 65.6204 98.2317 64.07 96.0624C61.842 92.9454 59.6084 89.819 57.7717 86.4564ZM63.008 110.196C62.6747 110.284 62.342 110.074 62.0637 109.87C56.9364 106.114 52.9627 101.029 49.0587 96.0127L42.169 87.1604C43.332 86.4197 43.4797 84.8104 43.505 83.4317C43.5377 81.6397 43.562 79.7951 42.9147 78.1237C42.7707 77.7524 42.958 77.3407 43.1587 76.9964C44.0187 75.5204 45.2117 74.2394 46.623 73.2767C46.7597 73.1834 46.9044 73.0911 47.0684 73.0677C47.5004 73.0067 47.832 73.4271 48.063 73.7974C48.975 75.2601 50.2287 76.9144 51.9484 76.7941C52.603 76.7481 52.9664 77.5194 53.1574 78.1474C55.5327 85.9567 59.9927 93.0004 65.223 99.2671C65.9027 100.081 66.073 101.181 66.242 102.27C66.4304 103.484 66.617 104.686 67.5054 105.467C68.264 106.134 68.1234 107.331 67.9187 108.32C67.8767 108.523 67.8267 108.739 67.673 108.877C67.559 108.98 67.4047 109.023 67.2564 109.062L63.008 110.196ZM50.8524 74.9851C49.9117 74.3277 49.099 73.4881 48.4734 72.5261C48.338 72.3181 48.2067 72.0847 48.2304 71.8377C48.2564 71.5691 48.4584 71.3541 48.6594 71.1741C49.156 70.7297 49.7174 70.3577 50.32 70.0734C50.5407 69.9691 50.8257 69.8847 51.0094 70.0457C51.117 70.1404 51.1514 70.2921 51.1794 70.4331L52.0484 74.7781C52.0997 75.0347 51.83 75.2661 51.5684 75.2737C51.3064 75.2811 51.067 75.1351 50.8524 74.9851ZM42.255 83.3891C42.2364 84.2064 42.174 85.1237 41.5614 85.6651C41.4334 85.6801 41.3484 85.5394 41.298 85.4207C40.8567 84.3761 40.4094 83.3061 40.3397 82.1744C40.2704 81.0424 40.6497 79.8167 41.5747 79.1607C41.6997 79.0717 41.8834 78.9984 41.9937 79.1051C42.038 79.1477 42.057 79.2101 42.0734 79.2694C42.3247 80.1934 42.305 81.1664 42.2834 82.1234L42.255 83.3891ZM67.215 110.574C67.3637 110.696 67.3794 110.913 67.3834 111.105L67.4277 113.206C66.5657 112.728 65.7404 112.185 64.96 111.583C64.8124 111.469 64.6497 111.284 64.7404 111.121C64.7854 111.04 64.8787 111.001 64.9657 110.969C65.523 110.763 66.0997 110.609 66.6854 110.508C66.8667 110.477 67.0727 110.458 67.215 110.574ZM67.2647 102.299C67.2567 102.204 67.2567 102.101 67.313 102.024C67.462 101.822 67.785 102.005 67.9214 102.216C68.25 102.724 68.3227 103.389 68.1114 103.955C67.6284 103.541 67.3174 102.933 67.2647 102.299ZM195.624 86.3484C196.483 85.2667 198.048 85.1111 199.429 85.1447C199.752 85.1527 200.084 85.1681 200.377 85.3021C201.194 85.6744 201.368 86.7417 201.395 87.6391C201.42 88.4554 201.416 89.2827 201.217 90.0751C201.019 90.8674 200.608 91.6307 199.952 92.1171C199.657 92.3357 199.315 92.4951 198.953 92.5557C198.393 92.6494 197.821 92.5057 197.289 92.3077C196.58 92.0441 195.908 91.6817 195.298 91.2347C195 91.0164 194.692 90.7307 194.683 90.3614C194.661 89.5097 194.756 88.6554 194.965 87.8294C195.099 87.3017 195.285 86.7747 195.624 86.3484ZM197.851 91.7357C198.954 92.0521 200.127 91.1991 200.545 90.1304C200.962 89.062 200.808 87.8617 200.578 86.7377C200.49 86.3061 200.029 86.0651 199.604 85.9497C198.946 85.7711 198.246 85.7474 197.577 85.8811C197.245 85.9474 196.905 86.0614 196.672 86.3071C196.545 86.4411 196.457 86.6067 196.371 86.7697L195.725 87.9907C195.611 88.2057 195.497 88.4224 195.43 88.6557C195.23 89.3544 195.494 90.1304 195.982 90.6687C196.47 91.2074 197.152 91.5351 197.851 91.7357ZM183.091 104.082C184.102 104.434 185.019 105.055 185.722 105.863C186.326 106.558 186.787 107.459 186.66 108.371C186.613 108.706 186.49 109.025 186.349 109.332C185.815 110.495 184.898 111.611 183.638 111.836C182.977 111.954 182.295 111.812 181.66 111.596C180.925 111.346 180.224 110.995 179.583 110.557C179.243 110.324 178.905 110.048 178.756 109.664C178.654 109.399 178.65 109.108 178.654 108.824C178.664 108.122 178.71 107.408 178.955 106.75C179.265 105.917 179.871 105.23 180.513 104.616C180.772 104.37 181.046 104.127 181.378 103.994C181.921 103.778 182.539 103.889 183.091 104.082ZM184.125 110.201C184.856 109.478 185.281 108.43 185.165 107.408C185.05 106.386 184.358 105.428 183.391 105.079C182.989 104.934 182.543 104.893 182.132 105.007C181.909 105.069 181.701 105.174 181.507 105.297C180.674 105.827 180.09 106.73 179.948 107.706C179.806 108.682 180.109 109.715 180.756 110.459C181.171 110.936 181.847 111.14 182.474 111.061C183.101 110.982 183.676 110.645 184.125 110.201ZM91.8287 98.0591C91.7947 97.5774 91.1507 97.4514 90.6681 97.4654C88.1341 97.5401 85.6034 97.7297 83.0864 98.0344C82.6731 98.0844 82.6394 98.7507 82.9714 99.0027C83.3031 99.2544 83.7651 99.2077 84.1774 99.1487L91.8287 98.0591ZM83.7277 101.316C83.7497 101.068 84.0614 100.979 84.3087 100.951L99.2347 99.2604C99.5047 99.2297 99.7924 99.2021 100.035 99.3237C100.278 99.4451 100.435 99.7777 100.276 99.9984C100.159 100.161 99.9351 100.194 99.7357 100.213L84.4691 101.695C84.1517 101.725 83.7001 101.634 83.7277 101.316ZM117.19 103.831C116.355 104.014 115.497 103.713 114.697 103.413C112.107 102.446 109.527 101.451 106.958 100.43C105.921 100.018 104.783 100.635 103.851 101.248C101.151 103.021 98.5527 104.947 96.0707 107.014C95.4334 107.544 94.4524 107.172 93.8094 106.648C93.6737 106.537 93.5397 106.419 93.4054 106.3C92.9047 105.857 92.3977 105.409 91.7501 105.317C90.7544 105.176 89.8784 105.931 89.1571 106.631L84.5047 111.15C83.8787 111.757 83.2204 112.73 83.7771 113.402C84.1447 113.845 84.8191 113.822 85.3907 113.756C88.3754 113.41 91.3454 112.925 94.3141 112.44H94.3144C99.2214 111.638 104.125 110.837 109.088 110.665C110.188 110.627 111.289 110.62 112.389 110.613C113.078 110.609 113.767 110.605 114.456 110.593C117.564 110.539 120.669 110.329 123.756 109.966C123.905 109.948 124.075 109.917 124.152 109.788C124.211 109.691 124.196 109.568 124.18 109.456L122.872 100.56C122.806 100.108 122.69 99.5854 122.277 99.3901C121.859 99.1927 121.368 99.4471 121.025 99.7567C120.489 100.241 120.076 100.884 119.669 101.518C119 102.559 118.347 103.576 117.19 103.831ZM95.9567 108.698C98.7494 106.402 101.661 104.251 104.676 102.257C105.295 101.848 106.048 101.428 106.74 101.697L114.051 104.538C115.271 105.012 116.606 105.493 117.859 105.113C119.315 104.671 120.186 103.222 120.919 101.888C121.062 101.629 121.477 101.659 121.682 101.872C121.887 102.085 121.939 102.398 121.982 102.691L122.517 106.401C122.599 106.971 122.68 107.562 122.515 108.114C122.35 108.665 121.867 109.166 121.291 109.155C111.88 108.973 102.45 109.749 93.1954 111.467C92.9087 111.52 92.6221 111.575 92.3354 111.629H92.3351C90.1241 112.046 87.9047 112.465 85.6581 112.473C86.7427 110.936 88.1177 109.631 89.4831 108.336C90.2324 107.626 91.1697 106.859 92.1761 107.092C92.7197 107.217 93.1364 107.608 93.5511 107.996H93.5514V107.997H93.5517C93.6844 108.121 93.8171 108.245 93.9537 108.361C94.5164 108.836 95.3881 109.166 95.9567 108.698ZM216.698 134.578C216.449 134.671 216.17 134.607 215.916 134.527C214.195 133.986 212.797 132.776 211.424 131.587C211.238 131.426 211.052 131.266 210.866 131.107C208.59 129.166 206.12 127.452 203.505 125.999C203.239 125.851 202.96 125.696 202.797 125.439C202.634 125.182 202.639 124.79 202.89 124.619C204.063 123.818 204.823 122.444 204.879 121.025C204.894 120.647 205.321 120.395 205.698 120.425C206.076 120.456 206.405 120.682 206.713 120.901L218.664 129.384C218.896 129.549 219.147 129.741 219.204 130.02C219.25 130.249 219.155 130.479 219.058 130.691C218.543 131.829 217.95 132.931 217.286 133.988C217.135 134.227 216.963 134.479 216.698 134.578ZM204.743 124.514C204.602 124.762 204.481 125.121 204.708 125.292L214.46 132.635C214.994 133.037 215.824 133.414 216.245 132.894C216.727 132.297 217.178 131.675 217.595 131.03C217.709 130.853 217.825 130.652 217.784 130.446C217.747 130.258 217.589 130.121 217.44 130C213.861 127.099 210.071 124.456 206.111 122.101L204.743 124.514ZM199.889 129.005C200.047 128.735 200.238 128.439 200.544 128.373C200.777 128.322 201.015 128.422 201.23 128.527C202.405 129.097 203.48 129.87 204.395 130.801C204.615 131.025 204.642 131.386 204.544 131.684C204.446 131.982 204.244 132.233 204.047 132.477C203.728 132.869 203.389 133.277 202.92 133.463C202.413 133.664 201.824 133.567 201.344 133.309C200.864 133.05 200.479 132.646 200.14 132.22C199.697 131.664 199.301 130.997 199.37 130.289C199.415 129.826 199.655 129.407 199.889 129.005ZM201.943 132.118C202.682 132.405 203.154 132.178 203.174 131.693C203.186 131.388 202.919 131.152 202.677 130.966L201.943 130.402C201.701 130.215 201.433 130.02 201.128 130.022C200.822 130.024 200.51 130.339 200.636 130.618C200.617 130.753 201.205 131.831 201.943 132.118ZM199.028 138.08C199.208 138.179 199.399 138.275 199.605 138.279C199.81 138.284 200.032 138.167 200.083 137.968C200.201 137.501 200.51 137.114 200.813 136.735C200.846 136.693 200.879 136.652 200.911 136.611C201.243 136.191 201.563 135.716 201.572 135.182C201.58 134.647 201.138 134.077 200.608 134.15C200.191 134.208 199.803 133.934 199.5 133.642C199.451 133.595 199.404 133.547 199.355 133.499C199.102 133.246 198.844 132.989 198.507 132.88C198.107 132.749 197.561 132.957 197.53 133.377C197.466 134.223 196.763 134.859 196.111 135.402C195.915 135.564 196.092 135.876 196.274 136.052C197.096 136.847 198.025 137.531 199.028 138.08ZM199.159 136.468L197.874 135.599C197.548 135.378 197.574 134.837 197.865 134.571C198.156 134.305 198.609 134.285 198.98 134.418C199.351 134.551 199.66 134.812 199.96 135.068C200.158 135.238 200.186 135.546 200.095 135.791C200.004 136.036 199.819 136.232 199.639 136.42C199.577 136.485 199.508 136.553 199.42 136.565C199.325 136.577 199.237 136.521 199.159 136.468ZM209.341 136.525L209.969 135.191C210.161 134.782 210.348 134.277 210.088 133.907C209.998 133.779 209.865 133.689 209.735 133.601L207.45 132.061C207.204 131.895 206.936 131.723 206.639 131.727C206.287 131.733 205.992 131.984 205.742 132.232C205.368 132.603 205.018 132.999 204.695 133.416C204.449 133.734 204.247 134.256 204.583 134.476L208.079 136.77C208.355 136.951 208.706 137.137 208.995 136.98C209.166 136.887 209.259 136.701 209.341 136.525ZM208.566 135.581C208.419 135.615 208.266 135.577 208.122 135.534C207.239 135.268 206.431 134.758 205.811 134.077C205.604 133.85 205.721 133.449 205.983 133.29C206.245 133.132 206.586 133.168 206.869 133.287C207.052 133.363 207.219 133.47 207.386 133.577C207.478 133.636 207.569 133.694 207.664 133.748C207.765 133.806 207.871 133.859 207.977 133.912C208.278 134.063 208.578 134.214 208.783 134.474C209.06 134.827 209.003 135.48 208.566 135.581ZM209.747 137.071C210.15 136.975 210.273 136.565 210.401 136.138C210.507 135.785 210.616 135.421 210.889 135.214C211.359 134.859 212.025 135.156 212.531 135.457L214.142 136.415C214.399 136.568 214.662 136.726 214.846 136.961C215.03 137.196 215.12 137.53 214.991 137.799C214.905 137.979 214.743 138.098 214.579 138.218C214.445 138.317 214.31 138.416 214.216 138.55C214.095 138.721 214.05 138.936 214.005 139.149C213.949 139.415 213.894 139.678 213.691 139.846C213.32 140.151 212.769 139.906 212.359 139.656L210.089 138.269C209.861 138.129 209.619 137.976 209.507 137.732C209.394 137.489 209.486 137.133 209.747 137.071ZM212.722 138.448C213.047 138.337 213.308 138.096 213.559 137.862C213.74 137.692 213.497 137.412 213.281 137.29L211.89 136.507C211.745 136.425 211.543 136.351 211.431 136.474C211.069 136.869 211.016 137.514 211.31 137.962C211.603 138.411 212.215 138.621 212.722 138.448ZM196.771 138.4C196.46 138.312 196.143 138.223 195.889 138.049C195.494 137.78 194.944 137.845 194.53 138.083C194.116 138.321 193.807 138.703 193.508 139.075C193.342 139.282 193.172 139.498 193.108 139.755C193.045 140.013 193.12 140.325 193.352 140.454L195.776 141.805C195.96 141.907 196.165 142.013 196.37 141.968C196.574 141.922 196.715 141.741 196.838 141.572L197.462 140.713C197.809 140.235 198.172 139.627 197.918 139.093C197.715 138.666 197.25 138.535 196.771 138.4ZM196.004 140.623C195.877 140.656 195.746 140.595 195.629 140.536L193.978 139.695C194.295 139.246 194.899 139.073 195.447 139.128C195.995 139.182 196.503 139.426 196.998 139.665L196.239 140.454C196.171 140.524 196.098 140.598 196.004 140.623ZM184.561 107.012C184.817 107.402 184.737 107.923 184.567 108.357C184.344 108.93 183.966 109.46 183.432 109.765C182.898 110.069 182.197 110.114 181.677 109.786C181.157 109.459 180.896 108.731 181.174 108.184C181.239 108.057 181.327 107.945 181.415 107.832C181.499 107.725 181.583 107.618 181.647 107.497C181.689 107.418 181.721 107.334 181.754 107.251C181.801 107.13 181.848 107.009 181.922 106.904C182.187 106.529 182.709 106.455 183.168 106.462C183.688 106.469 184.276 106.577 184.561 107.012ZM183.399 107.26C182.687 107.251 182.019 107.848 181.949 108.557C181.92 108.846 182.043 109.206 182.331 109.246C182.547 109.276 182.737 109.109 182.882 108.946C183.189 108.602 183.453 108.219 183.665 107.81C183.736 107.672 183.799 107.496 183.706 107.373C183.637 107.283 183.512 107.261 183.399 107.26ZM200.433 88.6851C200.378 88.0331 199.941 87.3917 199.308 87.2281C198.503 87.0207 197.722 87.5874 197.083 88.1191C196.894 88.2764 196.697 88.4457 196.617 88.6781C196.481 89.0727 196.726 89.4884 196.966 89.8291C197.242 90.2194 197.536 90.6117 197.939 90.8697C198.341 91.1277 198.877 91.2281 199.299 91.0037C199.514 90.8894 199.682 90.7027 199.827 90.5074C200.218 89.9824 200.487 89.3371 200.433 88.6851ZM198.647 90.3571C198.375 90.3977 198.092 90.2877 197.891 90.0987C197.59 89.8154 197.47 89.3597 197.576 88.9601C197.686 88.5394 198.04 88.1917 198.462 88.0881C198.885 87.9841 199.359 88.1284 199.652 88.4501C199.641 88.5377 199.632 88.6261 199.622 88.7144C199.591 89.0144 199.56 89.3147 199.456 89.5961C199.322 89.9607 199.032 90.2994 198.647 90.3571ZM176.98 192.078C178.464 186.827 181.266 182.062 184.039 177.363C184.508 176.569 185.089 175.694 185.999 175.543C186.358 175.484 186.547 175.094 186.669 174.752C188.173 170.533 188.318 165.841 187.077 161.537C186.723 160.308 187.159 159.006 187.591 157.802L190.931 148.484C190.584 147.883 189.927 147.62 189.261 147.352C188.705 147.128 188.142 146.902 187.749 146.474C186.641 145.266 187.477 143.345 188.346 141.953L203.57 117.571C204.192 116.576 205.557 116.263 206.7 116.529C207.844 116.794 208.82 117.514 209.761 118.216L220.865 126.51C222.851 127.994 225.044 129.889 224.93 132.366C224.866 133.736 224.082 134.955 223.323 136.098L214.523 149.358C213.386 151.073 213.247 153.158 213.109 155.252C213.046 156.199 212.983 157.148 212.828 158.066C212.069 162.543 209.087 166.25 206.231 169.803C206.117 169.944 206.003 170.086 205.89 170.227C202.933 173.909 199.975 178.021 199.809 182.74C199.611 188.365 196.939 193.859 192.636 197.487L196.38 188.403C197.27 186.243 198.095 183.556 196.605 181.756C195.931 180.942 194.912 180.511 193.933 180.11L188.118 177.724C187.717 177.559 187.304 177.392 186.871 177.389C185.52 177.381 184.716 178.846 184.168 180.081C182.273 184.353 179.853 188.392 176.98 192.078ZM196.101 179.742C197.098 180.111 198.502 180.336 198.974 179.383C201.261 174.773 203.61 170.075 207.25 166.438C209.348 164.342 210.634 161.544 211.362 158.669C212.09 155.794 212.296 152.816 212.499 149.857C211.615 150.179 211.539 151.371 211.542 152.311C211.551 154.383 211.188 156.456 210.478 158.403C210.329 158.81 210.129 159.25 209.731 159.422C209.333 159.594 208.746 159.249 208.88 158.836C209.907 155.67 210.29 152.296 209.999 148.98C209.908 147.952 209.717 146.852 208.986 146.123C209.065 147.747 209.144 149.377 208.98 150.994C208.695 153.792 207.692 156.459 206.698 159.09C206.569 159.431 206.413 159.804 206.085 159.964C205.757 160.125 205.248 159.87 205.333 159.515L206.822 153.361C207.641 149.977 208.446 146.336 207.179 143.093C206.54 143.051 206.39 143.963 206.447 144.6C206.837 148.965 205.631 153.296 204.436 157.512C204.297 158.004 203.804 158.619 203.42 158.281C203.255 158.135 203.247 157.883 203.26 157.663C203.336 156.423 203.676 155.223 204.015 154.024C204.12 153.652 204.226 153.28 204.323 152.907C205.221 149.469 205.45 145.858 204.993 142.334C204.207 143.342 203.873 144.621 203.558 145.86L201.69 153.216C200.845 156.541 199.765 160.197 196.836 161.983C196.603 162.126 196.332 162.258 196.066 162.195C195.736 162.116 195.549 161.775 195.411 161.465C193.541 157.254 193.308 152.341 194.769 147.972C194.858 147.707 194.588 147.43 194.31 147.408C194.031 147.386 193.77 147.537 193.541 147.699C191.143 149.391 190.224 152.457 189.461 155.291L188.447 159.06C188.299 159.611 188.15 160.166 188.119 160.735C188.072 161.6 188.298 162.447 188.523 163.289C188.575 163.484 188.627 163.679 188.675 163.874C189.651 167.789 189.21 172.042 187.452 175.675C187.193 176.21 187.877 176.697 188.435 176.904L196.101 179.742ZM199.89 143.773C199.49 143.497 199.061 143.183 198.938 142.713C198.748 141.993 199.434 141.269 200.172 141.173C200.911 141.076 201.633 141.432 202.245 141.856C203.107 142.454 204.198 141.543 204.843 140.716C203.973 140.195 203.142 139.386 203.108 138.373C203.073 137.359 204.306 136.393 205.127 136.99C205.445 137.221 205.83 137.363 206.211 137.503C206.781 137.713 207.342 137.919 207.655 138.419C208.011 138.987 207.885 139.756 207.522 140.32C207.16 140.884 206.602 141.289 206.058 141.681C206.839 141.758 207.6 142.037 208.247 142.483L208.952 140.429C209.007 140.269 209.066 140.103 209.191 139.99C209.433 139.774 209.809 139.841 210.118 139.939C210.93 140.196 211.726 140.598 212.262 141.26C212.798 141.922 213.021 142.884 212.646 143.649C212.272 144.414 211.216 144.821 210.5 144.36C210.351 144.265 210.202 144.137 210.053 144.009C209.654 143.667 209.255 143.325 208.87 143.599C210.046 144.515 210.854 145.891 211.08 147.364C214.783 141.724 218.446 136.058 222.068 130.366C222.414 129.823 222.693 128.967 222.13 128.654C219.724 127.319 217.598 125.532 215.476 123.749C212.798 121.498 210.129 119.254 206.915 117.936C206.711 117.852 206.488 117.771 206.275 117.827C206.052 117.886 205.895 118.081 205.754 118.264C199.771 126.074 194.4 134.354 189.71 143.002C189.055 144.208 189.931 145.646 190.769 146.734C191.188 147.277 191.996 147.851 192.452 147.339C193.028 146.694 193.971 146.325 194.786 146.613C195.601 146.901 196.108 147.961 195.665 148.703C195.344 149.24 195.972 149.836 196.52 150.137C197.616 150.737 198.739 151.285 199.886 151.78C200.046 151.849 200.231 151.916 200.387 151.838C200.534 151.764 200.594 151.588 200.641 151.429L201.911 147.057C202.12 146.338 202.26 145.405 201.643 144.98L199.89 143.773ZM222.62 131.516C222.452 131.458 222.298 131.627 222.199 131.776L212.684 146.017C212.428 146.401 212.166 146.799 212.092 147.254C212.017 147.708 212.184 148.237 212.598 148.439C213.283 148.775 214 148.07 214.439 147.447L223.279 134.918C223.936 133.988 223.38 132.716 222.818 131.726C222.77 131.641 222.714 131.548 222.62 131.516ZM195.833 150.534C195.666 150.412 195.415 150.485 195.275 150.637C195.135 150.79 195.078 150.999 195.025 151.199C194.895 151.692 194.764 152.19 194.745 152.7C194.726 153.21 194.818 153.716 194.91 154.218L195.821 159.17C195.86 159.378 195.904 159.599 196.052 159.75C196.199 159.901 196.486 159.934 196.605 159.76C197.953 157.787 199.321 155.777 200.026 153.494C200.114 153.21 200.139 152.811 199.861 152.707C198.429 152.168 197.07 151.435 195.833 150.534ZM206.355 138.315C205.898 137.88 205.294 137.602 204.667 137.538C204.095 137.48 203.765 138.283 204.026 138.795C204.287 139.308 204.864 139.561 205.398 139.775C205.774 139.926 206.231 140.069 206.56 139.83C207.032 139.488 206.777 138.717 206.355 138.315ZM202.599 144.054C202.785 143.921 202.809 143.65 202.757 143.428C202.561 142.59 201.641 142.161 200.816 141.916C200.497 141.821 200.1 141.755 199.875 142C199.687 142.205 199.727 142.545 199.889 142.771C200.051 142.997 200.305 143.136 200.549 143.268L201.824 143.955C202.066 144.085 202.374 144.213 202.599 144.054ZM209.851 141.032C209.581 141.394 209.609 141.919 209.834 142.31C210.059 142.701 210.449 142.972 210.861 143.157C211.002 143.22 211.157 143.276 211.308 143.246C211.439 143.22 211.55 143.132 211.63 143.025C211.924 142.632 211.781 142.039 211.444 141.682C211.107 141.324 210.627 141.145 210.165 140.978C210.085 140.949 209.992 140.921 209.919 140.965C209.913 140.969 209.906 140.973 209.9 140.978C209.882 140.994 209.866 141.013 209.851 141.032ZM82.0157 173.788C82.1921 172.483 82.4394 171.048 83.4641 170.222C84.2814 169.563 85.4031 169.458 86.4524 169.438C89.8897 169.372 93.3384 169.93 96.5794 171.077C97.6047 171.44 98.6777 171.918 99.2384 172.85C99.8454 173.859 99.6974 175.132 99.5294 176.297L96.9264 194.381C98.7214 189.144 100.01 183.734 100.768 178.25C101.122 175.691 101.246 172.755 99.4601 170.889C96.6727 167.976 96.7487 163.827 96.8261 159.608C96.8927 155.966 96.9604 152.273 95.1891 149.278C94.6114 148.301 95.8997 147.292 96.9714 146.917C101.695 145.263 106.73 144.504 111.731 144.692C112.648 151.935 112.896 159.262 112.471 166.55C112.376 168.185 114.694 168.607 116.321 168.426L172.775 162.166C173.058 162.135 173.363 162.093 173.564 161.891C173.797 161.656 173.809 161.286 173.806 160.954C173.672 147.727 173.292 134.503 172.664 121.29C172.639 120.774 172.574 120.182 172.147 119.892C171.827 119.674 171.406 119.703 171.02 119.74L130.725 123.646C133.373 111.161 136.035 98.4424 134.827 85.7371C126.019 91.6101 114.652 91.5661 104.084 90.9444C103.644 90.9184 103.204 90.892 102.763 90.8657C92.5924 90.2577 81.9857 89.6241 72.842 94.0237C77.6297 106.717 82.4724 120.573 78.4927 133.543C78.1404 134.69 77.7217 135.817 77.3027 136.944C76.6574 138.681 76.0121 140.417 75.613 142.224C74.9554 145.203 75.0544 148.538 76.8174 151.028C79.37 154.634 81.3991 158.733 81.8617 163.126C82.3007 167.296 81.3197 171.43 80.3397 175.561C79.3157 179.876 78.2927 184.186 78.8924 188.525C78.9941 189.259 79.1774 190.049 79.752 190.517L82.0157 173.788ZM86.0097 121.397C87.0774 121.435 87.5017 122.775 87.6384 123.835L88.7191 132.225C86.6087 131.131 83.6397 132.988 83.7004 135.364C81.9221 131.932 81.6517 127.998 81.3844 124.104C81.3261 123.257 81.2681 122.411 81.1947 121.573C80.4094 112.614 77.7094 103.949 75.026 95.3651C74.6434 94.1411 76.2961 93.3474 77.5651 93.1611C85.8914 91.9404 94.3184 92.1091 102.749 92.2777C106.571 92.3541 110.393 92.4304 114.208 92.3777C120.985 92.2837 128.156 91.6421 133.653 87.6777C134.889 95.9151 133.21 104.226 131.551 112.432C131.327 113.542 131.103 114.65 130.887 115.756C129.072 125.036 127.836 134.928 131.309 143.724C131.455 144.094 130.956 144.374 130.566 144.455C127.71 145.051 124.757 145.179 121.86 144.834C120.617 144.685 119.387 144.451 118.157 144.216C117.231 144.04 116.305 143.863 115.373 143.723C108.355 142.67 101.03 143.763 94.6261 146.819C94.3694 146.941 94.0641 146.884 93.7951 146.791C92.4981 146.342 91.5727 145.144 91.1111 143.851C90.6494 142.558 90.5834 141.163 90.5217 139.792L90.2634 134.041C90.2541 133.834 90.3084 133.554 90.5151 133.547C101.734 133.197 112.94 132.441 124.105 131.28C123.633 128.639 123.586 125.922 123.967 123.266C124.207 121.589 122.63 120.06 120.951 119.836C119.272 119.611 117.612 120.372 116.217 121.334C115.696 121.694 115.195 122.085 114.695 122.476C113.857 123.13 113.021 123.783 112.089 124.289C111.479 124.62 110.746 124.887 110.106 124.62C109.322 124.292 109.06 123.36 108.825 122.528C108.81 122.476 108.796 122.424 108.781 122.373C108.475 121.301 107.971 120.234 107.083 119.56C106.196 118.886 104.857 118.719 103.981 119.407C103.232 119.996 102.995 121.016 102.87 121.961C102.859 122.045 102.848 122.129 102.837 122.214C102.726 123.082 102.611 123.98 102.093 124.676C101.524 125.44 100.254 125.768 99.6307 125.048C98.3967 123.624 96.2317 123.325 94.4151 123.825C92.5984 124.325 91.0437 125.479 89.5364 126.61C88.6271 125.187 88.5521 123.271 89.3467 121.781L89.3601 121.756C89.5097 121.476 89.6814 121.155 89.5491 120.87C89.4674 120.694 89.2867 120.585 89.1081 120.509C88.0391 120.05 86.6734 120.442 86.0097 121.397ZM118.133 145.446C118.731 145.566 119.466 145.832 119.503 146.441C119.855 152.242 124.466 157.456 130.135 158.74C135.804 160.025 142.087 157.428 145.392 152.647C148.698 147.865 148.957 141.223 146.246 136.081C143.339 130.567 136.275 127.638 130.319 129.478C130.043 128.26 130.074 126.973 130.409 125.769C130.471 125.545 130.552 125.312 130.733 125.166C130.909 125.023 131.147 124.991 131.372 124.964L148.15 122.943C149.625 122.765 151.104 122.587 152.589 122.575C158.978 122.523 165.361 121.885 171.634 120.675C172.609 133.763 173.068 146.89 173.009 160.015C173.006 160.638 172.817 161.465 172.194 161.483C161.635 161.791 151.16 163.18 140.68 164.569C133.639 165.503 126.596 166.436 119.525 167.043C117.949 167.178 116.362 167.297 114.787 167.146C114.502 167.119 114.18 167.061 114.025 166.82C113.931 166.674 113.921 166.492 113.913 166.32L112.971 145.327C112.959 145.056 112.976 144.729 113.21 144.593C113.366 144.502 113.561 144.535 113.737 144.57L118.133 145.446ZM89.2454 140.586C89.0784 141.677 88.8907 142.903 89.6051 143.728C92.2694 146.805 95.0374 150.093 95.7454 154.101C96.0761 155.973 95.9341 157.899 95.7927 159.817C95.6144 162.234 95.4371 164.638 96.2067 166.905C96.2267 166.964 96.2474 167.024 96.2684 167.083C96.4097 167.487 96.5537 167.899 96.5081 168.321C96.4554 168.805 96.0354 169.292 95.5557 169.209L89.9857 168.249C88.1411 167.93 86.1924 167.621 84.4404 168.279C84.1014 168.407 83.7117 168.183 83.5301 167.87C83.3484 167.557 83.3247 167.18 83.3091 166.819C83.2901 166.382 83.2757 165.943 83.2614 165.502C83.1714 162.729 83.0797 159.904 81.7964 157.475L77.7014 149.723C77.0967 148.579 76.4781 147.383 76.4364 146.09C76.4087 145.226 76.6417 144.377 76.8731 143.545L78.9157 136.186C79.3461 134.637 79.801 133.038 80.8194 131.794C83.2937 135.992 83.5381 141.423 81.4504 145.826C81.2571 146.233 81.847 146.653 82.2677 146.49C82.6881 146.328 82.9017 145.867 83.0501 145.442C83.6437 143.736 83.8521 141.939 84.0607 140.139C84.2294 138.682 84.3981 137.224 84.7717 135.812C85.0004 134.946 85.3307 134.063 85.9987 133.468C86.6667 132.872 87.7564 132.668 88.4564 133.226C88.9924 133.653 89.1664 134.382 89.2684 135.059C89.5374 136.846 89.5361 138.673 89.2647 140.46C89.2584 140.502 89.2517 140.544 89.2454 140.586ZM98.8561 126.059C99.6771 126.687 100.481 127.303 101.466 127.189C102.718 127.044 103.499 125.755 103.862 124.548C103.942 124.284 104.013 124.014 104.084 123.743C104.337 122.776 104.592 121.801 105.256 121.074C105.448 120.862 105.726 120.665 106 120.748C106.222 120.815 106.351 121.04 106.454 121.248C106.6 121.542 106.738 121.841 106.876 122.14C107.266 122.985 107.656 123.829 108.222 124.562C108.989 125.556 110.181 126.337 111.429 126.201C112.544 126.078 113.416 125.289 114.265 124.519C114.439 124.361 114.612 124.204 114.787 124.054C116.833 122.289 119.497 121.257 122.198 121.183C121.834 122.093 122.077 123.086 122.315 124.061C122.372 124.295 122.429 124.529 122.478 124.76C122.859 126.582 122.666 128.521 121.934 130.233L103.896 131.621C99.6847 131.946 95.4631 132.27 91.2424 132.122C90.9757 132.112 90.7024 132.099 90.4571 131.994C89.9937 131.796 89.7184 131.302 89.6187 130.808C89.3954 129.7 89.9061 128.547 90.6794 127.723C91.4527 126.899 92.4627 126.345 93.4547 125.804C94.4871 125.241 95.6331 124.659 96.7841 124.899C97.5501 125.059 98.2084 125.563 98.8561 126.059ZM133.013 152.335C130.28 152.278 127.913 150.049 127.101 147.439C126.936 146.906 127.28 146.321 127.756 146.029C128.231 145.736 128.806 145.667 129.36 145.605L133.364 145.155C132.147 142.788 131.279 140.242 130.799 137.624C130.756 137.386 130.716 137.137 130.791 136.907C130.923 136.504 131.357 136.292 131.759 136.157C135.012 135.064 138.918 136.391 140.831 139.241C142.744 142.09 142.494 146.209 140.248 148.804C139.276 149.928 138.003 150.757 136.661 151.396C135.516 151.94 134.28 152.361 133.013 152.335ZM145.98 138.267C146.467 139.873 146.607 141.562 146.674 143.238C145.582 143.073 144.479 142.979 143.375 142.958C143.159 140.138 141.283 137.591 138.815 136.209C136.348 134.827 133.37 134.528 130.583 135.001C130.559 134.604 130.487 134.189 130.414 133.774C130.223 132.68 130.032 131.586 130.739 130.809C131.167 130.339 131.818 130.152 132.442 130.035C135.284 129.506 138.315 130.061 140.785 131.563C143.256 133.065 145.143 135.5 145.98 138.267ZM125.939 147.154C125.934 147.206 125.93 147.258 125.928 147.306C125.909 147.696 126.091 148.053 126.27 148.407C126.319 148.502 126.367 148.597 126.411 148.691C126.619 149.14 126.72 149.731 126.372 150.083C125.529 150.933 124.785 151.88 124.158 152.899C124.003 153.152 123.621 153.172 123.366 153.022C123.111 152.872 122.953 152.603 122.806 152.347C121.874 150.722 120.919 149.022 120.803 147.152C120.788 146.92 120.814 146.638 121.02 146.53C121.111 146.482 121.218 146.481 121.32 146.481L125.489 146.468C125.588 146.468 125.693 146.469 125.78 146.518C125.984 146.634 125.961 146.904 125.939 147.154Z" fill="#00160A"/>
</svg>
