<svg width="250" height="256" viewBox="0 0 250 256" fill="none" xmlns="http://www.w3.org/2000/svg">
<path fill-rule="evenodd" clip-rule="evenodd" d="M68.4345 222.022C94.5709 208.109 123.106 198.692 151.282 189.711C153.003 188.895 150.158 187.166 149.071 187.897C127.576 193.635 106.948 202.05 85.4897 207.843C77.953 209.963 70.5611 212.686 63.1713 215.219C61.8705 216.094 67.4163 221.523 68.4345 222.022ZM140.207 204.843C136.61 201.284 154.051 196.455 156.695 195.158C159.413 194.744 153.237 189.84 152.644 192.121C147.042 196.342 139.164 197.297 132.704 200.162C116.026 205.632 99.9116 212.703 83.2817 218.313C79.9164 219.402 76.6263 220.649 73.4041 222.069C69.2268 223.91 69.7994 223.384 72.7008 226.29C73.43 227.02 74.07 227.095 74.9883 226.663C78.2297 225.817 100.646 213.384 100.567 218.466C95.7901 223.67 84.578 225.266 77.9416 228.74C74.4276 229.696 76.66 231.88 78.4997 233.382C81.1159 235.074 82.9929 238.146 86.0822 235.531C94.4807 231.702 103.529 229.777 112.056 226.278C129.551 220.058 147.244 214.34 164.243 206.802C173.249 203.674 163.873 202.831 159.817 196.929C154.086 199.663 146.834 202.721 140.207 204.843ZM83.9454 242.838C81.109 243.273 73.5406 238.436 71.9092 236.124C70.7291 234.442 69.6895 232.621 67.6422 231.765C64.2157 227.704 60.4961 223.963 57.6087 219.397C56.7355 217.681 54.3504 216.251 54.751 214.181C55.2156 212.749 55.1511 210.87 56.9533 210.417C86.8937 200.892 116.956 191.925 146.807 182.047C156.123 179.686 162.025 193.42 169.216 197.709C176.867 203.562 181.285 207.031 169.094 210.811C141.581 223.421 112.575 233.572 83.9454 242.838Z" fill="#BA89E6"/>
<path fill-rule="evenodd" clip-rule="evenodd" d="M121.151 167.673C119.377 164.2 112.5 134.69 108.883 137.346C86.9924 142.604 65.5153 148.895 44.5799 157.161C38.5996 157.638 48.1032 165.703 49.4788 167.643C52.0052 170.14 52.8872 173.553 54.1893 176.725C55.5952 180.561 58.2845 183.668 59.7049 187.482C60.1596 188.799 60.5995 188.925 61.8626 188.392C70.5387 184.494 80.0098 183.167 89.04 180.434C99.6873 176.262 110.893 172.171 121.151 167.673ZM35.2089 154.516C34.8385 150.776 36.3233 152.521 38.5856 151.605C48.4997 150.136 57.379 145.15 66.8977 142.155C80.0734 137.495 93.8238 134.98 107.327 131.524C118.122 128.554 118.098 139.395 121.712 146.329C124.387 152.22 125.822 158.544 127.913 164.648C128.777 167.065 129.245 169.929 126.386 171.125C110.07 177.334 94.4887 185.668 77.3037 189.365C71.3735 189.77 61.5494 197.3 56.8232 194.011C52.8327 189.087 49.3022 183.417 47.0622 177.454C46.053 174.35 44.1162 171.812 42.135 169.32C39.0706 165.146 35.4035 159.55 35.2089 154.516Z" fill="#FFCCFF"/>
<path fill-rule="evenodd" clip-rule="evenodd" d="M70.8232 95.6221C65.7596 96.5096 60.4324 98.4549 61.0213 104.258C61.7344 106.065 69.5959 96.8236 70.8232 95.6221ZM73.8807 96.4947C69.57 99.2219 66.5721 103.935 62.7578 107.399C62.382 107.704 61.9743 108.185 62.1822 108.673C64.6873 112.603 67.5419 106.219 69.7551 104.873C71.7012 103.053 73.7338 101.326 75.7242 99.5536C77.228 98.4269 74.4972 97.3212 73.8807 96.4947ZM78.2357 103.944C78.1019 102.982 78.2652 99.7776 76.6383 101.277C73.5013 104.731 69.7103 107.692 67.0804 111.553C72.2306 115.22 78.0903 109.195 78.2357 103.944ZM82.4183 105.266C81.6952 109.993 75.3037 117.666 69.6517 116.565C67.1651 115.972 64.4189 115.349 62.035 114.605C60.9485 112.52 58.2317 111.42 57.438 109.209C51.3865 88.8965 81.6791 82.5706 82.4183 105.266Z" fill="#9A6CC6"/>
<path fill-rule="evenodd" clip-rule="evenodd" d="M9.89113 175.391C6.31465 175.961 -1.33685 172.634 3.83661 169.133C8.62043 168.599 13.6041 167.35 18.372 168.628C19.5452 168.965 19.407 170.261 18.9123 171.144C18.671 175.671 13.0175 174.595 9.89113 175.391Z" fill="#FFCCFF"/>
<path fill-rule="evenodd" clip-rule="evenodd" d="M23.7915 195.092C26.5524 194.59 30.6552 197.355 28.5189 199.398C24.3952 200.525 14.4078 211.918 14.0386 201.969C16.3192 198.777 19.7355 195.459 23.7915 195.092Z" fill="#FFCCFF"/>
<path fill-rule="evenodd" clip-rule="evenodd" d="M29.541 230.593C30.3647 226.927 32.7848 223.541 35.4021 220.865C38.2029 217.537 42.6296 219.903 39.8488 223.81C37.3712 226.611 32.2984 239.791 29.541 230.593Z" fill="#FFCCFF"/>
<path fill-rule="evenodd" clip-rule="evenodd" d="M7.68696 139.789C5.03355 140.434 -1.83204 137.954 0.461391 134.735C6.22713 130.36 23.737 139.782 7.68696 139.789Z" fill="#FFCCFF"/>
<path fill-rule="evenodd" clip-rule="evenodd" d="M21.5991 117.288C23.6458 109.377 29.1887 119.468 31.269 122.372C33.1254 124.154 31.2864 125.604 29.3726 125.57C25.6981 124.381 21.6971 121.478 21.5991 117.288Z" fill="#FFCCFF"/>
<path fill-rule="evenodd" clip-rule="evenodd" d="M61.6987 249.733C61.6197 247.782 61.9049 243.435 64.649 243.958C65.6601 244.182 66.7597 244.324 66.8221 245.704C66.6866 248.504 66.2011 251.294 65.9408 254.089C63.5705 259.193 61.2006 252.346 61.6987 249.733Z" fill="#FFCCFF"/>
<path fill-rule="evenodd" clip-rule="evenodd" d="M183.167 207.089C172.029 199.782 161.143 190.566 150.071 183.779C122.461 192.902 95.0056 202.671 66.7415 209.671C64.2162 210.681 56.3143 211.229 55.9688 213.731C65.246 222.598 74.0973 231.902 83.1372 241.016C84.3569 242.508 85.6468 243.419 87.4958 242.286C97.4984 238.56 107.539 234.938 117.585 231.33C139.212 222.873 162.161 216.446 183.167 207.089ZM148.651 179.824C147.737 173.388 143.771 167.617 140.977 161.825C134.436 148.993 130.094 135.207 123.829 122.251C119.91 110.596 121.214 114.82 109.994 116.532C95.5977 120.384 81.3321 124.762 67.2678 129.697C58.7677 132.796 50.0999 135.421 41.5025 138.236C39.3201 139.165 36.4332 139.48 34.6739 141.033C34.3683 141.877 33.6771 142.209 33.0475 142.615C29.9324 144.623 26.7683 146.556 23.6261 148.52C22.4788 149.442 24.2305 150.905 24.4732 151.955C33.0399 170.78 38.8311 190.796 50.0678 208.356C50.663 209.199 51.437 210.92 52.6978 210.216C55.0318 208.918 57.4334 207.701 60.0363 207.038C75.4973 203.532 90.5858 198.683 105.732 194.098C117.845 190.713 129.914 187.164 141.73 182.844C143.68 181.69 147.972 182.101 148.651 179.824ZM24.2077 144.964C16.4401 144.211 35.0474 137.36 36.437 136.162C57.9398 127.945 79.8044 119.502 102.333 114.136C126.037 109.268 121.988 105.653 130.189 125.932C135.281 136.683 138.309 148.291 143.853 158.866C146.83 165.238 150.799 171.284 152.441 178.182C152.677 179.414 154.176 178.855 154.839 179.768C159.139 183.221 163.998 185.713 168.359 189.074C171.442 192.332 200.704 207.691 187.305 209.454C152.467 221.064 118.383 236.49 83.1868 246.284C76.2358 244.66 73.5309 236.442 68.0482 232.446C62.2407 227.188 57.6398 220.591 51.1724 216.108C41.7476 206.25 36.8352 191.511 30.089 179.651C26.149 176.124 25.4594 170.988 23.2666 166.516C19.1438 160.431 16.7014 153.378 18.5774 146.06C18.7362 145.348 20.1146 145.393 20.5422 145.625C22.0718 146.646 22.7082 145.506 24.2077 144.964Z" fill="#40196B"/>
<path fill-rule="evenodd" clip-rule="evenodd" d="M37.0635 249.754C37.3534 246.522 42.4213 232.82 46.583 235.719C48.506 238.978 42.5521 247.268 41.5023 251.104C39.6803 255.594 37.7803 252.803 37.0635 249.754Z" fill="#40196B"/>
<path fill-rule="evenodd" clip-rule="evenodd" d="M172.487 164.385C169.924 164.353 154.052 162.363 160.26 158.297C165.944 157.797 172.098 158.766 177.512 160.508C180.747 163.26 174.611 164.633 172.487 164.385Z" fill="#40196B"/>
<path fill-rule="evenodd" clip-rule="evenodd" d="M157.881 146.027C146.931 145.692 174.803 135.234 175.437 137.887C179.962 143.019 160.913 144.793 157.881 146.027Z" fill="#40196B"/>
<path fill-rule="evenodd" clip-rule="evenodd" d="M4.0619 194.774C-4.23125 193.597 16.8297 182.375 18.6326 185.588C19.4283 188.927 7.04348 193.805 4.0619 194.774Z" fill="#40196B"/>
<path fill-rule="evenodd" clip-rule="evenodd" d="M15.5411 225.721C14.9545 222.878 27.0771 209.743 28.2434 216.036C26.8424 217.8 16.6545 231.258 15.5411 225.721Z" fill="#40196B"/>
<path fill-rule="evenodd" clip-rule="evenodd" d="M184.135 183.084C181.678 182.035 174.703 182.322 173.779 179.644C174.416 175.637 188.912 180.851 184.135 183.084Z" fill="#40196B"/>
<path fill-rule="evenodd" clip-rule="evenodd" d="M125.4 170.902C125.239 168.245 127.579 171.351 128.65 170.31C126.684 162.219 121.197 154.244 117.658 146.386C115.55 142.047 113.386 137.727 112.038 133.062C111.756 130.993 109.823 131.929 108.414 132.042C89.6067 136.596 71.4218 143.414 52.5801 147.888C47.605 149.352 42.7355 151.193 37.7898 152.761C35.789 153.91 39.4533 155.862 39.7254 157.262C44.281 166.838 48.3304 176.538 54.5389 185.136C56.7362 187.385 59.9181 196.646 63.4844 194.206C83.7572 185.969 106.175 180.729 125.4 170.902ZM61.1195 198.457C54.8984 198.01 52.2953 189.84 49.1023 185.34C41.8148 176.46 39.4765 164.956 34.0496 155.031C30.531 150.57 54.5524 144.281 57.9664 142.61C76.0217 137.958 93.3296 130.532 111.689 127.15C117.735 126.077 117.384 137.003 120.526 140.72C124.99 149.455 129.295 158.305 132.472 167.613C132.829 169.016 134.361 170.53 133.216 171.921C130.579 175.773 125.397 174.237 121.802 176.549C102.011 184.841 81.3895 191.977 61.1195 198.457Z" fill="#40196B"/>
<path fill-rule="evenodd" clip-rule="evenodd" d="M141.811 206.789C132.207 201.987 130.176 201.993 120.633 206.467C116.704 208.219 112.742 209.938 109.138 212.324C106.273 214.22 106.303 213.63 108.075 216.533C109.113 217.597 109.562 220.847 111.439 220.089C115.549 218.317 119.684 216.6 123.738 214.708C129.446 211.499 136.423 210.135 141.811 206.789ZM100.626 213.729C104.082 207.646 113.467 205.331 119.758 202.591C122.519 201.008 128.685 201.794 130.198 199.771C130.405 199.245 131.158 199.151 131.802 199.172C134.721 199.306 151.829 204.259 146.68 208.381C136.072 214.106 124.439 217.984 113.676 223.556C109.448 226.616 107.502 225.354 105.039 221.151C103.53 218.726 100.952 216.703 100.626 213.729Z" fill="#40196B"/>
<path fill-rule="evenodd" clip-rule="evenodd" d="M95.8217 151.465C94.2802 151.677 94.9714 152.802 95.685 153.686C99.1314 156.922 95.4951 164.061 97.5083 163.704C101.63 162.609 103.911 158.93 106.137 155.608C107.878 153.299 97.4951 151.89 95.8217 151.465ZM71.3452 169.694C71.3454 169.725 71.3454 169.756 71.3456 169.786C88.5643 168.979 79.3374 170.506 78.0143 161.063C77.6612 159.726 79.2553 154.288 77.4044 154.593C71.6745 157.232 69.0935 163.453 66.1166 168.616C65.6366 170.725 70.037 169.302 71.3452 169.694ZM72.534 173.955C55.8934 174.081 62.0044 170.758 67.1339 158.793C72.0919 150.01 82.6723 146.654 92.2435 147.125C98.0496 146.675 103.379 148.369 108.814 150.162C114.256 152.31 109.466 158.135 107.705 161.416C104.146 167.621 96.8496 168.836 90.7669 171.428C84.9774 173.893 78.7463 174.415 72.5337 174.118C72.534 174.064 72.534 174.009 72.534 173.955Z" fill="#40196B"/>
<path fill-rule="evenodd" clip-rule="evenodd" d="M200.81 136.442C201.206 127.915 200.973 119.38 200.959 110.852C201.731 105.064 210.681 106.775 214.882 104.957C218.686 104.164 222.543 103.857 226.404 103.512C230.822 103.189 235.238 101.041 239.637 102.562C247.349 106.631 242.21 119.295 244.883 126.557C245.734 135.93 246.793 145.133 248.733 154.364C249.051 159.761 252.433 184.541 246.629 185.597C235.433 190.442 222.919 190.322 211.239 193.684C208.135 194.147 203.682 192.813 203.559 189.262C204.519 186.488 200.424 178.383 203.453 178.502C232.131 174.282 223.661 142.696 200.81 136.442Z" fill="#7B4FA6"/>
<path fill-rule="evenodd" clip-rule="evenodd" d="M200.81 136.442C230.158 145.684 228.74 182.33 194.76 178.412C182.248 177.439 174.922 163.4 178.637 151.998C180.627 143.327 192.595 137.237 200.81 136.442Z" fill="#DDAAF4"/>
<path fill-rule="evenodd" clip-rule="evenodd" d="M199.23 109.791C198.642 122.16 191.226 117.943 184.88 123.228C183.519 124.56 181.72 122.455 180.024 123.429C174.917 124.571 169.009 123.403 165.859 118.933C163.182 106.611 182.355 98.968 191.485 94.9345C197.307 92.4517 198.388 106.024 199.23 109.791Z" fill="#5D3488"/>
<path fill-rule="evenodd" clip-rule="evenodd" d="M82.26 26.089C80.9884 26.1364 79.6864 25.8669 78.4683 26.5742C76.7793 26.8986 74.9341 25.8168 73.1833 26.5054C69.735 26.9233 61.1699 30.2072 61.2214 24.4526C62.0038 20.1351 63.8715 0.0325724 69.3197 1.04225C70.7554 1.39914 72.1127 -0.61405 73.6152 0.19227C77.5604 0.897979 78.7127 4.75944 80.4466 7.94035C81.0226 11.2503 85.7088 10.4991 85.0679 13.7346C83.6665 18.9714 93.5286 26.3927 82.26 26.089Z" fill="#FFCCFF"/>
<path fill-rule="evenodd" clip-rule="evenodd" d="M203.694 92.9765C203.549 96.9789 204.157 100.922 204.322 104.919C204.317 105.878 205.441 106.174 206.217 105.928C215.108 104.234 224.078 103.021 233.085 102.211C234.801 101.367 241.294 102.196 240.753 99.8449C238.578 91.6564 242.431 88.5038 232.384 91.0397C224.425 91.5836 216.17 94.0097 208.281 92.8491C206.758 92.3802 205.429 92.8495 203.694 92.9765ZM161.373 11.6536C151.709 11.2742 142.187 13.6279 132.903 16.068C131.357 16.4389 131.655 17.6434 132.236 18.7337C133.998 21.9469 134.713 25.513 134.95 29.1265C132.213 30.7797 130.115 16.7951 127.597 17.9592C116.924 20.6373 125.576 21.7718 125.365 28.3327C124.353 30.1411 120.566 23.0698 119.908 21.9989C116.925 19.3173 103.615 31.5257 101.084 34.1993C98.2085 37.8517 93.537 40.4126 92.7392 45.5008C91.7962 54.0693 100.738 51.7677 106.06 50.7113C112.709 49.686 118.613 46.8159 124.789 44.3462C128.241 43.8804 137.871 35.4233 139.329 40.8378C137.833 44.1426 133.854 44.2354 131.264 46.376C130.315 47.388 124.986 49.9256 126.731 51.202C130.049 52.4326 133.343 53.8137 135.949 56.2761C139.785 61.1138 133.467 57.5617 131.603 56.4937C125.905 54.2916 124.852 50.031 120.363 56.4998C120.073 57.8284 122.17 58.1111 122.994 58.7641C126.075 60.5817 129.821 62.0273 132.655 63.8035C131.19 65.404 128.2 64.0958 126.418 63.495C123.663 62.934 117.963 57.6296 116.096 60.3288C112.229 64.717 109.146 69.7614 106.192 74.8018C94.4605 103.22 128.256 82.6208 136.643 73.6402C142.794 68.9546 147.886 63.3771 152.549 57.2378C153.425 54.9997 157.882 54.5754 157.21 57.5957C156.605 58.7691 158.713 59.4529 157.585 60.5749C156.907 62.2964 152.628 65.1677 153.744 66.7407C155.83 68.555 161.164 70.1131 161.9 72.4946C158.501 74.6152 154.744 70.0168 151.59 68.8626C149.852 68.8597 149.258 71.5008 148.177 72.6414C147.77 74.4501 151.387 74.5692 152.494 75.5713C158.38 80.1081 149.752 76.7881 147.583 76.0815C144.473 74.255 138.983 90.7452 139.106 93.3998C138.548 96.2801 140.597 98.4494 142.675 100.081C147.833 102.489 152.409 95.6615 156.03 92.7836C165.178 85.6562 170.582 75.4491 178.173 66.9706C192.357 54.6364 197.652 70.083 202.747 81.4585C203.741 83.5693 203.572 85.9875 204.632 88.1241C207.081 91.4763 215.278 87.8083 219.19 88.1049C221.505 87.7905 234.015 88.7971 232.936 86.0397C228.302 75.4693 230.069 62.8026 225.43 52.0012C217.835 23.3629 188.757 11.7016 161.373 11.6536ZM245.399 155.439C243.292 156.003 239.478 157.046 238.945 154.029C238.695 151.689 238.135 147.527 241.66 147.876C244.045 147.893 245.756 149.042 245.164 145.628C245.57 132.496 242.089 119.843 240.896 106.89C241.321 102.425 235.647 105.505 233.159 105.473C223.854 106.013 214.813 108.181 205.554 109.072C203.343 109.918 205.094 118.2 204.568 120.68C204.57 121.16 204.788 121.521 205.355 121.421C209.091 121.165 212.192 126.846 208.828 129.285C204.19 132.662 204.659 130.22 205.231 136.551C206.015 139.562 204.839 149.583 207.22 150.688C209.291 150.922 212.902 152.051 211.745 154.81C210.913 156.875 210.012 159.299 207.274 159.042C204.282 159.528 207.743 177.976 207.979 181.332C209.87 181.138 212.934 179.813 213.486 182.488C213.751 184.352 214.813 187.634 212.141 187.904C210.062 188.205 206.516 187.192 205.772 185.153C204.286 176.068 203.333 166.906 203.109 157.7C202.156 140.554 199.571 123.624 199.698 106.42C199.206 100.334 199.409 94.0854 200.312 88.261C197.801 83.6461 193.078 70.1399 188.869 68.1464C176.881 67.2876 162.998 102.632 145.206 104.206C140.267 105.32 134.855 99.3796 134.762 94.7249C134.928 89.6907 136.026 84.8416 137.999 80.1954C138.119 79.8319 137.616 79.6138 137.356 79.8298C128.534 86.5803 117.864 94.1584 106.217 92.5335C91.8047 86.8515 104.696 70.1499 109.812 61.7846C111.836 58.5467 114.553 55.8786 117.078 53.0532C120.699 49.719 115.361 51.8705 113.786 52.3463C107.629 53.3158 100.971 56.5342 94.4925 54.5272C88.8974 52.0855 88.4871 44.3644 91.6706 39.774C94.3504 35.0652 98.6214 31.7035 102.485 28.0316C107.401 22.656 113.274 18.4172 120.108 15.8317C139.204 8.09592 160.272 4.57615 180.63 9.1635C209.968 12.4113 228.88 38.8794 232.634 66.5715C232.64 70.2071 233.166 73.7871 234.593 77.1873C235.857 80.1774 234.319 83.4395 234.682 86.5938C237.264 87.3275 241.741 85.2934 242.283 89.2731C244.813 97.7579 243.24 106.485 244.563 115.105C248.419 137.139 248.032 160.013 248.855 182.199C244.47 187.956 237.689 179.606 244.635 176.606C247.93 177.56 245.584 157.878 245.399 155.439Z" fill="#40196B"/>
<path fill-rule="evenodd" clip-rule="evenodd" d="M60.9848 55.7268C61.0382 55.5872 61.0914 55.4475 61.1448 55.3077C60.6685 55.1779 60.5193 55.5372 60.9848 55.7268ZM58.7856 52.8804C58.7313 52.7338 58.6772 52.5871 58.6228 52.4405C58.158 52.5214 58.2178 52.7093 58.3813 53.0544C58.516 52.9969 58.6506 52.9393 58.7856 52.8804ZM58.4133 43.2252C58.4088 43.1773 58.4043 43.1296 58.3995 43.0817C50.692 43.4506 54.8641 44.6129 58.3357 47.7715C59.9184 48.4888 63.699 55.0915 64.9111 52.6218C67.1124 47.3093 64.3724 42.6721 58.4133 43.2252ZM92.2603 19.2392C76.7907 19.681 51.1569 11.4052 42.3225 28.6087C41.1835 32.6178 40.8726 37.912 44.9377 40.3155C46.4663 40.9994 48.5355 42.8391 50.0501 41.2595C51.6611 39.8604 53.7991 38.6673 55.935 39.5066C59.022 40.3312 62.3395 39.7664 65.1662 41.587C71.9774 45.409 67.4731 53.4295 65.2053 58.5168C64.604 66.8437 56.6668 74.1203 48.2142 71.7295C45.8527 68.7987 58.8831 71.8786 61.5636 62.6206C61.8275 61.5983 63.5336 58.3863 61.3356 58.7019C55.8273 59.8988 47.1822 59.1008 46.514 52.1232C46.2342 50.1672 46.1367 48.187 46.7314 46.2291C47.8421 44.2563 40.0252 42.8244 38.9252 37.1491C33.6793 22.0245 51.0828 12.7212 64.0737 13.6647C80.4813 13.8453 96.9629 17.0364 113.244 14.6167C108.115 20.0806 99.483 18.2504 92.2603 19.2392Z" fill="#40196B"/>
<path fill-rule="evenodd" clip-rule="evenodd" d="M223.129 134.903C227.413 134.798 226.592 140.961 224.528 143.116C218.698 145.807 215.449 134.36 223.129 134.903Z" fill="#40196B"/>
<path fill-rule="evenodd" clip-rule="evenodd" d="M230.138 167.063C230.006 172.564 221.14 171.22 222.435 166.225C223.206 164.72 223.466 161.995 225.726 162.297C228.289 162.747 230.369 163.995 230.138 167.063Z" fill="#40196B"/>
<path fill-rule="evenodd" clip-rule="evenodd" d="M220.121 117.054C218.199 116.654 215.51 115.686 216.762 113.004C217.711 110.734 219.477 107.33 222.393 109.311C225.963 111.435 224.884 117.4 220.121 117.054Z" fill="#40196B"/>
<path fill-rule="evenodd" clip-rule="evenodd" d="M241.663 124.037C242.071 128.683 234.3 127.395 233.376 124.239C232.172 118.514 242.282 118.598 241.663 124.037Z" fill="#40196B"/>
</svg>
